<svg width="151" height="30" viewBox="0 0 151 30" fill="none" xmlns="http://www.w3.org/2000/svg">
<g clip-path="url(#clip0_2_341)">
<path d="M12.7502 25.945H40.4465V16.0841H25.4691V9.95162H40.4465V0.0861816H12.7502L0 13.0133L12.7502 25.945ZM19.3556 9.94708H21.7661V12.3919H19.3556V9.94708ZM19.3556 13.6392H21.7661V16.0841H19.3556V13.6392ZM15.7153 9.94708H18.1258V12.3919H15.7153V9.94708ZM15.7153 13.6392H18.1258V16.0841H15.7153V13.6392Z" fill="#07243C"/>
<path d="M46.314 6.27306C46.314 2.76232 48.9884 0 52.4857 0C53.4472 0 54.3416 0.222256 55.1287 0.639552V3.59238C54.4668 3.03447 53.6171 2.71243 52.6422 2.71243C50.6252 2.71243 49.1494 4.2274 49.1494 6.27306C49.1494 8.31872 50.6297 9.83369 52.6422 9.83369C53.6171 9.83369 54.4668 9.51618 55.1287 8.95373V11.9066C54.3416 12.3239 53.4427 12.5461 52.4857 12.5461C48.9929 12.5461 46.314 9.78379 46.314 6.27306Z" fill="#07243C"/>
<path d="M64.4085 4.30904V12.2921H61.998V11.6072C61.3988 12.1969 60.5982 12.5507 59.6993 12.5507C57.4498 12.5507 55.7146 10.6819 55.7146 8.30511C55.7146 5.92833 57.4453 4.05957 59.6993 4.05957C60.5982 4.05957 61.3988 4.40883 61.998 5.00302V4.31811H64.4085V4.30904ZM61.8415 8.30057C61.8415 7.24826 61.117 6.48171 60.1421 6.48171C59.1671 6.48171 58.4426 7.24826 58.4426 8.30057C58.4426 9.35289 59.1671 10.1194 60.1421 10.1194C61.117 10.1194 61.8415 9.35289 61.8415 8.30057Z" fill="#07243C"/>
<path d="M74.5202 8.30047C74.5202 10.6818 72.7894 12.546 70.5354 12.546C69.7483 12.546 69.0238 12.2739 68.4559 11.8112V16.347H65.8128V4.30894H68.2233V5.01199C68.8226 4.40419 69.6231 4.05493 70.5354 4.05493C72.7849 4.05493 74.5202 5.92369 74.5202 8.30047ZM71.7966 8.30047C71.7966 7.24816 71.0721 6.4816 70.0972 6.4816C69.1222 6.4816 68.3977 7.24816 68.3977 8.30047C68.3977 9.35278 69.1222 10.1193 70.0972 10.1193C71.0721 10.1193 71.7966 9.35278 71.7966 8.30047Z" fill="#07243C"/>
<path d="M75.2715 1.72371C75.2715 0.893651 75.9468 0.20874 76.7652 0.20874C77.5836 0.20874 78.2589 0.893651 78.2589 1.72371C78.2589 2.55377 77.5836 3.23868 76.7652 3.23868C75.9468 3.23868 75.2715 2.55377 75.2715 1.72371ZM78.089 4.30913V12.2922H75.4459V4.30913H78.089Z" fill="#07243C"/>
<path d="M78.8313 6.46816V4.31364H80.325V1.59668H82.9681V4.30911H84.7301V6.46363H82.9681V12.2922H80.325V6.46363H78.8313V6.46816Z" fill="#07243C"/>
<path d="M84.9359 8.30047C84.9359 5.91916 86.841 4.05493 89.3588 4.05493C91.8767 4.05493 93.7818 5.92369 93.7818 8.30047C93.7818 10.6772 91.8767 12.546 89.3588 12.546C86.841 12.546 84.9359 10.6772 84.9359 8.30047ZM91.0583 8.30047C91.0583 7.26177 90.3517 6.4816 89.3588 6.4816C88.366 6.4816 87.6594 7.26177 87.6594 8.30047C87.6594 9.33918 88.366 10.1193 89.3588 10.1193C90.3517 10.1193 91.0583 9.33464 91.0583 8.30047Z" fill="#07243C"/>
<path d="M97.373 0.0861816V12.2966H94.73V0.0861816H97.373Z" fill="#07243C"/>
<path d="M49.6682 14.1155V25.9404H46.9133V14.1155H49.6682Z" fill="#07243C"/>
<path d="M51.2513 17.9619H53.6619V18.5833C54.1493 18.0254 54.8917 17.7034 55.7727 17.7034C56.7656 17.7034 57.6153 18.1025 58.1832 18.7874C58.7959 18.1025 59.6948 17.7034 60.7816 17.7034C61.6805 17.7034 62.4497 18.0209 63.0177 18.5969C63.5856 19.173 63.9166 19.9713 63.9166 21.264V25.9404H61.2735V21.5815C61.2735 20.942 61.1483 20.6381 60.9426 20.4339C60.7234 20.2117 60.4372 20.0983 60.0929 20.0983C59.7485 20.0983 59.4623 20.2117 59.2431 20.4339C59.0374 20.6426 58.9122 20.9465 58.9122 21.5815V25.9404H56.2691V21.5815C56.2691 20.942 56.1439 20.6381 55.9382 20.4339C55.7191 20.2117 55.4328 20.0983 55.0885 20.0983C54.7441 20.0983 54.4579 20.2117 54.2388 20.4339C54.033 20.6426 53.9078 20.9465 53.9078 21.5815V25.9404H51.2648V17.9574L51.2513 17.9619Z" fill="#07243C"/>
<path d="M73.979 21.9535C73.979 24.3349 72.2483 26.1991 69.9943 26.1991C69.2072 26.1991 68.4827 25.9269 67.9147 25.4643V30.0001H65.2717V17.962H67.6822V18.6651C68.2815 18.0573 69.082 17.708 69.9943 17.708C72.2438 17.708 73.979 19.5768 73.979 21.9535ZM71.2555 21.9535C71.2555 20.9012 70.531 20.1347 69.556 20.1347C68.5811 20.1347 67.8566 20.9012 67.8566 21.9535C67.8566 23.0059 68.5811 23.7724 69.556 23.7724C70.531 23.7724 71.2555 23.0059 71.2555 21.9535Z" fill="#07243C"/>
<path d="M80.3653 17.9437V20.4021C80.1282 20.3205 79.8599 20.2887 79.5603 20.2887C78.9789 20.2887 78.4735 20.4974 78.1292 20.8466C77.7848 21.1959 77.5791 21.7084 77.5791 22.5884V25.9404H74.936V17.9573H77.3465V18.9144C77.8832 18.2431 78.6524 17.8621 79.5334 17.8621C79.8152 17.8621 80.1014 17.8938 80.3698 17.9437H80.3653Z" fill="#07243C"/>
<path d="M80.6292 21.9535C80.6292 19.5722 82.5343 17.708 85.0521 17.708C87.57 17.708 89.4752 19.5768 89.4752 21.9535C89.4752 24.3303 87.57 26.1991 85.0521 26.1991C82.5343 26.1991 80.6292 24.3303 80.6292 21.9535ZM86.7516 21.9535C86.7516 20.9148 86.045 20.1347 85.0521 20.1347C84.0593 20.1347 83.3527 20.9148 83.3527 21.9535C83.3527 22.9923 84.0593 23.7724 85.0521 23.7724C86.045 23.7724 86.7516 22.9877 86.7516 21.9535Z" fill="#07243C"/>
<path d="M91.9035 17.9619L93.7908 22.2573H93.8221L95.7273 17.9619H98.5L94.8015 25.945H92.722L89.0369 17.9619H91.9035Z" fill="#07243C"/>
<path d="M106.228 22.6384H100.732C100.843 23.4231 101.519 23.9628 102.4 23.9628C103.106 23.9628 103.692 23.5954 103.961 23.0511L106.009 24.1034C105.302 25.3508 103.961 26.1944 102.324 26.1944C99.8506 26.1944 98.0886 24.4073 98.0886 21.9489C98.0886 19.4905 99.7746 17.7034 102.181 17.7034C104.587 17.7034 106.273 19.4905 106.273 21.9489C106.273 22.1893 106.255 22.4116 106.223 22.6338L106.228 22.6384ZM100.732 20.9465H103.63C103.518 20.2752 102.936 19.7808 102.181 19.7808C101.425 19.7808 100.843 20.2752 100.732 20.9465Z" fill="#07243C"/>
<path d="M107.243 17.9619H109.654V18.5833C110.141 18.0254 110.884 17.7034 111.765 17.7034C112.757 17.7034 113.607 18.1025 114.175 18.7874C114.788 18.1025 115.687 17.7034 116.773 17.7034C117.672 17.7034 118.442 18.0209 119.009 18.5969C119.577 19.173 119.908 19.9713 119.908 21.264V25.9404H117.265V21.5815C117.265 20.942 117.14 20.6381 116.934 20.4339C116.715 20.2117 116.429 20.0983 116.085 20.0983C115.74 20.0983 115.454 20.2117 115.235 20.4339C115.029 20.6426 114.904 20.9465 114.904 21.5815V25.9404H112.261V21.5815C112.261 20.942 112.136 20.6381 111.93 20.4339C111.711 20.2117 111.425 20.0983 111.08 20.0983C110.736 20.0983 110.45 20.2117 110.231 20.4339C110.025 20.6426 109.9 20.9465 109.9 21.5815V25.9404H107.257V17.9574L107.243 17.9619Z" fill="#07243C"/>
<path d="M128.951 22.6384H123.455C123.567 23.4231 124.242 23.9628 125.123 23.9628C125.83 23.9628 126.415 23.5954 126.684 23.0511L128.732 24.1034C128.025 25.3508 126.684 26.1944 125.047 26.1944C122.574 26.1944 120.812 24.4073 120.812 21.9489C120.812 19.4905 122.498 17.7034 124.904 17.7034C127.31 17.7034 128.996 19.4905 128.996 21.9489C128.996 22.1893 128.978 22.4116 128.947 22.6338L128.951 22.6384ZM123.455 20.9465H126.353C126.241 20.2752 125.66 19.7808 124.904 19.7808C124.148 19.7808 123.567 20.2752 123.455 20.9465Z" fill="#07243C"/>
<path d="M132.377 17.9619V18.6333C132.882 18.0753 133.638 17.7215 134.582 17.7079C135.494 17.6898 136.312 18.0436 136.894 18.6333C137.462 19.2093 137.806 20.0394 137.806 21.3638V25.945H135.163V21.6995C135.163 21.0146 135.038 20.6925 134.801 20.4521C134.582 20.2299 134.264 20.1029 133.888 20.1029C133.513 20.1029 133.195 20.2299 132.976 20.4521C132.739 20.6925 132.614 21.01 132.614 21.6995V25.945H129.971V17.9619H132.381H132.377Z" fill="#07243C"/>
<path d="M138.396 20.1165V17.9619H139.89V15.2495H142.533V17.9619H144.295V20.1165H142.533V25.945H139.89V20.1165H138.396Z" fill="#07243C"/>
<path d="M144.796 25.3824L144.483 25.1738L145.726 23.3232C146.42 23.8357 146.938 24.0398 147.551 24.0398C147.962 24.0398 148.289 23.9128 148.289 23.5908C148.289 23.305 147.945 23.1735 147.046 22.9694C145.615 22.6337 144.747 21.8037 144.747 20.3976C144.747 18.7692 146.196 17.6987 147.945 17.6987C148.857 17.6987 149.707 18.0026 150.418 18.4789L150.699 18.6694L149.55 20.3794L149.362 20.2343C149.049 19.9939 148.589 19.8034 148.15 19.8034C147.757 19.8034 147.426 19.9485 147.426 20.2343C147.426 20.5064 147.663 20.6017 148.526 20.8103C149.944 21.146 150.968 22.0078 150.968 23.4139C150.968 25.0241 149.581 26.1898 147.632 26.1898C146.5 26.1898 145.601 25.8859 144.796 25.3734V25.3824Z" fill="#07243C"/>
</g>
<defs>
<clipPath id="clip0_2_341">
<rect width="150.968" height="30" fill="white"/>
</clipPath>
</defs>
</svg>
