<svg width="122" height="124" viewBox="0 0 122 124" fill="none" xmlns="http://www.w3.org/2000/svg">
<g id="Layer_1" clip-path="url(#clip0_1_905)">
<path id="Vector" d="M33.3475 108.775C34.1341 110.229 34.5751 111.897 34.5751 113.66C34.5751 119.366 29.9388 124 24.23 124C18.5211 124 13.8849 119.366 13.8849 113.66C13.8849 107.954 18.5211 103.319 24.23 103.319C26.5421 103.319 28.6874 104.082 30.4156 105.38L29.6766 106.226C28.1511 105.106 26.268 104.439 24.23 104.439C19.1408 104.439 15.0052 108.573 15.0052 113.66C15.0052 118.746 19.1408 122.88 24.23 122.88C29.3191 122.88 33.4548 118.746 33.4548 113.66C33.4548 112.314 33.1687 111.039 32.6443 109.883" fill="#00192E"/>
<path id="Vector_2" d="M29.3668 108.335L23.9082 114.875L20.726 110.932C20.0347 109.848 17.52 111.885 17.9848 112.993L22.1443 118.77C23.2527 120.367 24.7544 119.997 25.6244 118.627C25.6244 118.627 35.1114 104.308 34.7181 104.01C33.7646 103.284 32.5847 104.678 29.3787 108.335" fill="#00192E"/>
<path id="Vector_3" d="M43.633 109.633C43.2635 109.764 42.5484 109.979 41.7022 109.979C40.7488 109.979 39.9741 109.74 39.3543 109.145C38.818 108.621 38.4724 107.787 38.4724 106.81C38.4724 104.94 39.7715 103.57 41.8691 103.57C42.5961 103.57 43.1682 103.724 43.4304 103.855L43.2397 104.523C42.906 104.38 42.4888 104.249 41.8452 104.249C40.3197 104.249 39.3186 105.202 39.3186 106.774C39.3186 108.347 40.272 109.312 41.738 109.312C42.2743 109.312 42.6318 109.24 42.8225 109.145V107.274H41.5473V106.619H43.6092" fill="#00192E"/>
<path id="Vector_4" d="M52.5598 106.715C52.5598 108.871 51.2488 110.014 49.6398 110.014C48.0309 110.014 46.8152 108.728 46.8152 106.834C46.8152 104.844 48.0547 103.534 49.7352 103.534C51.4157 103.534 52.5598 104.844 52.5598 106.703M47.6852 106.81C47.6852 108.156 48.4122 109.347 49.6875 109.347C50.9628 109.347 51.7017 108.168 51.7017 106.738C51.7017 105.488 51.0462 104.189 49.6994 104.189C48.3527 104.189 47.6852 105.428 47.6852 106.81Z" fill="#00192E"/>
<path id="Vector_5" d="M55.9327 103.641H56.7432V109.228H59.4248V109.907H55.9327" fill="#00192E"/>
<path id="Vector_6" d="M62.6547 103.724C63.1433 103.653 63.7392 103.593 64.3828 103.593C65.5508 103.593 66.3732 103.867 66.9333 104.38C67.4935 104.892 67.8153 105.619 67.8153 106.631C67.8153 107.644 67.5054 108.49 66.9095 109.073C66.3255 109.657 65.3482 109.979 64.1325 109.979C63.5605 109.979 63.0718 109.955 62.6666 109.907M63.477 109.288C63.6796 109.323 63.9776 109.335 64.2994 109.335C66.0276 109.335 66.9691 108.37 66.9691 106.667C66.9691 105.19 66.1467 104.249 64.4305 104.249C64.0134 104.249 63.6916 104.284 63.477 104.332V109.288Z" fill="#00192E"/>
<path id="Vector_7" d="M38.5796 119.485C39.1994 119.807 40.2005 120.116 41.2255 120.116C42.1671 120.116 42.62 119.795 42.62 119.283C42.62 118.77 42.1671 118.508 41.011 118.115C39.2828 117.496 38.1387 116.555 38.1387 115.042C38.1387 113.243 39.6642 111.849 42.2386 111.849C43.4542 111.849 44.3243 112.075 44.9917 112.361L44.4196 114.553C43.9786 114.351 43.2278 114.065 42.2147 114.065C41.3804 114.065 40.9276 114.363 40.9276 114.815C40.9276 115.328 41.4758 115.53 42.7511 116.007C44.5865 116.686 45.3969 117.651 45.3969 119.08C45.3969 120.831 44.0382 122.332 41.0587 122.332C39.8311 122.332 38.6392 122.011 38.0552 121.713" fill="#00192E"/>
<path id="Vector_8" d="M54.4906 118.091H50.8317V119.973H54.9316V122.201H48.0905V112.016H54.717V114.255H50.8317V115.887H54.4906" fill="#00192E"/>
<path id="Vector_9" d="M57.6609 112.016H60.3902V119.926H64.3113V122.201H57.6609" fill="#00192E"/>
<path id="Vector_10" d="M73.2501 118.091H69.5911V119.973H73.691V122.201H66.8499V112.016H73.4765V114.255H69.5911V115.887H73.2501" fill="#00192E"/>
<path id="Vector_11" d="M84.0361 121.939C83.6547 122.13 82.6894 122.368 81.4737 122.368C77.6598 122.368 75.9793 119.997 75.9793 117.281C75.9793 113.695 78.6133 111.861 81.6525 111.861C82.8205 111.861 83.7739 112.087 84.1911 112.302L83.6547 114.47C83.2138 114.291 82.5821 114.1 81.7716 114.1C80.2103 114.1 78.8517 115.018 78.8517 117.091C78.8517 118.937 79.9601 120.081 81.8312 120.081C82.4748 120.081 83.2257 119.962 83.6428 119.795" fill="#00192E"/>
<path id="Vector_12" d="M88.8273 114.315H86.2291V112.016H94.2144V114.315H91.5685V122.201H88.8273" fill="#00192E"/>
<path id="Vector_13" d="M3.81387 92.4431L1.41828 99.2572H0L7.04373 79.7917H8.37859L15.3985 99.2572H13.9802L11.525 92.4431M11.096 91.2876L8.72422 84.7951C8.2594 83.4371 7.9972 82.4602 7.71116 81.3642H7.65157C7.36553 82.4959 7.04373 83.4966 6.63851 84.7355L4.24293 91.2876H11.084H11.096Z" fill="#00192E"/>
<path id="Vector_14" d="M20.1658 82.3291V85.3907H24.1227V86.5224H20.1658V95.5285C20.1658 97.2915 20.714 98.3875 22.1919 98.3875C22.9189 98.3875 23.4314 98.3041 23.7771 98.185L23.9439 99.2214C23.4791 99.3882 22.8474 99.543 22.0131 99.543C21.0001 99.543 20.1658 99.2214 19.6414 98.59C19.0097 97.8634 18.7714 96.684 18.7714 95.2664V86.5224H16.4354V85.3907H18.7714V82.8533" fill="#00192E"/>
<path id="Vector_15" d="M28.5682 78.7196H27.1857V99.2453H28.5682V78.7196Z" fill="#00192E"/>
<path id="Vector_16" d="M41.9406 95.9573C41.9406 97.0533 41.9644 98.185 42.1432 99.2452H40.8679L40.6653 97.2558H40.6057C39.9145 98.3279 38.377 99.5669 36.1602 99.5669C33.3594 99.5669 32.0841 97.6013 32.0841 95.7548C32.0841 92.5503 34.8849 90.6204 40.5462 90.668V90.2868C40.5462 88.9288 40.2839 86.1888 36.9945 86.2127C35.7788 86.2127 34.5036 86.5343 33.5024 87.2491L33.0734 86.2365C34.3486 85.4026 35.9099 85.0571 37.1494 85.0571C41.1659 85.0571 41.9406 88.0591 41.9406 90.5132M40.5581 91.8117C37.5308 91.7283 33.5382 92.181 33.5382 95.5046C33.5382 97.4941 34.873 98.3875 36.3151 98.3875C38.6273 98.3875 39.9502 96.9699 40.415 95.6118C40.5342 95.3259 40.5581 95.0043 40.5581 94.7779V91.7998V91.8117Z" fill="#00192E"/>
<path id="Vector_17" d="M45.8498 97.4345C46.6007 97.8991 47.721 98.3875 48.9724 98.3875C51.1654 98.3875 52.2142 97.2081 52.2142 95.7548C52.2142 94.2299 51.2846 93.4199 49.2942 92.6098C47.0178 91.7402 45.7664 90.5012 45.7664 88.8335C45.7664 86.8083 47.3515 85.0809 50.045 85.0809C51.3203 85.0809 52.4168 85.4621 53.1081 85.9506L52.5836 87.0704C52.095 86.7249 51.2011 86.2365 49.8067 86.2365C48.0428 86.2365 47.1251 87.3682 47.1251 88.6309C47.1251 90.0724 48.1024 90.6799 49.9855 91.4662C52.238 92.3596 53.5729 93.4913 53.5729 95.5999C53.5729 97.9705 51.7255 99.5549 48.889 99.5549C47.566 99.5549 46.2908 99.1856 45.3611 98.6019" fill="#00192E"/>
<path id="Vector_18" d="M56.767 80.0538C58.1257 79.8275 60.0326 79.6488 62.7142 79.6488C65.3959 79.6488 67.3624 80.173 68.6615 81.2094C69.901 82.1862 70.7353 83.8064 70.7353 85.7124C70.7353 87.6184 70.1036 89.2386 68.9475 90.3346C67.4458 91.7522 65.2171 92.3836 62.6189 92.3836C62.0349 92.3836 61.5224 92.3597 61.1172 92.3002V99.2572H56.7551M61.1172 88.8931C61.4866 88.9765 61.9515 89.0122 62.595 89.0122C64.931 89.0122 66.3851 87.8329 66.3851 85.8315C66.3851 84.0446 65.1456 82.9725 62.9526 82.9725C62.0587 82.9725 61.4509 83.0559 61.1291 83.1512V88.905L61.1172 88.8931Z" fill="#00192E"/>
<path id="Vector_19" d="M73.548 80.0538C74.9663 79.8275 77.0758 79.6488 79.4118 79.6488C82.296 79.6488 84.3222 80.0777 85.7047 81.1856C86.8608 82.1147 87.4924 83.4609 87.4924 85.2597C87.4924 87.7376 85.7285 89.4411 84.06 90.0486V90.132C85.4186 90.68 86.1695 91.9785 86.6581 93.7654C87.266 95.9574 87.8738 98.5067 88.2433 99.2572H83.7382C83.4164 98.7092 82.9635 97.1248 82.3795 94.7185C81.8551 92.2883 81.0208 91.633 79.233 91.5973H77.8982V99.2453H73.5361M77.8982 88.4166H79.6263C81.8193 88.4166 83.1184 87.3206 83.1184 85.6171C83.1184 83.8302 81.9027 82.9367 79.8885 82.901C78.8159 82.901 78.2081 82.9844 77.8982 83.0439V88.4166Z" fill="#00192E"/>
<path id="Vector_20" d="M108.385 89.322C108.385 95.7072 104.512 99.5669 98.8268 99.5669C93.1417 99.5669 89.6735 95.2069 89.6735 89.6674C89.6735 83.8302 93.4039 79.4701 99.1486 79.4701C104.893 79.4701 108.397 83.9493 108.397 89.31M94.3336 89.5721C94.3336 93.3842 96.1213 96.0646 99.0771 96.0646C102.033 96.0646 103.761 93.2293 103.761 89.453C103.761 85.9625 102.092 82.9605 99.0532 82.9605C96.014 82.9605 94.3455 85.7958 94.3455 89.5721" fill="#00192E"/>
<path id="Vector_21" d="M96.0498 20.5853C95.728 20.5853 95.3943 20.5376 95.0725 20.4423L54.4191 7.23105L14.0636 20.347L13.7657 20.4304C13.432 20.5257 13.0982 20.5734 12.7645 20.5734C10.8695 20.5734 9.32013 19.0366 9.32013 17.1306C9.32013 15.57 10.3689 14.2 11.8826 13.8069L12.0137 13.7712L54.4191 0L97.194 13.9141C98.5646 14.4025 99.4823 15.701 99.4823 17.1544C99.4823 19.0485 97.9329 20.5972 96.0379 20.5972" fill="#00192E"/>
<path id="Vector_22" d="M115.739 70.3448V76.6824H121.805V79.9227H115.739V86.3318H112.342V79.9227H106.264V76.6824H112.342V70.3448" fill="#00192E"/>
<path id="Vector_23" d="M91.9618 23.361V23.8613H91.0084V26.363H90.4124V23.8613H89.4471V23.361M95.2155 26.363L95.1083 24.5999C95.1083 24.3616 95.1083 24.0757 95.0844 23.766H95.0487C94.9652 24.0281 94.8818 24.3855 94.7984 24.6595L94.262 26.3272H93.6423L93.106 24.6118C93.0464 24.3855 92.963 24.0281 92.8914 23.766H92.8557C92.8557 24.04 92.8438 24.3259 92.8319 24.5999L92.7246 26.363H92.1525L92.367 23.361H93.2609L93.7734 24.8262C93.8449 25.0645 93.8926 25.2789 93.976 25.5886C94.0475 25.3147 94.119 25.0645 94.1905 24.8381L94.715 23.361H95.5731L95.7995 26.363H95.2036H95.2155Z" fill="#00192E"/>
<path id="Vector_24" d="M80.1508 19.5726H28.6874C24.5637 19.5726 21.2146 22.9201 21.2146 27.0419V70.5831C21.2146 73.1563 23.3242 75.2648 25.8985 75.2648H32.6681C35.2425 75.2648 37.352 73.1563 37.352 70.5831V60.2547C37.352 57.6816 39.4616 55.573 42.0359 55.573H80.1508C84.1553 55.573 87.4209 52.4042 87.5878 48.4254V26.6965C87.409 22.7414 84.1553 19.5845 80.1388 19.5726M52.3572 27.7924C52.3095 27.1611 52.5122 26.6369 52.9531 26.208C53.3584 25.7673 53.847 25.5409 54.4191 25.5409C54.9912 25.529 55.4679 25.7434 55.8612 26.1842C56.2545 26.625 56.4571 27.1611 56.4571 27.7924V34.8448H52.3572V27.7924ZM56.4452 48.3777C56.4929 49.0091 56.2903 49.5332 55.8493 49.9621C55.4441 50.4029 54.9435 50.6292 54.3833 50.6292C53.8113 50.6411 53.3345 50.4267 52.9412 49.9859C52.5479 49.5452 52.3453 49.0091 52.3453 48.3777V41.3253H56.4452V48.3777ZM72.3323 25.1359H72.6661C77.35 37.9779 74.859 47.8893 74.859 47.8893L74.3465 48.5445H71.0571C70.4254 48.5326 70.2466 48.2109 70.2466 48.2109V45.8045L70.6638 45.5782C71.6172 44.8396 72.1774 43.696 71.7007 42.1354C71.1524 40.3723 69.0786 40.1222 69.0786 40.1222H40.0098C39.3782 40.1698 38.8538 39.9673 38.4247 39.5265C37.9837 39.1096 37.7573 38.6211 37.7573 38.0612C37.7454 37.4894 37.9599 37.0129 38.4009 36.6198C38.8418 36.2267 39.3782 36.0242 40.0098 36.0242H69.0786C74.4419 35.4762 72.3443 25.1359 72.3443 25.1359" fill="#00192E"/>
</g>
<defs>
<clipPath id="clip0_1_905">
<rect width="121.805" height="124" fill="white"/>
</clipPath>
</defs>
</svg>
