<?xml version="1.0" encoding="UTF-8"?><svg id="Layer_2" xmlns="http://www.w3.org/2000/svg" viewBox="0 0 102.21 103.93"><defs><style>.cls-1{fill:#7ab2e0;stroke-width:0px;}</style></defs><g id="Layer_1-2"><path class="cls-1" d="M27.52,91.14c.66,1.22,1.03,2.62,1.03,4.1,0,4.79-3.89,8.68-8.68,8.68s-8.68-3.89-8.68-8.68,3.89-8.68,8.68-8.68c1.94,0,3.74.64,5.19,1.73l-.62.71c-1.28-.94-2.86-1.5-4.57-1.5-4.27,0-7.74,3.47-7.74,7.74s3.47,7.74,7.74,7.74,7.74-3.47,7.74-7.74c0-1.13-.24-2.2-.68-3.17"/><path class="cls-1" d="M24.18,90.77l-4.58,5.49-2.67-3.31c-.58-.91-2.69.8-2.3,1.73l3.49,4.85c.93,1.34,2.19,1.03,2.92-.12,0,0,7.96-12.02,7.63-12.27-.8-.61-1.79.56-4.48,3.63"/><path class="cls-1" d="M31.97,100.05c.52.27,1.36.53,2.22.53.79,0,1.17-.27,1.17-.7s-.38-.65-1.35-.98c-1.45-.52-2.41-1.31-2.41-2.58,0-1.51,1.28-2.68,3.44-2.68,1.02,0,1.75.19,2.31.43l-.48,1.84c-.37-.16-1-.41-1.85-.41-.7,0-1.08.25-1.08.63,0,.43.46.6,1.54,1,1.54.57,2.22,1.38,2.22,2.58,0,1.47-1.14,2.73-3.64,2.73-1.03,0-2.03-.27-2.51-.52"/><polyline class="cls-1" points="45.33 98.88 42.26 98.88 42.26 100.46 45.7 100.46 45.7 102.34 39.96 102.34 39.96 93.78 45.52 93.78 45.52 95.66 42.26 95.66 42.26 97.03 45.33 97.03"/><polyline class="cls-1" points="47.98 93.78 50.28 93.78 50.28 100.42 53.57 100.42 53.57 102.34 47.98 102.34"/><polyline class="cls-1" points="61.07 98.88 58 98.88 58 100.46 61.44 100.46 61.44 102.34 55.7 102.34 55.7 93.78 61.26 93.78 61.26 95.66 58 95.66 58 97.03 61.07 97.03"/><path class="cls-1" d="M70.12,102.11c-.32.17-1.13.36-2.15.36-3.2,0-4.61-1.99-4.61-4.27,0-3.01,2.21-4.55,4.76-4.55.98,0,1.78.19,2.13.37l-.44,1.82c-.37-.15-.9-.3-1.59-.3-1.31,0-2.45.77-2.45,2.51,0,1.55.93,2.51,2.5,2.51.55,0,1.17-.1,1.52-.24"/><polyline class="cls-1" points="74.14 95.71 71.96 95.71 71.96 93.78 78.66 93.78 78.66 95.71 76.44 95.71 76.44 102.34 74.14 102.34"/><path class="cls-1" d="M31.82,86.9c.33-.06.76-.1,1.31-.1.67,0,1.17.16,1.48.44.29.25.46.63.46,1.1s-.14.85-.41,1.12c-.36.38-.95.58-1.61.58-.2,0-.39,0-.55-.05v2.11h-.68M32.5,89.45c.15.04.34.05.56.05.82,0,1.32-.4,1.32-1.13s-.49-1.03-1.24-1.03c-.3,0-.52.02-.64.05v2.05Z"/><polyline class="cls-1" points="37.64 86.84 38.32 86.84 38.32 91.54 40.57 91.54 40.57 92.11 37.64 92.11"/><path class="cls-1" d="M43.84,90.45l-.55,1.66h-.7l1.79-5.27h.82l1.8,5.27h-.73l-.56-1.66M45.57,89.92l-.52-1.52c-.12-.34-.2-.66-.28-.96h-.01c-.08.31-.17.63-.27.95l-.52,1.52h1.59Z"/><polyline class="cls-1" points="49.83 87.42 48.23 87.42 48.23 86.84 52.13 86.84 52.13 87.42 50.52 87.42 50.52 92.11 49.83 92.11"/><rect class="cls-1" x="54.38" y="86.84" width=".68" height="5.27"/><path class="cls-1" d="M57.91,92.11v-5.27h.74l1.69,2.67c.39.62.7,1.17.95,1.71h.02c-.06-.71-.08-1.35-.08-2.17v-2.21h.64v5.27h-.69l-1.67-2.67c-.37-.59-.72-1.19-.99-1.76h-.02c.04.67.06,1.31.06,2.18v2.25"/><path class="cls-1" d="M65.39,86.84v3.12c0,1.18.52,1.68,1.23,1.68.78,0,1.28-.52,1.28-1.68v-3.12h.69v3.07c0,1.62-.85,2.28-1.99,2.28-1.08,0-1.89-.62-1.89-2.25v-3.1"/><path class="cls-1" d="M75.87,89.8c-.04-.73-.09-1.62-.08-2.27h-.02c-.18.62-.4,1.27-.66,2l-.93,2.56h-.52l-.85-2.51c-.25-.74-.46-1.42-.61-2.05h-.01c-.02.66-.05,1.54-.1,2.33l-.14,2.26h-.65l.37-5.27h.87l.9,2.55c.22.65.4,1.23.53,1.77h.02c.13-.53.32-1.11.56-1.77l.94-2.55h.87l.33,5.27h-.66"/><path class="cls-1" d="M3.2,77.57l-2.01,5.72H0l5.91-16.34h1.11l5.89,16.34h-1.19l-2.06-5.72M9.31,76.6l-1.99-5.45c-.39-1.14-.61-1.96-.85-2.89h-.05c-.24.95-.51,1.79-.85,2.84l-2.01,5.5h5.74Z"/><path class="cls-1" d="M16.92,69.08v2.57h3.32v.95h-3.32v7.56c0,1.48.46,2.4,1.7,2.4.61,0,1.04-.07,1.33-.17l.15.87c-.39.14-.92.26-1.62.26-.85,0-1.55-.26-1.99-.8-.53-.61-.73-1.6-.73-2.79v-7.34h-1.96v-.95h1.96v-2.13"/><rect class="cls-1" x="22.81" y="66.05" width="1.16" height="17.23"/><path class="cls-1" d="M35.2,80.52c0,.92.02,1.87.17,2.76h-1.07l-.17-1.67h-.05c-.58.9-1.87,1.94-3.73,1.94-2.35,0-3.42-1.65-3.42-3.2,0-2.69,2.35-4.32,7.1-4.27v-.32c0-1.14-.22-3.44-2.98-3.42-1.02,0-2.08.27-2.93.87l-.37-.85c1.07-.7,2.38-.99,3.42-.99,3.37,0,4.03,2.52,4.03,4.58M34.03,77.06c-2.55-.07-5.89.32-5.89,3.1,0,1.67,1.12,2.42,2.33,2.42,1.94,0,3.06-1.19,3.44-2.33.1-.24.12-.51.12-.7v-2.5Z"/><path class="cls-1" d="M38.47,81.76c.63.39,1.57.8,2.62.8,1.84,0,2.72-.99,2.72-2.21,0-1.28-.78-1.96-2.45-2.64-1.91-.73-2.96-1.77-2.96-3.18,0-1.7,1.33-3.15,3.59-3.15,1.07,0,1.99.31,2.57.73l-.44.95c-.41-.29-1.16-.7-2.33-.7-1.48,0-2.25.95-2.25,2.01,0,1.21.82,1.72,2.4,2.38,1.89.75,3.01,1.7,3.01,3.47,0,1.99-1.55,3.32-3.93,3.32-1.12,0-2.18-.32-2.96-.8"/><path class="cls-1" d="M47.63,67.17c1.14-.19,2.74-.34,4.99-.34s3.9.44,4.99,1.31c1.04.82,1.75,2.18,1.75,3.78s-.53,2.96-1.5,3.88c-1.26,1.19-3.13,1.72-5.31,1.72-.49,0-.92-.02-1.26-.07v5.84h-3.66M51.29,74.58c.31.07.7.1,1.24.1,1.96,0,3.17-.99,3.17-2.67,0-1.5-1.04-2.4-2.88-2.4-.75,0-1.26.07-1.53.15v4.82Z"/><path class="cls-1" d="M61.72,67.17c1.19-.2,2.96-.34,4.92-.34,2.43,0,4.12.36,5.29,1.29.97.77,1.5,1.91,1.5,3.42,0,2.08-1.48,3.52-2.88,4.02v.07c1.14.46,1.77,1.55,2.18,3.05.51,1.84,1.02,3.98,1.33,4.61h-3.78c-.27-.46-.66-1.79-1.14-3.81-.44-2.04-1.14-2.59-2.64-2.62h-1.12v6.42h-3.66M65.37,74.2h1.46c1.84,0,2.93-.92,2.93-2.35,0-1.5-1.02-2.25-2.72-2.28-.9,0-1.4.07-1.67.12v4.51Z"/><path class="cls-1" d="M90.95,74.95c0,5.36-3.25,8.61-8.02,8.61s-7.68-3.66-7.68-8.32c0-4.9,3.13-8.56,7.95-8.56s7.76,3.76,7.76,8.27M79.14,75.17c0,3.2,1.5,5.45,3.98,5.45s3.93-2.38,3.93-5.55c0-2.93-1.4-5.45-3.95-5.45s-3.95,2.38-3.95,5.55"/><path class="cls-1" d="M79.37,17.11c-.27,0-.54-.04-.81-.12L44.79,6.01,11.26,16.91l-.25.07c-.27.08-.55.12-.83.12-1.58,0-2.86-1.28-2.86-2.86,0-1.29.88-2.43,2.13-2.76l.11-.03L44.79,0l35.54,11.56c1.14.4,1.9,1.49,1.9,2.69,0,1.58-1.28,2.86-2.86,2.86"/><polyline class="cls-1" points="97.12 59.01 97.12 64.34 102.21 64.34 102.21 67.06 97.12 67.06 97.12 72.44 94.27 72.44 94.27 67.06 89.17 67.06 89.17 64.34 94.27 64.34 94.27 59.01"/><path class="cls-1" d="M75.98,19.42v.41h-.8v2.08h-.5v-2.08h-.8v-.41M78.67,21.92l-.09-1.47c0-.19,0-.43-.02-.7h-.03c-.06.22-.14.51-.21.74l-.45,1.39h-.52l-.45-1.42c-.05-.19-.12-.49-.18-.71h-.03c0,.23,0,.47-.02.7l-.09,1.47h-.48l.18-2.49h.74l.43,1.22c.06.19.1.38.17.63h0c.06-.23.12-.44.17-.62l.43-1.23h.72l.19,2.49h-.49Z"/><path class="cls-1" d="M66.16,16.27H23.41c-3.43,0-6.21,2.78-6.21,6.2v36.19c0,2.14,1.75,3.89,3.89,3.89h5.62c2.14,0,3.89-1.75,3.89-3.89v-8.58c0-2.14,1.75-3.89,3.89-3.89h31.66c3.33,0,6.04-2.64,6.18-5.94v-18.06c-.15-3.29-2.86-5.92-6.18-5.92M43.08,23.1c-.04-.53.13-.96.49-1.32.34-.37.75-.55,1.22-.55.47-.01.87.16,1.2.53.33.37.49.81.49,1.34v5.86h-3.4v-5.86ZM46.48,40.2c.04.52-.13.96-.49,1.32-.34.37-.75.55-1.22.55-.47.01-.87-.16-1.2-.53-.33-.37-.49-.81-.49-1.34v-5.86h3.4v5.86ZM59.68,20.89h.28c3.9,10.67,1.82,18.91,1.82,18.91l-.43.54h-2.73c-.53-.01-.67-.27-.67-.27v-2s.35-.19.35-.19c.8-.61,1.26-1.56.86-2.86-.45-1.46-2.18-1.67-2.18-1.67h-24.15c-.52.04-.96-.12-1.32-.49-.37-.34-.55-.75-.55-1.22-.01-.47.16-.87.53-1.2.37-.33.81-.49,1.34-.49h24.15c4.46-.46,2.71-9.05,2.71-9.05"/></g></svg>