<svg width="115" height="118" viewBox="0 0 115 118" fill="none" xmlns="http://www.w3.org/2000/svg">
<g clip-path="url(#clip0_486_2242)">
<path d="M31.4841 103.512C32.2268 104.895 32.6431 106.482 32.6431 108.16C32.6431 113.59 28.2659 118 22.876 118C17.4861 118 13.1089 113.59 13.1089 108.16C13.1089 102.73 17.4861 98.3201 22.876 98.3201C25.059 98.3201 27.0844 99.0456 28.716 100.281L28.0184 101.086C26.5781 100.021 24.8002 99.3857 22.876 99.3857C18.0712 99.3857 14.1666 103.319 14.1666 108.16C14.1666 113.001 18.0712 116.934 22.876 116.934C27.6808 116.934 31.5854 113.001 31.5854 108.16C31.5854 106.879 31.3153 105.666 30.8202 104.566" fill="#F7A724"/>
<path d="M27.7261 103.093L22.5725 109.316L19.5681 105.564C18.9154 104.532 16.5412 106.471 16.98 107.525L20.9071 113.023C21.9536 114.542 23.3714 114.191 24.1928 112.887C24.1928 112.887 33.1498 99.261 32.7784 98.9776C31.8782 98.2861 30.7642 99.6124 27.7373 103.093" fill="#F7A724"/>
<path d="M41.1951 104.328C40.8462 104.453 40.1711 104.657 39.3722 104.657C38.472 104.657 37.7406 104.43 37.1554 103.864C36.6491 103.365 36.3228 102.571 36.3228 101.642C36.3228 99.8619 37.5493 98.5582 39.5297 98.5582C40.2161 98.5582 40.7562 98.7056 41.0038 98.8303L40.8237 99.4651C40.5087 99.3291 40.1148 99.2044 39.5072 99.2044C38.0669 99.2044 37.1217 100.111 37.1217 101.608C37.1217 103.104 38.0219 104.022 39.4059 104.022C39.9123 104.022 40.2499 103.954 40.4299 103.864V102.084H39.2259V101.46H41.1726" fill="#F7A724"/>
<path d="M49.6234 101.551C49.6234 103.603 48.3856 104.691 46.8665 104.691C45.3475 104.691 44.1997 103.467 44.1997 101.664C44.1997 99.7712 45.37 98.5242 46.9566 98.5242C48.5432 98.5242 49.6234 99.7712 49.6234 101.54M45.0211 101.642C45.0211 102.923 45.7075 104.056 46.9115 104.056C48.1156 104.056 48.8132 102.934 48.8132 101.574C48.8132 100.383 48.1943 99.1477 46.9228 99.1477C45.6513 99.1477 45.0211 100.327 45.0211 101.642Z" fill="#F7A724"/>
<path d="M52.8076 98.6262H53.5728V103.943H56.1046V104.589H52.8076" fill="#F7A724"/>
<path d="M59.1543 98.7055C59.6156 98.6375 60.1783 98.5808 60.7859 98.5808C61.8886 98.5808 62.6651 98.8416 63.1939 99.329C63.7228 99.8165 64.0266 100.508 64.0266 101.472C64.0266 102.435 63.734 103.24 63.1714 103.796C62.6201 104.351 61.6974 104.657 60.5496 104.657C60.0095 104.657 59.5481 104.634 59.1656 104.589M59.9307 104C60.122 104.034 60.4033 104.045 60.7071 104.045C62.3387 104.045 63.2277 103.127 63.2277 101.506C63.2277 100.1 62.4513 99.2043 60.8309 99.2043C60.4371 99.2043 60.1333 99.2383 59.9307 99.2837V104Z" fill="#F7A724"/>
<path d="M36.4243 113.703C37.0094 114.01 37.9546 114.304 38.9223 114.304C39.8113 114.304 40.2389 113.998 40.2389 113.511C40.2389 113.023 39.8113 112.774 38.7198 112.4C37.0882 111.81 36.008 110.915 36.008 109.475C36.008 107.763 37.4483 106.437 39.8788 106.437C41.0266 106.437 41.848 106.652 42.4781 106.924L41.938 109.01C41.5217 108.818 40.8128 108.545 39.8563 108.545C39.0686 108.545 38.641 108.829 38.641 109.26C38.641 109.747 39.1586 109.94 40.3627 110.393C42.0955 111.039 42.8607 111.958 42.8607 113.318C42.8607 114.984 41.5779 116.413 38.7648 116.413C37.6058 116.413 36.4806 116.107 35.9292 115.823" fill="#F7A724"/>
<path d="M51.4464 112.377H47.9919V114.168H51.8627V116.288H45.4038V106.596H51.6602V108.727H47.9919V110.28H51.4464" fill="#F7A724"/>
<path d="M54.4395 106.596H57.0163V114.123H60.7183V116.288H54.4395" fill="#F7A724"/>
<path d="M69.1573 112.377H65.7028V114.168H69.5737V116.288H63.1147V106.596H69.3711V108.727H65.7028V110.28H69.1573" fill="#F7A724"/>
<path d="M79.341 116.039C78.981 116.22 78.0695 116.447 76.9218 116.447C73.321 116.447 71.7344 114.191 71.7344 111.606C71.7344 108.194 74.2212 106.448 77.0905 106.448C78.1933 106.448 79.0935 106.664 79.4873 106.868L78.981 108.931C78.5646 108.761 77.9682 108.579 77.2031 108.579C75.729 108.579 74.4462 109.452 74.4462 111.425C74.4462 113.182 75.4927 114.27 77.2593 114.27C77.867 114.27 78.5759 114.157 78.9697 113.998" fill="#F7A724"/>
<path d="M83.8647 108.784H81.4116V106.596H88.9508V108.784H86.4527V116.288H83.8647" fill="#F7A724"/>
<path d="M3.60078 87.97L1.33904 94.4544H0L6.6502 75.9308H7.91047L14.5382 94.4544H13.1991L10.8811 87.97M10.476 86.8704L8.23679 80.692C7.79795 79.3997 7.55039 78.4701 7.28033 77.4272H7.22407C6.95401 78.5041 6.6502 79.4564 6.26761 80.6354L4.00587 86.8704H10.4648H10.476Z" fill="#F7A724"/>
<path d="M19.0391 78.3455V81.2589H22.7749V82.3358H19.0391V90.9061C19.0391 92.5839 19.5567 93.6268 20.952 93.6268C21.6384 93.6268 22.1223 93.5475 22.4486 93.4341L22.6061 94.4204C22.1673 94.5791 21.5709 94.7265 20.7832 94.7265C19.8268 94.7265 19.0391 94.4204 18.544 93.8196C17.9476 93.1281 17.7226 92.0058 17.7226 90.6567V82.3358H15.5171V81.2589H17.7226V78.8443" fill="#F7A724"/>
<path d="M26.9723 74.9105H25.667V94.443H26.9723V74.9105Z" fill="#F7A724"/>
<path d="M39.5973 91.3143C39.5973 92.3572 39.6198 93.4342 39.7886 94.4431H38.5846L38.3933 92.5499H38.337C37.6844 93.5702 36.2328 94.7492 34.1398 94.7492C31.4955 94.7492 30.2915 92.8787 30.2915 91.1216C30.2915 88.0721 32.9358 86.2356 38.2807 86.2809V85.9182C38.2807 84.6258 38.0332 82.0185 34.9275 82.0412C33.7798 82.0412 32.5758 82.3472 31.6305 83.0274L31.2255 82.0638C32.4295 81.2703 33.9035 80.9415 35.0738 80.9415C38.8659 80.9415 39.5973 83.7983 39.5973 86.1336M38.292 87.3692C35.4339 87.2899 31.6643 87.7207 31.6643 90.8835C31.6643 92.7767 32.9246 93.6269 34.2861 93.6269C36.4691 93.6269 37.7181 92.2779 38.157 90.9855C38.2695 90.7135 38.292 90.4074 38.292 90.192V87.3579V87.3692Z" fill="#F7A724"/>
<path d="M43.288 92.7199C43.9969 93.162 45.0546 93.6268 46.2361 93.6268C48.3066 93.6268 49.2968 92.5045 49.2968 91.1215C49.2968 89.6704 48.4191 88.8996 46.54 88.1287C44.3907 87.3011 43.2092 86.1221 43.2092 84.5351C43.2092 82.6079 44.7058 80.9641 47.2489 80.9641C48.4529 80.9641 49.4881 81.3269 50.1408 81.7917L49.6456 82.8573C49.1843 82.5285 48.3404 82.0637 47.0238 82.0637C45.3585 82.0637 44.492 83.1407 44.492 84.3423C44.492 85.714 45.4147 86.2922 47.1926 87.0404C49.3193 87.8906 50.5796 88.9676 50.5796 90.9741C50.5796 93.23 48.8355 94.7378 46.1574 94.7378C44.9084 94.7378 43.7044 94.3863 42.8267 93.8309" fill="#F7A724"/>
<path d="M53.5952 76.1802C54.878 75.9648 56.6784 75.7948 59.2102 75.7948C61.742 75.7948 63.5987 76.2936 64.8252 77.2799C65.9954 78.2094 66.7831 79.7512 66.7831 81.565C66.7831 83.3788 66.1867 84.9206 65.0952 85.9635C63.6774 87.3125 61.5732 87.9134 59.1202 87.9134C58.5688 87.9134 58.085 87.8907 57.7024 87.834V94.4544H53.584M57.7024 84.5918C58.0512 84.6712 58.4901 84.7052 59.0977 84.7052C61.3032 84.7052 62.676 83.5829 62.676 81.6784C62.676 79.9779 61.5057 78.9576 59.4353 78.9576C58.5913 78.9576 58.0175 79.037 57.7136 79.1277V84.6031L57.7024 84.5918Z" fill="#F7A724"/>
<path d="M69.439 76.1802C70.778 75.9648 72.7697 75.7948 74.9752 75.7948C77.6983 75.7948 79.6112 76.2029 80.9165 77.2572C82.008 78.1414 82.6044 79.4224 82.6044 81.1342C82.6044 83.4922 80.939 85.1133 79.3636 85.6914V85.7708C80.6464 86.2923 81.3553 87.5279 81.8167 89.2284C82.3906 91.3143 82.9644 93.7402 83.3133 94.4544H79.0598C78.756 93.9329 78.3284 92.4252 77.7771 90.1353C77.2819 87.8227 76.4943 87.1992 74.8064 87.1652H73.5461V94.4431H69.4277M73.5461 84.1384H75.1777C77.2482 84.1384 78.4747 83.0954 78.4747 81.4743C78.4747 79.7739 77.327 78.9236 75.4253 78.8896C74.4126 78.8896 73.8387 78.969 73.5461 79.0257V84.1384Z" fill="#F7A724"/>
<path d="M102.33 84.9999C102.33 91.0762 98.6729 94.7492 93.3055 94.7492C87.938 94.7492 84.6636 90.6001 84.6636 85.3287C84.6636 79.7739 88.1856 75.6248 93.6093 75.6248C99.033 75.6248 102.341 79.8872 102.341 84.9886M89.0633 85.238C89.0633 88.8656 90.7511 91.4163 93.5418 91.4163C96.3324 91.4163 97.964 88.7182 97.964 85.1246C97.964 81.8031 96.3886 78.9463 93.5193 78.9463C90.6499 78.9463 89.0745 81.6444 89.0745 85.238" fill="#F7A724"/>
<path d="M90.6834 19.5892C90.3795 19.5892 90.0645 19.5439 89.7607 19.4532L51.3786 6.88116L13.2778 19.3625L12.9965 19.4418C12.6814 19.5325 12.3663 19.5779 12.0513 19.5779C10.2621 19.5779 8.79932 18.1155 8.79932 16.3017C8.79932 14.8166 9.78953 13.5129 11.2186 13.1388L11.3424 13.1048L51.3786 0L91.7636 13.2409C93.0576 13.7056 93.9241 14.9413 93.9241 16.3243C93.9241 18.1268 92.4613 19.6005 90.6721 19.6005" fill="#F7A724"/>
<path d="M109.272 66.9412V72.9721H115V76.0556H109.272V82.1545H106.065V76.0556H100.327V72.9721H106.065V66.9412" fill="#F7A724"/>
<path d="M86.824 22.2306V22.7067H85.9238V25.0873H85.3612V22.7067H84.4497V22.2306M89.8959 25.0873L89.7946 23.4096C89.7946 23.1828 89.7946 22.9108 89.7721 22.616H89.7384C89.6596 22.8654 89.5808 23.2055 89.5021 23.4663L88.9957 25.0533H88.4106L87.9042 23.4209C87.8479 23.2055 87.7692 22.8654 87.7017 22.616H87.6679C87.6679 22.8768 87.6567 23.1488 87.6454 23.4096L87.5441 25.0873H87.004L87.2066 22.2306H88.0505L88.5343 23.625C88.6019 23.8517 88.6469 24.0557 88.7256 24.3505C88.7931 24.0898 88.8607 23.8517 88.9282 23.6363L89.4233 22.2306H90.2335L90.4473 25.0873H89.8846H89.8959Z" fill="#F7A724"/>
<path d="M75.6726 18.6256H27.0846C23.1912 18.6256 20.0293 21.8111 20.0293 25.7335V67.1678C20.0293 69.6165 22.021 71.623 24.4515 71.623H30.8429C33.2734 71.623 35.2651 69.6165 35.2651 67.1678V57.3392C35.2651 54.8906 37.2568 52.884 39.6873 52.884H75.6726C79.4535 52.884 82.5366 49.8686 82.6942 46.0822V25.4047C82.5254 21.6411 79.4535 18.6369 75.6614 18.6256M49.4319 26.4477C49.3869 25.8469 49.5782 25.3481 49.9946 24.94C50.3771 24.5205 50.8385 24.3051 51.3786 24.3051C51.9187 24.2938 52.3688 24.4978 52.7402 24.9173C53.1115 25.3367 53.3028 25.8469 53.3028 26.4477V33.1588H49.4319V26.4477ZM53.2915 46.0369C53.3365 46.6377 53.1452 47.1365 52.7289 47.5446C52.3463 47.9641 51.8737 48.1795 51.3449 48.1795C50.8047 48.1908 50.3546 47.9867 49.9833 47.5673C49.612 47.1478 49.4207 46.6377 49.4207 46.0369V39.3258H53.2915V46.0369ZM68.291 23.9197H68.6061C73.0283 36.1403 70.6766 45.5721 70.6766 45.5721L70.1927 46.1956H67.087C66.4906 46.1843 66.3219 45.8782 66.3219 45.8782V43.5882L66.7157 43.3728C67.6159 42.67 68.1448 41.5817 67.6947 40.0966C67.177 38.4189 65.2191 38.1808 65.2191 38.1808H37.7744C37.178 38.2261 36.6829 38.0334 36.2778 37.614C35.8615 37.2172 35.6477 36.7524 35.6477 36.2196C35.6364 35.6755 35.839 35.222 36.2553 34.8479C36.6717 34.4738 37.178 34.2811 37.7744 34.2811H65.2191C70.2827 33.7596 68.3023 23.9197 68.3023 23.9197" fill="#F7A724"/>
</g>
<defs>
<clipPath id="clip0_486_2242">
<rect width="115" height="118" fill="white"/>
</clipPath>
</defs>
</svg>
