<svg width="62" height="62" viewBox="0 0 62 62" fill="none" xmlns="http://www.w3.org/2000/svg">
<g id="bbb-logo 1">
<path id="Vector" d="M39.6307 38.8305H15.9361L15.0756 41.6621H21.3897L22.5958 45.569H32.9761L34.1772 41.6621H40.4912L39.6307 38.8305ZM19.8028 22.9178C19.3708 23.5132 19.0604 24.1879 18.8893 24.9033C18.7181 25.6186 18.6896 26.3607 18.8054 27.0871C18.9211 27.8135 19.1788 28.51 19.5638 29.1368C19.9488 29.7636 20.4535 30.3083 21.0491 30.74L26.719 34.8599C26.8683 34.9682 26.9948 35.1048 27.0912 35.2619C27.1877 35.4191 27.2522 35.5937 27.2812 35.7758C27.3102 35.9579 27.303 36.1439 27.2601 36.3232C27.2171 36.5025 27.1393 36.6716 27.0311 36.8209L27.8849 37.4382L30.8809 33.2982C31.575 32.3462 31.9492 31.1985 31.9495 30.0203C31.9495 29.7215 31.926 29.4231 31.879 29.1279C31.7634 28.4016 31.5051 27.7054 31.119 27.0795C30.7329 26.4536 30.2267 25.9103 29.6295 25.4811L23.9596 21.3611C23.8101 21.2535 23.6834 21.1173 23.587 20.9603C23.4905 20.8034 23.4262 20.6289 23.3976 20.4469C23.3857 20.3726 23.3796 20.2974 23.3792 20.2221C23.3787 19.9278 23.4721 19.641 23.6459 19.4035L22.7937 18.7845L19.8028 22.9178ZM23.2198 6.356C22.2132 7.73665 21.671 9.40133 21.6715 11.11C21.6716 11.5431 21.7058 11.9756 21.7738 12.4033C21.9399 13.4571 22.3131 14.4676 22.872 15.3763C23.4308 16.285 24.1642 17.0739 25.0298 17.6975L32.1575 22.8591C32.6215 23.1937 33.0147 23.617 33.3141 24.1045C33.6136 24.5919 33.8134 25.1339 33.9021 25.6991C33.9385 25.9277 33.9571 26.1588 33.9574 26.3903C33.9552 27.3071 33.6615 28.1995 33.1187 28.9384L33.8064 29.4399L39.4227 21.6782C40.0492 20.8147 40.4994 19.8361 40.7476 18.7985C40.9958 17.761 41.0371 16.6846 40.8692 15.6311C40.7012 14.5775 40.3273 13.5674 39.7689 12.6583C39.2104 11.7493 38.4783 10.9593 37.6143 10.3333L29.0088 4.07796C28.4716 3.68717 28.1116 3.09907 28.0077 2.44292C27.9039 1.78677 28.0649 1.11625 28.4552 0.578722L27.7675 0.0838623L23.2198 6.356ZM8.66087 47.9342H15.1528C16.7514 47.9342 18.0045 48.3738 18.808 49.1722C19.1226 49.4813 19.37 49.8519 19.5348 50.2609C19.6996 50.6699 19.7783 51.1085 19.7659 51.5492V51.5828C19.7659 53.1613 18.9271 54.0403 17.9206 54.6023C19.5377 55.2229 20.5375 56.1607 20.5375 58.0394V58.0797C20.5375 60.6362 18.4608 61.9144 15.3037 61.9144H8.66087V47.9342ZM14.4935 53.5874C15.8523 53.5874 16.7111 53.1479 16.7111 52.1095V52.0693C16.7111 51.15 15.9915 50.6316 14.6982 50.6316H11.6569V53.5874H14.4935ZM15.3121 59.2204C16.6709 59.2204 17.4929 58.7406 17.4929 57.7107V57.6704C17.4929 56.731 16.7933 56.1607 15.2148 56.1607H11.6569V59.2355L15.3121 59.2204ZM21.8828 47.9342H28.3747C29.9734 47.9342 31.2265 48.3738 32.03 49.1722C32.3438 49.4817 32.5905 49.8524 32.7547 50.2614C32.9189 50.6703 32.9971 51.1087 32.9845 51.5492V51.5828C32.9845 53.1613 32.1457 54.0403 31.1392 54.6023C32.758 55.2229 33.7561 56.1607 33.7561 58.0394V58.0797C33.7561 60.6362 31.6794 61.9144 28.5223 61.9144H21.8828V47.9342ZM27.7155 53.5874C29.0742 53.5874 29.9331 53.1479 29.9331 52.1095V52.0693C29.9331 51.15 29.2135 50.6316 27.9201 50.6316H24.8805V53.5874H27.7155ZM28.5341 59.2204C29.8929 59.2204 30.7148 58.7406 30.7148 57.7107V57.6704C30.7148 56.731 30.0153 56.1607 28.4385 56.1607H24.8805V59.2355L28.5341 59.2204ZM35.1065 47.9342H41.5984C43.197 47.9342 44.4501 48.3738 45.2536 49.1722C45.5681 49.4813 45.8155 49.8519 45.9803 50.2609C46.1451 50.6699 46.2238 51.1085 46.2115 51.5492V51.5828C46.2115 53.1613 45.3727 54.0403 44.3662 54.6023C45.985 55.2229 46.9831 56.1607 46.9831 58.0394V58.0797C46.9831 60.6362 44.9047 61.9144 41.7493 61.9144H35.1065V47.9342ZM40.9391 53.5874C42.2979 53.5874 43.1568 53.1479 43.1568 52.1095V52.0693C43.1568 51.15 42.4371 50.6316 41.1438 50.6316H38.1075V53.5874H40.9391ZM41.7577 59.2204C43.1165 59.2204 43.9385 58.7406 43.9385 57.7107V57.6704C43.9385 56.731 43.239 56.1607 41.6604 56.1607H38.1042V59.2355L41.7577 59.2204ZM47.6407 58.9939V58.9788C47.6387 58.2225 47.9372 57.4964 48.4706 56.9601C49.004 56.4239 49.7285 56.1216 50.4849 56.1196C51.2412 56.1176 51.9673 56.4161 52.5036 56.9495C53.0398 57.4829 53.3422 58.2074 53.3442 58.9637V58.9788C53.3451 59.3533 53.2724 59.7244 53.13 60.0707C52.9876 60.4171 52.7783 60.732 52.5142 60.9975C52.2501 61.263 51.9363 61.4739 51.5907 61.6182C51.2451 61.7624 50.8745 61.8371 50.5 61.8381C49.7436 61.8401 49.0175 61.5416 48.4813 61.0082C47.9451 60.4748 47.6427 59.7503 47.6407 58.9939ZM53.0087 58.9788V58.9637C53.0077 58.6333 52.9416 58.3063 52.8142 58.0014C52.6869 57.6965 52.5007 57.4197 52.2663 57.1867C52.032 56.9538 51.754 56.7692 51.4484 56.6437C51.1427 56.5182 50.8153 56.4541 50.4849 56.4551C50.1544 56.4561 49.8274 56.5221 49.5225 56.6495C49.2176 56.7769 48.9408 56.963 48.7078 57.1974C48.4749 57.4317 48.2904 57.7097 48.1648 58.0153C48.0393 58.321 47.9752 58.6484 47.9762 58.9788V58.9939C47.9772 59.3244 48.0432 59.6514 48.1706 59.9563C48.298 60.2612 48.4842 60.538 48.7185 60.771C48.9529 61.0039 49.2308 61.1884 49.5365 61.314C49.8421 61.4395 50.1695 61.5036 50.5 61.5026C50.8304 61.5016 51.1574 61.4356 51.4623 61.3082C51.7672 61.1808 52.0441 60.9947 52.277 60.7603C52.51 60.5259 52.6945 60.248 52.82 59.9423C52.9455 59.6367 53.0096 59.3093 53.0087 58.9788ZM49.3182 57.3819H50.6602C50.8307 57.3724 51.0014 57.3972 51.1622 57.4549C51.3229 57.5125 51.4705 57.6017 51.5962 57.7174C51.6801 57.8052 51.7456 57.9089 51.7888 58.0224C51.832 58.1359 51.8521 58.2569 51.8478 58.3783V58.3934C51.8565 58.5996 51.7971 58.8029 51.6789 58.972C51.5607 59.1411 51.3902 59.2667 51.1936 59.3294L51.9334 60.4148H51.1534L50.5075 59.4385H49.9808V60.4148H49.3098L49.3182 57.3819ZM50.6602 58.8614C50.9957 58.8614 51.1802 58.6802 51.1802 58.4286V58.4135C51.1802 58.1233 50.9755 57.9723 50.6451 57.9723H49.9909V58.8614H50.6602Z" fill="#005F86"/>
</g>
</svg>
