<?xml version="1.0" encoding="utf-8"?>
<!-- Generator: Adobe Illustrator 26.3.1, SVG Export Plug-In . SVG Version: 6.00 Build 0)  -->
<svg version="1.1" id="Layer_1" xmlns="http://www.w3.org/2000/svg" xmlns:xlink="http://www.w3.org/1999/xlink" x="0px" y="0px"
	 viewBox="0 0 24 24" style="enable-background:new 0 0 24 24;" xml:space="preserve">
<style type="text/css">
	.st0{fill:#07984A;}
</style>
<path class="st0" d="M10.6,16.7l7.2-7.1L16.1,8l-5.6,5.6l-2.8-2.8l-1.6,1.6L10.6,16.7z M12,22.2c-1.4,0-2.7-0.3-4-0.8
	c-1.2-0.5-2.3-1.3-3.2-2.2c-0.9-0.9-1.6-2-2.2-3.2c-0.5-1.2-0.8-2.6-0.8-4c0-1.4,0.3-2.7,0.8-4c0.5-1.2,1.3-2.3,2.2-3.2
	s2-1.6,3.2-2.2c1.2-0.5,2.6-0.8,4-0.8c1.4,0,2.7,0.3,4,0.8c1.2,0.5,2.3,1.3,3.2,2.2c0.9,0.9,1.6,2,2.2,3.2c0.5,1.2,0.8,2.6,0.8,4
	s-0.3,2.7-0.8,4c-0.5,1.2-1.3,2.3-2.2,3.2c-0.9,0.9-2,1.6-3.2,2.2C14.7,21.9,13.4,22.2,12,22.2z"/>
</svg>
