<svg width="128" height="128" viewBox="0 0 128 128" fill="none" xmlns="http://www.w3.org/2000/svg">
<g id="Layer_1" clip-path="url(#clip0_1_852)">
<path id="Vector" d="M58.7592 122.414L0.350829 64.0129L5.95326 58.4112L64.3616 116.812L58.7592 122.414Z" stroke="#00192E" stroke-width="0.5"/>
<path id="Vector_2" d="M64.0106 -0.000557507L5.96234 58.0404L64.0106 116.081L122.059 58.0404L64.0106 -0.000557507Z" fill="#00192E"/>
<path id="Vector_3" d="M63.9946 127.655L58.3921 122.054L122.043 58.4109L127.645 64.0126L63.9946 127.655Z" stroke="#00192E" stroke-width="0.5"/>
<path id="Vector_4" d="M82.2137 88.7619L71.6203 76.4677C71.4993 76.3306 71.3298 76.2499 71.1523 76.2499H62.7131C62.5195 76.2499 62.342 76.3386 62.221 76.4919L59.8328 79.6058H53.2332C53.0395 79.6058 52.862 79.6945 52.7491 79.8478L46.6173 87.818L45.8912 88.7942C45.6895 89.0684 45.746 89.4557 46.0122 89.6573C46.2865 89.859 46.6657 89.8106 46.8755 89.5444L53.2412 81.2515L59.6069 89.5444C59.7199 89.6977 59.8974 89.7864 60.091 89.7864L67.9816 89.8832C68.2236 89.8832 68.4415 89.7461 68.5464 89.5283C68.6512 89.3104 68.6109 89.0442 68.4495 88.8587L60.9301 80.2108L62.5598 78.0811L72.774 89.5767C72.895 89.7057 73.0564 89.7864 73.2339 89.7864H81.7377C81.9797 89.7864 82.1975 89.6493 82.3024 89.4234C82.3992 89.2056 82.367 88.9474 82.2056 88.7619H82.2137Z" fill="white"/>
<g id="Group">
<g id="Group_2">
<path id="Vector_5" d="M32.0061 86.6564L33.0307 87.6809C33.5551 88.2053 33.773 88.5844 33.8214 88.9071C33.894 89.383 33.7084 89.8751 33.3373 90.2543C33.0872 90.5044 32.8048 90.6496 32.5224 90.698C32.1594 90.7706 31.877 90.6738 31.6027 90.5044L31.1024 92.505L30.3924 91.7951L31.054 89.3185L31.1831 89.4476C31.409 89.6735 31.6591 89.8993 31.9092 89.9316C32.1513 89.9558 32.4095 89.859 32.6192 89.6573C32.829 89.4556 32.9097 89.1652 32.8532 88.9152C32.8048 88.7135 32.6676 88.5199 32.4821 88.3343L32.0867 87.939L29.3113 90.7141L28.6336 90.0365L32.0061 86.6644V86.6564Z" fill="#00192E"/>
<path id="Vector_6" d="M35.0235 89.6654L36.9195 91.5612L36.3225 92.1581L35.1123 90.9481L34.3458 91.7144L35.5399 92.9084L34.9428 93.5053L33.7488 92.3114L32.9339 93.1262L34.1441 94.3362L33.5471 94.9332L31.6511 93.0374L35.0235 89.6654Z" fill="#00192E"/>
<path id="Vector_7" d="M35.7577 95.0542C35.322 95.5302 35.5399 95.9254 35.6932 96.0707C35.9513 96.3288 36.3628 96.3207 36.5968 96.0868C36.8872 95.7964 36.7178 95.4818 36.4354 94.8283C36.2741 94.4815 35.8949 93.6828 36.5322 93.0455C37.1696 92.4082 38.0975 92.618 38.6461 93.1665C39.0898 93.6102 39.4529 94.4411 38.7268 95.2155L38.0571 94.546C38.1862 94.3604 38.3879 94.0458 38.0571 93.7151C37.8312 93.4892 37.4843 93.4569 37.2584 93.6828C37.0002 93.9248 37.1212 94.1749 37.452 94.9816C37.7425 95.7238 37.7828 96.2562 37.3068 96.7322C36.7662 97.2727 35.9271 97.4501 35.1284 96.6515C34.3297 95.8528 34.4265 95.03 35.08 94.3766L35.7577 95.0542Z" fill="#00192E"/>
<path id="Vector_8" d="M40.2758 94.917L40.9536 95.5946L37.5811 98.9667L36.9034 98.289L40.2758 94.917Z" fill="#00192E"/>
<path id="Vector_9" d="M41.7281 96.3691L42.8012 97.4421C43.2207 97.8615 43.7935 98.515 43.6483 99.4588C43.5838 100.015 43.3094 100.491 42.898 100.903C41.9459 101.855 40.7035 102.097 39.4771 100.871L38.3557 99.7492L41.7281 96.3772V96.3691ZM39.6304 99.8299L40.1064 100.306C40.8325 101.032 41.599 100.838 42.2041 100.233C42.4704 99.967 42.6801 99.6202 42.7366 99.2491C42.777 98.9264 42.7043 98.5392 42.2929 98.1278L41.8088 97.6437L39.6304 99.8218V99.8299Z" fill="#00192E"/>
<path id="Vector_10" d="M45.1973 99.8461L47.0933 101.742L46.4963 102.339L45.2861 101.129L44.5196 101.895L45.7137 103.089L45.1167 103.686L43.9226 102.492L43.1077 103.307L44.3179 104.517L43.7209 105.114L41.8249 103.218L45.1973 99.8461Z" fill="#00192E"/>
<path id="Vector_11" d="M47.5855 106.905L49.9091 104.549L50.5626 105.203L47.1902 108.575L46.5851 107.97L47.3677 104.081L45.0441 106.429L44.3906 105.775L47.763 102.403L48.3681 103.008L47.5775 106.897L47.5855 106.905Z" fill="#00192E"/>
<path id="Vector_12" d="M51.2 107.034L50.4658 106.3L51.0629 105.703L53.2009 107.84L52.6039 108.437L51.8778 107.711L49.1023 110.486L48.4246 109.809L51.2 107.034Z" fill="#00192E"/>
<path id="Vector_13" d="M53.6931 108.333L54.3708 109.01L50.9983 112.382L50.3206 111.705L53.6931 108.333Z" fill="#00192E"/>
<path id="Vector_14" d="M52.2247 113.616L51.4824 112.874L56.2265 110.866L56.8235 111.463L54.7823 116.174L54.04 115.432L54.4515 114.52L53.1202 113.189L52.2166 113.608L52.2247 113.616ZM55.694 111.939L53.8464 112.826L54.8145 113.794L55.6859 111.93L55.694 111.939Z" fill="#00192E"/>
<path id="Vector_15" d="M58.663 113.31L59.3407 113.988L56.5653 116.763L57.6706 117.868L57.0736 118.465L55.2825 116.674L58.6549 113.302L58.663 113.31Z" fill="#00192E"/>
</g>
<g id="Group_3">
<path id="Vector_16" d="M61.1399 122.038L62.1645 121.014C62.689 120.49 63.0682 120.272 63.3828 120.223C63.8588 120.143 64.351 120.336 64.7302 120.716C64.9722 120.958 65.1255 121.248 65.1739 121.53C65.2385 121.893 65.1417 122.176 64.9803 122.45L66.9812 122.95L66.2712 123.66L63.7943 122.998L63.9234 122.869C64.1493 122.644 64.3752 122.393 64.4075 122.135C64.4317 121.893 64.3348 121.635 64.1331 121.425C63.9314 121.216 63.641 121.135 63.3909 121.191C63.1892 121.24 62.9955 121.377 62.81 121.563L62.4147 121.958L65.1901 124.733L64.5123 125.411L61.1399 122.038Z" fill="#00192E"/>
<path id="Vector_17" d="M65.7226 120.893C64.6414 119.812 64.7705 118.287 65.7145 117.343C66.7391 116.319 68.2801 116.359 69.2402 117.319C70.2003 118.279 70.2407 119.82 69.216 120.853C68.1914 121.885 66.6342 121.805 65.7306 120.901L65.7226 120.893ZM66.3761 120.183C66.9892 120.796 67.9735 120.893 68.6271 120.24C69.3128 119.554 69.1192 118.562 68.5625 118.005C68.0058 117.448 67.0054 117.247 66.3115 117.94C65.6177 118.634 65.771 119.594 66.368 120.183H66.3761Z" fill="#00192E"/>
<path id="Vector_18" d="M69.7404 116.876C68.6593 115.795 68.7884 114.27 69.7324 113.326C70.757 112.301 72.298 112.342 73.2581 113.302C74.2182 114.262 74.2586 115.803 73.2339 116.835C72.2093 117.868 70.6521 117.787 69.7485 116.884L69.7404 116.876ZM70.3939 116.166C71.0071 116.779 71.9914 116.876 72.6449 116.222C73.2985 115.569 73.1371 114.544 72.5804 113.988C72.0237 113.431 71.0233 113.229 70.3294 113.923C69.6355 114.617 69.7888 115.577 70.3859 116.166H70.3939Z" fill="#00192E"/>
<path id="Vector_19" d="M72.1932 110.995L73.9843 109.204L74.5813 109.801L73.4679 110.914L74.2747 111.721L75.3639 110.632L75.961 111.229L74.8718 112.318L76.2433 113.689L75.5656 114.367L72.1932 110.995Z" fill="#00192E"/>
<path id="Vector_20" d="M74.6055 108.583L75.2832 107.905L78.6557 111.277L77.978 111.955L74.6055 108.583Z" fill="#00192E"/>
<path id="Vector_21" d="M80.5517 107.316L78.1958 104.993L78.8493 104.339L82.2218 107.711L81.6167 108.316L77.7278 107.534L80.0756 109.857L79.4221 110.511L76.0497 107.139L76.6548 106.534L80.5436 107.324L80.5517 107.316Z" fill="#00192E"/>
<path id="Vector_22" d="M83.1819 102.072C83.0125 102.032 82.8269 102.024 82.6494 102.04C82.3428 102.081 82.0362 102.202 81.778 102.468C81.2375 103.008 81.0923 103.976 81.8265 104.71C82.5606 105.445 83.545 105.315 84.0855 104.775C84.3518 104.509 84.5051 104.202 84.5535 103.896C84.6019 103.589 84.5373 103.291 84.3921 103.041L83.1335 104.299L82.5849 103.75L84.6261 101.709C84.86 101.927 85.1666 102.298 85.328 102.71C85.7153 103.726 85.3038 104.759 84.6906 105.372C83.6821 106.38 82.133 106.372 81.1487 105.388C80.1644 104.404 80.2128 102.847 81.1971 101.855C81.9555 101.096 83.1093 100.903 83.9484 101.306L83.1819 102.072Z" fill="#00192E"/>
<path id="Vector_23" d="M90.6852 96.9903C91.1773 97.8938 91.016 99.0474 90.2253 99.838C89.1926 100.871 87.6354 100.79 86.6995 99.8541C85.7637 98.9183 85.6507 97.4098 86.7157 96.3449C87.6919 95.3769 88.9586 95.5382 89.5879 95.9012L88.8699 96.6192C88.531 96.4901 87.8533 96.4175 87.3127 96.9499C86.6592 97.6034 86.7802 98.5795 87.3773 99.1765C87.9743 99.7734 88.9828 99.8944 89.6202 99.2491C90.2253 98.644 90.0236 97.9019 89.9591 97.7083L90.6771 96.9903H90.6852Z" fill="#00192E"/>
<path id="Vector_24" d="M90.6045 96.0142C89.5234 94.9332 89.6525 93.4085 90.5964 92.4647C91.6211 91.4402 93.1621 91.4805 94.1222 92.4405C95.0823 93.4004 95.1226 94.9413 94.098 95.9738C93.0733 97.0064 91.5162 96.9258 90.6126 96.0222L90.6045 96.0142ZM91.258 95.3043C91.8712 95.9174 92.8555 96.0142 93.509 95.3607C94.1625 94.7073 94.0012 93.6828 93.4445 93.1262C92.8878 92.5695 91.8873 92.3679 91.1935 93.0536C90.4996 93.7393 90.6529 94.7073 91.25 95.2962L91.258 95.3043Z" fill="#00192E"/>
<path id="Vector_25" d="M97.5592 90.3107L95.2033 87.9874L95.8568 87.334L99.2293 90.706L98.6242 91.311L94.7354 90.5285L97.0832 92.8518L96.4296 93.5053L93.0572 90.1333L93.6623 89.5282L97.5511 90.3188L97.5592 90.3107Z" fill="#00192E"/>
<path id="Vector_26" d="M97.6802 86.6967L96.9541 87.4227L96.3571 86.8258L98.4951 84.688L99.0921 85.2849L98.366 86.011L101.141 88.786L100.464 89.4637L97.6883 86.6886L97.6802 86.6967Z" fill="#00192E"/>
<path id="Vector_27" d="M98.9711 84.2201L99.9957 83.1956C100.52 82.6713 100.899 82.4535 101.222 82.4051C101.698 82.3244 102.19 82.518 102.569 82.8971C102.811 83.1392 102.965 83.4296 103.013 83.7119C103.078 84.0749 102.981 84.3573 102.82 84.6316L104.82 85.1317L104.11 85.8416L101.634 85.1801L101.763 85.051C101.989 84.8252 102.214 84.5751 102.247 84.3169C102.271 84.0749 102.174 83.8168 101.972 83.607C101.771 83.3973 101.48 83.3166 101.23 83.3731C101.028 83.4215 100.835 83.5586 100.649 83.7442L100.254 84.1395L103.029 86.9145L102.352 87.5922L98.9791 84.2201H98.9711Z" fill="#00192E"/>
<path id="Vector_28" d="M105.813 84.1234L105.071 84.8655L103.062 80.1221L103.659 79.5251L108.37 81.5661L107.628 82.3083L106.724 81.8969L105.393 83.2279L105.813 84.1314V84.1234ZM104.135 80.6545L105.022 82.5019L105.99 81.5338L104.127 80.6545H104.135Z" fill="#00192E"/>
<path id="Vector_29" d="M110.775 76.9032C111.267 77.8068 111.106 78.9603 110.315 79.7509C109.282 80.7835 107.725 80.7028 106.789 79.767C105.853 78.8313 105.74 77.3227 106.805 76.2579C107.781 75.2898 109.048 75.4512 109.677 75.8142L108.959 76.5322C108.621 76.4031 107.943 76.3305 107.402 76.8629C106.749 77.5163 106.87 78.4925 107.467 79.0894C108.064 79.6864 109.072 79.8074 109.71 79.162C110.315 78.557 110.113 77.8148 110.049 77.6212L110.767 76.9032H110.775Z" fill="#00192E"/>
<path id="Vector_30" d="M110.178 74.2008L109.443 74.9349L108.846 74.338L110.984 72.2002L111.582 72.7972L110.855 73.5232L113.631 76.2983L112.953 76.9759L110.178 74.2008Z" fill="#00192E"/>
<path id="Vector_31" d="M112.872 73.749C111.791 72.6681 111.92 71.1434 112.864 70.1995C113.889 69.175 115.43 69.2154 116.39 70.1753C117.35 71.1353 117.391 72.6761 116.366 73.7087C115.341 74.7413 113.784 74.6606 112.88 73.7571L112.872 73.749ZM113.526 73.0391C114.139 73.6522 115.123 73.749 115.777 73.0956C116.463 72.4099 116.269 71.4177 115.712 70.861C115.156 70.3044 114.155 70.1027 113.461 70.7965C112.768 71.4903 112.921 72.4502 113.518 73.0391H113.526Z" fill="#00192E"/>
<path id="Vector_32" d="M115.309 67.8843L116.334 66.8598C116.858 66.3354 117.237 66.1176 117.552 66.0692C118.028 65.9886 118.52 66.1822 118.899 66.5613C119.141 66.8033 119.295 67.0937 119.343 67.3761C119.408 67.7391 119.311 68.0215 119.149 68.2957L121.15 68.7959L120.44 69.5058L117.963 68.8443L118.092 68.7152C118.318 68.4894 118.544 68.2393 118.577 67.9811C118.601 67.7391 118.504 67.481 118.302 67.2712C118.101 67.0615 117.81 66.9808 117.56 67.0373C117.358 67.0857 117.165 67.2228 116.979 67.4084L116.584 67.8037L119.359 70.5787L118.681 71.2564L115.309 67.8843Z" fill="#00192E"/>
</g>
</g>
<g id="Group_4">
<path id="Vector_33" d="M44.7778 55.5659V47.6763H46.0122L48.9329 54.2993L51.8455 47.6763H53.0799V55.5659H52.2489L52.2731 48.5475L49.2153 55.5659H48.6505L45.5766 48.5475L45.6008 55.5659H44.7778Z" fill="white"/>
<path id="Vector_34" d="M54.9113 55.5659H53.9593L57.2511 47.6763H58.1063L61.3658 55.5659H60.4057L59.4859 53.3474H55.8069L54.9033 55.5659H54.9113ZM57.6545 48.6685L56.0893 52.6214H59.2358L57.6545 48.6685Z" fill="white"/>
<path id="Vector_35" d="M62.7454 53.3717C62.8745 54.6785 63.8346 54.9609 64.3268 54.9609C65.1497 54.9609 65.9081 54.3316 65.9081 53.4604C65.9081 52.3552 64.9561 52.1051 64.0444 51.8067C63.407 51.613 62.0274 51.2097 62.0274 49.7173C62.0032 48.3217 63.165 47.5392 64.3752 47.5392C65.3595 47.5392 66.489 48.0797 66.6181 49.5721H65.7468C65.6499 49.0639 65.3918 48.2814 64.351 48.2814C63.5603 48.2814 62.9149 48.8138 62.9149 49.6366C62.9068 50.5966 63.6813 50.8305 64.8754 51.2339C65.6257 51.5243 66.7956 51.9357 66.7956 53.3878C66.7956 54.6785 65.8274 55.703 64.351 55.703C63.0278 55.703 61.9306 54.8721 61.8741 53.3717H62.7616H62.7454Z" fill="white"/>
<path id="Vector_36" d="M69.1838 48.4507H67.2474V47.6763H72.0237V48.4507H70.0713V55.5578H69.1838V48.4507Z" fill="white"/>
<path id="Vector_37" d="M73.0967 47.6763H77.4696V48.4507H73.9762V51.1935H77.4535V51.968H73.9762V54.7834H77.4696V55.5578H73.0967V47.6682V47.6763Z" fill="white"/>
<path id="Vector_38" d="M78.5831 47.6763H80.6404C81.8748 47.6763 82.4557 47.8215 82.8591 48.0796C83.4965 48.4669 83.9322 49.3058 83.9322 50.2013C83.9403 50.7337 83.795 51.2984 83.4642 51.7501C82.9963 52.3874 82.4315 52.5407 81.7054 52.6133L83.666 55.5659H82.7059L80.4791 52.1212H80.7372C81.2939 52.1212 82.0604 52.1132 82.488 51.7179C82.9076 51.3145 83.0851 50.8305 83.0851 50.2658C83.0851 49.7011 82.7946 49.0638 82.3105 48.7411C81.9152 48.483 81.423 48.4507 80.713 48.4507H79.4786V55.5578H78.5911V47.6682L78.5831 47.6763Z" fill="white"/>
</g>
<g id="Group_5">
<path id="Vector_39" d="M49.1991 58.3248H54.6612V60.4465H51.5066V62.6004H54.6612V64.722H51.5066V67.4245H54.6612V69.5461H49.1991V58.3168V58.3248Z" fill="white"/>
<path id="Vector_40" d="M56.178 58.3248H58.4854V67.4325H61.4303V69.5542H56.178V58.3248Z" fill="white"/>
<path id="Vector_41" d="M62.8099 58.3248H65.1174V69.5542H62.8099V58.3248Z" fill="white"/>
<path id="Vector_42" d="M68.2881 60.4465H66.4083V58.3248H72.4835V60.4465H70.6037V69.5542H68.2962V60.4465H68.2881Z" fill="white"/>
<path id="Vector_43" d="M73.5647 58.3248H79.0268V60.4465H75.8722V62.6004H79.0268V64.722H75.8722V67.4245H79.0268V69.5461H73.5647V58.3168V58.3248Z" fill="white"/>
<path id="Vector_44" d="M80.8098 58.3409C81.5117 58.3409 82.0523 58.9137 82.0523 59.5994C82.0523 60.2851 81.4875 60.8579 80.8017 60.8579C80.1159 60.8579 79.5431 60.3012 79.5431 59.5994C79.5431 58.8976 80.0837 58.3409 80.8017 58.3409H80.8098ZM80.8017 58.5507C80.2127 58.5507 79.769 59.0266 79.769 59.5994C79.769 60.1722 80.2289 60.6481 80.8017 60.6481C81.3745 60.6481 81.8264 60.1883 81.8264 59.5994C81.8264 59.0105 81.3907 58.5507 80.8017 58.5507ZM80.8582 58.8814C81.0841 58.8814 81.3665 58.9702 81.3665 59.2767C81.3665 59.4058 81.3181 59.5429 81.1244 59.6236C81.2535 59.672 81.3261 59.7527 81.3342 59.9463C81.3503 60.2044 81.3503 60.2286 81.3745 60.3012H81.1002C81.076 60.2528 81.068 60.0673 81.0518 59.9624C81.0438 59.8576 81.0195 59.7285 80.7533 59.7285H80.5355V60.3012H80.2531V58.8814H80.8501H80.8582ZM80.5435 59.0831V59.5349H80.7856C80.8663 59.5349 81.0841 59.5349 81.0841 59.2929C81.0841 59.0831 80.8905 59.0831 80.8098 59.0831H80.5435Z" fill="white"/>
</g>
<g id="Group_6">
<path id="Vector_45" d="M76.2998 40.8596V16.368H51.8051V40.8596H76.2998Z" fill="white"/>
<path id="Vector_46" d="M74.1375 26.5648V24.9272H68.4334V31.8164L65.9242 25.0804H63.528L61.2286 31.8003V28.1056H57.9772V29.6222H59.0502C59.0502 30.2434 58.1385 30.5338 57.6302 30.5338C57.122 30.5338 56.1134 30.4208 56.1134 28.3153C56.1134 26.2098 57.5334 26.234 57.5334 26.234C58.7436 26.234 58.8969 27.1859 58.8969 27.1859H61.0592C60.688 25.145 59.0341 24.6529 57.6706 24.6126C56.3071 24.5722 53.9754 25.4273 53.9754 28.3073C53.9754 31.1872 55.5729 32.2763 57.2833 32.3166C58.9373 32.3569 59.6553 31.2679 59.6553 31.2679V32.244H63.1246L63.4392 31.3082H66.013L66.2792 32.2198H70.7409V29.6464H73.4437V28.033H70.7409V26.5567H74.1456L74.1375 26.5648ZM63.8427 29.8723L64.6898 27.0569L65.5208 29.8723H63.8507H63.8427Z" fill="#00192E"/>
</g>
</g>
<defs>
<clipPath id="clip0_1_852">
<rect width="128" height="128" fill="white"/>
</clipPath>
</defs>
</svg>
