<svg width="54" height="54" viewBox="0 0 54 54" fill="none" xmlns="http://www.w3.org/2000/svg">
<g id="Google - Original" clip-path="url(#clip0_1_1148)">
<path id="Vector" d="M53.4735 27.6219C53.4735 25.7865 53.3247 23.9412 53.0072 22.1356H27.54V32.5328H42.1239C41.5187 35.8861 39.5742 38.8525 36.7268 40.7375V47.4838H45.4276C50.5369 42.7812 53.4735 35.8365 53.4735 27.6219Z" fill="#4285F4"/>
<path id="Vector_2" d="M27.54 54.0019C34.822 54.0019 40.9631 51.6109 45.4375 47.4838L36.7367 40.7375C34.316 42.3844 31.1909 43.3169 27.5499 43.3169C20.506 43.3169 14.5336 38.5648 12.3906 32.1757H3.41211V39.1303C7.99561 48.2477 17.3313 54.0019 27.54 54.0019Z" fill="#34A853"/>
<path id="Vector_3" d="M12.3807 32.1756C11.2497 28.8223 11.2497 25.1912 12.3807 21.8379V14.8833H3.41211C-0.417398 22.5125 -0.417398 31.501 3.41211 39.1302L12.3807 32.1756Z" fill="#FBBC04"/>
<path id="Vector_4" d="M27.54 10.6867C31.3893 10.6272 35.1097 12.0757 37.8975 14.7345L45.6061 7.02589C40.725 2.44239 34.2466 -0.0775485 27.54 0.0018195C17.3313 0.0018195 7.99561 5.756 3.41211 14.8833L12.3807 21.8379C14.5137 15.4389 20.4961 10.6867 27.54 10.6867Z" fill="#EA4335"/>
</g>
<defs>
<clipPath id="clip0_1_1148">
<rect width="54" height="54" fill="white"/>
</clipPath>
</defs>
</svg>
