<svg width="43" height="42" viewBox="0 0 43 42" fill="none" xmlns="http://www.w3.org/2000/svg">
<path d="M36.8335 27.25V11.15L26.3335 3.8L15.8335 11.15V17.6H12.8335V9.65L26.3335 0L39.8335 9.65V27.25H36.8335ZM26.6335 41.9L11.0835 37.45V40.3H0.333496V20.6H15.7835L31.7335 26.6V30.25H42.3335V37.1L26.6335 41.9ZM3.3335 37.3H8.0335V23.6H3.3335V37.3ZM26.4335 38.8L39.2335 34.9V33.25H24.2835L17.8335 31.25L18.9335 28.35L24.6835 30.25H28.5335V28.65L15.2835 23.6H11.0835V34.3L26.4335 38.8ZM27.3335 14H29.3335V12H27.3335V14ZM23.3335 14H25.3335V12H23.3335V14ZM27.3335 18H29.3335V16H27.3335V18ZM23.3335 18H25.3335V16H23.3335V18Z" fill="#00192E"/>
</svg>
