<svg width="124" height="141" viewBox="0 0 124 141" fill="none" xmlns="http://www.w3.org/2000/svg">
<g clip-path="url(#clip0_486_2294)">
<mask id="mask0_486_2294" style="mask-type:luminance" maskUnits="userSpaceOnUse" x="0" y="0" width="124" height="141">
<path d="M124 0H0V141H124V0Z" fill="white"/>
</mask>
<g mask="url(#mask0_486_2294)">
<path d="M9.95905 135.76C9.95905 139.524 8.28701 141 4.9185 141C1.55 141 -0.012207 139.069 -0.012207 136.092V134.948H3.71023V135.735C3.71023 136.793 3.71023 137.777 4.80866 137.777C5.90708 137.777 5.79724 136.461 5.79724 135.858V127.039H9.93464V135.772H9.95905V135.76Z" fill="#261700"/>
<path d="M17.5993 136.227C17.16 136.449 16.6474 136.584 16.1226 136.695C15.3049 136.892 14.8655 137.088 14.8655 137.753C14.8655 138.195 15.3537 138.675 16.0493 138.675C16.8915 138.675 17.5505 138.171 17.6116 137.113V136.227H17.5993ZM21.1631 138.454C21.1631 139.204 21.1875 140.041 21.6025 140.692H17.7946C17.7092 140.41 17.6604 140.028 17.6604 139.745H17.636C16.8427 140.668 15.6954 140.951 14.4871 140.951C12.5954 140.951 11.0454 140.028 11.0454 137.937C11.0454 134.788 14.658 134.924 16.5497 134.567C17.0745 134.481 17.5627 134.321 17.5627 133.681C17.5627 133.042 16.9281 132.759 16.3301 132.759C15.1828 132.759 14.9631 133.349 14.9387 133.767H11.5702C11.6801 130.975 14.2797 130.508 16.5742 130.508C21.2242 130.508 21.1997 132.488 21.1997 134.382V138.478H21.1753L21.1631 138.454Z" fill="#261700"/>
<path d="M23.1279 130.766H26.7161V132.082H26.7405C27.485 130.938 28.5712 130.52 29.9382 130.52C30.9756 130.52 32.135 131.074 32.5622 132.082C32.6964 131.971 33.4653 130.52 35.8697 130.52C38.274 130.52 39.2137 132.279 39.2137 133.89V140.692H35.4913V135.305C35.4913 134.358 35.4059 133.521 34.2586 133.521C33.3311 133.521 33.0015 134.272 33.0015 135.305V140.692H29.2791V135.305C29.2791 134.358 29.1937 133.521 28.0464 133.521C27.1189 133.521 26.7893 134.272 26.7893 135.305V140.692H23.0669V130.766H23.1279Z" fill="#261700"/>
<path d="M47.6837 134.579C47.6837 133.657 47.0002 132.906 46.0361 132.906C44.9377 132.906 44.2786 133.497 44.1199 134.579H47.6837ZM44.1199 136.56C44.2054 137.679 44.8522 138.491 46.0117 138.491C46.6097 138.491 47.2688 138.269 47.5739 137.79H51.0522C50.3077 139.942 48.2573 140.938 46.0483 140.938C42.9239 140.938 40.5684 139.069 40.5684 135.748C40.5684 132.845 42.6432 130.508 45.7187 130.508C49.5754 130.508 51.2475 132.709 51.2475 136.56H44.1321H44.1199Z" fill="#261700"/>
<path d="M58.1922 133.632C58.1678 133.3 57.9969 133.042 57.7528 132.882C57.5331 132.685 57.228 132.599 56.9351 132.599C56.4103 132.599 55.8123 132.709 55.8123 133.349C55.8123 133.632 56.032 133.767 56.2516 133.878C56.8863 134.161 58.2776 134.21 59.5103 134.628C60.743 135.022 61.8414 135.772 61.8414 137.396C61.8414 140.164 59.2418 140.914 56.8863 140.914C54.5308 140.914 52.0654 139.967 52.0166 137.396H55.5682C55.5926 137.728 55.7268 138.036 56.0075 138.294C56.2028 138.466 56.5568 138.577 56.9961 138.577C57.4843 138.577 58.2532 138.38 58.2532 137.826C58.2532 137.236 57.9237 137.076 56.2028 136.769C53.3591 136.264 52.2363 135.342 52.2363 133.644C52.2363 131.135 54.8847 130.495 56.8375 130.495C58.9489 130.495 61.4631 131.086 61.5729 133.644H58.2044L58.1922 133.632Z" fill="#261700"/>
</g>
<path d="M71.166 127.027V131.762H67.2849V127.027H63.1841V140.693H67.2849V135.256H71.166V140.693H75.3034V127.027H71.166Z" fill="#261700"/>
<mask id="mask1_486_2294" style="mask-type:luminance" maskUnits="userSpaceOnUse" x="0" y="0" width="124" height="141">
<path d="M124 0H0V141H124V0Z" fill="white"/>
</mask>
<g mask="url(#mask1_486_2294)">
<path d="M82.9187 136.227C82.4793 136.449 81.9545 136.584 81.4419 136.695C80.6242 136.892 80.1848 137.088 80.1848 137.753C80.1848 138.195 80.673 138.675 81.3687 138.675C82.2108 138.675 82.8699 138.171 82.9309 137.113V136.227H82.9187ZM86.5069 138.454C86.5069 139.204 86.5313 140.041 86.9462 140.692H83.1384C83.0529 140.41 83.0041 140.028 83.0041 139.745H82.9797C82.1864 140.668 81.0392 140.951 79.8309 140.951C77.9392 140.951 76.3892 140.028 76.3892 137.937C76.3892 134.788 80.0018 134.924 81.8935 134.567C82.4183 134.481 82.9065 134.321 82.9065 133.681C82.9065 133.042 82.2718 132.759 81.6738 132.759C80.5266 132.759 80.3069 133.349 80.2825 133.767H76.8407C76.9506 130.975 79.5502 130.508 81.8447 130.508C86.4947 130.508 86.4703 132.488 86.4703 134.382V138.478H86.5313L86.5069 138.454Z" fill="#261700"/>
<path d="M88.2764 130.766H91.8401V132.353H91.8645C92.4626 131.16 93.2559 130.508 94.5984 130.508C94.9768 130.508 95.3429 130.569 95.6968 130.643V133.989C95.3185 133.853 94.989 133.743 94.2445 133.743C92.7677 133.743 91.9988 134.641 91.9988 136.756V140.692H88.2764V130.766Z" fill="#261700"/>
<path d="M101.445 133.251C100.103 133.251 99.7976 134.53 99.7976 135.711C99.7976 136.892 100.103 138.195 101.445 138.195C102.788 138.195 103.093 136.916 103.093 135.711C103.093 134.505 102.788 133.251 101.445 133.251ZM106.669 140.705H103.081V139.622H103.056C102.593 140.262 102.019 140.963 100.213 140.963C97.4421 140.963 96.1118 138.208 96.1118 135.686C96.1118 133.337 96.9906 130.52 100.274 130.52C101.396 130.52 102.385 131.024 102.934 131.861H102.959V127.039H106.681V140.705H106.669Z" fill="#261700"/>
</g>
<path d="M108.292 130.766V140.693H112.015V130.766H108.292ZM108.292 127.027V129.684H112.015V127.027H108.292Z" fill="#261700"/>
<mask id="mask2_486_2294" style="mask-type:luminance" maskUnits="userSpaceOnUse" x="0" y="0" width="124" height="141">
<path d="M124 0H0V141H124V0Z" fill="white"/>
</mask>
<g mask="url(#mask2_486_2294)">
<path d="M120.473 134.579C120.473 133.657 119.789 132.906 118.825 132.906C117.727 132.906 117.08 133.497 116.909 134.579H120.473ZM116.885 136.56C116.97 137.679 117.617 138.491 118.776 138.491C119.374 138.491 120.033 138.269 120.339 137.79H123.817C123.072 139.942 121.022 140.938 118.813 140.938C115.689 140.938 113.333 139.069 113.333 135.748C113.333 132.845 115.408 130.508 118.483 130.508C122.34 130.508 124.012 132.709 124.012 136.56H116.897H116.885Z" fill="#261700"/>
<path d="M83.3705 103.459L102.324 44.7613H89.1312L80.8564 70.3093H69.9575L78.2323 44.7613H65.039L45.4505 105.562C26.8016 98.6988 13.4009 80.654 13.4009 59.5342C13.4009 34.6258 31.7323 14.1455 55.617 10.972L40.3245 58.587C39.6898 60.4813 37.7005 61.5391 35.7111 60.9118C33.8194 60.2845 32.782 58.2672 33.4044 56.2622L37.1757 44.6506H23.8725L21.3583 52.3507C18.6367 60.8995 23.2379 70.0879 31.7323 72.8309C40.2146 75.5739 49.3316 70.9367 52.0532 62.3756L68.6028 10.972C92.28 14.2439 110.502 34.7242 110.502 59.4235C110.502 78.8459 99.5052 95.5253 83.3705 103.447M57.704 108.305L65.869 82.9665H76.7556L68.6883 108.084C66.4914 108.404 64.1847 108.613 61.878 108.613C60.5111 108.502 59.0465 108.404 57.6918 108.293M62.0001 0C29.3158 0 2.9292 26.7043 2.9292 59.5342C2.9292 92.364 29.4257 119.068 62.0001 119.068C94.5745 119.068 121.071 92.364 121.071 59.5342C121.071 26.7043 94.5745 0 62.0001 0Z" fill="#149748"/>
</g>
</g>
<defs>
<clipPath id="clip0_486_2294">
<rect width="124" height="141" fill="white"/>
</clipPath>
</defs>
</svg>
