<svg width="40" height="40" viewBox="0 0 40 40" fill="none" xmlns="http://www.w3.org/2000/svg">
<g id="left">
<path id="Union" fill-rule="evenodd" clip-rule="evenodd" d="M13.5417 35.3541C15.5695 36.2291 17.7223 36.6666 20 36.6666C22.3056 36.6666 24.4723 36.2291 26.5 35.3541C28.5278 34.4791 30.2917 33.2846 31.7917 31.7708C33.2917 30.2569 34.4792 28.486 35.3542 26.4583C36.2292 24.4305 36.6667 22.2777 36.6667 19.9999C36.6667 17.6944 36.2292 15.5277 35.3542 13.4999C34.4792 11.4721 33.2917 9.70825 31.7917 8.20825C30.2917 6.70825 28.5278 5.52075 26.5 4.64575C24.4723 3.77075 22.3195 3.33325 20.0417 3.33325C17.7362 3.33325 15.5695 3.77075 13.5417 4.64575C11.5139 5.52075 9.7431 6.70825 8.22921 8.20825C6.71532 9.70825 5.52087 11.4721 4.64587 13.4999C3.77087 15.5277 3.33337 17.6805 3.33337 19.9583C3.33337 22.2638 3.77087 24.4305 4.64587 26.4583C5.52087 28.486 6.71532 30.2569 8.22921 31.7708C9.7431 33.2846 11.5139 34.4791 13.5417 35.3541ZM30.0417 30.0208C27.2917 32.7846 23.9584 34.1666 20.0417 34.1666C16.0973 34.1666 12.7431 32.7846 9.97921 30.0208C7.21532 27.2569 5.83337 23.9166 5.83337 19.9999C5.83337 16.0555 7.21532 12.7083 9.97921 9.95825C12.7431 7.20825 16.0834 5.83325 20 5.83325C23.9445 5.83325 27.2917 7.20825 30.0417 9.95825C32.7917 12.7083 34.1667 16.0416 34.1667 19.9583C34.1667 23.9027 32.7917 27.2569 30.0417 30.0208ZM22.5505 24.9494L17.601 19.9999L22.5505 15.0505L20.7827 13.2827L14.0655 19.9999L20.7827 26.7171L22.5505 24.9494Z" fill="black"/>
</g>
</svg>
