<?xml version="1.0" encoding="UTF-8"?><svg id="Layer_2" xmlns="http://www.w3.org/2000/svg" viewBox="0 0 684.91 586.71"><defs><style>.cls-1{fill:#fff;}</style></defs><g id="Layer_2-2"><g><path class="cls-1" d="m511.51,139.66c-3.43,0-6.13,2.79-6.13,6.12v.03c0,3.32,2.67,6.08,6.1,6.08s6.13-2.79,6.13-6.12v-.03c0-3.33-2.66-6.08-6.09-6.08m5.45,6.12c0,3.02-2.36,5.51-5.49,5.51s-5.46-2.45-5.46-5.47v-.03c0-3.02,2.37-5.51,5.49-5.51s5.45,2.45,5.45,5.48v.03Z"/><path class="cls-1" d="m512.86,146.39c.88-.25,1.49-.89,1.49-1.93v-.03c0-.56-.19-1.01-.53-1.34-.44-.44-1.1-.69-1.94-.69h-2.85v6.4h1.21v-2.2h1.34l1.55,2.2h1.46l-1.72-2.41Zm-1.03-.86h-1.59v-2.03h1.59c.79,0,1.27.36,1.27,1v.03c0,.61-.48,1-1.27,1"/><path class="cls-1" d="m642.41,260.31c-4.2,0-7.52,3.42-7.52,7.49v.05c0,4.07,3.27,7.45,7.47,7.45s7.52-3.42,7.52-7.49v-.05c0-4.08-3.27-7.45-7.47-7.45m6.68,7.49c0,3.7-2.89,6.75-6.73,6.75s-6.68-3-6.68-6.7v-.05c0-3.71,2.89-6.75,6.73-6.75s6.68,3.01,6.68,6.71v.05Z"/><path class="cls-1" d="m644.07,268.55c1.08-.31,1.82-1.1,1.82-2.36v-.05c0-.68-.23-1.24-.65-1.63-.54-.54-1.35-.85-2.38-.85h-3.5v7.84h1.49v-2.71h1.64l1.9,2.71h1.78l-2.11-2.96Zm-1.26-1.06h-1.95v-2.48h1.95c.97,0,1.55.43,1.55,1.22v.04c0,.75-.58,1.22-1.55,1.22"/><polygon class="cls-1" points="56.52 260.03 86.44 260.03 110.8 299.59 135.18 260.03 165.1 260.03 165.1 362.19 136.94 362.19 136.94 303.52 110.8 343.52 110.23 343.52 84.25 303.82 84.25 362.19 56.52 362.19 56.52 260.03"/><path class="cls-1" d="m243.33,321.91l-11.38-29.04-11.53,29.04h22.9Zm-24.8-62.6h27.28l43.5,102.89h-30.36l-7.44-18.24h-39.41l-7.29,18.24h-29.79l43.51-102.89Z"/><path class="cls-1" d="m292.97,347.02l15.76-18.83c10.07,8.03,21.31,12.26,33.13,12.26,7.6,0,11.67-2.62,11.67-7.01v-.29c0-4.24-3.34-6.56-17.21-9.77-21.74-4.97-38.53-11.1-38.53-32.12v-.29c0-18.97,15.03-32.7,39.56-32.7,17.37,0,30.94,4.68,42.04,13.57l-14.16,20c-9.34-6.56-19.57-10.06-28.62-10.06-6.85,0-10.22,2.92-10.22,6.56v.29c0,4.67,3.51,6.71,17.67,9.93,23.49,5.1,38.09,12.69,38.09,31.81v.29c0,20.87-16.49,33.27-41.31,33.27-18.1,0-35.32-5.69-47.87-16.93"/><polygon class="cls-1" points="420.09 284.85 389.44 284.85 389.44 260.02 479.06 260.02 479.06 284.85 448.41 284.85 448.41 362.2 420.09 362.2 420.09 284.85"/><rect class="cls-1" x="494.23" y="260.03" width="28.47" height="102.16"/><path class="cls-1" d="m535.7,311.41v-.29c0-29.76,22.9-53.13,53.85-53.13,20.88,0,34.31,8.76,43.36,21.31l-21.31,16.48c-5.84-7.28-12.57-11.97-22.34-11.97-14.29,0-24.37,12.13-24.37,27v.3c0,15.33,10.08,27.29,24.37,27.29,10.66,0,16.93-4.96,23.07-12.4l21.29,15.17c-9.62,13.29-22.61,23.07-45.24,23.07-29.18,0-52.68-22.33-52.68-52.84"/><path class="cls-1" d="m161.33,459.43c-3.69,0-6.49-.79-8.88-3.21l3.07-3.08c1.54,1.53,3.62,2.05,5.88,2.05,2.8,0,4.3-1.06,4.3-3.01,0-.86-.24-1.57-.75-2.05-.48-.44-1.03-.68-2.15-.86l-2.94-.41c-2.08-.31-3.62-.96-4.71-2.02-1.16-1.16-1.74-2.74-1.74-4.79,0-4.34,3.21-7.38,8.47-7.38,3.35,0,5.78.82,7.86,2.84l-3.01,2.97c-1.53-1.47-3.38-1.68-4.99-1.68-2.53,0-3.76,1.4-3.76,3.08,0,.62.2,1.26.71,1.74.48.44,1.27.82,2.25.96l2.88.41c2.21.31,3.62.92,4.64,1.88,1.3,1.23,1.88,3.01,1.88,5.16,0,4.72-3.93,7.38-9.02,7.38"/><rect class="cls-1" x="175.51" y="434.9" width="4.75" height="24.33"/><path class="cls-1" d="m201.82,456.91c-1.6,1.6-3.89,2.32-6.42,2.32h-8.78v-24.33h8.78c2.53,0,4.82.71,6.42,2.32,2.74,2.74,2.46,6.08,2.46,9.74s.27,7.21-2.46,9.95m-3.31-16.27c-.82-.99-1.91-1.5-3.56-1.5h-3.59v15.85h3.59c1.64,0,2.74-.52,3.56-1.5.89-1.1,1.03-2.84,1.03-6.53s-.14-5.23-1.03-6.32"/><rect class="cls-1" x="209.82" y="434.9" width="4.75" height="24.33"/><polygon class="cls-1" points="235.3 459.23 225.67 444.29 225.67 459.23 220.92 459.23 220.92 434.9 225.15 434.9 234.79 449.8 234.79 434.9 239.54 434.9 239.54 459.23 235.3 459.23"/><path class="cls-1" d="m260.9,456.66c-1.88,1.91-4.13,2.76-6.87,2.76-2.59,0-4.78-.88-6.56-2.66-1.06-1.06-1.71-2.29-1.98-3.65-.27-1.37-.41-3.39-.41-6.05,0-2.67.14-4.68.41-6.05.27-1.4.92-2.6,1.98-3.66,1.78-1.78,3.96-2.66,6.56-2.66,5.54,0,8.51,3.55,9.16,7.79h-4.79c-.58-2.36-2.01-3.56-4.37-3.56-1.26,0-2.29.45-3.04,1.3-.89,1.13-1.16,2.02-1.16,6.84s.2,5.74,1.16,6.86c.72.86,1.74,1.26,3.04,1.26,1.4,0,2.53-.44,3.39-1.36.71-.82,1.09-1.91,1.09-3.25v-.92h-4.48v-3.96h9.19v3.56c0,3.55-.65,5.64-2.32,7.41"/><path class="cls-1" d="m292.26,459.23l-1.78-2.12c-1.12.89-2.8,2.32-6.29,2.32-5.36,0-8.03-2.8-8.03-7.38,0-3.11,2.25-5.13,4.37-6.52-.99-1.13-2.42-2.84-2.42-5.16,0-3.32,2.42-5.68,6.49-5.68,3.82,0,6.22,2.43,6.22,5.74,0,1.87-.99,3.14-2.49,4.24,0,0-1.13.86-1.74,1.26l4.1,4.85c.79-1.06,1.16-2.53,1.23-4.28h4.2c-.17,3.14-.89,5.64-2.6,7.56l4.37,5.16h-5.64Zm-9.33-10.97c-1.47,1.03-2.46,1.98-2.46,3.73,0,2.02,1.64,3.42,3.69,3.42,1.43,0,2.5-.44,3.62-1.43l-4.85-5.71Zm1.68-9.77c-1.34,0-2.02.86-2.02,1.98,0,.89.75,1.74,1.6,2.73.35-.2,1.03-.68,1.03-.68.79-.55,1.4-1.2,1.4-2.05,0-1.13-.75-1.98-2.02-1.98"/><path class="cls-1" d="m324.72,459.23l-1.43-4.3h-8.65l-1.47,4.3h-4.95l8.85-24.33h3.73l8.89,24.33h-4.96Zm-5.67-17.16l-3.08,8.85h6.05l-2.97-8.85Z"/><path class="cls-1" d="m341.16,459.43c-2.59,0-4.79-.89-6.56-2.66-1.06-1.06-1.71-2.29-1.98-3.66-.28-1.36-.41-3.38-.41-6.05s.14-4.68.41-6.05c.27-1.4.92-2.59,1.98-3.65,1.77-1.78,3.96-2.67,6.56-2.67,4.68,0,8.13,2.74,8.95,7.69h-4.82c-.52-2.09-1.81-3.45-4.1-3.45-1.3,0-2.32.41-3.04,1.27-.99,1.06-1.2,2.15-1.2,6.86s.2,5.81,1.2,6.87c.72.86,1.74,1.26,3.04,1.26,2.29,0,3.59-1.36,4.1-3.45h4.82c-.82,4.95-4.31,7.69-8.95,7.69"/><path class="cls-1" d="m361.93,459.43c-2.6,0-4.79-.89-6.56-2.66-1.06-1.06-1.71-2.29-1.98-3.66-.28-1.36-.41-3.38-.41-6.05s.14-4.68.41-6.05c.27-1.4.92-2.59,1.98-3.65,1.77-1.78,3.96-2.67,6.56-2.67,4.68,0,8.13,2.74,8.95,7.69h-4.82c-.52-2.09-1.81-3.45-4.1-3.45-1.3,0-2.32.41-3.04,1.27-.99,1.06-1.2,2.15-1.2,6.86s.2,5.81,1.2,6.87c.72.86,1.74,1.26,3.04,1.26,2.29,0,3.59-1.36,4.1-3.45h4.82c-.82,4.95-4.31,7.69-8.95,7.69"/><polygon class="cls-1" points="375.66 459.23 375.66 434.9 391.69 434.9 391.69 439.14 380.41 439.14 380.41 444.84 390.01 444.84 390.01 449.08 380.41 449.08 380.41 454.99 391.69 454.99 391.69 459.23 375.66 459.23"/><path class="cls-1" d="m403.71,459.43c-3.69,0-6.49-.79-8.89-3.21l3.08-3.08c1.54,1.53,3.62,2.05,5.88,2.05,2.8,0,4.3-1.06,4.3-3.01,0-.86-.24-1.57-.75-2.05-.48-.44-1.03-.68-2.15-.86l-2.95-.41c-2.08-.31-3.62-.96-4.71-2.02-1.16-1.16-1.74-2.74-1.74-4.79,0-4.34,3.22-7.38,8.48-7.38,3.35,0,5.77.82,7.86,2.84l-3.01,2.97c-1.53-1.47-3.38-1.68-4.99-1.68-2.53,0-3.76,1.4-3.76,3.08,0,.62.2,1.26.71,1.74.48.44,1.26.82,2.25.96l2.88.41c2.21.31,3.62.92,4.64,1.88,1.3,1.23,1.87,3.01,1.87,5.16,0,4.72-3.92,7.38-9.02,7.38"/><path class="cls-1" d="m424.38,459.43c-3.69,0-6.49-.79-8.88-3.21l3.07-3.08c1.54,1.53,3.62,2.05,5.88,2.05,2.8,0,4.3-1.06,4.3-3.01,0-.86-.24-1.57-.75-2.05-.48-.44-1.03-.68-2.15-.86l-2.94-.41c-2.08-.31-3.62-.96-4.72-2.02-1.16-1.16-1.74-2.74-1.74-4.79,0-4.34,3.22-7.38,8.48-7.38,3.35,0,5.77.82,7.86,2.84l-3.01,2.97c-1.53-1.47-3.38-1.68-4.99-1.68-2.53,0-3.76,1.4-3.76,3.08,0,.62.2,1.26.71,1.74.48.44,1.27.82,2.25.96l2.87.41c2.22.31,3.62.92,4.65,1.88,1.3,1.23,1.88,3.01,1.88,5.16,0,4.72-3.93,7.38-9.02,7.38"/><path class="cls-1" d="m453.29,456.77c-1.7,1.71-3.79,2.66-6.56,2.66s-4.89-.95-6.59-2.66c-2.46-2.46-2.4-5.5-2.4-9.7s-.07-7.25,2.4-9.71c1.7-1.71,3.82-2.66,6.59-2.66s4.85.95,6.56,2.66c2.46,2.46,2.43,5.51,2.43,9.71s.03,7.24-2.43,9.7m-3.52-16.54c-.68-.79-1.74-1.3-3.04-1.3s-2.39.52-3.08,1.3c-.92,1.03-1.16,2.15-1.16,6.84s.24,5.81,1.16,6.83c.69.79,1.77,1.3,3.08,1.3s2.36-.51,3.04-1.3c.92-1.03,1.2-2.15,1.2-6.83s-.27-5.81-1.2-6.84"/><path class="cls-1" d="m474.17,459.23l-4.75-9.7h-3.42v9.7h-4.75v-24.33h9.53c4.96,0,7.9,3.38,7.9,7.45,0,3.42-2.08,5.53-4.44,6.39l5.43,10.49h-5.5Zm-3.69-20.09h-4.48v6.42h4.48c2.08,0,3.45-1.33,3.45-3.21s-1.36-3.21-3.45-3.21"/><rect class="cls-1" x="484.28" y="434.89" width="4.75" height="24.33"/><polygon class="cls-1" points="495.39 459.23 495.39 434.9 511.41 434.9 511.41 439.14 500.14 439.14 500.14 444.84 509.74 444.84 509.74 449.08 500.14 449.08 500.14 454.99 511.41 454.99 511.41 459.23 495.39 459.23"/><path class="cls-1" d="m523.44,459.43c-3.69,0-6.49-.79-8.88-3.21l3.07-3.08c1.54,1.53,3.62,2.05,5.88,2.05,2.8,0,4.3-1.06,4.3-3.01,0-.86-.24-1.57-.75-2.05-.48-.44-1.03-.68-2.15-.86l-2.94-.41c-2.08-.31-3.62-.96-4.72-2.02-1.16-1.16-1.74-2.74-1.74-4.79,0-4.34,3.22-7.38,8.48-7.38,3.35,0,5.77.82,7.86,2.84l-3.01,2.97c-1.53-1.47-3.38-1.68-4.99-1.68-2.53,0-3.76,1.4-3.76,3.08,0,.62.2,1.26.71,1.74.48.44,1.27.82,2.25.96l2.88.41c2.21.31,3.62.92,4.64,1.88,1.3,1.23,1.88,3.01,1.88,5.16,0,4.72-3.93,7.38-9.02,7.38"/><path class="cls-1" d="m226.01,154.96c-1.83-4.79-4-9.17-6.37-13.46,3.35-5.03,10.82-12.11,10.82-12.11,4.21,7.82,8.44,16.04,11.49,24.95-5.5.32-10.55.53-15.94.62"/><path class="cls-1" d="m199.2,175.03c3.45-7.13,4.82-9.75,8.38-15.72,9.59.15,27.11-.32,34.55-1.02-4.19,6.07-7.38,10.35-11.74,15.48-11.47,1.04-24.94,1.4-31.2,1.25"/><path class="cls-1" d="m212.42,125.78c-15.69,15.79-28.46,37.06-36.54,59.44,2.65,5.37,5.66,10.65,9.01,15.8,8.04-27.45,23.32-55.15,42.39-74.26-4.83-.59-9.79-.92-14.86-.97"/><path class="cls-1" d="m192.18,127.1c-9.88,10.53-18.31,23.1-24.89,36.77,1.71,5.43,3.78,10.86,6.18,16.24,7.9-20.46,19.49-39.65,33.92-54.29-5.08.14-10.01.55-15.22,1.27"/><path class="cls-1" d="m361.07,150.69c0,18.42,13.22,24.98,25.6,24.98,5.5,0,11.51-1.3,16.95-3.66v-24.29h-20.83s0,8.49,0,8.49l9.34-.2v9.54l-.32.07c-1.6.36-3.23.57-4.59.57-4.88,0-13.08-2.02-13.08-15.5s8.2-15.5,13.08-15.5c4.36,0,8.7,1.27,12.68,3.39l3.56-8.72c-5.96-3.04-10.98-4.15-16.79-4.15-12.38,0-25.6,6.56-25.6,24.98"/><path class="cls-1" d="m484.89,147.78c2.57-.14,4.38,1,4.38,4.21v22.84h11.62v-24.14c0-7.21-4.43-11.69-10.27-11.69-3.84,0-7.79,1.86-11.89,4.97l-.39.29-.23-.42c-1.72-3.16-5.3-4.83-8.88-4.83s-6.74,1.61-10.36,4.41l-.67.52v-4.93h-11.62v35.83h11.62v-24.13l.16-.12c1.49-1.6,3.41-2.68,5.14-2.79,2.61-.16,4.45,1,4.45,4.21v22.84h11.62v-21.92c0-.61-.03-1.4-.16-2.04,1.44-1.53,3.81-3,5.47-3.08"/><path class="cls-1" d="m437.1,143.25c-2.64-2.82-6.42-4.25-11.24-4.25-8.87,0-17.85,6.54-17.85,19.02,0,11.05,7.01,17.64,18.75,17.64,4.41,0,10.29-1.4,13.7-3.53l-2.66-6.72c-4.4,2.93-10.21,3.78-13.98,2.03-2.71-1.25-4.21-3.76-4.46-6.97l-.03-.45h22.2c.41-7.46-1.11-13.26-4.42-16.78m-5.44,11.02l-12.22-.12.06-.46c.59-4.57,3.04-7.52,6.22-7.52,4.08,0,5.94,3.98,5.94,7.68v.42Z"/><path class="cls-1" d="m293.06,143.49c0-10.3-7.39-16.95-18.82-16.95h-20.76v48.29h12.52v-14.32h8.03c11.38,0,19.02-6.84,19.02-17.02m-27.05,7.82v-15.57h5.88c5.07,0,8.09,2.9,8.09,7.75s-3.21,7.82-8.38,7.82h-5.6Z"/><rect class="cls-1" x="297.19" y="126.54" width="11.62" height="48.3"/><path class="cls-1" d="m339.83,139.88l-7.41,20.65-7.41-20.65h-12.25c.52,1.37,12.39,32.61,13.81,36.75-.95,2.8-4.34,6.76-9.24,9.26l3.39,9.11c9.15-5.06,12.87-8.67,16.89-18.47,4.02-9.77,13.83-36.65,13.83-36.65h-11.6Z"/><path class="cls-1" d="m0,399.49v5.6h38.26v100.01s303.92,81.58,303.92,81.58l.4.03,303.31-81.41.74-.2v-100.01h38.27v-5.6H0Zm611.85,78.11l-269.4,72.29-269.41-72.29v-72.51h538.81v72.51ZM41.86,405.09h26.54v76.07l273.79,73.47.26.07,273.31-73.34.74-.2v-76.07h26.54v97.26l-300.59,80.68L41.86,502.35v-97.26Z"/><path class="cls-1" d="m646.64,217.14V81.61L342.71.03l-.4-.03L39.01,81.41l-.74.2v135.53H0v5.6h684.9v-5.6h-38.26Zm-34.78-108.02v108.02H73.05v-108.03L342.45,36.83l269.4,72.28Zm31.19,108.02h-26.54v-111.59L342.71,32.09l-.26-.07L69.14,105.35l-.74.2v111.59h-26.54V84.36L342.45,3.68l300.59,80.68v132.78Z"/></g></g></svg>