<svg width="363" height="65" viewBox="0 0 363 65" fill="none" xmlns="http://www.w3.org/2000/svg">
<path fill-rule="evenodd" clip-rule="evenodd" d="M32.8027 0C14.8107 0 0 14.4444 0 32.5C0 50.5555 14.8107 65 32.8027 65C50.7947 65 65.6055 50.3259 65.6055 32.5C65.6055 14.6741 50.7736 0 32.8027 0ZM30.1271 59.218L35.2255 44.043H41.0613L36.1947 58.9676C34.9727 59.218 34.0036 59.218 32.8027 59.218H30.1271ZM44.4533 56.5671L55.1347 24.3176H47.8452L43.7159 36.3616H37.8801L41.7777 24.3176H34.4882L23.3222 57.5273C13.1253 53.6657 5.83581 43.8134 5.83581 32.5C5.83581 18.7653 16.0327 7.45183 29.6425 5.78195L22.8376 25.5283H22.5848C21.1311 29.8699 20.3937 32.2704 18.4555 32.0199C16.749 31.5398 17.0018 30.3292 17.4864 29.1394C17.9709 27.9287 18.94 24.3176 18.94 24.3176H11.6506C11.6506 24.3176 10.1969 27.6782 9.7123 30.0996C9.22774 32.5 9.7123 37.3218 15.7799 38.762C22.1002 40.6824 25.745 36.8417 27.6832 32.0199C28.4206 30.3292 34.7199 12.5241 36.911 6.03243C49.7835 7.95279 59.7486 19.0366 59.7486 32.5209C59.7486 43.1037 53.4282 52.2672 44.4533 56.588V56.5671Z" fill="white"/>
<path fill-rule="evenodd" clip-rule="evenodd" d="M88.1903 32.2495C88.1903 35.1301 88.1902 38.2611 90.6131 38.2611C92.0667 38.2611 93.0359 37.0504 93.0359 34.9004V16.6153H102.032V33.7107C102.032 40.9329 98.6399 45.0241 91.0976 45.0241C83.0708 45.0241 79.426 40.6824 80.1634 32.2704H88.1903V32.2495Z" fill="white"/>
<path fill-rule="evenodd" clip-rule="evenodd" d="M115.642 40.4319C114.188 40.4319 113.219 39.7013 113.219 38.7412C113.219 36.0902 116.611 36.5703 119.286 35.3805C119.539 38.2611 118.549 40.4319 115.642 40.4319ZM128.514 44.2935V44.043C127.292 43.0829 127.292 42.6028 127.292 41.3921V31.999C127.292 27.1773 126.808 23.5662 117.095 23.5662C109.069 23.5662 106.161 26.2171 106.161 30.3083H113.935C113.935 28.6175 115.642 28.3879 116.611 28.3879C117.58 28.3879 119.286 28.6384 119.286 30.0787C119.286 33.9403 104.96 29.5986 104.96 38.7412C104.96 43.0829 108.352 45.0032 111.997 45.0032C115.157 45.0032 117.348 44.2726 119.771 42.1227L120.024 44.2935H128.535H128.514Z" fill="white"/>
<path fill-rule="evenodd" clip-rule="evenodd" d="M139.701 24.3176V27.1981C140.67 25.7579 143.093 23.587 146.022 23.587C149.666 23.587 151.605 25.2778 152.574 27.4486C154.512 25.0482 156.703 23.587 159.61 23.587C165.678 23.587 167.384 26.9477 167.384 32.5V44.2935H159.358V34.1908C159.358 31.0597 158.873 29.8491 156.682 29.8491C154.259 29.8491 153.775 32.0199 153.775 34.4204V44.2935H145.748V34.1908C145.748 31.0597 145.263 29.8491 143.072 29.8491C140.649 29.8491 140.165 32.0199 140.165 34.4204V44.2935H132.138V24.3176H139.701Z" fill="white"/>
<path fill-rule="evenodd" clip-rule="evenodd" d="M177.602 32.0199C177.602 29.8491 178.824 28.6593 181.247 28.6593C183.185 28.6593 184.892 30.0996 184.892 32.0199H177.602ZM192.919 36.1111C192.919 28.8889 188.537 23.587 181.015 23.587C174.463 23.587 169.344 27.9287 169.344 34.4204C169.344 40.912 174.442 45.0032 181.015 45.0032C185.629 45.0032 190.728 43.3125 192.181 38.2611H184.407C183.923 39.4717 182.701 39.9518 181.5 39.9518C179.309 39.9518 177.602 38.5116 177.602 36.0902H192.919V36.1111Z" fill="white"/>
<path fill-rule="evenodd" clip-rule="evenodd" d="M202.147 38.0315C202.147 38.9916 202.399 39.4717 202.884 39.9518C203.368 40.2023 204.106 40.4319 204.822 40.4319C206.044 40.4319 207.498 40.1814 207.498 38.7412C207.498 35.6101 195.11 38.0106 195.11 30.3083C195.11 25.0064 200.461 23.5662 204.59 23.5662C208.973 23.5662 214.303 24.5263 214.787 30.0578H207.266C207.266 29.3272 207.013 28.8471 206.529 28.6175C206.044 28.1374 205.56 27.887 205.075 27.887C203.621 27.887 202.652 28.3671 202.652 29.3272C202.652 32.2078 215.525 30.2874 215.525 37.7601C215.525 42.1018 212.133 44.9823 204.59 44.9823C199.977 44.9823 194.878 43.5421 194.394 38.0106H202.168L202.147 38.0315Z" fill="white"/>
<path fill-rule="evenodd" clip-rule="evenodd" d="M219.317 44.2935V16.6153H228.545V25.9875H237.056V16.6153H246.284V44.2935H237.056V33.6898H228.545V44.2935H219.317Z" fill="white"/>
<path fill-rule="evenodd" clip-rule="evenodd" d="M260.61 40.4319C258.903 40.4319 257.934 39.7013 257.934 38.7412C257.934 36.0902 261.579 36.5703 264.255 35.3805C264.255 38.2611 263.517 40.4319 260.61 40.4319ZM273.251 44.2935V44.043C272.282 43.0829 272.282 42.6028 272.282 41.3921V31.999C272.282 27.1773 271.544 23.5662 262.085 23.5662C254.058 23.5662 250.919 26.2171 250.919 30.3083H258.693C258.946 28.6175 260.399 28.3879 261.6 28.3879C262.338 28.3879 264.276 28.6384 264.276 30.0787C264.276 33.9403 249.697 29.5986 249.697 38.7412C249.697 43.0829 253.089 45.0032 256.986 45.0032C259.894 45.0032 262.338 44.2726 264.529 42.1227L265.013 44.2935H273.272H273.251Z" fill="white"/>
<path fill-rule="evenodd" clip-rule="evenodd" d="M284.185 24.3176V28.4088C285.407 25.0482 287.345 23.587 290.505 23.587C290.758 23.587 290.99 23.8375 291.474 23.8375V31.7903C290.99 31.7903 290.253 31.5398 289.768 31.5398C286.608 31.5398 284.901 32.9801 284.901 37.3218V44.2935H276.874V24.3176H284.185Z" fill="white"/>
<path fill-rule="evenodd" clip-rule="evenodd" d="M304.347 39.2421C301.924 39.2421 301.187 36.5912 301.187 34.6708C301.187 32.2704 301.924 29.8491 304.579 29.8491C307.233 29.8491 308.223 32.2495 308.223 34.4204C308.223 36.8208 307.254 39.2421 304.326 39.2421H304.347ZM316.019 44.2935V16.6153H307.76V26.238C306.053 24.3176 304.368 23.587 301.924 23.587C297.057 23.587 293.181 27.9287 293.181 34.65C293.181 40.4319 296.341 45.0032 302.409 45.0032C305.084 45.0032 306.791 44.043 308.729 41.6426V44.2935H316.019Z" fill="white"/>
<path fill-rule="evenodd" clip-rule="evenodd" d="M320.38 24.3176H328.407V44.2935H320.38V24.3176ZM320.38 15.8847H328.407V21.6667H320.38V15.8847Z" fill="white"/>
<path fill-rule="evenodd" clip-rule="evenodd" d="M339.825 32.0199C339.825 29.8491 341.047 28.6593 343.47 28.6593C345.408 28.6593 347.115 30.0996 347.115 32.0199H339.825ZM355.142 36.1111C355.142 28.8889 350.76 23.587 343.238 23.587C336.686 23.587 331.567 27.9287 331.567 34.4204C331.567 40.912 336.665 45.0032 343.238 45.0032C347.852 45.0032 352.951 43.3125 354.404 38.2611H346.63C346.146 39.4717 344.924 39.9518 343.723 39.9518C341.532 39.9518 339.825 38.5116 339.825 36.0902H355.142V36.1111Z" fill="white"/>
<path d="M354.278 13.7765V12.9624H357.902V13.7765H356.574V17.3459H355.605V13.7765H354.278Z" fill="white"/>
<path d="M359.608 12.9624L360.64 15.9682L361.609 12.9624H362.979V17.3459H362.073V14.2357L360.999 17.3459H360.24L359.166 14.2775V17.3459H358.26V12.9624H359.629H359.608Z" fill="white"/>
</svg>
