<svg width="168" height="143" viewBox="0 0 168 143" fill="none" xmlns="http://www.w3.org/2000/svg">
<g clip-path="url(#clip0_486_2319)">
<mask id="mask0_486_2319" style="mask-type:luminance" maskUnits="userSpaceOnUse" x="0" y="0" width="168" height="143">
<path d="M168 0H0V143H168V0Z" fill="white"/>
</mask>
<g mask="url(#mask0_486_2319)">
<path d="M126.983 35.2889C126.983 36.034 126.406 36.6326 125.631 36.6326C124.857 36.6326 124.292 36.034 124.292 35.2889C124.292 34.5438 124.87 33.9331 125.644 33.9331C126.418 33.9331 126.983 34.5316 126.983 35.2767V35.2889ZM125.644 33.7987C124.796 33.7987 124.132 34.4827 124.132 35.3011C124.132 36.1195 124.784 36.8036 125.631 36.8036C126.479 36.8036 127.143 36.1195 127.143 35.3011C127.143 34.4827 126.492 33.7987 125.644 33.7987Z" fill="#241F21"/>
<path d="M125.717 35.2278H125.324V34.727H125.717C125.914 34.727 126.025 34.8125 126.025 34.9713C126.025 35.1301 125.902 35.2278 125.717 35.2278ZM125.975 35.4355C126.197 35.3744 126.344 35.2156 126.344 34.9591C126.344 34.8125 126.295 34.7026 126.209 34.6171C126.098 34.5071 125.939 34.446 125.73 34.446H125.029V36.0096H125.324V35.4721H125.656L126.037 36.0096H126.393L125.975 35.4232V35.4355Z" fill="#241F21"/>
<path d="M159.534 65.1666C159.534 66.0705 158.821 66.8156 157.875 66.8156C156.929 66.8156 156.228 66.0827 156.228 65.1788C156.228 64.2627 156.941 63.5176 157.887 63.5176C158.833 63.5176 159.534 64.2505 159.534 65.1544V65.1666ZM157.887 63.3466C156.855 63.3466 156.032 64.1894 156.032 65.1788C156.032 66.1926 156.83 67.011 157.875 67.011C158.919 67.011 159.73 66.1804 159.73 65.1788C159.73 64.165 158.919 63.3466 157.887 63.3466Z" fill="#005E9E"/>
<path d="M157.973 65.0933H157.494V64.4825H157.973C158.207 64.4825 158.354 64.5924 158.354 64.7879C158.354 64.9833 158.207 65.0933 157.973 65.0933ZM158.281 65.3498C158.551 65.2765 158.735 65.081 158.735 64.7757C158.735 64.5924 158.674 64.4581 158.575 64.3604C158.44 64.226 158.244 64.1527 157.986 64.1527H157.125V66.0705H157.494V65.4108H157.9L158.367 66.0705H158.809L158.293 65.3498H158.281Z" fill="#005E9E"/>
</g>
<path d="M13.5659 63.261H20.9264L26.9351 72.9474L32.9439 63.261H40.3044V88.2771H33.374V73.9124L26.9351 83.7088H26.7877L20.398 73.9857V88.2771H13.5659V63.261Z" fill="#005E9E"/>
<path d="M53.4645 63.0901H60.186L70.9011 88.2895H63.4177L61.5868 83.8188H51.8794L50.0854 88.2895H42.7495L53.4645 63.0901ZM59.5716 78.4198L56.77 71.3107L53.9315 78.4198H59.5716Z" fill="#005E9E"/>
<mask id="mask1_486_2319" style="mask-type:luminance" maskUnits="userSpaceOnUse" x="0" y="0" width="168" height="143">
<path d="M168 0H0V143H168V0Z" fill="white"/>
</mask>
<g mask="url(#mask1_486_2319)">
<path d="M71.8105 84.5638L75.6935 79.9588C78.1757 81.9254 80.9404 82.9637 83.8527 82.9637C85.7204 82.9637 86.728 82.3163 86.728 81.2536V81.1803C86.728 80.142 85.9048 79.5801 82.4887 78.7862C77.1312 77.5647 73.0025 76.0745 73.0025 70.9198V70.8465C73.0025 66.2048 76.7011 62.8457 82.7468 62.8457C87.023 62.8457 90.3653 63.9939 93.1055 66.1682L89.6157 71.0663C87.3179 69.454 84.7988 68.5989 82.5625 68.5989C80.879 68.5989 80.0434 69.3074 80.0434 70.2113V70.2846C80.0434 71.4328 80.9036 71.9214 84.3933 72.7154C90.1809 73.9613 93.7813 75.8179 93.7813 80.5085V80.5818C93.7813 85.6876 89.714 88.7291 83.6069 88.7291C79.1464 88.7291 74.9071 87.3366 71.8105 84.576" fill="#005E9E"/>
</g>
<path d="M103.12 69.344H95.563V63.261H117.644V69.344H110.1V88.2893H103.12V69.344Z" fill="#005E9E"/>
<path d="M128.396 63.261H121.38V88.2771H128.396V63.261Z" fill="#005E9E"/>
<mask id="mask2_486_2319" style="mask-type:luminance" maskUnits="userSpaceOnUse" x="0" y="0" width="168" height="143">
<path d="M168 0H0V143H168V0Z" fill="white"/>
</mask>
<g mask="url(#mask2_486_2319)">
<path d="M131.591 75.8424V75.7691C131.591 68.4768 137.231 62.7603 144.849 62.7603C149.986 62.7603 153.304 64.9101 155.528 67.976L150.281 72.0069C148.843 70.2236 147.184 69.0754 144.776 69.0754C141.261 69.0754 138.767 72.0436 138.767 75.6836V75.7569C138.767 79.5069 141.249 82.4385 144.776 82.4385C147.405 82.4385 148.941 81.2292 150.465 79.397L155.712 83.1103C153.34 86.3595 150.146 88.7536 144.567 88.7536C137.378 88.7536 131.591 83.2813 131.591 75.818" fill="#005E9E"/>
<path d="M39.3826 112.096C38.4733 112.096 37.7851 111.901 37.1953 111.315L37.9449 110.557C38.3258 110.936 38.8419 111.058 39.3948 111.058C40.083 111.058 40.4516 110.802 40.4516 110.325C40.4516 110.118 40.3902 109.934 40.2673 109.824C40.1444 109.714 40.0092 109.653 39.7389 109.617L39.0139 109.519C38.4978 109.446 38.1169 109.287 37.8466 109.018C37.5639 108.737 37.4165 108.346 37.4165 107.846C37.4165 106.783 38.2029 106.038 39.5054 106.038C40.3287 106.038 40.9308 106.233 41.4469 106.734L40.7096 107.467C40.3287 107.1 39.8741 107.052 39.4809 107.052C38.8542 107.052 38.5593 107.394 38.5593 107.809C38.5593 107.955 38.6084 108.114 38.7313 108.236C38.8542 108.346 39.0385 108.432 39.2843 108.468L39.9969 108.566C40.5376 108.639 40.8817 108.786 41.1397 109.03C41.4592 109.336 41.6067 109.763 41.6067 110.301C41.6067 111.449 40.6359 112.109 39.3826 112.109" fill="#808285"/>
</g>
<path d="M44.0399 106.087H42.8726V112.047H44.0399V106.087Z" fill="#808285"/>
<mask id="mask3_486_2319" style="mask-type:luminance" maskUnits="userSpaceOnUse" x="0" y="0" width="168" height="143">
<path d="M168 0H0V143H168V0Z" fill="white"/>
</mask>
<g mask="url(#mask3_486_2319)">
<path d="M48.5374 107.491C48.3408 107.247 48.0705 107.125 47.665 107.125H46.7802V111.009H47.665C48.0705 111.009 48.3408 110.887 48.5374 110.643C48.7586 110.374 48.7831 109.946 48.7831 109.043C48.7831 108.139 48.7463 107.76 48.5374 107.491ZM49.3484 111.473C48.9552 111.864 48.3899 112.047 47.7633 112.047H45.6006V106.087H47.7633C48.3899 106.087 48.9552 106.258 49.3484 106.661C50.0242 107.332 49.9505 108.151 49.9505 109.043C49.9505 109.934 50.0119 110.814 49.3484 111.473Z" fill="#808285"/>
</g>
<path d="M52.494 106.087H51.3267V112.047H52.494V106.087Z" fill="#808285"/>
<path d="M57.6054 112.047L55.2338 108.383V112.047H54.0542V106.087H55.0987L57.4702 109.739V106.087H58.6499V112.047H57.6054Z" fill="#808285"/>
<mask id="mask4_486_2319" style="mask-type:luminance" maskUnits="userSpaceOnUse" x="0" y="0" width="168" height="143">
<path d="M168 0H0V143H168V0Z" fill="white"/>
</mask>
<g mask="url(#mask4_486_2319)">
<path d="M63.9094 111.412C63.4425 111.876 62.8895 112.084 62.2137 112.084C61.5379 112.084 61.0341 111.864 60.604 111.437C60.3459 111.18 60.1862 110.875 60.1125 110.545C60.0387 110.215 60.0142 109.714 60.0142 109.067C60.0142 108.42 60.051 107.919 60.1125 107.589C60.1739 107.247 60.3336 106.954 60.604 106.697C61.0463 106.258 61.5747 106.05 62.2137 106.05C63.5776 106.05 64.3149 106.917 64.4747 107.955H63.295C63.1476 107.381 62.8035 107.088 62.2137 107.088C61.9065 107.088 61.6484 107.198 61.4641 107.406C61.2429 107.687 61.1815 107.894 61.1815 109.079C61.1815 110.264 61.2307 110.484 61.4641 110.765C61.6362 110.973 61.8942 111.07 62.2137 111.07C62.5578 111.07 62.8404 110.96 63.0493 110.74C63.2213 110.545 63.3196 110.276 63.3196 109.946V109.727H62.2137V108.749H64.4747V109.617C64.4747 110.484 64.3149 110.997 63.9094 111.437" fill="#808285"/>
<path d="M69.7461 106.966C69.4143 106.966 69.2546 107.174 69.2546 107.455C69.2546 107.675 69.4389 107.882 69.6478 108.126C69.7338 108.078 69.9058 107.955 69.9058 107.955C70.1024 107.821 70.2499 107.662 70.2499 107.455C70.2499 107.174 70.0656 106.966 69.7584 106.966M69.3406 109.36C68.9842 109.617 68.7385 109.849 68.7385 110.276C68.7385 110.765 69.144 111.107 69.6478 111.107C70.0041 111.107 70.2622 110.997 70.5448 110.753L69.3529 109.36H69.3406ZM71.6384 112.047L71.1961 111.534C70.9257 111.754 70.5079 112.109 69.6478 112.109C68.3207 112.109 67.6694 111.424 67.6694 110.301C67.6694 109.543 68.2224 109.043 68.7508 108.701C68.505 108.42 68.1487 108.004 68.1487 107.442C68.1487 106.624 68.7508 106.05 69.7461 106.05C70.6923 106.05 71.2821 106.648 71.2821 107.455C71.2821 107.919 71.0363 108.224 70.6677 108.493C70.6677 108.493 70.3851 108.701 70.2376 108.798L71.2452 109.983C71.4418 109.727 71.5278 109.36 71.5524 108.933H72.5846C72.5477 109.702 72.3634 110.313 71.9456 110.789L73.027 112.047H71.6384Z" fill="#808285"/>
</g>
<path d="M78.2372 107.845L77.4753 110.008H78.9622L78.2249 107.845H78.2372ZM79.638 112.047L79.2817 110.997H77.1559L76.7995 112.047H75.583L77.758 106.087H78.6796L80.8668 112.047H79.6503H79.638Z" fill="#808285"/>
<mask id="mask5_486_2319" style="mask-type:luminance" maskUnits="userSpaceOnUse" x="0" y="0" width="168" height="143">
<path d="M168 0H0V143H168V0Z" fill="white"/>
</mask>
<g mask="url(#mask5_486_2319)">
<path d="M83.6806 112.096C83.0416 112.096 82.5009 111.876 82.0586 111.449C81.8005 111.192 81.6408 110.887 81.567 110.557C81.4933 110.227 81.4688 109.727 81.4688 109.079C81.4688 108.432 81.5056 107.931 81.567 107.601C81.6285 107.259 81.8005 106.966 82.0586 106.71C82.5009 106.27 83.0293 106.062 83.6806 106.062C84.8356 106.062 85.6835 106.734 85.8801 107.943H84.6882C84.5653 107.43 84.2458 107.1 83.6806 107.1C83.3611 107.1 83.103 107.198 82.931 107.406C82.6852 107.662 82.6361 107.931 82.6361 109.091C82.6361 110.252 82.6852 110.521 82.931 110.777C83.103 110.985 83.3611 111.082 83.6806 111.082C84.2458 111.082 84.5653 110.753 84.6882 110.24H85.8801C85.6712 111.449 84.8233 112.121 83.6806 112.121" fill="#808285"/>
<path d="M88.7924 112.096C88.1534 112.096 87.6128 111.876 87.1704 111.449C86.9123 111.192 86.7526 110.887 86.6789 110.557C86.6051 110.227 86.5806 109.727 86.5806 109.079C86.5806 108.432 86.6174 107.931 86.6789 107.601C86.7403 107.259 86.9123 106.966 87.1704 106.71C87.6128 106.27 88.1411 106.062 88.7924 106.062C89.9475 106.062 90.7953 106.734 90.9919 107.943H89.8C89.6771 107.43 89.3576 107.1 88.7924 107.1C88.4729 107.1 88.2149 107.198 88.0428 107.406C87.7971 107.662 87.7479 107.931 87.7479 109.091C87.7479 110.252 87.7971 110.521 88.0428 110.777C88.2149 110.985 88.4729 111.082 88.7924 111.082C89.3576 111.082 89.6771 110.753 89.8 110.24H90.9919C90.783 111.449 89.9352 112.121 88.7924 112.121" fill="#808285"/>
</g>
<path d="M92.1714 112.047V106.087H96.1281V107.125H93.351V108.517H95.7103V109.556H93.351V111.009H96.1281V112.047H92.1714Z" fill="#808285"/>
<mask id="mask6_486_2319" style="mask-type:luminance" maskUnits="userSpaceOnUse" x="0" y="0" width="168" height="143">
<path d="M168 0H0V143H168V0Z" fill="white"/>
</mask>
<g mask="url(#mask6_486_2319)">
<path d="M99.0896 112.096C98.1803 112.096 97.4922 111.901 96.9023 111.315L97.6642 110.557C98.0451 110.936 98.5612 111.058 99.1142 111.058C99.8023 111.058 100.171 110.802 100.171 110.325C100.171 110.118 100.109 109.934 99.9866 109.824C99.8637 109.714 99.7286 109.653 99.4582 109.617L98.7332 109.519C98.2171 109.446 97.8362 109.287 97.5782 109.018C97.2956 108.737 97.1481 108.346 97.1481 107.846C97.1481 106.783 97.9345 106.038 99.237 106.038C100.06 106.038 100.662 106.233 101.179 106.734L100.441 107.467C100.06 107.1 99.6057 107.052 99.2125 107.052C98.5858 107.052 98.2909 107.394 98.2909 107.809C98.2909 107.955 98.34 108.114 98.4629 108.236C98.5858 108.346 98.7701 108.432 99.0159 108.468L99.7286 108.566C100.269 108.639 100.613 108.786 100.871 109.03C101.191 109.336 101.338 109.763 101.338 110.301C101.338 111.449 100.368 112.109 99.1142 112.109" fill="#808285"/>
<path d="M104.177 112.096C103.268 112.096 102.58 111.901 101.99 111.315L102.752 110.557C103.133 110.936 103.649 111.058 104.202 111.058C104.89 111.058 105.258 110.802 105.258 110.325C105.258 110.118 105.197 109.934 105.074 109.824C104.951 109.714 104.816 109.653 104.546 109.617L103.821 109.519C103.305 109.446 102.924 109.287 102.653 109.018C102.371 108.737 102.223 108.346 102.223 107.846C102.223 106.783 103.01 106.038 104.312 106.038C105.135 106.038 105.738 106.233 106.254 106.734L105.516 107.467C105.135 107.1 104.681 107.052 104.288 107.052C103.661 107.052 103.366 107.394 103.366 107.809C103.366 107.955 103.415 108.114 103.538 108.236C103.661 108.346 103.845 108.432 104.091 108.468L104.791 108.566C105.344 108.639 105.688 108.786 105.934 109.03C106.254 109.336 106.401 109.763 106.401 110.301C106.401 111.449 105.43 112.109 104.177 112.109" fill="#808285"/>
<path d="M110.431 107.394C110.259 107.198 110.001 107.076 109.682 107.076C109.362 107.076 109.092 107.198 108.92 107.394C108.699 107.638 108.637 107.919 108.637 109.067C108.637 110.215 108.699 110.484 108.92 110.74C109.092 110.936 109.362 111.058 109.682 111.058C110.001 111.058 110.259 110.936 110.431 110.74C110.652 110.496 110.726 110.215 110.726 109.067C110.726 107.919 110.665 107.65 110.431 107.394ZM111.304 111.437C110.886 111.852 110.37 112.084 109.682 112.084C108.993 112.084 108.477 111.852 108.06 111.437C107.457 110.838 107.47 110.093 107.47 109.067C107.47 108.041 107.457 107.296 108.06 106.685C108.477 106.27 109.006 106.038 109.682 106.038C110.357 106.038 110.873 106.27 111.304 106.685C111.906 107.284 111.906 108.029 111.906 109.067C111.906 110.105 111.906 110.838 111.304 111.437Z" fill="#808285"/>
<path d="M115.531 107.125H114.425V108.701H115.531C116.047 108.701 116.379 108.371 116.379 107.919C116.379 107.467 116.047 107.137 115.531 107.137M116.44 112.06L115.273 109.69H114.437V112.06H113.27V106.099H115.617C116.834 106.099 117.558 106.929 117.558 107.919C117.558 108.749 117.042 109.275 116.465 109.482L117.804 112.047H116.453L116.44 112.06Z" fill="#808285"/>
</g>
<path d="M120.102 106.087H118.935V112.047H120.102V106.087Z" fill="#808285"/>
<path d="M121.663 112.047V106.087H125.619V107.125H122.83V108.517H125.202V109.556H122.83V111.009H125.619V112.047H121.663Z" fill="#808285"/>
<mask id="mask7_486_2319" style="mask-type:luminance" maskUnits="userSpaceOnUse" x="0" y="0" width="168" height="143">
<path d="M168 0H0V143H168V0Z" fill="white"/>
</mask>
<g mask="url(#mask7_486_2319)">
<path d="M128.58 112.096C127.671 112.096 126.983 111.901 126.393 111.315L127.155 110.557C127.536 110.936 128.052 111.058 128.605 111.058C129.293 111.058 129.662 110.802 129.662 110.325C129.662 110.118 129.6 109.934 129.477 109.824C129.354 109.714 129.219 109.653 128.949 109.617L128.224 109.519C127.708 109.446 127.327 109.287 127.057 109.018C126.774 108.737 126.627 108.346 126.627 107.846C126.627 106.783 127.413 106.038 128.715 106.038C129.539 106.038 130.141 106.233 130.657 106.734L129.92 107.467C129.539 107.1 129.084 107.052 128.691 107.052C128.064 107.052 127.769 107.394 127.769 107.809C127.769 107.955 127.818 108.114 127.941 108.236C128.064 108.346 128.249 108.432 128.494 108.468L129.207 108.566C129.748 108.639 130.092 108.786 130.35 109.03C130.669 109.336 130.817 109.763 130.817 110.301C130.817 111.449 129.846 112.109 128.593 112.109" fill="#808285"/>
<path d="M55.3077 37.5365C54.8531 36.3639 54.3247 35.289 53.7349 34.2385C54.5582 33.0048 56.4013 31.2703 56.4013 31.2703C57.4335 33.188 58.478 35.2035 59.2276 37.3777C57.8759 37.451 56.6225 37.5121 55.2954 37.5243" fill="#59BA4F"/>
<path d="M48.709 42.4591C49.5568 40.7123 49.9009 40.0772 50.7733 38.6114C53.1326 38.648 57.458 38.5381 59.2889 38.3671C58.2567 39.8573 57.4703 40.8956 56.4012 42.1537C53.575 42.4102 50.2573 42.4957 48.7213 42.4591" fill="#59BA4F"/>
<path d="M51.9654 30.3907C48.0948 34.2507 44.9491 39.4664 42.9707 44.9509C43.622 46.2701 44.3592 47.5649 45.1948 48.8231C47.1732 42.1049 50.9333 35.3134 55.6395 30.635C54.4476 30.4885 53.2311 30.4152 51.9777 30.403" fill="#59BA4F"/>
<path d="M46.9764 30.7205C44.5434 33.2979 42.4667 36.376 40.8447 39.7229C41.2625 41.0544 41.7786 42.3858 42.3684 43.705C44.3099 38.6969 47.173 33.9941 50.7242 30.4152C49.4708 30.4518 48.2543 30.5495 46.9764 30.7205Z" fill="#59BA4F"/>
<path d="M88.5832 36.4982C88.5832 41.0055 91.8395 42.6179 94.8869 42.6179C96.2385 42.6179 97.7254 42.3003 99.0647 41.714V35.7653H93.9284V37.8419L96.2262 37.793V40.126H96.1402C95.747 40.236 95.3415 40.2848 95.0097 40.2848C93.8055 40.2848 91.7903 39.7962 91.7903 36.486C91.7903 33.1758 93.8055 32.6872 95.0097 32.6872C96.0788 32.6872 97.1478 33.0048 98.1309 33.5178L99.0033 31.3802C97.541 30.6351 96.3 30.3663 94.8623 30.3663C91.8149 30.3663 88.5586 31.9787 88.5586 36.486" fill="#241F21"/>
<path d="M119.082 35.7775C119.708 35.7409 120.163 36.0218 120.163 36.8158V42.4102H123.026V36.4982C123.026 34.7392 121.932 33.6399 120.495 33.6399C119.549 33.6399 118.578 34.0919 117.57 34.8614L117.472 34.9347L117.411 34.8247C116.993 34.0552 116.108 33.6399 115.223 33.6399C114.339 33.6399 113.564 34.0308 112.667 34.7148L112.495 34.837V33.6277H109.632V42.398H112.495V36.486L112.532 36.4493C112.901 36.0585 113.368 35.7897 113.798 35.7653C114.437 35.7287 114.892 36.0096 114.892 36.8036V42.398H117.755V37.0356C117.755 36.8891 117.755 36.6936 117.718 36.5348C118.074 36.1562 118.652 35.8019 119.069 35.7775" fill="#241F21"/>
<path d="M105.97 37.3654L102.96 37.341V37.2311C103.12 36.1073 103.722 35.3866 104.508 35.3866C105.516 35.3866 105.97 36.3638 105.97 37.2677V37.3654ZM107.31 34.666C106.659 33.9819 105.725 33.6277 104.545 33.6277C102.358 33.6277 100.146 35.2278 100.146 38.2816C100.146 40.9811 101.866 42.6056 104.766 42.6056C105.848 42.6056 107.298 42.2636 108.145 41.7384L107.494 40.0894C106.413 40.8101 104.975 41.0177 104.054 40.5902C103.39 40.2848 103.021 39.6741 102.96 38.8801V38.7702H108.416C108.514 36.9379 108.145 35.521 107.322 34.666" fill="#241F21"/>
<path d="M65.1624 36.6448V32.8337H66.6124C67.8657 32.8337 68.603 33.5422 68.603 34.727C68.603 35.9119 67.8166 36.6448 66.5386 36.6448H65.1624ZM71.8224 34.727C71.8224 32.2108 70.0038 30.574 67.1899 30.574H62.0781V42.398H65.1624V38.8923H67.1407C69.9424 38.8923 71.8224 37.2189 71.8224 34.727Z" fill="#241F21"/>
</g>
<path d="M75.7059 30.574H72.8428V42.398H75.7059V30.574Z" fill="#241F21"/>
<mask id="mask8_486_2319" style="mask-type:luminance" maskUnits="userSpaceOnUse" x="0" y="0" width="168" height="143">
<path d="M168 0H0V143H168V0Z" fill="white"/>
</mask>
<g mask="url(#mask8_486_2319)">
<path d="M83.3487 33.8475L81.5178 38.9045L79.6869 33.8475H76.6641C76.7869 34.1896 79.7115 41.8361 80.0678 42.8499C79.8343 43.534 78.9988 44.4989 77.7946 45.1219L78.6301 47.3572C80.8788 46.1235 81.8004 45.2318 82.7957 42.8377C83.791 40.4436 86.1995 33.8597 86.1995 33.8597H83.3364L83.3487 33.8475Z" fill="#241F21"/>
</g>
<path d="M17.3874 116.726V98.5377H150.6V116.726L84 134.486L17.3874 116.726ZM151.252 117.227V98.5377H158.28V122.784L83.9877 142.609L9.70743 122.784V98.5377H16.7361V117.227L84 135.17L151.264 117.227H151.252ZM0 97.6582V98.5377H9.31422V123.077L83.9508 142.988H84.0492L158.686 123.077V98.5377H168V97.6582H0Z" fill="#241F21"/>
<path d="M17.3874 26.1277L84 8.36722L150.613 26.1277V53.0127H17.3874V26.1277ZM9.70743 20.0691L84 0.244298L158.293 20.0691V53.0127H151.264V25.6269L84 7.68318L16.7361 25.6269V53.0127H9.70743V20.0691ZM83.3856 0L9.31422 19.7637V53.0127H0V53.8922H168V53.0127H158.686V19.7637L84.6021 0H83.3856Z" fill="#241F21"/>
</g>
<defs>
<clipPath id="clip0_486_2319">
<rect width="168" height="143" fill="white"/>
</clipPath>
</defs>
</svg>
