<svg width="138" height="135" viewBox="0 0 138 135" fill="none" xmlns="http://www.w3.org/2000/svg">
<g clip-path="url(#clip0_486_2267)">
<path d="M70.0199 0C32.4744 0 2.03955 30.2198 2.03955 67.5C2.03955 104.78 32.4744 135 70.0199 135C107.565 135 138 104.78 138 67.5C138 30.2198 107.565 0 70.0199 0ZM70.0199 120.866C40.3346 120.866 16.2744 96.9755 16.2744 67.5C16.2744 38.0245 40.3414 14.1343 70.0199 14.1343C99.6984 14.1343 123.765 38.0245 123.765 67.5C123.765 96.9755 99.7051 120.866 70.0199 120.866Z" fill="#E60021"/>
<path d="M70.0199 120.866C99.7027 120.866 123.765 96.973 123.765 67.5C123.765 38.0269 99.7027 14.1343 70.0199 14.1343C40.3371 14.1343 16.2744 38.0269 16.2744 67.5C16.2744 96.973 40.3371 120.866 70.0199 120.866Z" fill="#FFE41C"/>
<path d="M118.795 6.05475C112.744 6.71184 92.0674 8.67643 74.024 27.0282C74.024 27.0282 61.7069 27.7926 57.196 28.4497C50.6863 23.0521 7.55627 18.2915 0.330787 31.8358C-3.74115 37.1864 31.4611 40.5725 31.4611 40.5725C31.4611 40.5725 32.6699 41.0083 32.1229 41.5581C25.0595 43.6233 13.6473 46.426 4.63907 49.0142C2.95762 54.8945 2.046 61.0967 2.046 67.5068C2.046 86.9716 10.3452 104.505 23.6144 116.823L52.5163 93.6566C55.9738 102.366 54.9001 99.4162 84.3693 118.559C84.3693 118.559 86.3478 128.603 91.8513 132.539C96.3014 135.503 117.85 133.659 118.694 124.453C121.334 108.723 109.895 66.5681 103.736 63.5105C105.188 55.3102 99.6711 47.5122 90.5346 38.3866C90.5346 38.3866 129.849 20.2226 127.054 7.14767C126.871 6.28943 124.852 5.39765 118.802 6.05475H118.795Z" fill="white"/>
<path d="M127.047 7.14756C127.033 7.10062 127.02 7.05369 127 7.00675C126.993 6.99334 126.986 6.97993 126.979 6.95982C126.959 6.92629 126.939 6.89277 126.912 6.85924C126.898 6.84583 126.892 6.83242 126.878 6.81231C126.844 6.77208 126.804 6.73185 126.757 6.68491L126.743 6.6715C126.689 6.62456 126.628 6.58433 126.561 6.5374C126.54 6.52399 126.52 6.51058 126.493 6.49717C126.439 6.46364 126.385 6.43682 126.324 6.4033C126.297 6.38989 126.27 6.37648 126.243 6.36307C126.169 6.32954 126.088 6.29602 126.007 6.2692C125.987 6.26249 125.973 6.25579 125.953 6.24908C125.845 6.21555 125.73 6.17532 125.609 6.1418C125.575 6.13509 125.541 6.12168 125.5 6.11498C125.406 6.08816 125.305 6.06804 125.203 6.04793C125.156 6.04122 125.109 6.02781 125.062 6.02111C124.947 6.00099 124.818 5.98088 124.69 5.96076C124.656 5.96076 124.623 5.94735 124.589 5.94735C124.42 5.92724 124.244 5.90712 124.062 5.88701C124.015 5.88701 123.968 5.8803 123.92 5.8736C123.772 5.86019 123.616 5.85348 123.461 5.84678C123.394 5.84678 123.333 5.84678 123.265 5.84007C123.096 5.84007 122.928 5.83337 122.745 5.82666C122.691 5.82666 122.637 5.82666 122.583 5.82666C122.563 5.82666 122.543 5.82666 122.523 5.82666C122.394 5.82666 122.246 5.82666 122.111 5.83337C121.996 5.83337 121.881 5.83337 121.759 5.83337C121.591 5.83337 121.402 5.84678 121.219 5.85348C121.098 5.85348 120.983 5.86019 120.861 5.86689C120.652 5.8803 120.422 5.89371 120.2 5.91383C120.092 5.92053 119.99 5.92724 119.875 5.93394C119.531 5.96076 119.18 5.99429 118.802 6.03452C112.751 6.69162 92.0742 8.6562 74.0307 27.008C74.0307 27.008 61.7136 27.7724 57.2028 28.4295C57.1015 28.3423 56.9867 28.2551 56.8651 28.1747C56.8246 28.1479 56.7773 28.121 56.7368 28.0942C56.649 28.0339 56.5613 27.9802 56.4667 27.9199C56.4127 27.8864 56.3519 27.8528 56.2979 27.8193C56.2101 27.7657 56.1156 27.712 56.021 27.6651C55.9603 27.6316 55.886 27.598 55.8252 27.5645C55.7307 27.5176 55.6294 27.4639 55.5281 27.417C55.4538 27.3835 55.3795 27.35 55.3052 27.3164C55.1972 27.2695 55.0959 27.2159 54.9811 27.1689C54.9001 27.1354 54.819 27.1019 54.738 27.0683C54.6232 27.0214 54.5084 26.9745 54.3936 26.9275C54.3058 26.894 54.218 26.8605 54.1303 26.827C54.0087 26.78 53.8872 26.7331 53.7589 26.6862C53.6711 26.6526 53.5765 26.6191 53.482 26.5856C53.3469 26.5386 53.2186 26.4917 53.0768 26.4448C52.9823 26.4112 52.881 26.3777 52.7797 26.3509C52.6379 26.304 52.4961 26.257 52.3475 26.2101C52.2462 26.1766 52.1449 26.1497 52.0436 26.1162C51.8951 26.0693 51.7398 26.0224 51.5845 25.9821C51.4832 25.9553 51.3751 25.9218 51.2671 25.895C51.105 25.848 50.9429 25.8078 50.7809 25.7609C50.6728 25.734 50.5648 25.7005 50.45 25.6737C50.2812 25.6268 50.1123 25.5865 49.9368 25.5396C49.8287 25.5128 49.7139 25.4859 49.5991 25.4591C49.4168 25.4122 49.2412 25.372 49.0522 25.325C48.9374 25.2982 48.8293 25.2714 48.7145 25.2446C48.5254 25.2043 48.3364 25.1574 48.1405 25.1172C48.0257 25.0903 47.9109 25.0702 47.7961 25.0434C47.6003 25.0032 47.4045 24.9629 47.2019 24.9227C47.0803 24.8959 46.9655 24.8758 46.844 24.849C46.6414 24.8087 46.4388 24.7685 46.2295 24.7283C46.1079 24.7082 45.9931 24.6813 45.8716 24.6612C45.6555 24.621 45.4462 24.5808 45.2301 24.5472C45.1085 24.5271 44.9937 24.507 44.8722 24.4869C44.6493 24.4467 44.4265 24.4131 44.2037 24.3729C44.0821 24.3528 43.9673 24.3327 43.8458 24.3126C43.6162 24.279 43.3866 24.2388 43.157 24.2053C43.0354 24.1852 42.9139 24.165 42.7923 24.1516C42.556 24.1181 42.3129 24.0846 42.0698 24.0444C41.955 24.0309 41.8334 24.0108 41.7186 23.9974C41.4688 23.9639 41.2189 23.9304 40.9691 23.8968C40.8543 23.8834 40.7395 23.8633 40.6179 23.8499C40.3613 23.8164 40.1047 23.7896 39.8481 23.756C39.7333 23.7426 39.6253 23.7292 39.5105 23.7158C39.2471 23.6823 38.977 23.6555 38.7136 23.6286C38.6056 23.6152 38.4908 23.6018 38.3828 23.5951C38.1059 23.5683 37.829 23.5415 37.5454 23.5147C37.4441 23.5079 37.3428 23.4945 37.2415 23.4878C36.9512 23.461 36.654 23.4342 36.3569 23.4074C36.2624 23.4007 36.1746 23.394 36.0801 23.3805C35.7559 23.3537 35.4318 23.3269 35.1077 23.3068C35.0469 23.3068 34.9793 23.3001 34.9186 23.2934C34.5472 23.2666 34.1758 23.2397 33.7976 23.2196C33.7774 23.2196 33.7571 23.2196 33.7368 23.2196C32.94 23.1727 32.1432 23.1325 31.3396 23.1056C31.2788 23.1056 31.218 23.1056 31.164 23.1056C30.8264 23.0922 30.4887 23.0855 30.1511 23.0721C30.0228 23.0721 29.8945 23.0721 29.7729 23.0654C29.5028 23.0654 29.2327 23.052 28.9626 23.052C28.8005 23.052 28.6385 23.052 28.4764 23.052C28.2468 23.052 28.0105 23.052 27.7809 23.052C27.7539 23.052 27.7269 23.052 27.6998 23.052C27.4973 23.052 27.2947 23.052 27.0921 23.052C26.9435 23.052 26.7882 23.052 26.6397 23.052C26.3763 23.052 26.1129 23.0587 25.8496 23.0654C25.7348 23.0654 25.6132 23.0654 25.4984 23.0654C25.181 23.0721 24.8569 23.0855 24.5395 23.0922C24.4788 23.0922 24.418 23.0922 24.3505 23.0922C23.5806 23.1191 22.8176 23.1593 22.0545 23.2062C22.0275 23.2062 22.0005 23.2062 21.9667 23.2062C21.6223 23.2263 21.2712 23.2532 20.9335 23.28C20.8525 23.28 20.7715 23.2934 20.6904 23.3001C20.4001 23.3269 20.1097 23.347 19.8193 23.3738C19.718 23.3806 19.6235 23.394 19.5222 23.4007C19.2521 23.4275 18.982 23.4543 18.7186 23.4878C18.6106 23.5012 18.4958 23.5147 18.3877 23.5281C18.1379 23.5549 17.8813 23.5884 17.6314 23.6219C17.5166 23.6353 17.4018 23.6555 17.2803 23.6689C17.0372 23.7024 16.7941 23.7359 16.5577 23.7694C16.4362 23.7896 16.3214 23.803 16.2066 23.8231C15.9702 23.8566 15.7407 23.8968 15.5043 23.9371C15.3828 23.9572 15.2612 23.9773 15.1397 23.9974C14.9168 24.0376 14.694 24.0779 14.4711 24.1181C14.3428 24.1449 14.2213 24.165 14.0997 24.1919C13.8836 24.2321 13.6743 24.279 13.4582 24.3193C13.3299 24.3461 13.2084 24.3729 13.0801 24.3997C12.8707 24.4467 12.6681 24.4936 12.4655 24.5405C12.344 24.5673 12.2157 24.6009 12.0941 24.6277C11.8916 24.6746 11.6957 24.7283 11.4999 24.7752C11.3784 24.8087 11.25 24.8423 11.1285 24.8758C10.9327 24.9294 10.7436 24.9831 10.5545 25.0367C10.433 25.0702 10.3114 25.1105 10.1899 25.144C10.0075 25.1976 9.81846 25.258 9.63613 25.3183C9.51458 25.3585 9.39303 25.3988 9.27823 25.439C9.10266 25.4994 8.92709 25.5597 8.75151 25.62C8.62996 25.6603 8.51517 25.7072 8.40037 25.7474C8.23155 25.8078 8.06273 25.8748 7.89391 25.9419C7.77911 25.9888 7.66432 26.0358 7.54952 26.0827C7.38745 26.1497 7.22538 26.2168 7.07007 26.2838C6.95527 26.3308 6.84723 26.3844 6.73918 26.4314C6.58387 26.5051 6.42856 26.5722 6.27999 26.6459C6.17195 26.6996 6.0639 26.7532 5.95586 26.8001C5.8073 26.8739 5.66549 26.9477 5.51693 27.0281C5.40888 27.0818 5.30759 27.1421 5.2063 27.1957C5.06449 27.2762 4.92944 27.3567 4.79438 27.4371C4.69309 27.4975 4.5918 27.5578 4.49726 27.6182C4.3622 27.6986 4.24065 27.7858 4.11235 27.8662C4.01781 27.9266 3.92327 27.9936 3.82873 28.054C3.70718 28.1412 3.58563 28.2283 3.46408 28.3222C3.37629 28.3892 3.28176 28.4563 3.20072 28.5233C3.08592 28.6172 2.97113 28.7111 2.85633 28.805C2.7753 28.872 2.68751 28.9391 2.60648 29.0128C2.49843 29.1067 2.39039 29.2073 2.2891 29.3078C2.21482 29.3816 2.13378 29.4486 2.0595 29.5224C1.95821 29.623 1.85692 29.7303 1.76238 29.8375C1.69485 29.9113 1.62732 29.9783 1.55979 30.0588C1.4585 30.1728 1.37072 30.2868 1.27618 30.4075C1.22216 30.4812 1.16138 30.5483 1.10061 30.622C0.999313 30.7561 0.911527 30.8902 0.816988 31.0243C0.776471 31.0847 0.729202 31.145 0.688685 31.2121C0.560382 31.4132 0.438832 31.6144 0.330787 31.8222C-3.74114 37.1729 31.4611 40.559 31.4611 40.559C31.4611 40.559 32.6699 40.9948 32.1229 41.5446C25.0595 43.6098 13.6473 46.4125 4.63907 49.0006C2.95762 54.881 2.046 61.0832 2.046 67.4932C2.046 86.9581 10.3452 104.492 23.6144 116.809L52.5163 93.643C55.9738 102.353 54.9001 99.4027 84.3692 118.546C84.3692 118.546 86.3546 128.59 91.8513 132.526C92.5806 133.015 93.7759 133.371 95.2615 133.585C95.3088 133.585 95.3493 133.592 95.3966 133.592C95.6464 133.592 95.9098 133.505 96.1799 133.505C96.2136 133.505 96.2542 133.505 96.2879 133.505C96.6526 133.538 97.0307 133.76 97.4224 133.78C97.9288 133.806 98.4556 133.82 98.9958 133.82C106.951 133.82 118.093 130.997 118.687 124.433C119.254 121.074 119.173 116.501 118.64 111.365C118.457 109.594 118.221 107.757 117.937 105.88V105.866C117.748 104.619 117.539 103.359 117.309 102.085C117.309 102.071 117.309 102.065 117.309 102.051C117.08 100.777 116.837 99.4899 116.573 98.1958C116.182 96.2647 115.756 94.3337 115.304 92.416C115.297 92.3825 115.29 92.3557 115.284 92.3221C114.986 91.075 114.683 89.8413 114.365 88.6209C114.352 88.574 114.338 88.5271 114.331 88.4801C114.014 87.2665 113.69 86.073 113.359 84.8996C113.345 84.8594 113.332 84.8125 113.325 84.7722C113.163 84.1956 112.994 83.6257 112.832 83.0624C112.819 83.0155 112.805 82.9686 112.792 82.9216C112.63 82.3718 112.468 81.8287 112.299 81.2923C112.292 81.2722 112.285 81.2454 112.279 81.2252C112.11 80.6821 111.941 80.1524 111.772 79.6227C111.745 79.549 111.725 79.4752 111.698 79.4015C111.36 78.3689 111.023 77.3631 110.685 76.3909C110.658 76.3037 110.624 76.2165 110.597 76.1361C110.428 75.66 110.259 75.1974 110.091 74.7414C110.077 74.7012 110.064 74.6677 110.05 74.6274C109.895 74.205 109.733 73.7893 109.577 73.3803C109.55 73.3065 109.523 73.2328 109.49 73.159C109.321 72.7366 109.159 72.3276 108.99 71.9253C108.963 71.8515 108.929 71.7845 108.902 71.7174C108.747 71.3554 108.598 70.9933 108.45 70.6513C108.429 70.6044 108.409 70.5508 108.382 70.5038C108.22 70.135 108.058 69.7797 107.896 69.431C107.862 69.3573 107.828 69.2835 107.788 69.2097C107.626 68.8678 107.464 68.5258 107.302 68.2107C107.302 68.2107 107.302 68.2107 107.302 68.204C107.14 67.8821 106.978 67.5871 106.822 67.2921C106.789 67.225 106.748 67.1647 106.714 67.0976C106.559 66.816 106.404 66.5478 106.248 66.293C106.228 66.2595 106.208 66.226 106.181 66.1925C106.039 65.9645 105.904 65.7566 105.762 65.5555C105.728 65.5085 105.701 65.4616 105.668 65.4214C105.519 65.2068 105.37 65.0057 105.222 64.8246C105.195 64.7844 105.161 64.7509 105.134 64.7173C104.999 64.5564 104.871 64.4089 104.742 64.2748C104.722 64.2547 104.702 64.2279 104.682 64.2078C104.54 64.067 104.398 63.9396 104.263 63.8323C104.229 63.8054 104.202 63.7853 104.168 63.7585C104.027 63.6579 103.892 63.5641 103.756 63.497C105.208 55.2967 99.6913 47.4987 90.5548 38.3731C90.5548 38.3731 129.87 20.209 127.074 7.13415L127.047 7.14756ZM109.51 125.117C106.876 121.932 105.776 119.484 106.539 118.438C106.998 117.815 107.531 117.486 108.099 117.486C108.186 117.486 108.267 117.493 108.355 117.506C108.922 117.607 109.341 117.996 109.409 118.224C109.53 118.687 109.55 121.55 109.51 125.11V125.117ZM117.35 124.232V124.279L117.336 124.325C117.059 127.376 113.784 129.287 111.09 130.36C110.982 130.4 110.867 130.441 110.759 130.481C110.84 127.008 111.002 118.861 110.698 117.855C110.462 117.064 109.571 116.367 108.585 116.192C107.903 116.072 106.586 116.105 105.451 117.647C104.114 119.458 105.472 122.656 109.476 127.148C109.456 128.395 109.429 129.683 109.395 130.95C106.275 131.929 102.521 132.499 98.989 132.499C98.4758 132.499 97.9694 132.486 97.4967 132.465C97.4494 132.465 97.3211 132.418 97.2333 132.385C97.2198 132.385 97.2063 132.378 97.1928 132.372L92.7157 117.848C92.6077 117.493 92.2295 117.292 91.8716 117.406C91.5137 117.513 91.3111 117.889 91.4259 118.244L95.7342 132.217C95.6734 132.224 95.6126 132.237 95.5586 132.244C95.5113 132.251 95.4573 132.264 95.4168 132.264C93.7151 132.009 92.9385 131.641 92.6212 131.433C87.7254 127.913 85.7738 118.693 85.6928 118.298L85.524 117.48L85.5037 117.071L85.6928 116.749L86.0709 116.474L86.2735 115.958V115.73L86.3816 115.455L86.6382 115.193L86.726 115.019L87.0096 114.684L87.3675 114.362L87.5566 114.12L87.6376 113.839L87.8334 113.524L88.1305 113.383L88.3399 113.202L88.6573 112.927L88.7721 112.759L89.2245 112.773L89.6297 112.692L90.0348 112.645L90.5345 112.484L90.8452 112.116L91.0815 111.713C91.149 111.613 91.2638 111.552 91.3854 111.539L91.6623 111.599L92.0809 111.572L92.3105 111.519L92.8507 111.505L93.2154 111.438L93.9109 111.398L94.4782 111.304L94.8293 111.049L95.1535 110.741L95.4641 110.627L95.6734 110.466L95.8422 110.292L95.93 110.084L96.3217 109.91L96.6121 109.695L96.9902 109.306L97.2536 108.937L97.6452 108.401C97.7735 108.227 97.9896 108.139 98.2057 108.18L99.3402 108.387L99.8736 108.455L100.569 108.428L101.359 108.408L102.075 108.3L102.973 108.119L103.777 108.206L104.493 108.193L104.85 108.153L105.242 108.334L105.553 108.475L105.924 108.495L106.694 108.642L107.41 108.595L108.328 108.582L108.916 108.394L109.517 108.106L110.043 108.3L110.543 108.394L111.34 108.81L112.049 109.045L112.596 109.024L113.015 108.931L113.42 108.421H114.797L115.621 108.763L115.999 108.864L116.54 108.797L116.965 108.575C117.809 115.072 117.978 120.551 117.363 124.198L117.35 124.232Z" fill="black"/>
<path d="M17.0439 55.1426L19.9206 65.9109H19.9611L22.8378 55.1426H25.8158V68.7271H24.0465V56.8524H24.006L20.8255 68.7271H19.0562L15.8757 56.8524H15.8351V68.7271H14.0659V55.1426H17.0439Z" fill="white" stroke="white" stroke-width="0.25" stroke-miterlimit="10"/>
<path d="M29.4558 55.1426V64.7912C29.4558 65.7835 29.6516 66.501 30.0365 66.9502C30.4282 67.3995 31.0427 67.6274 31.8868 67.6274C32.7309 67.6274 33.3994 67.3995 33.7775 66.9301C34.1557 66.4675 34.338 65.75 34.338 64.7912V55.1426H36.1073V64.7912C36.1073 66.0584 35.7494 67.0776 35.0336 67.8487C34.3178 68.6198 33.2643 69.002 31.8868 69.002C29.0844 69.002 27.6865 67.5939 27.6865 64.7778V55.1493H29.4558V55.1426Z" fill="white" stroke="white" stroke-width="0.25" stroke-miterlimit="10"/>
<path d="M39.7131 55.1426V67.2452H45.5475V68.7271H37.9438V55.1426H39.7131Z" fill="white" stroke="white" stroke-width="0.25" stroke-miterlimit="10"/>
<path d="M53.9477 55.1426V56.6244H48.2956V60.8888H53.6236V62.3706H48.2956V67.2452H54.1908V68.7271H46.5264V55.1426H53.9477Z" fill="white" stroke="white" stroke-width="0.25" stroke-miterlimit="10"/>
<path d="M59.8095 62.5852V64.067H55.6768V62.5852H59.8095Z" fill="white" stroke="white" stroke-width="0.25" stroke-miterlimit="10"/>
<path d="M62.9763 55.1426V60.7011H67.9058V55.1426H69.675V68.7271H67.9058V62.1829H62.9763V68.7271H61.207V55.1426H62.9763Z" fill="white" stroke="white" stroke-width="0.25" stroke-miterlimit="10"/>
<path d="M73.4362 55.1426V68.7271H71.667V55.1426H73.4362Z" fill="white" stroke="white" stroke-width="0.25" stroke-miterlimit="10"/>
<path d="M79.5476 55.1426C81.1953 55.1426 82.4311 55.6186 83.2482 56.5708C84.0652 57.5229 84.4772 59.3064 84.4772 61.9147C84.4772 66.454 82.8835 68.7271 79.6894 68.7271H75.604V55.1426H79.5476ZM79.2032 67.3592C80.385 67.3592 81.2493 66.9301 81.7963 66.0719C82.3433 65.2136 82.6202 63.8391 82.6202 61.9348C82.6202 59.7892 82.3365 58.3543 81.7761 57.6168C81.2156 56.8792 80.3512 56.5104 79.2032 56.5104H77.3732V67.3592H79.2032Z" fill="white" stroke="white" stroke-width="0.25" stroke-miterlimit="10"/>
<path d="M93.6879 55.1426V56.6244H88.0358V60.8888H93.3638V62.3706H88.0358V67.2452H93.931V68.7271H86.2666V55.1426H93.6879Z" fill="white" stroke="white" stroke-width="0.25" stroke-miterlimit="10"/>
<path d="M17.9488 72.4417C19.4884 72.4417 20.6026 72.7836 21.2981 73.4675C21.9937 74.1514 22.3381 75.1438 22.3381 76.4446C22.3381 77.7454 21.9532 78.6908 21.1833 79.4082C20.4135 80.1257 19.4141 80.481 18.1716 80.481H15.8419V86.3681H14.0254V72.4484H17.942L17.9488 72.4417ZM18.0501 79.073C18.7523 79.073 19.3263 78.8383 19.772 78.3622C20.2177 77.8862 20.4405 77.2224 20.4405 76.3641C20.4405 75.5059 20.2177 74.8756 19.772 74.4599C19.3263 74.0509 18.7253 73.843 17.969 73.843H15.8486V79.0663H18.0501V79.073Z" fill="white" stroke="white" stroke-width="0.25" stroke-miterlimit="10"/>
<path d="M28.436 72.4417C29.5502 72.4417 30.4416 72.7501 31.1168 73.3602C31.7921 73.9704 32.1298 74.8287 32.1298 75.935C32.1298 76.8335 31.9407 77.5979 31.5625 78.2348C31.1844 78.8718 30.6171 79.2741 29.8608 79.4418V79.482C30.4821 79.549 30.9683 79.7971 31.3329 80.2262C31.6976 80.6554 31.9002 81.2052 31.9407 81.8824L32.123 84.9265C32.1635 85.6305 32.4066 86.1066 32.8456 86.3681H30.6577C30.3943 86.12 30.2255 85.3891 30.1444 84.1621L30.0432 82.2109C29.9756 80.8431 29.2936 80.1659 28.0038 80.1659H25.4107V86.3681H23.5942V72.4484H28.436V72.4417ZM27.6121 78.7578C29.3544 78.7578 30.2322 77.8661 30.2322 76.0892C30.2322 75.3517 29.9891 74.7884 29.5097 74.4129C29.0302 74.0375 28.4022 73.8497 27.6324 73.8497H25.404V78.7645H27.6054L27.6121 78.7578Z" fill="white" stroke="white" stroke-width="0.25" stroke-miterlimit="10"/>
<path d="M38.4706 72.1667C40.0913 72.1667 41.2865 72.7501 42.0563 73.9101C42.8262 75.0701 43.2111 76.9005 43.2111 79.4015C43.2111 81.9025 42.8194 83.7732 42.0293 84.9198C41.2392 86.0664 40.0575 86.6363 38.4774 86.6363C36.8972 86.6363 35.7155 86.0664 34.9254 84.9198C34.1353 83.7732 33.7437 81.936 33.7437 79.4015C33.7437 76.867 34.1286 75.0902 34.8984 73.9235C35.6682 72.7568 36.8634 72.1667 38.4841 72.1667H38.4706ZM35.6277 79.4216C35.6277 81.6477 35.8573 83.1698 36.3165 83.9945C36.7757 84.8192 37.4915 85.2349 38.4706 85.2349C39.4498 85.2349 40.1791 84.8192 40.6315 83.9945C41.0839 83.1698 41.3135 81.641 41.3135 79.4015C41.3135 77.162 41.0907 75.7003 40.645 74.8488C40.1993 73.9972 39.47 73.5748 38.4503 73.5748C37.4307 73.5748 36.7621 73.9905 36.3097 74.8153C35.8573 75.64 35.6277 77.1754 35.6277 79.4283V79.4216Z" fill="white" stroke="white" stroke-width="0.25" stroke-miterlimit="10"/>
<path d="M49.2682 72.4417C50.9564 72.4417 52.2192 72.9311 53.0633 73.9034C53.9006 74.8756 54.3193 76.7061 54.3193 79.3814C54.3193 84.0347 52.6851 86.3614 49.4168 86.3614H45.2368V72.4417H49.275H49.2682ZM48.9171 84.96C50.1258 84.96 51.0105 84.5242 51.5777 83.6458C52.1382 82.7675 52.4218 81.3527 52.4218 79.4015C52.4218 77.2023 52.1314 75.7271 51.5574 74.9762C50.9767 74.2252 50.0988 73.843 48.9171 73.843H47.0398V84.96H48.9171Z" fill="white" stroke="white" stroke-width="0.25" stroke-miterlimit="10"/>
<path d="M57.8039 72.4416V82.3249C57.8039 83.3374 57.9997 84.075 58.3981 84.5376C58.7966 85.0003 59.4313 85.2282 60.2957 85.2282C61.16 85.2282 61.8488 84.9935 62.2337 84.5175C62.6186 84.0414 62.8077 83.3106 62.8077 82.3249V72.4416H64.6242V82.3249C64.6242 83.6257 64.2596 84.665 63.5235 85.4562C62.7874 86.2474 61.7138 86.6363 60.3024 86.6363C57.4325 86.6363 55.9941 85.1947 55.9941 82.3048V72.4349H57.8106L57.8039 72.4416Z" fill="white" stroke="white" stroke-width="0.25" stroke-miterlimit="10"/>
<path d="M71.0325 72.1667C72.4439 72.1667 73.5108 72.5221 74.2266 73.2262C74.9424 73.9369 75.3273 75.0231 75.3813 76.4915H73.4838C73.4028 74.5403 72.5857 73.5681 71.0325 73.5681C70.0736 73.5681 69.3578 73.9771 68.8919 74.7884C68.426 75.5997 68.1896 77.1419 68.1896 79.4216C68.1896 81.7014 68.4192 83.1698 68.8784 83.9945C69.3376 84.8192 70.0534 85.2349 71.0325 85.2349C71.8834 85.2349 72.5181 84.9466 72.9301 84.3767C73.342 83.8068 73.5716 82.8748 73.6121 81.5874H75.5096C75.2935 84.9533 73.8012 86.6363 71.0393 86.6363C69.8846 86.6363 68.9662 86.3614 68.2909 85.8183C67.6089 85.2752 67.1092 84.5175 66.785 83.5587C66.4609 82.5999 66.2988 81.2186 66.2988 79.4216C66.2988 76.9274 66.6837 75.0902 67.4536 73.9235C68.2234 72.7568 69.4186 72.1667 71.0393 72.1667H71.0325Z" fill="white" stroke="white" stroke-width="0.25" stroke-miterlimit="10"/>
<path d="M85.0243 72.4417V73.9637H81.317V86.3681H79.5005V73.9637H75.8135V72.4417H85.0243Z" fill="white" stroke="white" stroke-width="0.25" stroke-miterlimit="10"/>
<path d="M89.9671 72.1667C91.3379 72.1667 92.3576 72.4752 93.0261 73.1054C93.6946 73.729 94.0458 74.708 94.0863 76.049H92.2698V75.9685C92.2698 74.3727 91.5067 73.5681 89.9806 73.5681C89.1703 73.5681 88.5625 73.7692 88.1573 74.1715C87.7522 74.5739 87.5496 75.1237 87.5496 75.8277C87.5496 76.3239 87.6509 76.7329 87.8602 77.0547C88.0696 77.3766 88.3802 77.6649 88.7989 77.9063C89.2175 78.1477 89.9468 78.4159 90.9935 78.7176C92.2698 79.0931 93.1747 79.5691 93.7014 80.1324C94.2281 80.6956 94.4914 81.4868 94.4914 82.4993C94.4914 83.7866 94.093 84.7991 93.2962 85.5299C92.4994 86.2675 91.3717 86.6296 89.9198 86.6296C88.3667 86.6296 87.239 86.2809 86.5299 85.5769C85.8209 84.8728 85.4697 83.7062 85.4697 82.0701V81.9897H87.2862V82.1841C87.2862 83.2905 87.5023 84.0749 87.9345 84.5309C88.3667 84.9935 89.0622 85.2215 90.0279 85.2215C90.7842 85.2215 91.3987 84.9935 91.8849 84.5309C92.3643 84.0682 92.6074 83.4782 92.6074 82.7675C92.6074 82.2713 92.5061 81.8623 92.2968 81.5404C92.0875 81.2186 91.7836 80.9303 91.3717 80.6889C90.9597 80.4475 90.1697 80.1458 89.0014 79.7837C87.8737 79.4484 87.0364 78.9858 86.4894 78.3957C85.9424 77.8057 85.6656 77.0145 85.6656 76.0154C85.6656 74.7951 86.0505 73.843 86.8203 73.1658C87.5901 72.4886 88.6368 72.1533 89.9738 72.1533L89.9671 72.1667Z" fill="white" stroke="white" stroke-width="0.25" stroke-miterlimit="10"/>
<path d="M50.3621 98.7256C50.8213 98.7256 51.2535 98.8396 51.6519 99.0675C52.0503 99.2955 52.3677 99.6106 52.604 100.006C52.8336 100.402 52.9552 100.831 52.9552 101.294C52.9552 101.756 52.8404 102.185 52.604 102.581C52.3744 102.977 52.0571 103.292 51.6519 103.52C51.2467 103.748 50.8213 103.862 50.3621 103.862C49.9029 103.862 49.4707 103.748 49.0723 103.52C48.6739 103.292 48.3565 102.983 48.1202 102.581C47.8838 102.179 47.769 101.75 47.769 101.287C47.769 100.824 47.8838 100.395 48.1202 99.9995C48.3498 99.6039 48.6672 99.2888 49.0723 99.0608C49.4775 98.8329 49.9029 98.7189 50.3621 98.7189V98.7256ZM48.235 101.294C48.235 101.877 48.4376 102.38 48.8495 102.809C49.2614 103.238 49.7679 103.453 50.3621 103.453C50.9564 103.453 51.4628 103.238 51.8747 102.816C52.2867 102.393 52.4892 101.884 52.4892 101.294C52.4892 100.918 52.3947 100.556 52.2124 100.228C52.0233 99.8923 51.7667 99.6308 51.4358 99.4363C51.1049 99.2419 50.747 99.1413 50.3554 99.1413C49.7679 99.1413 49.2682 99.3559 48.8562 99.7783C48.4443 100.201 48.235 100.71 48.235 101.3V101.294ZM50.5715 99.785C51.24 99.785 51.5776 100.08 51.5776 100.663C51.5776 100.898 51.5101 101.092 51.3683 101.233C51.2265 101.381 51.0239 101.468 50.7605 101.495L51.6249 102.789H51.1657L50.3284 101.528H49.8354V102.789H49.3762V99.7783H50.5782L50.5715 99.785ZM50.4026 101.113C50.6525 101.113 50.8281 101.079 50.9429 101.019C51.0577 100.952 51.1117 100.831 51.1117 100.643C51.1117 100.489 51.0644 100.375 50.9631 100.301C50.8618 100.234 50.7065 100.194 50.4837 100.194H49.8286V101.106H50.4026V101.113Z" fill="black"/>
</g>
<defs>
<clipPath id="clip0_486_2267">
<rect width="138" height="135" fill="white"/>
</clipPath>
</defs>
</svg>
