<svg width="95" height="25" viewBox="0 0 95 25" fill="none" xmlns="http://www.w3.org/2000/svg">
<path d="M31.4042 0C29.3959 0 27.5933 0.173941 25.7748 0.395319V24.7154H28.4472V16.0342C29.2853 16.0974 30.3921 16.1607 31.2302 16.1607C37.2549 16.1607 40.8444 12.7135 40.8444 7.77989C40.8444 3.62113 37.7293 0 31.4042 0ZM31.4042 13.8362C30.4712 13.8362 29.3011 13.7413 28.463 13.6306V2.67236C29.3327 2.46679 30.6768 2.40354 31.8153 2.40354C35.8634 2.40354 37.9823 5.12334 37.9823 8.00127C37.9665 11.1954 35.9899 13.8362 31.4042 13.8362ZM60.1676 12.9981V10.6578H57.6534V24.7312H60.2941V15.117C61.2587 13.7097 63.1404 12.9665 65.1803 12.9665V10.389C63.346 10.389 61.5117 11.2587 60.1676 12.9981ZM47.3434 10.389C43.0582 10.389 40.2119 13.6781 40.2119 17.6945C40.2119 21.7109 43.0582 25 47.3434 25C51.6287 25 54.4434 21.7109 54.4434 17.6945C54.4434 13.6781 51.6287 10.389 47.3434 10.389ZM47.3434 22.8495C44.6236 22.8495 42.821 20.778 42.821 17.6945C42.821 14.611 44.6236 12.5395 47.3434 12.5395C50.0158 12.5395 51.8343 14.611 51.8343 17.6945C51.8343 20.778 50.0158 22.8495 47.3434 22.8495ZM89.943 10.389C88.093 10.389 86.3535 11.2587 84.883 12.7609V0.173941H82.2422V24.7312H84.883V14.8798C85.9266 13.7097 87.6976 12.6028 89.2789 12.6028C91.2871 12.6028 92.2201 13.7097 92.2201 15.8918V24.7312H94.8608V15.1803C94.8766 12.3656 93.2005 10.389 89.943 10.389ZM74.067 12.666C75.506 12.666 76.8817 13.172 78.0202 13.8362L79.0955 11.828C77.8305 11.0215 76.0436 10.389 74.3042 10.389C69.845 10.389 66.6983 13.7097 66.6983 17.7577C66.6983 21.8058 69.845 25 74.3042 25C76.0436 25 77.8147 24.3675 79.0955 23.561L78.1942 21.5528C77.0556 22.217 75.6799 22.723 74.241 22.723C71.6635 22.723 69.2441 20.8096 69.2441 17.7736C69.2441 14.5478 71.3314 12.666 74.067 12.666Z" fill="#83878A"/>
<path d="M0 9.99368V16.5718L9.94623 9.93043V3.35231L0 9.99368Z" fill="#FFD451"/>
<path d="M19.8925 9.99368V16.5718L9.94623 9.93043V3.35231L19.8925 9.99368Z" fill="#F2AE00"/>
</svg>
