<svg xmlns="http://www.w3.org/2000/svg" xmlns:xlink="http://www.w3.org/1999/xlink" id="Layer_1" x="0px" y="0px" viewBox="0 0 478 137" style="enable-background:new 0 0 478 137;" xml:space="preserve" width="478"  height="137" ><style type="text/css">	.st0{fill:#78A22F;}</style><g id="Layer_2_00000034784457822415985000000005457883542439992753_"/><g id="Layer_1_00000117646523565853442170000001151532844249211019_">	<path class="st0" d="M167.2,31.8c10.6,0,16,0.8,20.1,3.2c6.1,3.4,9.5,9.6,9.5,17.5c0,7.8-3.2,15.2-9,20.8c-5.9,5.8-13,8.2-23.8,8.2   h-14.2l-3.9,22.2h-23.1l12.7-71.9H167.2z M152.9,64.6h10.9c3.9,0,6.1-0.8,7.7-2.9c1.3-1.7,2.1-4.1,2.1-6.6c0-3.8-2.3-5.5-7.5-5.5   h-10.6L152.9,64.6z"/>	<g>		<polygon points="120.6,116.8 125,116.8 122.6,130.5 124.8,130.5 127.2,116.8 131.6,116.8 132,114.8 120.9,114.8   "/>		<polygon points="147.2,121.3 139.7,121.3 140.9,114.8 138.7,114.8 135.9,130.5 138.1,130.5 139.4,123.3 146.9,123.3 145.6,130.5     147.7,130.5 150.5,114.8 148.4,114.8   "/>		<polygon points="159.1,123.4 166.7,123.4 167,121.4 159.4,121.4 160.2,116.8 168.4,116.8 168.7,114.8 158.4,114.8 155.6,130.5     166,130.5 166.4,128.5 158.2,128.5   "/>		<path d="M193.9,115.6c-0.7-0.6-1.6-0.8-3.3-0.8h-5.4l-2.8,15.7h2.1l1.1-6.4h3.4c1.5,0,2.5-0.3,3.5-0.9c1.2-0.8,2.1-2.2,2.4-3.8    C195.3,117.7,194.9,116.4,193.9,115.6z M189.1,122.1h-3l0.9-5.3h3c1.3,0,1.8,0.1,2.2,0.4c0.6,0.4,0.8,1.2,0.6,2.2    c-0.2,1-0.7,1.8-1.4,2.2"/>		<path d="M211.4,127.5l0.2-2c0-0.8-0.1-1.3-0.3-1.8c-0.2-0.4-0.4-0.6-0.8-0.8c1.4-0.7,2.3-2,2.6-3.6c0.3-1.6-0.1-2.9-1.2-3.7    c-0.7-0.5-1.5-0.7-3-0.7H203l-2.8,15.7h2.1l1.2-6.7h3.1c2.3,0,2.8,0.6,2.8,1.7c0,0.6,0,0.9-0.2,2.5c-0.2,1.3-0.2,1.8,0,2.2    l0.1,0.2h2.5l-0.4-0.7C211.2,129.5,211.2,129.1,211.4,127.5z M204.7,116.8h3.4c1,0,1.6,0.1,2,0.4c0.7,0.4,0.9,1.1,0.7,2.1    c-0.2,1-0.6,1.7-1.4,2.1c-0.6,0.4-1.4,0.5-2.8,0.5h-2.9L204.7,116.8z"/>		<path d="M228.4,114.4c-4.2,0-7.6,3.3-8.5,8.2c-0.9,4.9,1.4,8.2,5.5,8.2c4.1,0,7.5-3.4,8.4-8.2    C234.6,117.8,232.4,114.4,228.4,114.4z M231.6,122.7c-0.6,3.7-3,6.1-5.9,6.1c-2.9,0-4.4-2.5-3.7-6.2c0.6-3.6,3-6.1,5.9-6.1    C230.8,116.5,232.3,119,231.6,122.7z"/>		<polygon points="239.8,130.5 242,130.5 243.2,123.4 250.1,123.4 250.5,121.4 243.6,121.4 244.4,116.8 252.1,116.8 252.5,114.8     242.6,114.8   "/>		<polygon points="260,123.4 267.6,123.4 268,121.4 260.3,121.4 261.1,116.8 269.3,116.8 269.6,114.8 259.4,114.8 256.6,130.5     266.9,130.5 267.3,128.5 259.1,128.5   "/>		<path d="M281.7,121.5c-0.5-0.1-0.7-0.2-0.9-0.2c-0.8-0.2-0.9-0.2-1-0.3l-0.1,0c-0.6-0.2-1-0.4-1.2-0.6c-0.5-0.4-0.5-1.1-0.4-1.6    c0.3-1.5,1.5-2.4,3.2-2.4c2,0,2.8,1,2.6,3.1l0,0.4h2.1l0.1-0.4c0.5-3.2-1.1-5-4.3-5c-3.1,0-5.3,1.8-5.8,4.6c-0.2,1.3,0,2.4,0.8,3    c0.6,0.5,1.3,0.8,2.9,1.3c1.7,0.5,2.2,0.6,2.7,0.9c0.8,0.4,1.1,1,1,2c-0.4,2.2-2.3,2.7-3.8,2.7c-1.2,0-2.2-0.5-2.6-1.2    c-0.3-0.6-0.4-1.4-0.2-2.4l0.1-0.4h-2.1l-0.1,0.6c-0.6,3.4,1.2,5.5,4.6,5.5c1.6,0,2.9-0.4,4-1.1c1.2-0.9,2-2.2,2.3-3.7    c0.2-1.4,0-2.4-0.8-3.2C283.9,122.3,283.3,122,281.7,121.5z"/>		<path d="M299.4,121.5c-0.5-0.1-0.7-0.2-0.9-0.2c-0.8-0.2-0.9-0.2-1-0.3l-0.1,0c-0.6-0.2-1-0.4-1.2-0.6c-0.5-0.4-0.5-1.1-0.4-1.6    c0.3-1.5,1.5-2.4,3.2-2.4c2,0,2.8,1,2.6,3.1l0,0.4h2.1l0.1-0.4c0.4-3.2-1.1-5-4.3-5c-3.1,0-5.3,1.8-5.8,4.6c-0.2,1.3,0,2.4,0.8,3    c0.6,0.5,1.3,0.8,2.9,1.3c1.7,0.5,2.2,0.6,2.7,0.9c0.8,0.4,1.1,1,0.9,2c-0.4,2.2-2.2,2.7-3.8,2.7c-1.2,0-2.2-0.5-2.6-1.2    c-0.3-0.6-0.4-1.4-0.2-2.4l0.1-0.4h-2.1l-0.1,0.6c-0.6,3.4,1.2,5.5,4.6,5.5c1.6,0,2.9-0.4,4-1.1c1.2-0.9,2-2.2,2.3-3.7    c0.2-1.3-0.1-2.4-0.9-3.2C301.6,122.3,301,122,299.4,121.5z"/>		<polygon points="310.1,130.5 312.3,130.5 315.1,114.8 312.9,114.8   "/>		<path d="M330.2,114.4c-4.2,0-7.6,3.3-8.5,8.2c-0.9,4.9,1.4,8.2,5.5,8.2c4.1,0,7.6-3.4,8.4-8.2    C336.5,117.8,334.2,114.4,330.2,114.4z M333.5,122.7c-0.6,3.7-3,6.1-5.9,6.1c-2.9,0-4.4-2.5-3.7-6.2c0.6-3.6,3-6.1,5.9-6.1    C332.6,116.5,334.1,119,333.5,122.7z"/>		<polygon points="352.1,126.9 346.8,114.8 344.5,114.8 341.8,130.5 343.9,130.5 346,118.3 351.3,130.5 353.6,130.5 356.4,114.8     354.2,114.8   "/>		<path d="M368.8,114.7l-8.6,15.8h2.3l2.5-4.7h5.7l0.9,4.7h2.2l-3-15.8H368.8z M366,123.9l3.3-6.1l1.1,6.1H366z"/>		<polygon points="385.4,114.8 383.2,114.8 380.5,130.5 390.1,130.5 390.5,128.5 383,128.5   "/>		<polygon points="416.6,126.7 415.7,114.8 413.6,114.8 408.6,126.7 408,114.8 405.8,114.8 406.8,130.5 408.9,130.5 414,118.4     414.9,130.5 417,130.5 423.6,114.8 421.4,114.8   "/>		<path d="M434,114.7l-8.6,15.8h2.2l2.5-4.7h5.7l0.9,4.7h2.2l-3-15.8H434z M431.1,123.9l3.3-6.1l1.1,6.1H431.1z"/>		<polygon points="455.8,114.8 450.5,122.1 447.6,114.8 445.3,114.8 449,124 447.9,130.5 450,130.5 451.1,124 458.2,114.8   "/>	</g>	<path d="M342,103.6h-25.8l-10.7-71.8h23.2l4.4,49.9l22-49.9h23.5L342,103.6z"/>	<path d="M391.2,103.6h-21.6l10.1-57.2h21.6L391.2,103.6z M401.7,43.1h-21.6l2-11.3h21.5L401.7,43.1z"/>	<path d="M406.5,64.1c2.5-12.8,13.7-19.1,33.7-19.1c11.2,0,20.1,2.1,24,5.7c2.5,2.2,3.9,5.5,3.9,8.7c0,2-0.3,4.9-1,8.3l-0.7,3   l-0.5,3l-0.5,3l-1.3,6.3l-0.5,3c-0.9,4.7-1.3,9-1.3,11.5c0,2.1,0.2,3.6,1,5.8h-23.9c-0.1-1-0.1-1.7-0.1-2.3c0-0.4,0-1.2,0.1-2.2   c-5.8,4.4-12.3,6.2-20.8,6.2c-12.5,0-19.3-5-19.3-14.2c0-7.6,4-14.1,10.8-17.2c3.7-1.7,7-2.6,13.6-3.7c2-0.3-2.1,0.2,12.3-1.6   c7.5-1,10-2.6,10-6.2c0-3.3-2.2-4.6-7.6-4.6c-6.3,0-8.8,1.6-10.4,6.4L406.5,64.1L406.5,64.1z M443.2,76.8c-2.2,1.3-4.7,2.1-9.9,3.2   c-7,1.4-8.2,2-9.7,4.4c-0.7,1.2-1.1,2.6-1.1,3.8c0,3.4,2.3,5.2,6.4,5.2c3.6,0,7.5-1.6,10.1-4c1.8-1.9,2.6-3.6,3.3-7.2L443.2,76.8z"/>	<path class="st0" d="M306.7,69.3c0,20-17.1,36-38.7,36c-16.9,0-27.7-9.7-27.7-24.5c0-20.3,17-36,39-36   C295.9,44.9,306.7,54.5,306.7,69.3z M265.5,68c-1.4,3.3-2.5,8.8-2.5,12.9c0,5.3,3,8.4,7.9,8.4c4.3,0,8-2.5,10.1-6.8   c1.5-3.2,2.8-9.3,2.8-13.5c0-5.2-3.2-8.4-8.1-8.4C271.2,60.7,267.7,63.2,265.5,68z"/>	<path class="st0" d="M250.8,48.6c-5.2-3.5-11-3.7-12.9-3.7c-6.1,0-11.1,3.3-15.2,10.4l1.5-8.9h-21.9l-10.1,57.2H215l4.5-25.8   c1.8-9.6,6.1-14.5,13-14.5c2.6,0,2.7,0,6,0.9C240.7,57.9,245.6,52.8,250.8,48.6z"/>	<g>		<path d="M466.6,35c3.1,0,5.6,2.5,5.6,5.7c0,3.2-2.5,5.7-5.6,5.7c-3.1,0-5.6-2.5-5.6-5.7C460.9,37.5,463.4,35,466.6,35L466.6,35z     M466.5,35.9c-2.5,0-4.5,2.1-4.5,4.8c0,2.7,2,4.8,4.6,4.8c2.5,0,4.5-2.1,4.5-4.8C471.1,38.1,469.1,35.9,466.5,35.9L466.5,35.9z     M465.5,44h-1v-6.3c0.5-0.1,1-0.2,1.8-0.2c1,0,1.6,0.2,2,0.5c0.4,0.3,0.6,0.7,0.6,1.3c0,0.8-0.6,1.3-1.2,1.6v0.1    c0.5,0.1,0.9,0.6,1,1.5c0.2,1,0.3,1.4,0.4,1.6H468c-0.1-0.2-0.3-0.8-0.4-1.6c-0.2-0.8-0.6-1.1-1.4-1.1h-0.7L465.5,44L465.5,44z     M465.5,40.5h0.7c0.8,0,1.5-0.3,1.5-1.1c0-0.6-0.4-1.1-1.5-1.1c-0.3,0-0.6,0-0.7,0.1V40.5z"/>	</g>	<g>		<path class="st0" d="M62.5,105.3c21.5-1.2,43-16.2,52-38.1c5.2-12.6,5.2-25.1,1.1-35.5C93.1,41.8,36.1,71.8,62.5,105.3z"/>		<path class="st0" d="M28.7,130.5H5.8L19.3,53c8.4-38.7,64.4-65.9,91.6-30.1c0,0-120.4,19.6-82.6,106.7L28.7,130.5z"/>	</g></g></svg>