<svg width="18" height="18" viewBox="0 0 18 18" fill="none" xmlns="http://www.w3.org/2000/svg">
<path d="M14.9252 15.8625L9.95644 10.9125C9.59394 11.225 9.1627 11.4687 8.6627 11.6437C8.1627 11.8187 7.63145 11.9062 7.06895 11.9062C5.69395 11.9062 4.52832 11.4312 3.57207 10.4812C2.61582 9.53125 2.1377 8.38125 2.1377 7.03125C2.1377 5.68125 2.61582 4.53125 3.57207 3.58125C4.52832 2.63125 5.68145 2.15625 7.03145 2.15625C8.38145 2.15625 9.53145 2.63125 10.4814 3.58125C11.4314 4.53125 11.9064 5.68125 11.9064 7.03125C11.9064 7.56875 11.8189 8.0875 11.6439 8.5875C11.4689 9.0875 11.2127 9.55625 10.8752 9.99375L15.8627 14.925L14.9252 15.8625ZM7.0502 10.6312C8.0377 10.6312 8.87832 10.2781 9.57207 9.57187C10.2658 8.86562 10.6127 8.01875 10.6127 7.03125C10.6127 6.04375 10.2658 5.19687 9.57207 4.49062C8.87832 3.78438 8.0377 3.43125 7.0502 3.43125C6.0377 3.43125 5.18145 3.78438 4.48145 4.49062C3.78145 5.19687 3.43145 6.04375 3.43145 7.03125C3.43145 8.01875 3.78145 8.86562 4.48145 9.57187C5.18145 10.2781 6.0377 10.6312 7.0502 10.6312Z" fill="#546A7C"/>
</svg>
