<svg width="80" height="80" viewBox="0 0 80 80" fill="none" xmlns="http://www.w3.org/2000/svg">
<path d="M38.15 69C35.0667 69 32.4458 67.9363 30.2875 65.8088C28.1292 63.6814 27.05 61.098 27.05 58.0588H34.45C34.45 59.0922 34.8046 59.9583 35.5138 60.6574C36.2229 61.3564 37.1017 61.7059 38.15 61.7059C39.1983 61.7059 40.0771 61.3564 40.7863 60.6574C41.4954 59.9583 41.85 59.0922 41.85 58.0588C41.85 57.0255 41.4954 56.1593 40.7863 55.4603C40.0771 54.7613 39.1983 54.4118 38.15 54.4118H3V47.1176H38.15C41.2333 47.1176 43.8542 48.1814 46.0125 50.3088C48.1708 52.4363 49.25 55.0196 49.25 58.0588C49.25 61.098 48.1708 63.6814 46.0125 65.8088C43.8542 67.9363 41.2333 69 38.15 69ZM3 32.5294V25.2353H52.95C54.5533 25.2353 55.8792 24.7186 56.9275 23.6853C57.9758 22.652 58.5 21.3451 58.5 19.7647C58.5 18.1843 57.9758 16.8775 56.9275 15.8441C55.8792 14.8108 54.5533 14.2941 52.95 14.2941C51.3467 14.2941 50.0208 14.8108 48.9725 15.8441C47.9242 16.8775 47.4 18.1843 47.4 19.7647H40C40 16.1784 41.2487 13.1544 43.7463 10.6926C46.2438 8.23088 49.3117 7 52.95 7C56.5883 7 59.6562 8.23088 62.1538 10.6926C64.6512 13.1544 65.9 16.1784 65.9 19.7647C65.9 23.351 64.6512 26.375 62.1538 28.8368C59.6562 31.2985 56.5883 32.5294 52.95 32.5294H3ZM64.05 61.7059V54.4118C65.6533 54.4118 66.9792 53.8951 68.0275 52.8618C69.0758 51.8284 69.6 50.5216 69.6 48.9412C69.6 47.3608 69.0758 46.0539 68.0275 45.0206C66.9792 43.9873 65.6533 43.4706 64.05 43.4706H3V36.1765H64.05C67.6883 36.1765 70.7562 37.4074 73.2538 39.8691C75.7513 42.3309 77 45.3549 77 48.9412C77 52.5275 75.7513 55.5515 73.2538 58.0132C70.7562 60.475 67.6883 61.7059 64.05 61.7059Z" fill="#00192E"/>
</svg>
