<svg width="80" height="80" viewBox="0 0 80 80" fill="none" xmlns="http://www.w3.org/2000/svg">
<path d="M50.575 59.8154C50.3306 55.9385 48.9403 52.5846 46.4042 49.7538C43.8681 46.9231 40.675 45.1692 36.825 44.4923C34.9306 41.1692 32.3792 38.5385 29.1708 36.6C25.9625 34.6615 22.4333 33.5385 18.5833 33.2308C20.1722 28.7385 22.8917 25.1538 26.7417 22.4769C30.5917 19.8 34.9 18.4615 39.6667 18.4615C45.7778 18.4615 50.9722 20.6154 55.25 24.9231C59.5278 29.2308 61.6667 34.4615 61.6667 40.6154C61.6667 44.6154 60.6889 48.3231 58.7333 51.7385C56.7778 55.1539 54.0583 57.8462 50.575 59.8154Z" fill="#FFC700"/>
<path d="M36 14.7692V0H43.3333V14.7692H36Z" fill="#FFC700"/>
<path fill-rule="evenodd" clip-rule="evenodd" d="M17.6667 70.1538C13.6333 70.1538 10.1806 68.7077 7.30833 65.8154C4.43611 62.9231 3 59.4462 3 55.3846C3 51.3231 4.43611 47.8462 7.30833 44.9538C10.1806 42.0615 13.6333 40.6154 17.6667 40.6154C20.6 40.6154 23.3042 41.4154 25.7792 43.0154C28.2542 44.6154 30.0417 46.8 31.1417 49.5692L32.0583 51.6923H34.2583C36.825 51.6923 38.9792 52.5846 40.7208 54.3692C42.4625 56.1538 43.3333 58.3385 43.3333 60.9231C43.3333 63.5077 42.4472 65.6923 40.675 67.4769C38.9028 69.2615 36.7333 70.1538 34.1667 70.1538H17.6667Z" fill="#00192E"/>
<path d="M18.95 24.9231L8.59167 14.4923L13.8167 9.23077L24.0833 19.7538L18.95 24.9231Z" fill="#FFC700"/>
<path d="M60.3833 24.9231L55.25 19.7538L65.5167 9.23077L70.7417 14.4923L60.3833 24.9231Z" fill="#FFC700"/>
<path d="M65.3333 44.3077V36.9231H80V44.3077H65.3333Z" fill="#FFC700"/>
<path d="M65.5167 72L55.25 61.4769L60.3833 56.3077L70.8333 66.6462L65.5167 72Z" fill="#FFC700"/>
</svg>
