<svg width="80" height="80" viewBox="0 0 80 80" fill="none" xmlns="http://www.w3.org/2000/svg">
<path d="M17.0952 43.7619C19.9143 43.7619 22.4984 44.5254 24.8476 46.0524C27.1968 47.5794 28.9294 49.6643 30.0452 52.3071L30.9262 54.3333H33.1286C35.5952 54.3333 37.6508 55.1996 39.2952 56.9321C40.9397 58.6647 41.7619 60.7349 41.7619 63.1429C41.7619 65.6095 40.9103 67.6944 39.2071 69.3976C37.504 71.1008 35.419 71.9524 32.9524 71.9524H17.0952C13.219 71.9524 9.90079 70.5722 7.14048 67.8119C4.38016 65.0516 3 61.7333 3 57.8571C3 53.9222 4.38016 50.5893 7.14048 47.8583C9.90079 45.1274 13.219 43.7619 17.0952 43.7619ZM35.5952 5C34.5381 10.8143 34.8611 16.4964 36.5643 22.0464C38.2675 27.5964 41.204 32.4563 45.3738 36.6262C49.5437 40.796 54.4036 43.7325 59.9536 45.4357C65.5036 47.1389 71.1857 47.4619 77 46.4048C75.473 54.7444 71.5087 61.6306 65.1071 67.0631C58.7056 72.4956 51.3056 75.3 42.9071 75.4762C44.7865 73.9492 46.2401 72.1139 47.2679 69.9702C48.2956 67.8266 48.8095 65.5508 48.8095 63.1429C48.8095 59.1492 47.5615 55.6988 45.0655 52.7917C42.5694 49.8845 39.3833 48.1373 35.5071 47.55C33.6278 44.2024 31.0583 41.5595 27.7988 39.6214C24.5393 37.6833 20.9714 36.7143 17.0952 36.7143C15.2159 36.7143 13.3806 36.9492 11.5893 37.419C9.79802 37.8889 8.10952 38.5936 6.52381 39.5333C6.64127 31.0175 9.41627 23.5294 14.8488 17.069C20.2813 10.6087 27.1968 6.58571 35.5952 5Z" fill="#00192E"/>
</svg>
