<svg width="80" height="80" viewBox="0 0 80 80" fill="none" xmlns="http://www.w3.org/2000/svg">
<path d="M36.6364 16.4545V3H43.3636V16.4545H36.6364ZM59.0045 25.7045L54.3795 21.0795L63.7977 11.4091L68.5068 16.2023L59.0045 25.7045ZM63.5455 43.3636V36.6364H77V43.3636H63.5455ZM36.6364 77V63.5455H43.3636V77H36.6364ZM20.9955 25.5364L11.4091 16.2023L16.2023 11.4932L25.7045 20.9955L20.9955 25.5364ZM63.7136 68.5909L54.3795 58.9205L58.9205 54.3795L68.5068 63.6295L63.7136 68.5909ZM3 43.3636V36.6364H16.4545V43.3636H3ZM16.2023 68.5909L11.4932 63.7977L20.9114 54.3795L23.35 56.65L25.7886 59.0045L16.2023 68.5909ZM40 60.1818C34.3939 60.1818 29.6288 58.2197 25.7045 54.2955C21.7803 50.3712 19.8182 45.6061 19.8182 40C19.8182 34.3939 21.7803 29.6288 25.7045 25.7045C29.6288 21.7803 34.3939 19.8182 40 19.8182C45.6061 19.8182 50.3712 21.7803 54.2955 25.7045C58.2197 29.6288 60.1818 34.3939 60.1818 40C60.1818 45.6061 58.2197 50.3712 54.2955 54.2955C50.3712 58.2197 45.6061 60.1818 40 60.1818Z" fill="#FFC400"/>
</svg>
