<svg width="80" height="80" viewBox="0 0 80 80" fill="none" xmlns="http://www.w3.org/2000/svg">
<path d="M40.36 76C35.32 76 30.595 75.04 26.185 73.12C21.775 71.2 17.935 68.605 14.665 65.335C11.395 62.065 8.8 58.225 6.88 53.815C4.96 49.405 4 44.68 4 39.64C4 30.88 6.79 23.155 12.37 16.465C17.95 9.775 25.06 5.62 33.7 4C32.62 9.94 32.95 15.745 34.69 21.415C36.43 27.085 39.43 32.05 43.69 36.31C47.95 40.57 52.915 43.57 58.585 45.31C64.255 47.05 70.06 47.38 76 46.3C74.44 54.94 70.3 62.05 63.58 67.63C56.86 73.21 49.12 76 40.36 76Z" fill="#00192E"/>
</svg>
