<svg width="80" height="80" viewBox="0 0 80 80" fill="none" xmlns="http://www.w3.org/2000/svg">
<path fill-rule="evenodd" clip-rule="evenodd" d="M47.4 63.5L52.95 69L58.5 63.5L52.95 58L47.4 63.5ZM8.96625 48.4208C12.9438 52.3625 17.7383 54.3333 23.35 54.3333H60.35C64.975 54.3333 68.9062 52.7292 72.1438 49.5208C75.3813 46.3125 77 42.4167 77 37.8333C77 33.4944 75.5508 29.7667 72.6525 26.65C69.7542 23.5333 66.1775 21.7917 61.9225 21.425C61.0592 16.1694 58.5771 11.7847 54.4762 8.27083C50.3754 4.75694 45.55 3 40 3C35.93 3 32.1838 3.99306 28.7612 5.97917C25.3387 7.96528 22.6408 10.7 20.6675 14.1833C15.6725 14.8556 11.4792 17.0861 8.0875 20.875C4.69583 24.6639 3 29.0944 3 34.1667C3 39.7278 4.98875 44.4792 8.96625 48.4208Z" fill="#00192E"/>
<path d="M29.085 74.5L25.2 70.65L36.115 59.8333L40 63.6833L29.085 74.5Z" fill="#999FA5"/>
<path d="M41.85 80L36.3 74.5L41.85 69L47.4 74.5L41.85 80Z" fill="#00192E"/>
<path d="M19.65 69L14.1 63.5L19.65 58L25.2 63.5L19.65 69Z" fill="#00192E"/>
</svg>
