<svg width="11" height="11" viewBox="0 0 11 11" fill="none" xmlns="http://www.w3.org/2000/svg">
<g clip-path="url(#clip0_423_120)">
<path d="M4.95 11V8.7175L3.1625 10.4775L2.3925 9.7075L4.95 7.15V6.05H3.85L1.2925 8.6075L0.5225 7.8375L2.2825 6.05H0V4.95H2.2825L0.5225 3.1625L1.2925 2.3925L3.85 4.95H4.95V3.85L2.3925 1.2925L3.1625 0.5225L4.95 2.2825V0H6.05V2.2825L7.8375 0.5225L8.6075 1.2925L6.05 3.85V4.95H7.15L9.7075 2.3925L10.4775 3.1625L8.7175 4.95H11V6.05H8.7175L10.4775 7.8375L9.7075 8.6075L7.15 6.05H6.05V7.15L8.6075 9.7075L7.8375 10.4775L6.05 8.7175V11H4.95Z" fill="#999FA5"/>
</g>
<defs>
<clipPath id="clip0_423_120">
<rect width="11" height="11" fill="white"/>
</clipPath>
</defs>
</svg>
