<svg width="80" height="80" viewBox="0 0 80 80" fill="none" xmlns="http://www.w3.org/2000/svg">
<path d="M38.38 80L46.84 70.2727L39.64 66.6364L50.08 54.5455H59.62L51.16 64.2727L58.36 67.9091L47.92 80H38.38Z" fill="#FFC300"/>
<path fill-rule="evenodd" clip-rule="evenodd" d="M23.8 50.9091C18.34 50.9091 13.675 48.9545 9.805 45.0455C5.935 41.1364 4 36.4242 4 30.9091C4 25.8788 5.65 21.4848 8.95 17.7273C12.25 13.9697 16.33 11.7576 21.19 11.0909C23.11 7.63636 25.735 4.92424 29.065 2.95455C32.395 0.984848 36.04 0 40 0C45.4 0 50.095 1.74242 54.085 5.22727C58.075 8.71212 60.49 13.0606 61.33 18.2727C65.47 18.6364 68.95 20.3636 71.77 23.4545C74.59 26.5455 76 30.2424 76 34.5455C76 39.0909 74.425 42.9545 71.275 46.1364C68.125 49.3182 64.3 50.9091 59.8 50.9091H23.8Z" fill="#00192E"/>
<path d="M16.78 80L25.24 70.2727L18.04 66.6364L28.48 54.5455H38.02L29.56 64.2727L36.76 67.9091L26.32 80H16.78Z" fill="#FFC300"/>
</svg>
