<svg width="80" height="80" viewBox="0 0 80 80" fill="none" xmlns="http://www.w3.org/2000/svg">
<path d="M17.8 65.3333C16.7517 65.3333 15.8729 64.9819 15.1637 64.2792C14.4546 63.5764 14.1 62.7056 14.1 61.6667C14.1 60.6278 14.4546 59.7569 15.1637 59.0542C15.8729 58.3514 16.7517 58 17.8 58C18.8483 58 19.7271 58.3514 20.4363 59.0542C21.1454 59.7569 21.5 60.6278 21.5 61.6667C21.5 62.7056 21.1454 63.5764 20.4363 64.2792C19.7271 64.9819 18.8483 65.3333 17.8 65.3333Z" fill="#999FA5"/>
<path d="M40 65.3333C38.9517 65.3333 38.0729 64.9819 37.3638 64.2792C36.6546 63.5764 36.3 62.7056 36.3 61.6667C36.3 60.6278 36.6546 59.7569 37.3638 59.0542C38.0729 58.3514 38.9517 58 40 58C41.0483 58 41.9271 58.3514 42.6362 59.0542C43.3454 59.7569 43.7 60.6278 43.7 61.6667C43.7 62.7056 43.3454 63.5764 42.6362 64.2792C41.9271 64.9819 41.0483 65.3333 40 65.3333Z" fill="#999FA5"/>
<path d="M62.2 65.3333C61.1517 65.3333 60.2729 64.9819 59.5638 64.2792C58.8546 63.5764 58.5 62.7056 58.5 61.6667C58.5 60.6278 58.8546 59.7569 59.5638 59.0542C60.2729 58.3514 61.1517 58 62.2 58C63.2483 58 64.1271 58.3514 64.8363 59.0542C65.5454 59.7569 65.9 60.6278 65.9 61.6667C65.9 62.7056 65.5454 63.5764 64.8363 64.2792C64.1271 64.9819 63.2483 65.3333 62.2 65.3333Z" fill="#999FA5"/>
<path d="M51.1 80C50.0517 80 49.1729 79.6486 48.4637 78.9458C47.7546 78.2431 47.4 77.3722 47.4 76.3333C47.4 75.2944 47.7546 74.4236 48.4637 73.7208C49.1729 73.0181 50.0517 72.6667 51.1 72.6667C52.1483 72.6667 53.0271 73.0181 53.7363 73.7208C54.4454 74.4236 54.8 75.2944 54.8 76.3333C54.8 77.3722 54.4454 78.2431 53.7363 78.9458C53.0271 79.6486 52.1483 80 51.1 80Z" fill="#999FA5"/>
<path fill-rule="evenodd" clip-rule="evenodd" d="M8.96625 48.4208C12.9438 52.3625 17.7383 54.3333 23.35 54.3333H60.35C64.975 54.3333 68.9062 52.7292 72.1438 49.5208C75.3813 46.3125 77 42.4167 77 37.8333C77 33.4944 75.5508 29.7667 72.6525 26.65C69.7542 23.5333 66.1775 21.7917 61.9225 21.425C61.0592 16.1694 58.5771 11.7847 54.4762 8.27083C50.3754 4.75694 45.55 3 40 3C35.93 3 32.1838 3.99306 28.7612 5.97917C25.3387 7.96528 22.6408 10.7 20.6675 14.1833C15.6725 14.8556 11.4792 17.0861 8.0875 20.875C4.69583 24.6639 3 29.0944 3 34.1667C3 39.7278 4.98875 44.4792 8.96625 48.4208Z" fill="#00192E"/>
<path d="M28.9 80C27.8517 80 26.9729 79.6486 26.2638 78.9458C25.5546 78.2431 25.2 77.3722 25.2 76.3333C25.2 75.2944 25.5546 74.4236 26.2638 73.7208C26.9729 73.0181 27.8517 72.6667 28.9 72.6667C29.9483 72.6667 30.8271 73.0181 31.5363 73.7208C32.2454 74.4236 32.6 75.2944 32.6 76.3333C32.6 77.3722 32.2454 78.2431 31.5363 78.9458C30.8271 79.6486 29.9483 80 28.9 80Z" fill="#999FA5"/>
</svg>
