<svg width="11" height="11" viewBox="0 0 11 11" fill="none" xmlns="http://www.w3.org/2000/svg">
<path d="M4.74089 9.35C4.85547 9.34083 4.95334 9.29729 5.03451 9.21937C5.11567 9.14146 5.15625 9.0475 5.15625 8.9375C5.15625 8.80917 5.11328 8.70604 5.02734 8.62813C4.94141 8.55021 4.8316 8.51583 4.69792 8.525C4.30642 8.5525 3.89106 8.44938 3.45182 8.21562C3.01259 7.98187 2.73568 7.55792 2.62109 6.94375C2.602 6.84292 2.55187 6.76042 2.4707 6.69625C2.38954 6.63208 2.29644 6.6 2.19141 6.6C2.05773 6.6 1.94792 6.64813 1.86198 6.74437C1.77604 6.84062 1.7474 6.95292 1.77604 7.08125C1.93837 7.91542 2.32031 8.51125 2.92188 8.86875C3.52344 9.22625 4.12977 9.38667 4.74089 9.35ZM4.58333 11C3.27517 11 2.18424 10.5692 1.31055 9.7075C0.436849 8.84583 0 7.77333 0 6.49C0 5.57333 0.379557 4.57646 1.13867 3.49937C1.89779 2.42229 3.04601 1.25583 4.58333 0C6.12066 1.25583 7.26888 2.42229 8.028 3.49937C8.78711 4.57646 9.16667 5.57333 9.16667 6.49C9.16667 7.77333 8.72982 8.84583 7.85612 9.7075C6.98242 10.5692 5.89149 11 4.58333 11Z" fill="#339BFB"/>
</svg>
