<svg width="80" height="80" viewBox="0 0 80 80" fill="none" xmlns="http://www.w3.org/2000/svg">
<path d="M20.5 67.55C15.1227 67.55 10.5284 65.6945 6.71705 61.9834C2.90568 58.2723 1 53.7365 1 48.376C1 43.7813 2.38864 39.6873 5.16591 36.0941C7.94318 32.5008 11.5773 30.2034 16.0682 29.202C17.5455 23.7827 20.5 19.3941 24.9318 16.0365C29.3636 12.6788 34.3864 11 40 11C46.9136 11 52.7784 13.4004 57.5943 18.2013C62.4102 23.0021 64.8182 28.8486 64.8182 35.7406C68.8955 36.2119 72.2784 37.9643 74.967 40.998C77.6557 44.0317 79 47.5808 79 51.6453C79 56.0633 77.4489 59.8186 74.3466 62.9111C71.2443 66.0037 67.4773 67.55 63.0455 67.55H20.5Z" fill="#00192E"/>
</svg>
