<svg width="80" height="80" viewBox="0 0 80 80" fill="none" xmlns="http://www.w3.org/2000/svg">
<path d="M17.8 65.9C16.7517 65.9 15.8729 65.5454 15.1637 64.8363C14.4546 64.1271 14.1 63.2483 14.1 62.2C14.1 61.1517 14.4546 60.2729 15.1637 59.5638C15.8729 58.8546 16.7517 58.5 17.8 58.5H51.1C52.1483 58.5 53.0271 58.8546 53.7363 59.5638C54.4454 60.2729 54.8 61.1517 54.8 62.2C54.8 63.2483 54.4454 64.1271 53.7363 64.8363C53.0271 65.5454 52.1483 65.9 51.1 65.9H17.8Z" fill="#999FA5"/>
<path d="M32.6 77C31.5517 77 30.6729 76.6454 29.9638 75.9362C29.2546 75.2271 28.9 74.3483 28.9 73.3C28.9 72.2517 29.2546 71.3729 29.9638 70.6637C30.6729 69.9546 31.5517 69.6 32.6 69.6H58.5C59.5483 69.6 60.4271 69.9546 61.1362 70.6637C61.8454 71.3729 62.2 72.2517 62.2 73.3C62.2 74.3483 61.8454 75.2271 61.1362 75.9362C60.4271 76.6454 59.5483 77 58.5 77H32.6Z" fill="#999FA5"/>
<path d="M62.2 65.9C61.1517 65.9 60.2729 65.5454 59.5638 64.8363C58.8546 64.1271 58.5 63.2483 58.5 62.2C58.5 61.1517 58.8546 60.2729 59.5638 59.5638C60.2729 58.8546 61.1517 58.5 62.2 58.5C63.2483 58.5 64.1271 58.8546 64.8363 59.5638C65.5454 60.2729 65.9 61.1517 65.9 62.2C65.9 63.2483 65.5454 64.1271 64.8363 64.8363C64.1271 65.5454 63.2483 65.9 62.2 65.9Z" fill="#999FA5"/>
<path fill-rule="evenodd" clip-rule="evenodd" d="M23.35 54.8C17.7383 54.8 12.9438 52.8113 8.96625 48.8338C4.98875 44.8563 3 40.0617 3 34.45C3 29.3317 4.69583 24.8608 8.0875 21.0375C11.4792 17.2142 15.6725 14.9633 20.6675 14.285C22.6408 10.77 25.3387 8.01042 28.7612 6.00625C32.1838 4.00208 35.93 3 40 3C45.55 3 50.3754 4.77292 54.4762 8.31875C58.5771 11.8646 61.0592 16.2892 61.9225 21.5925C66.1775 21.9625 69.7542 23.72 72.6525 26.865C75.5508 30.01 77 33.7717 77 38.15C77 42.775 75.3813 46.7063 72.1438 49.9438C68.9062 53.1813 64.975 54.8 60.35 54.8H23.35Z" fill="#00192E"/>
<path d="M21.5 77C20.4517 77 19.5729 76.6454 18.8638 75.9362C18.1546 75.2271 17.8 74.3483 17.8 73.3C17.8 72.2517 18.1546 71.3729 18.8638 70.6637C19.5729 69.9546 20.4517 69.6 21.5 69.6C22.5483 69.6 23.4271 69.9546 24.1362 70.6637C24.8454 71.3729 25.2 72.2517 25.2 73.3C25.2 74.3483 24.8454 75.2271 24.1362 75.9362C23.4271 76.6454 22.5483 77 21.5 77Z" fill="#999FA5"/>
</svg>
