<svg width="60" height="62" viewBox="0 0 60 62" fill="none" xmlns="http://www.w3.org/2000/svg">
<path d="M31.4585 61.9295L27.0835 57.5545L31.4585 53.1795L35.8335 57.5545L31.4585 61.9295ZM21.396 57.5545L18.3335 54.492L26.9377 45.8878L30.0002 48.9503L21.396 57.5545ZM40.2085 53.1795L35.8335 48.8045L40.2085 44.4295L44.5835 48.8045L40.2085 53.1795ZM13.9585 53.1795L9.5835 48.8045L13.9585 44.4295L18.3335 48.8045L13.9585 53.1795ZM16.8752 41.5128C12.4516 41.5128 8.67204 39.9451 5.53662 36.8097C2.4012 33.6743 0.833496 29.8948 0.833496 25.4712C0.833496 21.4364 2.1703 17.9121 4.84391 14.8983C7.51752 11.8844 10.8231 10.1101 14.7606 9.57534C16.3161 6.8045 18.4429 4.62916 21.1408 3.0493C23.8387 1.46943 26.7918 0.679504 30.0002 0.679504C34.3752 0.679504 38.179 2.07707 41.4116 4.87221C44.6443 7.66735 46.6009 11.1552 47.2814 15.3358C50.6356 15.6274 53.455 17.0128 55.7397 19.492C58.0245 21.9712 59.1668 24.9364 59.1668 28.3878C59.1668 32.0337 57.8908 35.1326 55.3387 37.6847C52.7866 40.2368 49.6877 41.5128 46.0418 41.5128H16.8752ZM16.8752 35.6795H46.0418C48.0835 35.6795 49.8092 34.9746 51.2189 33.5649C52.6286 32.1552 53.3335 30.4295 53.3335 28.3878C53.3335 26.3462 52.6286 24.6205 51.2189 23.2108C49.8092 21.801 48.0835 21.0962 46.0418 21.0962H41.6668V18.1795C41.6668 14.9712 40.5245 12.2246 38.2397 9.93992C35.955 7.6552 33.2085 6.51284 30.0002 6.51284C27.6668 6.51284 25.5401 7.14478 23.62 8.40867C21.6998 9.67256 20.2536 11.3739 19.2814 13.5128L18.5522 15.2628H16.7293C13.9585 15.3601 11.5887 16.393 9.61996 18.3618C7.65121 20.3305 6.66683 22.7003 6.66683 25.4712C6.66683 28.2906 7.66336 30.6969 9.65641 32.6899C11.6495 34.683 14.0557 35.6795 16.8752 35.6795Z" fill="#062640"/>
</svg>
