<svg width="80" height="48" viewBox="0 0 80 48" fill="none" xmlns="http://www.w3.org/2000/svg">
<g id="Angi-logo-Orange-2 1">
<path id="Vector" d="M25.3602 0.989258H20.9537H16.4376L13.386 20.0151C13.3215 20.0237 13.257 20.028 13.1903 20.0366C6.44835 20.9333 1.2161 26.6086 1.27416 32.9548C1.29997 35.6086 2.20534 37.6817 3.829 39.3806C5.29567 40.9161 7.29352 41.7484 9.31072 41.7484C10.1 41.7484 10.8914 41.6215 11.6548 41.3591C15.2892 40.1075 16.4957 37.0581 17.0613 34.2667C17.0613 34.2688 17.0591 34.2731 17.0591 34.2774C17.2225 31.1613 15.558 28.0839 12.3838 26.2624L11.3795 32.6043C11.057 34.4043 10.6376 35.4796 9.73868 35.7893C9.20104 35.9742 8.53868 35.7828 8.09136 35.314C7.51502 34.7097 7.17739 34.0366 7.16663 32.8989C7.13653 29.7269 9.63115 27.2366 12.3838 26.2624C13.2484 25.9505 14.1473 25.8043 15.1516 25.8043C16.1709 25.8043 17.2441 26 18.2247 26.329C21.943 27.2065 24.1967 31.1505 24.7537 35.4215L25.0806 37.8151H31.2677L25.3602 0.989258ZM19.0139 20.4237L20.7881 6.80861H20.8419H21.0075L22.9881 22.0022C21.7301 21.3161 20.3924 20.7807 19.0139 20.4237ZM78.3709 11.2602V37.8129H72.1967V11.2602H78.3709ZM60.3494 47.0108C68.4569 47.0108 69.0828 42.3893 69.0828 35.8581L69.1365 11.2624H65.9408C64.7903 11.2624 63.3795 12.1247 63.2828 13.2366L63.2075 14.0946L62.9086 13.286C62.3129 11.6796 60.8139 10.8301 58.5731 10.8301C56.3215 10.8301 54.6591 11.6946 53.6311 13.3979C52.6311 15.0538 52.4225 17.1957 52.4225 18.7011V29.0258C52.4225 31.5871 52.7967 33.4731 53.5666 34.7893C54.5021 36.3893 56.0161 37.1678 58.1989 37.1678C60.2634 37.1678 61.8247 36.2903 62.5946 34.6968L62.9623 33.9376V34.7807V37.7376C62.9623 40.3376 62.801 42.1785 60.7258 42.1785C60.2505 42.1785 58.7043 42.0172 58.7043 39.9419V39.8667H52.4763V39.9957C52.4763 42.0129 53.0225 43.6366 54.1 44.8194C55.4204 46.2731 57.5236 47.0108 60.3494 47.0108ZM62.8548 27.9527C62.8548 30.4839 62.4978 31.8559 60.6182 31.8559C58.8376 31.8559 58.5967 30.1548 58.5967 28.4903V19.2409C58.5967 17.157 59.3451 16.1441 60.8871 16.1441C62.6204 16.1441 62.8548 17.8452 62.8548 19.5097V27.9527ZM78.6935 5.42152C78.6935 7.30324 77.1967 8.77635 75.2849 8.77635C73.4032 8.77635 71.9301 7.30324 71.9301 5.42152C71.9301 3.50969 73.4032 2.01291 75.2849 2.01291C77.1645 2.01291 78.6935 3.54195 78.6935 5.42152ZM39.4118 19.8323V37.8151H33.1838L33.1301 11.2624H36.5924C37.7817 11.2624 39.1537 12.1011 39.3043 13.3505L39.3731 13.9226L39.6634 13.4258C40.6677 11.7054 42.2935 10.8323 44.4978 10.8323C48.044 10.8323 49.844 13.1183 49.844 17.6301V37.8172H43.6699V19.0258C43.6699 17.114 43.0075 16.1441 41.7021 16.1441C40.0118 16.1441 39.4118 17.1097 39.4118 19.8323Z" fill="#FF6153"/>
<path id="Vector_2" d="M17.0591 34.2774C17.371 32.9462 18.0935 27.8344 18.2226 26.3291C17.2441 26.0022 16.1688 25.8043 15.1495 25.8043C14.1452 25.8043 13.2462 25.9527 12.3817 26.2624C15.5581 28.0839 17.2226 31.1613 17.0591 34.2774Z" fill="#A03027"/>
</g>
</svg>
