<svg width="230" height="31" viewBox="0 0 230 31" fill="none" xmlns="http://www.w3.org/2000/svg">
<path fill-rule="evenodd" clip-rule="evenodd" d="M16.3032 6.57V6.69C15.8534 9.12 14.9838 10.44 13.5445 11.01C13.1847 11.13 12.8248 11.22 12.435 11.22C10.9957 11.07 9.7663 10.14 9.22655 8.79C8.89671 8.19 8.62684 7.53 8.297 6.81C7.42741 5.04 6.198 2.82 4.87863 2.82C4.45883 2.82 4.03903 2.91 3.61923 3.09C2.68967 3.6 2.68967 4.08 2.68967 4.26C2.50975 5.85 3.85911 7.35 5.7782 9.12C5.9881 9.33 6.22798 9.51 6.49785 9.78C7.72727 10.8 8.77677 12 9.64636 13.32C10.1561 14.07 10.456 14.97 10.486 15.87C10.5159 16.89 10.2461 17.88 9.70633 18.75C9.37648 19.35 8.98667 19.89 8.53688 20.4C7.21751 21.9 6.76773 23.16 7.27748 24.33C7.57734 24.93 8.11708 25.41 8.77677 25.59C9.01665 25.65 9.25654 25.65 9.49643 25.65C11.2056 25.65 11.9852 24.54 12.3751 21.39C12.585 20.07 13.0647 18.81 13.7544 17.64C14.4141 16.32 15.7634 15.48 17.2327 15.42H17.5626C18.6421 15.42 19.6616 15.87 20.3812 16.68C20.951 17.37 21.3408 18.18 21.4907 19.05C21.6107 19.89 21.6107 20.76 21.4907 21.6C21.4907 21.87 21.4307 22.14 21.3708 22.38C21.1609 23.76 20.921 25.98 21.5807 26.79C21.8206 27.03 22.1504 27.15 22.5102 27.12H22.7801C23.3798 27.15 23.9795 26.88 24.3693 26.4C25.179 25.23 25.4488 23.79 25.149 22.41C25.089 22.08 25.029 21.57 24.9391 21.03C24.6392 19.68 24.4893 18.3 24.4893 16.89C24.5493 14.91 25.089 13.68 26.3184 12.9C26.7382 12.63 27.218 12.51 27.6978 12.51C28.6573 12.48 29.5869 12.9 30.1866 13.62C30.6364 14.13 30.9962 14.7 31.296 15.33C31.5659 15.93 31.6859 16.5 31.8958 17.04C32.1656 18.03 32.6454 18.99 33.2751 19.8C33.6349 20.19 34.1147 20.4 34.6544 20.4C35.1042 20.37 35.524 20.16 35.8239 19.8C36.4236 19.08 36.7235 18.18 36.6035 17.25C36.5735 15.84 35.9738 14.49 34.9543 13.5C34.2946 13.08 33.6349 12.69 32.9153 12.39C31.9557 11.91 31.0861 11.25 30.3665 10.5C29.377 9.33 29.0771 7.74 29.5869 6.3C29.5869 6.24 29.6468 6.18 29.6468 6.09C30.0966 4.65 30.1566 3.99 29.7068 3.6C29.5269 3.48 29.287 3.39 29.0471 3.39C28.7173 3.42 28.4174 3.54 28.2075 3.78C27.9077 4.14 27.6378 4.53 27.4279 4.95C27.0381 5.64 26.6183 6.3 26.1085 6.93C25.4188 7.68 24.4893 8.16 23.4998 8.25H23.4398C22.2404 8.19 21.1009 7.59 20.3513 6.66C19.9914 6.27 19.6616 5.82 19.3617 5.34C19.0619 4.83 18.702 4.35 18.3122 3.9C17.2327 2.61 16.633 4.59 16.3032 6.57ZM13.6045 6.12V6C13.8743 4.41 14.1142 2.07 15.9134 1.02C16.4831 0.72 17.1128 0.54 17.7425 0.57C19.7815 0.57 21.1009 2.61 21.9405 3.84C22.3903 4.56 22.7801 5.43 23.3798 5.43C23.8896 5.43 24.3693 4.98 25.089 3.66C25.4188 3.09 25.8087 2.55 26.1985 2.01C26.8582 1.17 27.8777 0.72 28.9572 0.75C29.9167 0.75 30.8463 1.08 31.5659 1.68C32.3755 2.46 32.7653 3.57 32.6754 4.71C32.6454 5.49 32.4655 6.27 32.1656 7.02C32.1656 7.08 32.1057 7.14 32.1057 7.23C31.8958 7.83 31.9857 8.46 32.3156 9C32.9153 9.54 33.575 10.02 34.2946 10.38C35.1042 10.74 35.8539 11.16 36.6035 11.64C38.1928 13.08 39.1523 15.09 39.3022 17.22C39.5121 18.87 39.0024 20.49 37.9229 21.75C37.1133 22.68 35.9438 23.25 34.7144 23.25C33.515 23.22 32.3455 22.74 31.5059 21.87C30.5164 20.82 29.7968 19.56 29.4069 18.21C29.257 17.7 29.0471 17.22 28.8072 16.77C28.4774 16.11 28.2975 15.51 27.8177 15.51C27.3679 15.51 27.3079 16.56 27.3079 17.16C27.3679 18.36 27.5178 19.53 27.7577 20.7C27.8777 21.3 27.9676 21.81 28.0276 22.29C28.4774 27.03 26.2584 30.09 22.99 30.09H22.6002C21.4307 30.09 20.3513 29.58 19.5716 28.71C18.1323 26.94 18.5221 24.12 18.852 22.08C18.9119 21.81 18.9119 21.57 18.9719 21.36C19.1218 20.46 18.9419 19.53 18.4622 18.75C18.2822 18.57 18.0424 18.48 17.8025 18.48H17.6825C16.5731 18.54 16.1832 19.74 15.5236 22.29C15.2237 23.76 14.7439 25.17 14.0842 26.49C13.1547 28.02 11.4755 28.92 9.67634 28.83C9.28653 28.83 8.89671 28.77 8.5069 28.71C7.6673 28.5 6.88767 28.08 6.198 27.54C5.5683 27.06 5.05854 26.4 4.75868 25.65C4.18895 24.33 4.18895 22.83 4.75868 21.51C5.1485 20.64 5.65825 19.83 6.25797 19.08C6.64778 18.57 7.0376 18.06 7.36744 17.49C7.8772 16.71 7.90718 15.69 7.42741 14.88C6.64778 13.83 5.7782 12.87 4.81865 12C4.54878 11.73 4.3089 11.55 4.099 11.34C1.88005 9.27 -0.368875 6.96 0.0509252 3.99C0.0509252 2.52 0.920511 1.2 2.26987 0.6C3.0495 0.18 3.94907 0 4.81865 0C6.37791 0 7.84721 0.78 8.68681 2.1C9.43645 3.24 10.0662 4.44 10.5759 5.7C11.3855 7.56 12.7049 11.61 13.6045 6.12Z" fill="#F12330"/>
<path fill-rule="evenodd" clip-rule="evenodd" d="M217.288 10.1685C217.108 9.8385 217.288 9.5685 217.678 9.5685H219.057C219.237 9.5385 219.417 9.6585 219.507 9.8385L223.315 18.1485L226.913 9.8385C227.003 9.6585 227.153 9.5685 227.363 9.5685H228.593C228.982 9.5685 229.192 9.8385 228.982 10.1685L222.356 24.2385C222.266 24.4185 222.116 24.5385 221.906 24.5685H220.916C220.676 24.5985 220.437 24.4485 220.407 24.2085C220.407 24.1185 220.407 23.9985 220.466 23.9085L222.236 20.4285L217.288 10.1685ZM198.487 18.7485C199.626 18.7785 200.736 18.2985 201.486 17.4285V15.4185C200.766 14.8785 199.896 14.5785 198.997 14.5785C197.497 14.5785 196.448 15.2385 196.448 16.6185C196.448 17.7885 197.348 18.7185 198.487 18.7485ZM199.207 13.0485C200.016 13.1085 200.826 13.3485 201.516 13.7685C201.516 11.7885 200.736 10.8285 199.207 10.8285C198.277 10.7985 197.378 11.0085 196.538 11.4285C196.358 11.5185 196.148 11.4585 196.088 11.2785C196.058 11.2485 196.058 11.1885 196.058 11.1585L195.848 10.4985C195.758 10.2585 195.848 10.0185 196.088 9.8985C196.088 9.8985 196.118 9.8985 196.118 9.8685C197.108 9.3585 198.217 9.1185 199.327 9.1485C202.085 9.1485 203.375 10.5285 203.375 13.7385V19.7985C203.375 20.0685 203.165 20.3085 202.865 20.3085H202.025C201.785 20.3085 201.605 20.1585 201.576 19.9185V19.1985C200.646 20.0385 199.447 20.4585 198.217 20.4285C196.208 20.3985 194.619 18.7185 194.679 16.7385V16.6785C194.679 14.6085 196.388 13.0485 199.207 13.0485ZM182.774 13.8885H176.807C176.717 13.8885 176.657 13.8285 176.627 13.7385C176.897 12.1185 178.307 10.9485 179.956 10.9785C181.515 11.0385 182.774 12.2085 182.954 13.7385C182.954 13.7685 182.954 13.8885 182.774 13.8885ZM180.016 9.3285C177.077 9.3585 174.738 11.7585 174.738 14.6985V14.9985C174.528 17.8785 176.687 20.3985 179.566 20.6385C179.716 20.6385 179.836 20.6685 179.986 20.6385C181.395 20.6385 182.774 20.2185 183.914 19.4085C184.304 19.1385 184.184 18.9585 184.034 18.6885C183.854 18.4785 183.764 18.2985 183.584 18.0885C183.374 17.8185 183.194 17.9085 182.804 18.1485C181.995 18.6585 181.095 18.9285 180.136 18.9285C178.307 18.8385 176.807 17.4585 176.597 15.6585C176.597 15.5685 176.627 15.4785 176.717 15.4485H184.274C184.514 15.4485 184.724 15.2685 184.783 14.9985C184.783 14.8185 184.843 14.4585 184.843 14.2785C184.933 11.6685 182.894 9.4485 180.286 9.3585C180.166 9.3285 180.106 9.3285 180.016 9.3285ZM160.645 18.2985C160.525 18.0885 160.435 17.9085 159.985 18.1185C159.536 18.5385 158.936 18.7785 158.336 18.7785C157.287 18.7785 157.107 17.5185 157.167 17.3985V11.5485C157.167 11.3685 157.287 11.2185 157.467 11.2185H160.255C160.525 11.2185 160.765 11.0085 160.765 10.7085V10.1085C160.765 9.8385 160.555 9.5985 160.255 9.5985H157.556C157.227 9.5985 157.167 9.3885 157.167 9.2685V6.4485C157.167 6.1785 156.957 5.9385 156.657 5.9385H155.817C155.517 5.9385 155.278 6.1485 155.278 6.4485V9.2985C155.278 9.4785 155.128 9.6585 154.948 9.6885H153.898C153.628 9.6885 153.388 9.8985 153.388 10.1985V10.7985C153.388 11.0685 153.598 11.3085 153.898 11.3085H154.948C155.098 11.3385 155.218 11.4885 155.218 11.6385V17.6985C155.098 19.1985 156.237 20.5185 157.736 20.6385C157.916 20.6385 158.126 20.6385 158.306 20.6085C159.176 20.5785 160.045 20.2485 160.735 19.7085C161.005 19.5285 161.125 19.3785 160.915 19.0485L160.645 18.2985ZM168.351 9.3285C167.272 9.2985 166.192 9.7185 165.413 10.4985C165.413 10.4985 165.203 10.7085 165.203 10.3785V5.2785C165.203 5.0085 164.993 4.7685 164.693 4.7685H163.853C163.584 4.7685 163.344 4.9785 163.344 5.2785V19.7985C163.344 20.0685 163.554 20.3085 163.853 20.3085H164.693C164.963 20.3085 165.203 20.0985 165.203 19.7985V13.9485C165.143 12.5385 166.222 11.3085 167.632 11.1885C167.842 11.1285 168.021 11.1285 168.231 11.1285C169.761 11.0985 171.02 12.2985 171.08 13.8285V19.7985C171.08 20.0685 171.29 20.3085 171.59 20.3085H172.429C172.699 20.3085 172.939 20.0985 172.939 19.7985V14.1585C173.239 11.7885 171.56 9.6585 169.191 9.3585C168.891 9.3285 168.621 9.3285 168.351 9.3285ZM210.721 18.7485C209.762 18.7185 208.832 18.3885 208.052 17.8185V12.2085C208.742 11.3685 209.732 10.8885 210.811 10.8885C212.97 10.8885 214.229 12.7785 214.229 14.8785C214.379 16.8585 212.91 18.5685 210.961 18.7485H210.721ZM211.051 9.1785C209.972 9.1785 208.922 9.5385 208.052 10.1685V10.0485C208.052 9.7785 207.843 9.5385 207.543 9.5385H206.703C206.433 9.5385 206.193 9.7485 206.193 10.0485V23.9985C206.193 24.2685 206.403 24.5085 206.703 24.5085H207.543C207.813 24.5085 208.052 24.2985 208.052 23.9985V19.6185C208.892 20.2185 209.912 20.5185 210.931 20.5185C213.87 20.4585 216.209 17.9985 216.149 15.0585V14.8785C216.358 11.9685 214.169 9.4185 211.261 9.1785H211.051ZM191.89 9.1785C190.721 9.1485 189.611 9.5985 188.802 10.4085V10.0785C188.802 9.8085 188.592 9.5685 188.292 9.5685H187.452C187.182 9.5685 186.942 9.7785 186.942 10.0785V19.7685C186.942 20.0385 187.152 20.2785 187.452 20.2785H188.292C188.562 20.2785 188.802 20.0685 188.802 19.7685V12.5685C189.461 11.6085 190.571 11.0385 191.74 11.0685C192.1 11.0685 192.46 11.1585 192.79 11.2785C193.06 11.3985 193.299 11.3985 193.449 11.0685L193.779 10.1385C194.049 9.3285 192.73 9.1785 191.89 9.1785ZM124.152 13.9785H118.185C118.095 13.9785 118.035 13.9185 118.005 13.8285C118.275 12.2085 119.684 11.0385 121.334 11.0685C122.893 11.1285 124.152 12.2985 124.332 13.8285C124.302 13.9185 124.242 13.9785 124.152 13.9785ZM121.334 9.3885C118.395 9.4185 116.056 11.8185 116.056 14.7585V15.0585C115.846 17.9385 118.005 20.4585 120.884 20.6985C121.034 20.6985 121.154 20.7285 121.304 20.6985C122.713 20.6985 124.092 20.2785 125.232 19.4685C125.622 19.1985 125.502 19.0185 125.352 18.7485C125.172 18.5385 125.082 18.3585 124.902 18.1485C124.692 17.8785 124.512 17.9685 124.122 18.2085C123.313 18.7185 122.413 18.9885 121.454 18.9885C119.625 18.8985 118.125 17.5185 117.915 15.7185C117.915 15.6285 117.945 15.5385 118.035 15.5085H125.562C125.802 15.5085 126.011 15.3285 126.071 15.0585C126.071 14.8785 126.131 14.5185 126.131 14.3385C126.251 11.7285 124.242 9.5385 121.634 9.4185C121.544 9.3885 121.424 9.3885 121.334 9.3885ZM146.042 18.4185C145.922 18.2085 145.832 18.0285 145.382 18.2385C144.932 18.6585 144.333 18.8985 143.733 18.8985C142.684 18.8985 142.504 17.6385 142.564 17.5185V11.6685C142.564 11.4885 142.684 11.3385 142.863 11.3385H145.652C145.922 11.3385 146.162 11.1285 146.162 10.8285V10.2285C146.162 9.9585 145.952 9.7185 145.652 9.7185H142.953C142.624 9.7185 142.564 9.5085 142.564 9.3885V6.5085C142.564 6.2385 142.354 5.9985 142.054 5.9985H141.214C140.914 5.9985 140.675 6.2085 140.675 6.5085V9.3285C140.675 9.5085 140.525 9.6885 140.345 9.7185H139.295C139.025 9.7185 138.785 9.9285 138.785 10.2285V10.8285C138.785 11.0985 138.995 11.3385 139.295 11.3385H140.345C140.495 11.3685 140.615 11.5185 140.615 11.6685V17.7585C140.495 19.2585 141.634 20.5785 143.133 20.6985C143.313 20.6985 143.523 20.6985 143.703 20.6685C144.573 20.6385 145.442 20.3085 146.132 19.7685C146.402 19.5885 146.522 19.4385 146.312 19.1085L146.042 18.4185ZM133.118 9.3885C132.039 9.3885 130.959 9.7785 130.18 10.5585C130.18 10.5585 129.97 10.7685 129.97 10.4385V10.1685C129.97 9.8985 129.76 9.6585 129.46 9.6585H128.62C128.35 9.6585 128.11 9.8685 128.11 10.1685V19.8585C128.11 20.1285 128.32 20.3685 128.62 20.3685H129.46C129.73 20.3685 129.97 20.1585 129.97 19.8585V13.9785C129.91 12.5685 130.989 11.3385 132.398 11.2185C132.608 11.1585 132.788 11.1585 132.998 11.1585C134.527 11.1285 135.787 12.3285 135.847 13.8585V19.8585C135.847 20.1285 136.057 20.3685 136.357 20.3685H137.196C137.466 20.3685 137.706 20.1585 137.706 19.8585V14.2185C137.646 11.0985 135.757 9.3885 133.118 9.3885ZM48.4684 18.8685C49.6079 18.8985 50.7174 18.4185 51.467 17.5485V15.5685C50.7473 15.0285 49.8778 14.7285 48.9782 14.7285C47.4789 14.7285 46.4294 15.3885 46.4294 16.7685C46.4294 17.8785 47.329 18.8085 48.4684 18.8685ZM49.1881 13.1085C49.9977 13.1685 50.8073 13.4085 51.497 13.8285C51.497 11.8485 50.7174 10.8885 49.1881 10.8885C48.2585 10.8585 47.359 11.0685 46.5194 11.4885C46.3394 11.5785 46.1295 11.5185 46.0696 11.3385C46.0396 11.3085 46.0396 11.2485 46.0396 11.2185L45.7697 10.5585C45.6798 10.3185 45.7697 10.0785 46.0096 9.9585C46.0096 9.9585 46.0396 9.9585 46.0396 9.9285C47.0291 9.4185 48.1386 9.1785 49.2481 9.2085C52.0067 9.2085 53.2961 10.5885 53.2961 13.7985V19.8285C53.2961 20.0985 53.0862 20.3385 52.7864 20.3385H52.0667C51.8268 20.3385 51.6469 20.1885 51.6169 19.9485V19.2285C50.6874 20.0685 49.4879 20.4885 48.2585 20.4585C46.2495 20.3985 44.6902 18.7485 44.7202 16.7385V16.6785C44.6602 14.6685 46.4294 13.1085 49.1881 13.1085ZM71.3175 18.8685C72.457 18.8985 73.5665 18.4185 74.3161 17.5485V15.5685C73.5965 14.9985 72.7269 14.6985 71.8273 14.6985C70.328 14.6985 69.2785 15.3585 69.2785 16.7385C69.2785 17.9085 70.1781 18.8385 71.3175 18.8685ZM72.0372 13.1085C72.8468 13.1685 73.6564 13.4085 74.3461 13.8285C74.3461 11.8485 73.5665 10.8885 72.0372 10.8885C71.1076 10.8585 70.2081 11.0685 69.3685 11.4885C69.1886 11.5785 68.9787 11.5185 68.9187 11.3385C68.8887 11.3085 68.8887 11.2485 68.8887 11.2185L68.6788 10.5585C68.5888 10.3185 68.6788 10.0785 68.9187 9.9585C68.9187 9.9585 68.9487 9.9585 68.9487 9.9285C69.9382 9.4185 71.0477 9.1785 72.1571 9.2085C74.9158 9.2085 76.2052 10.5885 76.2052 13.7985V19.8285C76.2052 20.0985 75.9953 20.3385 75.6954 20.3385H74.9758C74.7359 20.3385 74.556 20.1885 74.526 19.9485V19.2285C73.5965 20.0685 72.397 20.4885 71.1676 20.4585C69.1586 20.4285 67.5693 18.7485 67.6293 16.7685V16.7085C67.5094 14.6685 69.2185 13.1085 72.0372 13.1085ZM94.2266 18.4185C94.1067 18.2085 94.0167 18.0285 93.5669 18.2385C93.1172 18.6585 92.5174 18.8985 91.9177 18.8985C90.8682 18.8985 90.6883 17.6385 90.7483 17.5185V11.6685C90.7483 11.4885 90.8682 11.3385 91.0481 11.3385H93.8368C94.1067 11.3385 94.3466 11.1285 94.3466 10.8285V10.2285C94.3466 9.9585 94.1367 9.7185 93.8368 9.7185H91.1381C90.8082 9.7185 90.7483 9.5085 90.7483 9.3885V6.5085C90.7483 6.2385 90.5384 5.9985 90.2385 5.9985H89.3989C89.0991 5.9985 88.8592 6.2085 88.8592 6.5085V9.3285C88.8592 9.5085 88.7093 9.6885 88.5293 9.7185H87.5398C87.2699 9.7185 87.0301 9.9285 87.0301 10.2285V10.8285C87.0301 11.0985 87.24 11.3385 87.5398 11.3385H88.5893C88.7392 11.3685 88.8592 11.5185 88.8592 11.6685V17.7585C88.7392 19.2585 89.8787 20.5785 91.378 20.6985C91.5579 20.6985 91.7678 20.6985 91.9477 20.6685C92.8173 20.6385 93.6869 20.3085 94.3766 19.7685C94.6464 19.5885 94.7664 19.4385 94.5565 19.1085L94.2266 18.4185ZM60.4927 18.8685C59.5331 18.8385 58.6036 18.5085 57.824 17.9385V12.3285C58.5136 11.4885 59.5032 11.0085 60.5826 11.0085C62.7416 11.0085 64.001 12.8985 64.001 14.9985C64.151 16.9785 62.6816 18.6885 60.7326 18.8685H60.4927ZM60.8225 9.2985C59.743 9.2985 58.6936 9.6585 57.824 10.2885V10.1685C57.824 9.8985 57.6141 9.6585 57.3142 9.6585H56.4746C56.2047 9.6585 55.9649 9.8685 55.9649 10.1685V24.1185C55.9649 24.3885 56.1748 24.6285 56.4746 24.6285H57.3142C57.5841 24.6285 57.824 24.4185 57.824 24.1185V19.7385C58.6636 20.3385 59.6831 20.6385 60.7026 20.6385C63.6412 20.5785 65.9801 18.1185 65.9201 15.1785V14.9985C66.13 12.0885 63.9411 9.5385 61.0324 9.2985H60.8225ZM83.7016 9.2985C82.5322 9.2685 81.4227 9.7185 80.6131 10.5285V10.1985C80.6131 9.9285 80.4032 9.6885 80.1034 9.6885H79.2637C78.9939 9.6885 78.754 9.8985 78.754 10.1985V19.8885C78.754 20.1585 78.9639 20.3985 79.2637 20.3985H80.1034C80.3732 20.3985 80.6131 20.1885 80.6131 19.8885V12.6285C81.2728 11.6685 82.3823 11.0985 83.5517 11.1285C83.9115 11.1285 84.2714 11.2185 84.6012 11.3385C84.8711 11.4585 85.111 11.4585 85.2609 11.1285L85.5907 10.1985C85.8606 9.3885 84.5412 9.2985 83.7016 9.2985ZM109.669 9.3885C108.11 9.3585 106.641 10.1985 105.861 11.5485C105.081 10.1385 103.552 9.2985 101.933 9.3885C100.853 9.3585 99.774 9.7785 98.9944 10.5585C98.9944 10.5585 98.7845 10.7685 98.7845 10.4385V10.1685C98.7845 9.8985 98.5746 9.6585 98.2747 9.6585H97.4351C97.1652 9.6585 96.9253 9.8685 96.9253 10.1685V19.8585C96.9253 20.1285 97.1352 20.3685 97.4351 20.3685H98.2747C98.5446 20.3685 98.7845 20.1585 98.7845 19.8585V13.9785C98.7245 12.5685 99.804 11.3385 101.213 11.2185C101.423 11.1585 101.603 11.1585 101.813 11.1585C103.342 11.1285 104.602 12.3285 104.662 13.8585V19.8585C104.662 20.1285 104.872 20.3685 105.171 20.3685H106.071C106.341 20.3685 106.581 20.1585 106.581 19.8585V13.9785C106.521 12.5685 107.6 11.3385 109.01 11.2185C109.219 11.1585 109.399 11.1585 109.609 11.1585C111.139 11.1285 112.398 12.3285 112.458 13.8585V19.8585C112.458 20.1285 112.668 20.3685 112.968 20.3685H113.807C114.077 20.3685 114.317 20.1585 114.317 19.8585V14.2185C114.197 11.0985 112.308 9.3885 109.669 9.3885Z" fill="black"/>
</svg>
