<svg width="161" height="8" viewBox="0 0 161 8" fill="none" xmlns="http://www.w3.org/2000/svg">
<path d="M5.49 4.77C4.88 5.44 4.24 5.47 3.98 5.47C3.49 5.47 3.03 5.28 2.74 5.01C2.39 4.68 2.2 4.17 2.2 3.71C2.2 3.24 2.37 2.72 2.78 2.34C3.1 2.05 3.48 1.9 3.98 1.9C4.27 1.9 4.93 1.94 5.49 2.63V0.559999C4.77 0.27 4.25 0.22 3.93 0.22C2.89 0.22 2 0.66 1.41 1.26C0.81 1.87 0.4 2.77 0.4 3.72C0.4 4.59 0.76 5.5 1.41 6.15C1.96 6.69 2.83 7.15 3.99 7.15C4.42 7.15 4.8 7.07 5.49 6.82V4.77ZM13.2687 7H15.1187L12.6087 0.329999H10.7187L8.15867 7H9.98867L10.4387 5.88H12.8587L13.2687 7ZM10.9187 4.56L11.6487 2.4L12.3987 4.56H10.9187ZM20.9083 4.79C21.4283 4.79 22.0483 4.72 22.5683 4.21C23.0883 3.7 23.1583 3.08 23.1583 2.55C23.1583 1.99 23.0583 1.43 22.5383 0.929999C22.0283 0.44 21.4283 0.329999 20.8483 0.329999H18.0883V7H19.8183V4.79H20.9083ZM19.8183 1.73H20.4083C20.6283 1.73 20.9483 1.76 21.1483 1.97C21.3283 2.15 21.3483 2.39 21.3483 2.57C21.3483 2.73 21.3383 3 21.1283 3.18C20.9183 3.37 20.5783 3.39 20.3983 3.39H19.8183V1.73ZM26.2746 0.329999V7H28.0046V0.329999H26.2746ZM35.5494 1.8V0.329999H30.9794V1.8H32.3994V7H34.1294V1.8H35.5494ZM45.5764 3.67C45.5764 2.78 45.2364 1.84 44.5264 1.17C43.8464 0.52 42.8864 0.18 41.8964 0.18C40.9064 0.18 39.9464 0.52 39.2664 1.17C38.5564 1.84 38.2164 2.78 38.2164 3.67C38.2164 4.55 38.5564 5.48 39.2664 6.16C39.9464 6.81 40.9064 7.15 41.8964 7.15C42.8864 7.15 43.8464 6.81 44.5264 6.16C45.2364 5.48 45.5764 4.55 45.5764 3.67ZM41.8964 1.86C42.3564 1.86 42.8664 2.04 43.2364 2.39C43.5464 2.69 43.7764 3.15 43.7764 3.67C43.7764 4.18 43.5464 4.64 43.2364 4.95C42.9264 5.26 42.4864 5.47 41.8964 5.47C41.3164 5.47 40.8664 5.25 40.5464 4.94C40.2964 4.7 40.0164 4.29 40.0164 3.7C40.0164 3.23 40.1864 2.74 40.5464 2.39C40.9064 2.03 41.4164 1.86 41.8964 1.86ZM48.8805 0.329999V7H52.6905V5.53H50.6105V0.329999H48.8805ZM60.3117 0.329999V7H62.0417V0.329999H60.3117ZM67.0665 7L67.6365 3.16L69.1765 7H69.8665L71.4765 3.16L71.9665 7H73.6965L72.6965 0.329999H70.9665L69.5365 3.89L68.1865 0.329999H66.4765L65.3465 7H67.0665ZM79.8169 4.79C80.3369 4.79 80.9569 4.72 81.4769 4.21C81.9969 3.7 82.0669 3.08 82.0669 2.55C82.0669 1.99 81.9669 1.43 81.4469 0.929999C80.9369 0.44 80.3369 0.329999 79.7569 0.329999H76.9969V7H78.7269V4.79H79.8169ZM78.7269 1.73H79.3169C79.5369 1.73 79.8569 1.76 80.0569 1.97C80.2369 2.15 80.2569 2.39 80.2569 2.57C80.2569 2.73 80.2469 3 80.0369 3.18C79.8269 3.37 79.4869 3.39 79.3069 3.39H78.7269V1.73ZM85.1832 0.329999V7H86.9132V4.44L88.5732 7H90.7232L88.6332 4.27C88.9432 4.21 89.2932 4.06 89.5532 3.81C89.8832 3.49 90.0832 2.99 90.0832 2.42C90.0832 1.89 89.8932 1.31 89.5132 0.92C89.0232 0.41 88.3832 0.329999 87.8832 0.329999H85.1832ZM86.9132 1.67H87.2432C87.6232 1.67 87.9132 1.77 88.0732 1.93C88.2232 2.07 88.3032 2.29 88.3032 2.49C88.3032 2.7 88.2132 2.92 88.0832 3.05C87.8732 3.25 87.5032 3.32 87.2432 3.32H86.9132V1.67ZM100.713 3.67C100.713 2.78 100.373 1.84 99.6627 1.17C98.9827 0.52 98.0227 0.18 97.0327 0.18C96.0427 0.18 95.0827 0.52 94.4027 1.17C93.6927 1.84 93.3527 2.78 93.3527 3.67C93.3527 4.55 93.6927 5.48 94.4027 6.16C95.0827 6.81 96.0427 7.15 97.0327 7.15C98.0227 7.15 98.9827 6.81 99.6627 6.16C100.373 5.48 100.713 4.55 100.713 3.67ZM97.0327 1.86C97.4927 1.86 98.0027 2.04 98.3727 2.39C98.6827 2.69 98.9127 3.15 98.9127 3.67C98.9127 4.18 98.6827 4.64 98.3727 4.95C98.0627 5.26 97.6227 5.47 97.0327 5.47C96.4527 5.47 96.0027 5.25 95.6827 4.94C95.4327 4.7 95.1527 4.29 95.1527 3.7C95.1527 3.23 95.3227 2.74 95.6827 2.39C96.0427 2.03 96.5527 1.86 97.0327 1.86ZM103.063 0.329999L105.863 7H107.213L110.053 0.329999H108.173L106.553 4.39L104.953 0.329999H103.063ZM116.745 0.329999H112.955V7H116.745V5.53H114.685V4.38H116.635V2.91H114.685V1.8H116.745V0.329999ZM121.468 7L122.038 3.16L123.578 7H124.268L125.878 3.16L126.368 7H128.098L127.098 0.329999H125.368L123.938 3.89L122.588 0.329999H120.878L119.748 7H121.468ZM135.188 0.329999H131.398V7H135.188V5.53H133.128V4.38H135.078V2.91H133.128V1.8H135.188V0.329999ZM140.221 7V2.92L143.411 7H145.141V0.329999H143.411V4.41L140.221 0.329999H138.491V7H140.221ZM152.678 1.8V0.329999H148.108V1.8H149.528V7H151.258V1.8H152.678ZM155.345 6.4C155.825 6.73 156.245 6.89 156.355 6.93C156.845 7.11 157.245 7.15 157.665 7.15C158.375 7.15 159.065 7.04 159.635 6.47C160.115 5.99 160.265 5.4 160.265 4.79C160.265 4.33 160.175 3.96 159.835 3.6C159.485 3.22 159.045 3.07 158.625 2.94L158.095 2.78C157.685 2.66 157.565 2.54 157.515 2.48C157.445 2.39 157.425 2.3 157.425 2.18C157.425 2.03 157.495 1.92 157.595 1.82C157.765 1.66 157.995 1.62 158.165 1.62C158.395 1.62 158.785 1.66 159.305 2.07L159.995 0.72C159.365 0.39 158.595 0.18 157.935 0.18C157.125 0.18 156.565 0.469999 156.225 0.81C155.935 1.1 155.615 1.6 155.615 2.42C155.615 2.76 155.655 3.23 155.995 3.6C156.265 3.9 156.675 4.05 156.955 4.14L157.405 4.28C157.835 4.41 158.095 4.48 158.265 4.63C158.405 4.75 158.455 4.9 158.455 5.03C158.455 5.2 158.385 5.35 158.285 5.45C158.175 5.57 157.965 5.68 157.615 5.68C157.015 5.68 156.455 5.35 156.085 5L155.345 6.4Z" fill="white"/>
</svg>
