<svg width="118" height="118" viewBox="0 0 118 118" fill="none" xmlns="http://www.w3.org/2000/svg">
<g clip-path="url(#clip0_486_2147)">
<path d="M59.0152 0.00539789L5.50146 53.5107L59.0152 107.016L112.529 53.5107L59.0152 0.00539789Z" fill="#043673"/>
<path d="M5.49216 53.531L0.00537109 59.0188L53.5154 112.502L59.0022 107.014L5.49216 53.531Z" fill="#D5B260"/>
<path d="M112.517 53.5045L53.5088 112.503L58.9965 117.99L118.005 58.9914L112.517 53.5045Z" fill="#927546"/>
<mask id="mask0_486_2147" style="mask-type:luminance" maskUnits="userSpaceOnUse" x="0" y="0" width="118" height="118">
<path d="M118 0H0V118H118V0Z" fill="white"/>
</mask>
<g mask="url(#mask0_486_2147)">
<path d="M75.7909 81.8222L66.0275 70.4918C65.9168 70.3626 65.7599 70.2888 65.5938 70.2888H57.8145C57.6392 70.2888 57.4731 70.3719 57.3623 70.5103L55.1568 73.3798H49.0755C48.9001 73.3798 48.734 73.4628 48.6233 73.6012L42.9757 80.9456L42.302 81.8406C42.1175 82.0897 42.1636 82.4496 42.4128 82.6341C42.6619 82.8186 43.0218 82.7725 43.2064 82.5234L49.0755 74.8745L54.9446 82.5234C55.0553 82.6618 55.2122 82.7448 55.3875 82.7448L62.6685 82.8371C62.89 82.8371 63.093 82.7079 63.1853 82.5049C63.2776 82.302 63.2499 82.0621 63.1022 81.8868L56.1719 73.9149L57.6761 71.9496L67.0888 82.5511C67.1995 82.671 67.3564 82.7448 67.5133 82.7448H75.3572C75.5786 82.7448 75.7817 82.6157 75.8739 82.4127C75.9662 82.2097 75.9293 81.9698 75.7909 81.8037" fill="#D5B260"/>
<path d="M29.5117 79.8845L30.453 80.8256C30.9329 81.3054 31.1359 81.6653 31.182 81.9513C31.2558 82.3942 31.0805 82.8463 30.7298 83.1877C30.4991 83.4183 30.2408 83.5567 29.9824 83.6029C29.6502 83.6675 29.3825 83.5752 29.1334 83.4276L28.672 85.2729L28.0168 84.6178L28.6258 82.3388L28.7458 82.4588C28.9488 82.6618 29.1887 82.874 29.4195 82.9016C29.6409 82.9201 29.8809 82.8371 30.0746 82.6433C30.2684 82.4495 30.3423 82.1912 30.2961 81.9605C30.25 81.776 30.13 81.6007 29.9547 81.4254L29.5856 81.0563L27.0294 83.6213L26.4019 82.9939L29.5117 79.8845Z" fill="white"/>
</g>
<path d="M32.289 82.6619L34.0331 84.4057L33.4795 84.9593L32.3629 83.8337L31.6523 84.5441L32.7504 85.6421L32.206 86.1957L31.1078 85.0977L30.3511 85.8451L31.4677 86.9615L30.9233 87.5151L29.1699 85.7713L32.289 82.6619Z" fill="white"/>
<mask id="mask1_486_2147" style="mask-type:luminance" maskUnits="userSpaceOnUse" x="0" y="0" width="118" height="118">
<path d="M118 0H0V118H118V0Z" fill="white"/>
</mask>
<g mask="url(#mask1_486_2147)">
<path d="M32.9628 87.6258C32.566 88.0686 32.769 88.4285 32.8982 88.5669C33.1381 88.8068 33.5165 88.7976 33.7379 88.5761C34.0055 88.3085 33.8487 88.0225 33.5903 87.4135C33.4426 87.0906 33.092 86.3617 33.6733 85.7712C34.2732 85.1715 35.1222 85.3745 35.6297 85.8819C36.045 86.2971 36.3679 87.0629 35.7035 87.7734L35.0852 87.1552C35.2052 86.9891 35.3898 86.6939 35.0852 86.3894C34.8822 86.1864 34.5592 86.1495 34.347 86.3617C34.1071 86.5924 34.2178 86.8138 34.5315 87.5612C34.7992 88.244 34.8361 88.733 34.3931 89.1758C33.8948 89.6741 33.1196 89.8402 32.3906 89.102C31.6616 88.3639 31.7447 87.6073 32.3445 87.0076L32.9628 87.6258Z" fill="white"/>
</g>
<path d="M37.1277 87.5046L34.0151 90.6167L34.6416 91.243L37.7541 88.131L37.1277 87.5046Z" fill="white"/>
<mask id="mask2_486_2147" style="mask-type:luminance" maskUnits="userSpaceOnUse" x="0" y="0" width="118" height="118">
<path d="M118 0H0V118H118V0Z" fill="white"/>
</mask>
<g mask="url(#mask2_486_2147)">
<path d="M36.5343 92.0269L36.9772 92.4698C37.6509 93.1433 38.3522 92.9588 38.9151 92.4052C39.1551 92.1653 39.3581 91.8331 39.4042 91.4918C39.4411 91.1965 39.3765 90.8367 38.9982 90.4584L38.5552 90.0155L36.5435 92.0269H36.5343ZM38.4722 88.8437L39.4596 89.831C39.8472 90.2185 40.3732 90.8182 40.244 91.6855C40.1886 92.2022 39.9302 92.6359 39.5519 93.0142C38.6752 93.8907 37.5309 94.1121 36.3959 92.9772L35.3623 91.9439L38.4722 88.8345V88.8437Z" fill="white"/>
</g>
<path d="M41.6651 92.0454L43.4092 93.7893L42.8647 94.3336L41.7481 93.2172L41.0375 93.9277L42.1357 95.0256L41.582 95.57L40.4839 94.472L39.7364 95.2286L40.853 96.345L40.2993 96.8986L38.5552 95.1548L41.6651 92.0454Z" fill="white"/>
<path d="M43.8705 98.5501L46.0115 96.3819L46.6113 96.9816L43.5014 100.1L42.9477 99.5374L43.6675 95.9574L41.5266 98.1165L40.9268 97.5167L44.0366 94.4073L44.5903 94.9702L43.8705 98.5501Z" fill="white"/>
<path d="M47.1924 98.6701L46.5188 97.9966L47.0725 97.443L49.038 99.4175L48.4936 99.9619L47.8199 99.2976L45.2637 101.853L44.6362 101.226L47.1924 98.6701Z" fill="white"/>
<path d="M49.4939 99.8683L46.3813 102.98L47.0078 103.607L50.1203 100.495L49.4939 99.8683Z" fill="white"/>
<path d="M51.3362 103.191L49.629 104.012L50.5241 104.907L51.327 103.191H51.3362ZM48.1341 104.732L47.4512 104.049L51.8253 102.204L52.379 102.757L50.4965 107.103L49.8136 106.42L50.2012 105.581L48.9738 104.354L48.1433 104.741L48.1341 104.732Z" fill="white"/>
<path d="M54.0767 104.455L54.7042 105.073L52.148 107.638L53.1723 108.663L52.6186 109.207L50.9668 107.565L54.0767 104.455Z" fill="white"/>
<mask id="mask3_486_2147" style="mask-type:luminance" maskUnits="userSpaceOnUse" x="0" y="0" width="118" height="118">
<path d="M118 0H0V118H118V0Z" fill="white"/>
</mask>
<g mask="url(#mask3_486_2147)">
<path d="M56.3652 112.501L57.3065 111.56C57.7863 111.08 58.1462 110.877 58.4323 110.831C58.8752 110.757 59.3274 110.932 59.6689 111.283C59.8996 111.514 60.038 111.772 60.0841 112.03C60.1487 112.363 60.0564 112.63 59.9088 112.879L61.7544 113.341L61.0992 113.996L58.8199 113.387L58.9398 113.267C59.1428 113.064 59.3551 112.824 59.3828 112.593C59.4012 112.372 59.3182 112.132 59.1244 111.938C58.9398 111.754 58.6722 111.671 58.4415 111.717C58.257 111.763 58.0816 111.883 57.9063 112.058L57.5372 112.427L60.0933 114.992L59.4658 115.62L56.356 112.51L56.3652 112.501Z" fill="white"/>
<path d="M61.1917 110.794C61.7546 111.366 62.659 111.449 63.268 110.84C63.8955 110.213 63.7202 109.29 63.2127 108.783C62.6867 108.257 61.7731 108.081 61.1363 108.718C60.5181 109.336 60.638 110.24 61.1917 110.785V110.794ZM60.5919 111.449C59.5952 110.453 59.7152 109.041 60.5919 108.174C61.5331 107.233 62.9635 107.269 63.8402 108.155C64.7261 109.041 64.763 110.462 63.8125 111.412C62.862 112.363 61.4316 112.289 60.6011 111.458L60.5919 111.449Z" fill="white"/>
<path d="M64.8919 107.094C65.4548 107.666 66.3592 107.749 66.9682 107.149C67.5957 106.522 67.4204 105.599 66.9129 105.092C66.3869 104.566 65.4733 104.391 64.8365 105.027C64.2183 105.646 64.3382 106.55 64.8919 107.094ZM64.2921 107.749C63.2954 106.753 63.4154 105.341 64.2921 104.474C65.2333 103.533 66.6637 103.57 67.5404 104.455C68.4263 105.341 68.4632 106.762 67.5127 107.712C66.5622 108.663 65.1318 108.589 64.3013 107.758L64.2921 107.749Z" fill="white"/>
</g>
<path d="M66.5532 102.324L68.2051 100.663L68.7495 101.217L67.7252 102.241L68.4727 102.988L69.4693 101.992L70.023 102.536L69.0264 103.542L70.2906 104.806L69.6631 105.433L66.5532 102.324Z" fill="white"/>
<path d="M69.4018 99.473L68.7754 100.099L71.8879 103.211L72.5144 102.585L69.4018 99.473Z" fill="white"/>
<path d="M74.2586 98.9285L72.09 96.7879L72.6898 96.179L75.7997 99.2976L75.246 99.8512L71.6563 99.1315L73.8249 101.272L73.2251 101.872L70.106 98.7624L70.6689 98.1996L74.2586 98.9285Z" fill="white"/>
<mask id="mask4_486_2147" style="mask-type:luminance" maskUnits="userSpaceOnUse" x="0" y="0" width="118" height="118">
<path d="M118 0H0V118H118V0Z" fill="white"/>
</mask>
<g mask="url(#mask4_486_2147)">
<path d="M76.6855 94.0937C76.5287 94.0568 76.3626 94.0475 76.1965 94.066C75.9104 94.1029 75.6335 94.2136 75.3936 94.4535C74.8953 94.9517 74.7661 95.8375 75.4398 96.5203C76.1411 97.2215 77.027 97.0831 77.5253 96.5849C77.7745 96.3357 77.9129 96.059 77.9498 95.7729C77.9959 95.4869 77.9406 95.2101 77.8021 94.9794L76.6394 96.142L76.1319 95.6345L78.0144 93.7523C78.2266 93.946 78.5127 94.2967 78.6604 94.6749C79.0203 95.6161 78.6327 96.5664 78.079 97.1292C77.147 98.0611 75.7166 98.0519 74.8122 97.1477C73.8802 96.2158 73.9448 94.8041 74.8584 93.8907C75.5597 93.1895 76.621 93.0141 77.3961 93.3832L76.6855 94.0937Z" fill="white"/>
<path d="M83.5975 89.4065C84.0497 90.2369 83.902 91.3072 83.173 92.0269C82.2225 92.9772 80.7921 92.9034 79.9247 92.0361C79.0942 91.2057 78.9558 89.7848 79.9432 88.7975C80.8475 87.9026 82.0103 88.0594 82.5916 88.3916L81.9272 89.0559C81.6135 88.9359 80.9859 88.8714 80.4876 89.3604C79.8786 89.9693 79.9985 90.8643 80.5522 91.4179C81.1151 91.9808 82.0287 92.0822 82.6193 91.4825C83.173 90.9289 82.9884 90.2369 82.9331 90.0616L83.5975 89.3973V89.4065Z" fill="white"/>
<path d="M84.1326 87.8565C84.7048 88.4285 85.6091 88.5115 86.209 87.9118C86.8365 87.2844 86.6611 86.3617 86.1536 85.8543C85.646 85.3468 84.714 85.153 84.0773 85.7897C83.459 86.4079 83.5789 87.3121 84.1234 87.8565H84.1326ZM83.5328 88.5115C82.5362 87.5151 82.6561 86.1034 83.5328 85.2361C84.4741 84.295 85.9044 84.3319 86.7811 85.2176C87.667 86.1034 87.7039 87.5243 86.7534 88.4746C85.8029 89.425 84.3726 89.3512 83.542 88.5208L83.5328 88.5115Z" fill="white"/>
</g>
<path d="M89.9373 83.2524L87.7687 81.1118L88.3685 80.5028L91.4784 83.6214L90.9247 84.175L87.335 83.4553L89.5036 85.5959L88.9038 86.1957L85.7847 83.0863L86.3476 82.5235L89.9373 83.2524Z" fill="white"/>
<path d="M90.0482 79.9215L89.3745 80.5951L88.8301 80.0415L90.7957 78.0762L91.3494 78.6298L90.6757 79.2941L93.2411 81.8591L92.6136 82.4865L90.0482 79.9215Z" fill="white"/>
<mask id="mask5_486_2147" style="mask-type:luminance" maskUnits="userSpaceOnUse" x="0" y="0" width="118" height="118">
<path d="M118 0H0V118H118V0Z" fill="white"/>
</mask>
<g mask="url(#mask5_486_2147)">
<path d="M91.2383 77.6333L92.1795 76.6922C92.6594 76.2124 93.0193 76.0094 93.3054 75.9633C93.7483 75.8895 94.2005 76.0648 94.5419 76.4154C94.7726 76.6369 94.9111 76.9044 94.9572 77.1628C95.0218 77.4949 94.9295 77.7625 94.7819 78.0116L96.6275 78.473L95.9723 79.1281L93.693 78.5191L93.8129 78.3991C94.0159 78.1962 94.2282 77.9563 94.2559 77.7256C94.2743 77.5042 94.1913 77.2643 93.9975 77.0705C93.8037 76.8767 93.5453 76.8029 93.3146 76.8491C93.13 76.886 92.9547 77.0151 92.7794 77.1905L92.4102 77.5595L94.9757 80.1153L94.3482 80.7427L91.2383 77.6333Z" fill="white"/>
</g>
<path d="M96.0001 74.3485L96.8214 76.0555L97.7165 75.1605L96.0001 74.3485ZM97.5412 77.5502L96.8583 78.233L95.0127 73.8595L95.5664 73.3059L99.9128 75.1882L99.2299 75.8709L98.3902 75.4926L97.1628 76.7198L97.5504 77.5502H97.5412Z" fill="white"/>
<mask id="mask6_486_2147" style="mask-type:luminance" maskUnits="userSpaceOnUse" x="0" y="0" width="118" height="118">
<path d="M118 0H0V118H118V0Z" fill="white"/>
</mask>
<g mask="url(#mask6_486_2147)">
<path d="M102.118 70.8886C102.571 71.719 102.423 72.7893 101.694 73.5089C100.744 74.4593 99.3131 74.3855 98.4457 73.5182C97.6152 72.6878 97.4767 71.2669 98.4642 70.2796C99.3685 69.3846 100.531 69.5415 101.113 69.8736L100.448 70.5379C100.134 70.418 99.5069 70.3534 99.0086 70.8424C98.3996 71.4514 98.5195 72.3464 99.0732 72.9C99.6361 73.472 100.55 73.5643 101.14 72.9646C101.694 72.411 101.509 71.719 101.454 71.5437L102.118 70.8793V70.8886Z" fill="white"/>
</g>
<path d="M101.574 68.4066L100.9 69.0802L100.347 68.5266L102.312 66.5613L102.866 67.1057L102.202 67.7792L104.758 70.335L104.13 70.9624L101.574 68.4066Z" fill="white"/>
<mask id="mask7_486_2147" style="mask-type:luminance" maskUnits="userSpaceOnUse" x="0" y="0" width="118" height="118">
<path d="M118 0H0V118H118V0Z" fill="white"/>
</mask>
<g mask="url(#mask7_486_2147)">
<path d="M104.656 67.3364C105.228 67.8992 106.133 67.9915 106.732 67.3825C107.36 66.7551 107.185 65.8324 106.677 65.3249C106.151 64.8083 105.237 64.6237 104.601 65.2604C103.982 65.8785 104.102 66.7828 104.647 67.3271L104.656 67.3364ZM104.056 67.9915C103.06 66.995 103.18 65.5833 104.056 64.7252C104.998 63.7841 106.428 63.821 107.305 64.7068C108.19 65.5925 108.227 67.0134 107.277 67.9638C106.326 68.9141 104.896 68.8403 104.065 68.0007L104.056 67.9915Z" fill="white"/>
<path d="M106.299 62.5754L107.24 61.6342C107.72 61.1544 108.08 60.9515 108.366 60.9053C108.809 60.8315 109.261 61.0068 109.602 61.3574C109.833 61.5789 109.972 61.8464 110.018 62.1048C110.082 62.4369 109.99 62.7045 109.842 62.9536L111.688 63.415L111.033 64.0701L108.754 63.4611L108.873 63.3412C109.076 63.1382 109.289 62.8983 109.316 62.6676C109.335 62.4462 109.252 62.2063 109.058 62.0125C108.864 61.8188 108.606 61.745 108.375 61.7911C108.191 61.828 108.015 61.9572 107.84 62.1325L107.471 62.5015L110.036 65.0573L109.409 65.6847L106.299 62.5754Z" fill="white"/>
</g>
<path d="M41.2773 51.2173V43.9467H42.4216L45.1162 50.0547L47.8016 43.9467H48.9367V51.2173H48.1708L48.1892 44.7586L45.3654 51.2173H44.8486L42.0156 44.7586L42.034 51.2173H41.2773Z" fill="#D5B260"/>
<path d="M53.1449 44.8601L51.6961 48.5046H54.5937L53.1357 44.8601H53.1449ZM50.6164 51.2173H49.7397L52.7758 43.9467H53.5602L56.5686 51.2173H55.6827L54.8337 49.1782H51.4469L50.6164 51.2173Z" fill="#D5B260"/>
<mask id="mask8_486_2147" style="mask-type:luminance" maskUnits="userSpaceOnUse" x="0" y="0" width="118" height="118">
<path d="M118 0H0V118H118V0Z" fill="white"/>
</mask>
<g mask="url(#mask8_486_2147)">
<path d="M57.842 49.1967C57.9619 50.4054 58.8478 50.6638 59.3 50.6638C60.0567 50.6638 60.758 50.0825 60.758 49.2797C60.758 48.2556 59.8814 48.0341 59.0416 47.7573C58.451 47.582 57.1868 47.2037 57.1868 45.829C57.1683 44.5465 58.2388 43.8268 59.3461 43.8268C60.2505 43.8268 61.2933 44.325 61.4132 45.6998H60.6104C60.5181 45.2292 60.2874 44.5096 59.3277 44.5096C58.5987 44.5096 57.9988 44.9986 57.9988 45.7552C57.9896 46.6409 58.7094 46.8531 59.8075 47.2314C60.4997 47.499 61.5794 47.8773 61.5794 49.2152C61.5794 50.4054 60.6842 51.3465 59.3277 51.3465C58.1096 51.3465 57.0945 50.5807 57.0483 49.1967H57.8604H57.842Z" fill="#D5B260"/>
</g>
<path d="M63.7849 44.6663H61.9946V43.9467H66.3964V44.6663H64.597V51.2173H63.7849V44.6663Z" fill="#D5B260"/>
<path d="M67.3838 43.9467H71.4165V44.6663H68.1959V47.1944H71.398V47.9049H68.1959V50.5068H71.4165V51.2173H67.3838V43.9467Z" fill="#D5B260"/>
<mask id="mask9_486_2147" style="mask-type:luminance" maskUnits="userSpaceOnUse" x="0" y="0" width="118" height="118">
<path d="M118 0H0V118H118V0Z" fill="white"/>
</mask>
<g mask="url(#mask9_486_2147)">
<path d="M72.4408 43.9467H74.3326C75.4769 43.9467 76.0029 44.0851 76.3812 44.3249C76.9718 44.6756 77.3686 45.4506 77.3686 46.281C77.3779 46.77 77.2394 47.2959 76.9349 47.7019C76.5012 48.2924 75.9844 48.4308 75.3108 48.4954L77.1195 51.2173H76.2336L74.1757 48.0433H74.4064C74.9232 48.0433 75.6245 48.0341 76.0213 47.6742C76.4089 47.3052 76.575 46.8623 76.575 46.3364C76.575 45.8104 76.3074 45.2292 75.8552 44.9339C75.4953 44.694 75.0431 44.6663 74.3787 44.6663H73.2344V51.2173H72.4224V43.9467H72.4408Z" fill="#D5B260"/>
</g>
<path d="M45.3564 53.7639H50.395V55.72H47.4789V57.7129H50.395V59.669H47.4789V62.1602H50.395V64.1162H45.3564V53.7639Z" fill="#D5B260"/>
<path d="M51.7881 53.7639H53.9106V62.1602H56.6328V64.1162H51.7881V53.7639Z" fill="#D5B260"/>
<path d="M60.0199 53.7639H57.8975V64.1162H60.0199V53.7639Z" fill="#D5B260"/>
<path d="M62.9541 55.72H61.2192V53.7639H66.8115V55.72H65.0766V64.1162H62.9541V55.72Z" fill="#D5B260"/>
<path d="M67.8174 53.7639H72.8559V55.72H69.9491V57.7129H72.8559V59.669H69.9491V62.1602H72.8559V64.1162H67.8174V53.7639Z" fill="#D5B260"/>
<mask id="mask10_486_2147" style="mask-type:luminance" maskUnits="userSpaceOnUse" x="0" y="0" width="118" height="118">
<path d="M118 0H0V118H118V0Z" fill="white"/>
</mask>
<g mask="url(#mask10_486_2147)">
<path d="M74.2587 54.4651V54.8803H74.4801C74.554 54.8803 74.757 54.8803 74.757 54.6589C74.757 54.4651 74.5816 54.4651 74.5078 54.4651H74.2679H74.2587ZM74.5447 54.2806C74.7477 54.2806 75.0154 54.3544 75.0154 54.6404C75.0154 54.7604 74.9692 54.8803 74.7939 54.9634C74.9139 55.0003 74.9784 55.0833 74.9877 55.2586C75.0061 55.4893 75.0061 55.517 75.0246 55.5816H74.7662C74.7662 55.5816 74.7293 55.3693 74.7201 55.2678C74.7108 55.1664 74.6924 55.0464 74.4432 55.0464H74.2402V55.5723H73.9726V54.2714H74.5263L74.5447 54.2806ZM74.4894 53.9761C73.9541 53.9761 73.5389 54.419 73.5389 54.9449C73.5389 55.4708 73.9634 55.9137 74.4894 55.9137C75.0154 55.9137 75.4306 55.4893 75.4306 54.9449C75.4306 54.4005 75.0246 53.9761 74.4894 53.9761ZM74.4894 53.7823C75.1353 53.7823 75.6336 54.3175 75.6336 54.9449C75.6336 55.5723 75.1169 56.1075 74.4801 56.1075C73.8434 56.1075 73.3174 55.5908 73.3174 54.9449C73.3174 54.299 73.8157 53.7823 74.4801 53.7823H74.4894Z" fill="#D5B260"/>
</g>
<path d="M70.3366 15.0856H47.7554V37.6633H70.3366V15.0856Z" fill="#D71920"/>
<mask id="mask11_486_2147" style="mask-type:luminance" maskUnits="userSpaceOnUse" x="0" y="0" width="118" height="118">
<path d="M118 0H0V118H118V0Z" fill="white"/>
</mask>
<g mask="url(#mask11_486_2147)">
<path d="M58.8572 27.5324L59.6323 24.9397L60.3983 27.5324H58.8572ZM68.3437 24.4876V22.9837H63.0837V29.3408L60.7674 23.1313H58.5619L56.4486 29.3224V25.9177H53.4495V27.3202H54.4369C54.4369 27.8923 53.5879 28.1598 53.1265 28.1598C52.6651 28.1598 51.7238 28.0491 51.7238 26.1115C51.7238 24.1739 53.0342 24.1924 53.0342 24.1924C54.1508 24.1924 54.2893 25.0689 54.2893 25.0689H56.2825C55.9411 23.1866 54.4185 22.7345 53.1634 22.6976C51.9084 22.6607 49.749 23.4542 49.749 26.1115C49.749 28.7688 51.2255 29.7745 52.8035 29.8114C54.3262 29.8483 54.9906 28.8426 54.9906 28.8426V29.7376H58.1835L58.4696 28.8795H60.8412L61.0904 29.7191H65.1969V27.3479H67.6885V25.8624H65.1969V24.4968H68.3345L68.3437 24.4876Z" fill="white"/>
</g>
</g>
<defs>
<clipPath id="clip0_486_2147">
<rect width="118" height="118" fill="white"/>
</clipPath>
</defs>
</svg>
