<svg width="48" height="48" viewBox="0 0 48 48" fill="none" xmlns="http://www.w3.org/2000/svg">
<g id="Icons - com">
<path id="Vector" d="M38.2 44C38 44 37.8167 43.9667 37.65 43.9C37.4833 43.8333 37.3167 43.7167 37.15 43.55L25.05 31.45C24.8833 31.2833 24.7667 31.1167 24.7 30.95C24.6333 30.7833 24.6 30.6 24.6 30.4C24.6 30.2 24.6333 30.0167 24.7 29.85C24.7667 29.6833 24.8833 29.5167 25.05 29.35L29.3 25.1C29.4667 24.9333 29.6333 24.8167 29.8 24.75C29.9667 24.6833 30.15 24.65 30.35 24.65C30.55 24.65 30.7333 24.6833 30.9 24.75C31.0667 24.8167 31.2333 24.9333 31.4 25.1L43.5 37.2C43.6667 37.3667 43.7833 37.5333 43.85 37.7C43.9167 37.8667 43.95 38.05 43.95 38.25C43.95 38.45 43.9167 38.6333 43.85 38.8C43.7833 38.9667 43.6667 39.1333 43.5 39.3L39.25 43.55C39.0833 43.7167 38.9167 43.8333 38.75 43.9C38.5833 43.9667 38.4 44 38.2 44ZM38.2 40.4L40.35 38.25L30.35 28.25L28.2 30.4L38.2 40.4ZM9.75 44C9.55 44 9.35833 43.9667 9.175 43.9C8.99167 43.8333 8.81667 43.7167 8.65 43.55L4.45 39.35C4.28333 39.1833 4.16667 39.0083 4.1 38.825C4.03333 38.6417 4 38.45 4 38.25C4 38.05 4.03333 37.8667 4.1 37.7C4.16667 37.5333 4.28333 37.3667 4.45 37.2L15.7 25.95H19.95L21.85 24.05L13.1 15.3H10.25L4 9.05L8.95 4.1L15.2 10.35V13.2L23.95 21.95L30.45 15.45L27.1 12.1L29.9 9.3H24.25L23.35 8.4L29.75 2L30.65 2.9V8.55L33.45 5.75L41.9 14.2C42.4 14.7 42.7917 15.275 43.075 15.925C43.3583 16.575 43.5 17.2667 43.5 18C43.5 18.6667 43.3917 19.3083 43.175 19.925C42.9583 20.5417 42.65 21.1 42.25 21.6L38 17.35L35.2 20.15L32.6 17.55L22.05 28.1V32.3L10.8 43.55C10.6333 43.7167 10.4667 43.8333 10.3 43.9C10.1333 43.9667 9.95 44 9.75 44ZM9.75 40.4L19.75 30.4V28.25H17.6L7.6 38.25L9.75 40.4ZM9.75 40.4L7.6 38.25L8.7 39.3L9.75 40.4Z" fill="#00192E"/>
</g>
</svg>
