<svg width="150" height="30" viewBox="0 0 150 30" fill="none" xmlns="http://www.w3.org/2000/svg">
<path fill-rule="evenodd" clip-rule="evenodd" d="M30 15C30 23.2847 23.2847 30 15 30C6.71531 30 0 23.2847 0 15C0 6.71531 6.71531 0 15 0C23.2847 0 30 6.71531 30 15Z" fill="white"/>
<path fill-rule="evenodd" clip-rule="evenodd" d="M1.29656 21.0975C3.63375 26.3409 8.8875 29.9981 15 29.9981C21.1087 29.9981 26.3616 26.3438 28.7006 21.1041L15.0084 11.1375L1.29656 21.0975ZM15.6478 21.1069H18.5447V17.7759H15.6478V21.1069ZM15.6478 25.7259H18.5447V22.3941H15.6478V25.7259ZM11.4637 25.7259H14.3606V22.3941H11.4637V25.7259ZM11.4637 21.1069H14.3606V17.7759H11.4637V21.1069Z" fill="#273653"/>
<path fill-rule="evenodd" clip-rule="evenodd" d="M29.6644 18.1556C29.8874 17.1186 30 16.0608 30 15C30 6.71531 23.2847 0 15 0C6.71531 0 0 6.71531 0 15C0 16.08 0.117188 17.1328 0.33375 18.1481L15.0094 7.48594L29.6644 18.1556Z" fill="#46B6FF"/>
<path fill-rule="evenodd" clip-rule="evenodd" d="M130.389 23.5875V6.78188H132.454V13.6003C132.826 13.0205 133.333 12.5388 133.93 12.1959C134.546 11.8359 135.294 11.6559 136.175 11.6559C137.679 11.6559 138.84 12.1153 139.657 13.0359C140.472 13.9566 140.88 15.1922 140.88 16.7456V23.5875H138.816V16.9856C138.816 15.9291 138.556 15.0966 138.036 14.4891C137.515 13.8797 136.751 13.5759 135.743 13.5759C134.735 13.5759 133.934 13.9284 133.342 14.6325C132.749 15.3366 132.454 16.2891 132.454 17.4891V23.5875H130.389ZM38.0766 6.78188V13.8647H47.1038V6.78188H49.2403V23.5875H47.1028V15.8813H38.0766V23.5875H35.9391V6.78188H38.0766ZM56.5031 13.8759C56.0156 14.0925 55.5909 14.3916 55.2309 14.7759C54.87 15.1603 54.5906 15.6084 54.39 16.1213C54.1884 16.6417 54.0867 17.1954 54.09 17.7534C54.09 18.33 54.1903 18.8737 54.39 19.3856C54.5906 19.8984 54.87 20.3466 55.2309 20.7309C55.5976 21.1234 56.0421 21.4351 56.5361 21.6459C57.0301 21.8567 57.5626 21.9621 58.0997 21.9553C58.6753 21.9553 59.2078 21.8466 59.6963 21.6309C60.1838 21.4153 60.6084 21.1153 60.9684 20.7309C61.3322 20.3409 61.6174 19.8845 61.8084 19.3866C62.0099 18.8658 62.1117 18.3118 62.1084 17.7534C62.1116 17.1954 62.0098 16.6417 61.8084 16.1213C61.6176 15.6232 61.3324 15.1667 60.9684 14.7769C60.6098 14.3938 60.1769 14.0876 59.6963 13.8769C59.1928 13.6576 58.6488 13.547 58.0997 13.5525C57.5231 13.5525 56.9906 13.6603 56.5031 13.8759ZM60.5363 12.1359C61.2594 12.4419 61.9157 12.8861 62.4684 13.4438C63.0148 13.999 63.4472 14.6557 63.7416 15.3769C64.0453 16.1128 64.1972 16.905 64.1972 17.7534C64.1972 18.6019 64.0453 19.3941 63.7416 20.1309C63.4471 20.8515 63.0146 21.5075 62.4684 22.0622C61.916 22.6207 61.2596 23.0656 60.5363 23.3719C59.7919 23.6906 58.98 23.8509 58.0988 23.8509C57.2184 23.8509 56.4066 23.6916 55.6631 23.3719C54.9395 23.066 54.2828 22.6214 53.73 22.0631C53.184 21.5082 52.7518 20.8518 52.4578 20.1309C52.15 19.3764 51.9949 18.5683 52.0013 17.7534C52.0013 16.905 52.1531 16.1128 52.4578 15.3769C52.7517 14.6557 53.1839 13.999 53.73 13.4438C54.283 12.886 54.9397 12.4418 55.6631 12.1359C56.4338 11.8106 57.2632 11.6472 58.0997 11.6559C58.98 11.6559 59.7919 11.8153 60.5363 12.1359ZM66.7181 11.9203V23.5875H68.7834V17.4656C68.7834 16.2656 69.0516 15.3131 69.5878 14.6091C70.1241 13.9041 70.8478 13.5525 71.76 13.5525C72.6244 13.5525 73.2806 13.8562 73.7288 14.4647C74.1769 15.0722 74.4009 15.9047 74.4009 16.9613V23.5875H76.4653V17.4656C76.4653 16.2656 76.7344 15.3131 77.2706 14.6091C77.8059 13.9041 78.5306 13.5525 79.4428 13.5525C80.3231 13.5525 80.9831 13.8525 81.4228 14.4525C81.8634 15.0525 82.0828 15.8728 82.0828 16.9134V23.5875H84.1481V16.5534C84.1481 15.0487 83.7722 13.8562 83.0194 12.9759C82.2675 12.0956 81.2109 11.6559 79.8506 11.6559C79.29 11.6559 78.7978 11.7272 78.3741 11.8716C77.9503 12.0159 77.5744 12.1997 77.2463 12.4247C76.9181 12.6478 76.6416 12.8962 76.4175 13.1681C76.1935 13.44 76.0097 13.6959 75.8653 13.9369C75.5137 13.2159 75.0291 12.6553 74.4131 12.2559C73.7963 11.8556 73.0566 11.6559 72.1931 11.6559C71.3766 11.6559 70.68 11.8284 70.1034 12.1716C69.5303 12.5125 69.0645 13.0075 68.7591 13.6003V11.9194L66.7181 11.9203ZM95.505 15.4125C95.3027 15.0287 95.0346 14.6835 94.7128 14.3925C94.3878 14.1013 94.0139 13.8696 93.6084 13.7081C93.1809 13.5376 92.7243 13.452 92.2641 13.4559C91.7831 13.4559 91.3359 13.5525 90.9197 13.7447C90.5104 13.9316 90.1335 14.1826 89.8031 14.4881C89.475 14.7928 89.2069 15.1369 88.9988 15.5203C88.7906 15.9047 88.6631 16.2966 88.6144 16.6969H95.8894C95.845 16.248 95.7145 15.8119 95.505 15.4125ZM90.0675 23.3953C89.3612 23.1056 88.7204 22.6768 88.1831 22.1344C87.6454 21.5843 87.2245 20.9312 86.9456 20.2144C86.6503 19.47 86.5022 18.6497 86.5022 17.7534C86.5022 16.8891 86.6503 16.0847 86.9456 15.3403C87.225 14.6232 87.6411 13.9673 88.1709 13.4091C88.6923 12.8637 89.3165 12.4268 90.0075 12.1238C90.7106 11.8116 91.4794 11.655 92.3119 11.655C93.0749 11.6476 93.8311 11.7998 94.5319 12.1017C95.2327 12.4036 95.8627 12.8486 96.3816 13.4081C96.8921 13.9632 97.2912 14.6112 97.5572 15.3169C97.8794 16.1667 98.0187 17.0749 97.9659 17.9822C97.9583 18.0579 97.9542 18.1339 97.9538 18.21V18.4012H88.5666C88.5984 18.9141 88.7259 19.3903 88.9509 19.83C89.3856 20.6966 90.1251 21.3721 91.0275 21.7266C91.4894 21.9119 91.9829 22.0058 92.4806 22.0031C93.36 22.0031 94.0528 21.8156 94.5563 21.4387C95.0756 21.0459 95.5191 20.5618 95.865 20.01L97.545 20.8744C97.0681 21.7516 96.3737 22.4915 95.5284 23.0231C94.665 23.5753 93.6403 23.8509 92.4563 23.8509C91.5919 23.8509 90.795 23.6991 90.0675 23.3953ZM108.758 21.5953H102.756V6.78281H100.619V23.5875H108.758V21.5953ZM111.158 23.5875H113.224V11.9194H111.158V23.5875ZM113.175 9.44719C112.903 9.71906 112.575 9.855 112.191 9.855C111.806 9.855 111.478 9.71906 111.206 9.44719C111.075 9.31969 110.97 9.16656 110.9 8.99726C110.83 8.82795 110.796 8.64605 110.798 8.46281C110.798 8.07844 110.934 7.75031 111.206 7.47844C111.478 7.20656 111.806 7.07063 112.191 7.07063C112.575 7.07063 112.903 7.20656 113.175 7.47844C113.447 7.75031 113.583 8.07844 113.583 8.46281C113.583 8.84719 113.447 9.17531 113.175 9.44719ZM124.47 14.7159C124.815 15.0759 125.087 15.5044 125.287 16.0003C125.487 16.4972 125.587 17.025 125.587 17.5847C125.593 18.6485 125.194 19.6748 124.47 20.4544C124.11 20.8256 123.68 21.1201 123.203 21.3202C122.727 21.5203 122.215 21.6219 121.698 21.6187C121.169 21.6253 120.645 21.5189 120.161 21.3066C119.703 21.1023 119.288 20.8131 118.937 20.4544C118.58 20.0866 118.302 19.6494 118.12 19.17C117.927 18.6643 117.829 18.127 117.833 17.5856C117.833 17.025 117.929 16.4972 118.12 16.0013C118.313 15.5044 118.584 15.0759 118.937 14.7169C119.287 14.3576 119.703 14.0681 120.161 13.8638C120.645 13.6519 121.169 13.5458 121.698 13.5525C122.215 13.5494 122.727 13.651 123.203 13.8511C123.679 14.0512 124.11 14.3448 124.47 14.7159ZM121.433 23.4675C122.266 23.4675 123.042 23.2753 123.762 22.8909C124.482 22.5066 125.05 21.9947 125.467 21.3544V22.9631C125.467 24.2109 125.131 25.1953 124.459 25.9162C123.787 26.6362 122.873 26.9963 121.722 26.9963C120.942 27.0062 120.174 26.8029 119.501 26.4084C118.837 26.0156 118.297 25.4438 117.88 24.6919L116.248 25.8441C116.792 26.82 117.536 27.5691 118.48 28.0884C119.425 28.6088 120.505 28.8684 121.722 28.8684C122.602 28.8684 123.398 28.7287 124.11 28.4484C124.798 28.1848 125.421 27.7755 125.935 27.2484C126.449 26.7118 126.845 26.0742 127.1 25.3762C127.372 24.6478 127.508 23.8275 127.508 22.9153V11.9194H125.467V13.6725C125.047 13.0286 124.457 12.5134 123.762 12.1838C123.037 11.8305 122.24 11.6499 121.433 11.6559C120.633 11.6559 119.889 11.8078 119.2 12.1116C118.523 12.4083 117.911 12.8369 117.4 13.3725C116.325 14.5103 115.731 16.02 115.744 17.5856C115.744 18.4181 115.892 19.1934 116.188 19.9144C116.469 20.6103 116.88 21.2458 117.4 21.7866C117.912 22.3145 118.524 22.7349 119.2 23.0231C119.906 23.3228 120.666 23.474 121.433 23.4675ZM149.74 11.9194H146.475V8.41406H144.411V11.9203H142.61V13.7681H144.411V20.2266C144.411 21.3628 144.723 22.2506 145.346 22.8919C145.971 23.5312 146.835 23.8509 147.939 23.8509C148.34 23.8509 148.688 23.8191 148.984 23.7553C149.247 23.7027 149.502 23.6137 149.74 23.4909V21.5719C149.564 21.6994 149.356 21.7913 149.116 21.8475C148.876 21.9038 148.643 21.9319 148.419 21.9319C147.747 21.9319 147.255 21.7725 146.944 21.4519C146.632 21.1312 146.475 20.6269 146.475 19.9387V13.77H149.74V11.9194Z" fill="#273653"/>
</svg>
