<svg width="110" height="122" viewBox="0 0 110 122" fill="none" xmlns="http://www.w3.org/2000/svg">
<g id="Layer_1" clip-path="url(#clip0_1_1002)">
<path id="Vector" d="M9.65463 117.461C9.65463 120.72 8.1875 122 5.25129 122C2.31508 122 0.947449 120.335 0.947449 117.752V116.762H4.20362V117.438C4.20362 118.355 4.20362 119.199 5.15179 119.199C6.09996 119.199 6.01217 118.065 6.01217 117.533V109.903H9.62146V117.459H9.65463V117.461Z" fill="#00192E"/>
<path id="Vector_2" d="M19.4329 119.803C19.4329 120.455 19.4543 121.18 19.8075 121.735H16.485C16.4186 121.494 16.364 121.155 16.364 120.915H16.3425C15.648 121.712 14.6433 121.953 13.5956 121.953C11.9509 121.953 10.5833 121.157 10.5833 119.347C10.5833 116.618 13.74 116.741 15.3846 116.425C15.8489 116.353 16.2782 116.209 16.2782 115.652C16.2782 115.095 15.726 114.855 15.1973 114.855C14.1926 114.855 14.0053 115.361 13.9838 115.724H11.0379C11.1374 113.308 13.4102 112.899 15.4197 112.899C19.4817 112.899 19.4582 114.613 19.4582 116.254V119.803H19.4368H19.4329ZM16.3211 117.872C15.9348 118.065 15.4822 118.186 15.0295 118.281C14.3116 118.451 13.9253 118.62 13.9253 119.199C13.9253 119.586 14.3565 119.996 14.9515 119.996C15.7026 119.996 16.2762 119.561 16.3191 118.644V117.872H16.3211Z" fill="#00192E"/>
<path id="Vector_3" d="M21.1536 113.141H24.2771V114.277H24.3103C24.9502 113.287 25.9101 112.925 27.1021 112.925C28.0074 112.925 29.0121 113.408 29.3984 114.277C29.5194 114.179 30.1827 112.925 32.2898 112.925C34.3968 112.925 35.2026 114.446 35.2026 115.847V121.737H31.9581V117.078C31.9581 116.256 31.8801 115.531 30.8773 115.531C30.0715 115.531 29.7847 116.184 29.7847 117.078V121.737H26.5286V117.078C26.5286 116.256 26.4505 115.531 25.4575 115.531C24.64 115.531 24.3532 116.184 24.3532 117.078V121.737H21.0971V113.143H21.1517L21.1536 113.141Z" fill="#00192E"/>
<path id="Vector_4" d="M39.4849 118.161C39.561 119.127 40.1366 119.826 41.1394 119.826C41.6583 119.826 42.2319 119.633 42.4972 119.224H45.533C44.893 121.083 43.0942 121.951 41.1628 121.951C38.4373 121.951 36.3849 120.335 36.3849 117.461C36.3849 114.951 38.1954 112.923 40.876 112.923C44.2414 112.923 45.6988 114.83 45.6988 118.161H39.4849ZM42.5967 116.447C42.5967 115.65 42.0017 114.997 41.1628 114.997C40.2029 114.997 39.6293 115.504 39.4849 116.447H42.5967Z" fill="#00192E"/>
<path id="Vector_5" d="M51.778 115.626C51.7565 115.336 51.6005 115.118 51.3917 114.974C51.2044 114.804 50.9391 114.732 50.6738 114.732C50.2211 114.732 49.6924 114.83 49.6924 115.385C49.6924 115.626 49.8914 115.747 50.0787 115.843C50.6308 116.084 51.8443 116.133 52.9252 116.493C53.9963 116.832 54.9561 117.485 54.9561 118.883C54.9561 121.273 52.6833 121.924 50.6308 121.924C48.5784 121.924 46.4148 121.104 46.3719 118.883H49.4837C49.5051 119.174 49.628 119.439 49.8583 119.657C50.0358 119.801 50.344 119.898 50.7186 119.898C51.1498 119.898 51.8229 119.729 51.8229 119.246C51.8229 118.763 51.5361 118.595 50.0358 118.328C47.5425 117.894 46.5592 117.097 46.5592 115.625C46.5592 113.451 48.8867 112.896 50.5762 112.896C52.4199 112.896 54.6147 113.402 54.7142 115.625H51.778V115.626Z" fill="#00192E"/>
<path id="Vector_6" d="M56.1267 109.905H59.7126V114.01H63.1014V109.905H66.7205V121.735H63.1014V117.027H59.7126V121.735H56.1267V109.905Z" fill="#00192E"/>
<path id="Vector_7" d="M76.4987 119.803C76.4987 120.455 76.5202 121.18 76.8733 121.735H73.5508C73.4845 121.494 73.4299 121.155 73.4299 120.915H73.4084C72.7139 121.712 71.7091 121.953 70.6614 121.953C69.0168 121.953 67.6491 121.157 67.6491 119.347C67.6491 116.618 70.8058 116.741 72.4602 116.425C72.9128 116.353 73.344 116.209 73.344 115.652C73.344 115.095 72.7919 114.855 72.2632 114.855C71.2584 114.855 71.0711 115.361 71.0497 115.724H68.0374C68.1252 113.308 70.4 112.899 72.4076 112.899C76.4792 112.899 76.4461 114.613 76.4461 116.254V119.803H76.5007H76.4987ZM73.3635 117.872C72.9772 118.065 72.5246 118.186 72.072 118.281C71.354 118.451 70.9677 118.62 70.9677 119.199C70.9677 119.586 71.3989 119.996 71.9939 119.996C72.7451 119.996 73.3187 119.561 73.3616 118.644V117.872H73.3635Z" fill="#00192E"/>
<path id="Vector_8" d="M78.0439 113.141H81.1557V114.518H81.1772C81.7078 113.48 82.4024 112.925 83.571 112.925C83.9027 112.925 84.2109 112.973 84.5309 113.045V115.944C84.1895 115.823 83.9027 115.728 83.2628 115.728C81.9712 115.728 81.2981 116.499 81.2981 118.334V121.737H78.042V113.143L78.0439 113.141Z" fill="#00192E"/>
<path id="Vector_9" d="M94.1121 121.735H90.9769V120.794H90.9554C90.5477 121.349 90.0502 121.953 88.4718 121.953C86.0546 121.953 84.886 119.563 84.886 117.391C84.886 115.363 85.6468 112.925 88.5167 112.925C89.4981 112.925 90.3604 113.359 90.8345 114.084H90.8676V109.907H94.1121V121.737V121.735ZM89.5429 115.289C88.3743 115.289 88.1187 116.4 88.1187 117.415C88.1187 118.429 88.3723 119.563 89.5429 119.563C90.7135 119.563 90.9769 118.453 90.9769 117.415C90.9769 116.376 90.7233 115.289 89.5429 115.289Z" fill="#00192E"/>
<path id="Vector_10" d="M98.7808 111.548V112.2H95.5246V109.905H98.7808V111.548ZM95.5246 113.141H98.7808V121.735H95.5246V113.141Z" fill="#00192E"/>
<path id="Vector_11" d="M103.03 118.161C103.108 119.127 103.682 119.826 104.684 119.826C105.203 119.826 105.777 119.633 106.042 119.224H109.078C108.438 121.083 106.639 121.951 104.708 121.951C101.982 121.951 99.9299 120.335 99.9299 117.461C99.9299 114.951 101.74 112.923 104.421 112.923C107.786 112.923 109.256 114.83 109.256 118.161H103.032H103.03ZM106.163 116.447C106.163 115.65 105.568 114.997 104.729 114.997C103.781 114.997 103.196 115.504 103.051 116.447H106.163Z" fill="#00192E"/>
<path id="Vector_12" d="M55.1005 0C26.55 0 3.49736 23.1081 3.49736 51.5146C3.49736 79.9211 26.6515 103.029 55.1005 103.029C83.5496 103.029 106.694 79.9191 106.694 51.5146C106.694 23.1101 83.5515 0 55.1005 0ZM51.3488 93.7123L58.4893 71.7924H68.0023L60.9495 93.5312C59.0298 93.8039 57.0203 93.987 55.0127 93.987C53.8207 93.8954 52.5408 93.8039 51.3488 93.7123ZM73.7635 89.5107L90.3175 38.7265H78.795L71.5667 60.8315H62.0538L69.2821 38.7265H57.7499L40.6438 91.3378C24.3669 85.4006 12.6455 69.7822 12.6455 51.5146C12.6455 29.957 28.659 12.2388 49.5168 9.49804L36.1644 50.6926C35.6123 52.3366 33.8798 53.2502 32.1356 52.7009C30.491 52.1535 29.576 50.4179 30.1281 48.6823L33.4174 38.635H21.7975L19.6007 45.3027C17.2283 52.7009 21.2551 60.6464 28.661 63.021C36.0766 65.3974 44.0346 61.3789 46.407 53.9787L60.8637 9.49609C81.5342 12.3264 97.458 30.0466 97.458 51.4192C97.458 68.2277 87.8456 82.6579 73.7635 89.5087" fill="#00192E"/>
</g>
<defs>
<clipPath id="clip0_1_1002">
<rect width="108.306" height="122" fill="white" transform="translate(0.947449)"/>
</clipPath>
</defs>
</svg>
