<?xml version="1.0" encoding="UTF-8"?><svg id="Layer_2" xmlns="http://www.w3.org/2000/svg" viewBox="0 0 712.83 111.03"><defs><style>.cls-1{fill:#017ac3;}.cls-2{fill:#fff;}.cls-3{fill:#bfdef0;}.cls-4{fill:#61bb47;}.cls-5{fill:#60bb46;}</style></defs><g id="Layer_1-2"><g><path class="cls-2" d="m69.33,105.18c-.07-.13-.22-.28-.2-.4.33-1.97.69-3.94,1.03-5.91.61-3.47,1.21-6.94,1.82-10.4.53-3.03,1.08-6.07,1.61-9.1.28-1.6.54-3.21.82-4.89h-2.11c-.11.4-.23.76-.32,1.14-.65,2.92-1.13,5.89-1.96,8.76-1.71,5.95-4.49,11.29-9.59,15.12-4,2.99-8.48,4.91-13.48,5.09-6.3.23-12.62.11-18.93.15-.35,0-.69,0-1.15,0,.67-4,1.29-7.87,1.97-11.74.91-5.17,1.9-10.33,2.81-15.5,1.15-6.54,2.24-13.09,3.39-19.64.54-3.05.57-3.04,3.8-3.04.52,0,1.04,0,1.56,0,2.61-.04,5.04.57,7.3,1.87l.26.18c1.06,1.3,2.12,2.6,3.18,3.91.06.07.13.15.19.22.1.33.2.65.3.98.06.07.12.15.18.22,1.7,5.07,1.39,10.23.56,15.6.88-.31,2.02.75,2.3-.79,1.31-7.16,2.58-14.32,3.84-21.49,1.43-8.21,2.83-16.43,4.25-24.72-.51,0-.95.03-1.39,0-.75-.05-1.01.16-1.22,1-.93,3.69-2.03,7.34-3.06,11.01-.06.07-.13.14-.19.21-.95,2.27-2.27,4.25-4.39,5.61-.07.05-.14.1-.2.15-.09.03-.18.06-.28.09-.07.05-.14.1-.2.15-.65.25-1.29.57-1.97.73-2.44.58-4.88,1.22-7.36,1.62-1.75.28-3.56.2-5.34.28-.58.03-1.05-.07-.91-.85.71-4.08,1.41-8.15,2.12-12.23.95-5.45,1.91-10.91,2.88-16.36.9-5.02,1.82-10.04,2.75-15.14,3.35,0,6.7-.06,10.05.02,3.49.08,7.01.13,10.47.5,4.55.49,7.87,3.01,10.01,7.02,2.69,5.04,2.81,10.46,2.23,15.97-.1.92-.15,1.84-.23,2.85.34,0,.57-.02.81,0,.98.09,1.76.04,1.61-1.33-.07-.64.18-1.31.29-1.96.45-2.65.92-5.3,1.35-7.96.43-2.66.8-5.33,1.24-7.99.57-3.42,1.2-6.83,1.8-10.25-.05-.05-.1-.09-.14-.14-.32-.02-.64-.05-.95-.05-21.03,0-42.06,0-63.08,0h-1.15c-.18,1.09-.34,2.15-.53,3.33h9.02c-5.75,32.61-11.48,65.13-17.22,97.66-2.84,0-5.44-.02-8.03.02-.39,0-1.01.26-1.12.54-.27.73-.31,1.55-.46,2.46h1.48c22.07,0,44.13,0,66.2,0,.4,0,.8-.03,1.19-.05h.48c.16.02.32.05.48.05,9.2,0,18.39,0,27.59,0,.3,0,.6-.07.91-.11.11-.9.21-1.69.32-2.57h-6.89c.86-4.95,1.71-9.84,2.55-14.72.66-3.83,1.29-7.66,1.96-11.48.61-3.46,1.3-6.91,1.87-10.38.73-4.43,1.9-8.71,4.34-12.53,2.54-3.97,5.5-7.54,10.01-9.41,2.09-.87,4.28-1.02,6.43-.2,2.92,1.13,3.57,4.64,3.15,7.57-.37,2.54-.92,5.06-1.35,7.59-.59,3.45-1.13,6.91-1.74,10.36-.67,3.79-1.42,7.56-2.09,11.35-.53,2.99-.96,5.99-1.47,8.98-.68,3.98-1.42,7.94-2.11,11.92-.12.7-.4,1-1.16.98-1.72-.05-3.44-.05-5.16.01-.38.01-.94.31-1.06.62-.23.58-.2,1.27-.29,2.02h26.65q2.47,0,3.01-2.4c.01-.06-.04-.13-.09-.3h-6.81c0-.29-.03-.5,0-.69.55-3.05,1.11-6.1,1.67-9.14.71-3.91,1.43-7.81,2.12-11.73.59-3.36,1.15-6.72,1.72-10.08.51-3,.97-6.01,1.53-9.01.57-3.09,1.18-6.16,1.13-9.34-.05-3.73-.9-7.09-3.49-9.94-2.34-2.57-5.21-4.01-8.6-4.26-4.34-.32-8.49.34-12.45,2.45-3.32,1.77-6,4.16-8.37,6.98-.94,1.12-1.77,2.32-2.65,3.49-.09-.03-.17-.05-.26-.08.65-3.78,1.29-7.55,1.95-11.4h-22.21c-.11.9-.22,1.72-.33,2.64h6.89c-3.53,20.08-7.05,40.07-10.59,60.21h-6.85c-.09,0-.17,0-.26-.01Z"/><path class="cls-2" d="m627.63,4c-.31,1.05-.62,2.1-.92,3.15-.66,2.28-2.45,3.32-4.61,2.42-1.55-.65-2.95-1.67-4.44-2.49-4.07-2.26-7.95-4.87-12.82-5.34-4.49-.43-8.77.08-12.89,1.86-5.77,2.5-10.1,6.73-13.59,11.82-4.59,6.7-6.82,14.23-7.23,22.3-.24,4.74-.37,9.49,1.34,14.06,1.26,3.34,3.13,6.2,6.09,8.3,3.05,2.16,6.54,3.32,10,4.51,5.1,1.76,10.21,3.46,14.98,6.02,3.11,1.67,5.61,3.86,6.3,7.42.72,3.72.34,7.45-.61,11.13-1.05,4.07-2.74,7.78-5.5,11.03-2.08,2.46-4.56,4.28-7.44,5.64-2.75,1.3-5.67,1.56-8.66,1.43-3.54-.15-6.59-1.45-9.27-3.79-2.52-2.19-3.94-5.07-5.39-7.94-1.82-3.61-2.99-7.46-3.84-11.4-.9-4.16-1.53-8.36-1.46-12.64.01-.91,0-1.82,0-2.77h-2.4c-.56,3.4-1.11,6.82-1.68,10.25-.45,2.74-.91,5.48-1.35,8.22-.51,3.13-1.02,6.26-1.52,9.39-.54,3.36-1.11,6.72-1.6,10.08-.06.4.18,1.16.44,1.24.57.18,1.25.28,1.65-.6.8-1.76,1.68-3.5,2.64-5.18.68-1.18,1.84-1.45,3.03-.77,2.41,1.38,4.79,2.81,7.17,4.25,4.13,2.51,8.55,4.3,13.38,4.73,4.55.4,8.96-.49,13.07-2.48,5.71-2.76,10.13-7.02,13.73-12.17,3.33-4.76,5.53-10.02,7.05-15.63,1.22-4.51,1.87-9.09,1.99-13.71.07-2.68-.36-5.42-.93-8.06-1.07-4.93-3.7-8.92-7.67-12.12-3.63-2.93-8.05-3.8-12.32-4.99-4.45-1.23-8.87-2.46-12.95-4.66-3.19-1.72-5.39-4.19-5.96-7.98-.44-2.91-.05-5.73.65-8.48,2.16-8.42,11.03-17.4,22.52-14.97,3.31.7,6.02,2.48,8.13,5.07,2.81,3.45,4.14,7.62,5.3,11.83,1.16,4.23,1.44,8.59,1.62,12.95.03.74,0,1.48,0,2.24h2.35c1.95-11.06,3.89-22.09,5.84-33.18h-2.23Z"/><path class="cls-2" d="m552.43,6.86c.19.07.36.18.53.21,1.36.17,2.74.26,4.09.51,1.68.31,3.8,1.2,3.9,3.55.09,2.16.22,4.35-.03,6.48-.5,4.28-1.21,8.53-1.92,12.78-.64,3.81-1.44,7.6-2.11,11.41-.69,3.93-1.27,7.88-1.96,11.81-.92,5.2-1.87,10.38-2.86,15.57-.99,5.21-1.97,10.43-3.83,15.43-2.14,5.77-5.07,10.97-10.04,14.85-2.79,2.18-5.88,3.78-9.27,4.64-2.9.73-5.87,1.03-8.91.57-2.7-.41-5.07-1.42-7.01-3.26-3.84-3.64-5.29-8.36-5.52-13.47-.11-2.35.19-4.74.45-7.09.33-2.97.74-5.94,1.23-8.9.65-3.96,1.42-7.9,2.11-11.85.67-3.8,1.29-7.61,1.96-11.41.85-4.81,1.76-9.62,2.6-14.43.67-3.86,1.27-7.73,1.94-11.58.6-3.45,1.27-6.89,1.91-10.34.33-1.76.67-3.52,1.02-5.31h9.04c.19-1.06.36-2.09.55-3.15h-35.89c-.19,1.1-.37,2.08-.57,3.23h9.11c-.39,2.17-.74,4.17-1.1,6.16-.68,3.72-1.39,7.44-2.04,11.17-.47,2.65-.84,5.32-1.31,7.97-.66,3.76-1.4,7.51-2.06,11.27-.52,2.99-.95,5.99-1.48,8.98-.59,3.32-1.3,6.63-1.88,9.96-.62,3.53-1.19,7.07-1.69,10.61-.39,2.8-.75,5.61-.93,8.43-.11,1.77.15,3.56.2,5.34.09,3.24.72,6.38,1.94,9.38,2.2,5.42,6.09,9.31,11.25,11.93,4.19,2.13,8.78,2.7,13.38,2.73,2.81.02,5.65-.44,8.43-.92,5.18-.89,9.71-3.22,13.61-6.72,5.48-4.93,9.07-11.07,11.41-18.01,2.04-6.04,3.47-12.23,4.55-18.51.9-5.2,1.92-10.38,2.85-15.57,1.06-5.89,2.04-11.79,3.13-17.67,1.08-5.84,2.16-11.68,3.41-17.48.39-1.81,1.11-3.61,2.04-5.21,1.55-2.67,4.1-3.87,7.19-3.92.22-1.09.43-2.14.63-3.18h-21.58c-.16,1.05-.31,2-.46,3.01Z"/><path class="cls-2" d="m226.38,45.69c-1.73,2.25-2.62,4.78-3.07,7.53-.48,2.96-.16,5.74,1.64,8.2,1.08,1.48,2.75,2.14,4.46,1.91,3.13-.43,5.47-2.22,7.23-4.86,2.28-3.41,2.93-7.15,2.85-11.17-.12-5.45-3.72-7.9-8.77-7.02-5.05.88-8.37,4.25-11.37,8.04-.68.86-1.26,1.79-1.89,2.68-.06-.04-.12-.07-.18-.11.51-2.89,1.02-5.79,1.52-8.64h-22.19c-.12,1.01-.21,1.83-.32,2.75h6.9c-3.56,20.06-7.1,40.04-10.66,60.12h-6.98c-.16.94-.3,1.76-.45,2.66.5,0,.93,0,1.37,0h27.11q2.62,0,2.91-2.69h-8.68c0-.47-.06-.87,0-1.25.69-3.8,1.43-7.58,2.11-11.38.82-4.57,1.57-9.15,2.42-13.71,1-5.37,1.95-10.75,3.14-16.08,1.03-4.62,2.48-9.13,5.48-12.93,1.42-1.8,3.04-3.42,5.4-4.04Z"/><path class="cls-1" d="m52.55,48.63c2.12-1.36,3.44-3.34,4.39-5.61.06-.07.13-.14.19-.21,1.04-3.67,2.14-7.32,3.06-11.01.21-.84.47-1.06,1.22-1,.43.03.87,0,1.39,0-1.42,8.28-2.82,16.5-4.25,24.72-1.25,7.17-2.53,14.33-3.84,21.49-.28,1.53-1.43.48-2.3.79.83-5.37,1.15-10.53-.56-15.6-.06-.07-.12-.15-.18-.22-.1-.33-.2-.65-.3-.98-.06-.07-.13-.15-.19-.22-1.06-1.3-2.12-2.6-3.18-3.91-.09-.06-.18-.12-.26-.18-2.26-1.31-4.69-1.92-7.3-1.87-.52,0-1.04,0-1.56,0-3.23,0-3.27,0-3.8,3.04-1.15,6.54-2.24,13.09-3.39,19.64-.91,5.17-1.9,10.33-2.81,15.5-.68,3.86-1.3,7.73-1.97,11.74.45,0,.8,0,1.15,0,6.31-.03,12.63.08,18.93-.15,5-.18,9.48-2.09,13.48-5.09,5.11-3.82,7.88-9.16,9.59-15.12.82-2.87,1.31-5.84,1.96-8.76.08-.38.2-.74.32-1.14h2.11c-.28,1.68-.54,3.28-.82,4.89-.53,3.03-1.07,6.07-1.61,9.1-.61,3.47-1.22,6.94-1.82,10.4-.35,1.97-.7,3.94-1.03,5.91-.02.12.13.27.2.4-.13.21-.27.42-.4.63.13.06.25.13.38.19.1-.27.19-.54.29-.81h6.85c3.54-20.14,7.06-40.13,10.59-60.21h-6.89c.12-.92.22-1.74.33-2.64h22.21c-.66,3.84-1.3,7.62-1.95,11.4.09.03.17.05.26.08.88-1.17,1.71-2.37,2.65-3.49,2.37-2.82,5.05-5.21,8.37-6.98,3.96-2.11,8.11-2.77,12.45-2.45,3.39.25,6.26,1.68,8.6,4.26,2.59,2.85,3.43,6.21,3.49,9.94.05,3.18-.56,6.25-1.13,9.34-.55,2.99-1.02,6-1.53,9.01-.57,3.36-1.13,6.72-1.72,10.08-.69,3.91-1.41,7.82-2.12,11.73-.55,3.05-1.11,6.1-1.67,9.14-.03.19,0,.39,0,.69h6.81c.05.16.11.24.09.3q-.55,2.4-3.01,2.4h-26.65c.09-.76.06-1.44.29-2.02.12-.31.69-.61,1.06-.62,1.72-.07,3.44-.06,5.16-.01.76.02,1.04-.28,1.16-.98.69-3.97,1.42-7.94,2.11-11.92.51-2.99.95-5.99,1.47-8.98.67-3.79,1.42-7.56,2.09-11.35.61-3.45,1.15-6.91,1.74-10.36.44-2.53.98-5.05,1.35-7.59.43-2.93-.22-6.44-3.15-7.57-2.14-.83-4.33-.67-6.43.2-4.51,1.87-7.48,5.44-10.01,9.41-2.44,3.82-3.6,8.1-4.34,12.53-.57,3.47-1.26,6.92-1.87,10.38-.67,3.83-1.3,7.66-1.96,11.48-.84,4.89-1.69,9.78-2.55,14.72h6.89c-.11.87-.21,1.67-.32,2.57-.31.04-.61.11-.91.11-9.2,0-18.39,0-27.59,0-.16,0-.32-.03-.48-.05-.09-.32-.18-.64-.28-.95-.11.04-.23.07-.34.11.05.28.09.56.14.84-.4.02-.8.05-1.19.05-22.07,0-44.13,0-66.2,0H0c.15-.91.19-1.73.46-2.46.11-.29.73-.54,1.12-.54,2.6-.05,5.2-.02,8.03-.02C15.34,72.22,21.08,39.7,26.83,7.09h-9.02c.19-1.18.36-2.24.53-3.33h1.15c21.03,0,42.06,0,63.08,0,.32,0,.64.03.95.05.03.06.08.11.14.14-.6,3.42-1.23,6.83-1.8,10.25-.45,2.66-.81,5.33-1.24,7.99-.43,2.66-.9,5.31-1.35,7.96-.11.65-.36,1.33-.29,1.96.15,1.37-.63,1.42-1.61,1.33-.23-.02-.47,0-.81,0,.08-1.01.14-1.93.23-2.85.58-5.51.46-10.93-2.23-15.97-2.14-4.02-5.46-6.53-10.01-7.02-3.47-.38-6.98-.42-10.47-.5-3.35-.08-6.7-.02-10.05-.02-.93,5.1-1.85,10.12-2.75,15.14-.97,5.45-1.93,10.9-2.88,16.36-.71,4.08-1.41,8.15-2.12,12.23-.14.78.33.88.91.85,1.78-.08,3.59,0,5.34-.28,2.48-.4,4.91-1.04,7.36-1.62.67-.16,1.31-.48,1.97-.73.07-.05.14-.1.2-.15.09-.03.18-.06.28-.09.07-.05.14-.1.2-.15Z"/><path class="cls-1" d="m372.85,45.01h-6.74c.14-.85.17-1.6.41-2.26.09-.24.69-.42,1.06-.42,5.88-.03,11.76,0,17.63-.03,1.13,0,2.27-.18,3.52-.28-.72,4.17-1.42,8.18-2.11,12.2.06.04.12.08.18.12.21-.29.43-.56.62-.86,3.58-5.57,8.27-9.78,14.7-11.78,3.42-1.07,6.96-1.17,10.45-.5,5.54,1.06,9.9,6.87,10.01,12.53.11,6.13-1.39,12-2.34,17.96-.62,3.91-1.35,7.81-2.05,11.71-.68,3.75-1.41,7.49-2.07,11.25-.61,3.45-1.16,6.9-1.75,10.41h11.55c5.76-32.77,11.53-65.53,17.31-98.43h-7.02c.11-.69.18-1.27.31-1.83.16-.71.49-1.08,1.38-1.06,4.27.07,8.55,0,12.83.04,3.26.03,6.15-.72,8.02-3.76l.35.21c-4.41,25.01-8.82,50.01-13.23,75.02.09.04.18.07.27.11.13-.11.27-.21.4-.34,3.09-3,6.14-6.03,9.26-8.99,3.25-3.08,6.66-6,9.8-9.19,1.98-2.01,4.06-4.07,4.73-7.01.17-.75.46-1.55.36-2.29-.22-1.64-1.18-2.29-3.1-2.34-1.04-.03-2.08,0-3.12,0-.69,0-1.07-.12-.72-.97.23-.56.22-1.21.33-1.86h25.44c-.17.85-.3,1.66-.51,2.45-.05.17-.39.36-.61.36-5.11.08-9.26,2.37-12.89,5.71-4.65,4.28-9.18,8.68-13.8,13-.55.52-.49.98-.31,1.53,2,6.09,4.02,12.17,6.02,18.26,1.76,5.35,3.52,10.7,5.27,16.05.58,1.77,1.14,3.54,1.74,5.4h6.6c-.19.92-.35,1.75-.53,2.62h-30.54c.14-.86.27-1.69.42-2.61h5.71c-2.69-9.42-5.36-18.74-8.02-28.05-1.31.35-3.04,2.44-3.27,3.77-.92,5.46-1.88,10.91-2.82,16.37-.44,2.57-.87,5.15-1.32,7.84h5.53c-.19.96-.35,1.81-.53,2.72h-1.24c-17.15,0-34.31,0-51.46-.02-.5,0-1.32.41-1.41-.58-.11-1.31.48-2.07,1.53-2.07,1.96,0,3.91,0,5.94,0,.47-2.86.89-5.67,1.4-8.46.78-4.33,1.63-8.64,2.4-12.97.61-3.44,1.1-6.91,1.7-10.35.42-2.4.94-4.79,1.37-7.19.52-2.95,1.01-5.9,1.47-8.86.29-1.85.76-3.71.71-5.56-.08-3.15-1.31-4.83-3.66-5.56-2.09-.64-4.3-.42-6.39.5-2.74,1.21-4.84,3.21-6.76,5.41-2.77,3.16-4.87,6.74-5.94,10.81-.81,3.08-1.34,6.24-1.94,9.37-.56,2.95-1.04,5.92-1.56,8.87-.52,3-1.04,6-1.57,8.99-.58,3.3-1.18,6.6-1.77,9.9-.29,1.65-.59,3.3-.91,5.09h7.04c-.07.33-.11.52-.15.7-.11.62-.04,1.61-.37,1.77-.66.31-1.54.2-2.33.2-8.48,0-16.95,0-25.43,0h-1.39c.13-.84.24-1.63.36-2.41,0-.09.01-.19.02-.28,2.04,0,4.07,0,6.11.03.73.01.98-.19,1.11-.98.81-4.73,1.74-9.43,2.57-14.15,1-5.62,1.93-11.26,2.92-16.88.92-5.19,1.9-10.37,2.83-15.56.73-4.11,1.43-8.23,2.14-12.34-.06-.06-.13-.12-.19-.18Z"/><path class="cls-1" d="m227.23,107.72c.11-.84.1-1.61.35-2.28.13-.33.76-.66,1.17-.67,2.64-.06,5.27-.03,8.05-.03,5.74-32.57,11.48-65.09,17.22-97.69h-8.99c.16-1.14.3-2.18.45-3.31.44,0,.8,0,1.15,0,10-.01,19.99-.16,29.99.02,5.68.1,11.4.38,16.85,2.34,4.11,1.48,7.84,3.63,10.81,6.89,1.87,2.06,2.78,4.62,3.05,7.33.47,4.61-.18,9.13-1.73,13.5-1.67,4.72-4.66,8.42-8.75,11.32-4.14,2.93-8.59,5.18-13.47,6.57-.22.06-.43.16-.93.36,4.02.37,7.54,1.43,10.67,3.51,4.68,3.12,8.4,7.05,9.28,12.83.42,2.71.4,5.55.09,8.27-.35,3.06-.98,6.16-1.98,9.07-2.22,6.46-6.36,11.51-12.1,15.26-4.91,3.21-10.3,5.14-16.08,5.94-3.16.44-6.36.75-9.54.78-11.51.09-23.03.04-34.55.03-.27,0-.55-.03-1.02-.05Zm26.46-2.77c1.61-.11,2.95-.27,4.29-.28,3.46-.04,6.78-.86,10.1-1.72,5.64-1.47,9.73-4.81,11.89-10.22,1.2-3.01,2.2-6.14,2.93-9.3.72-3.14.96-6.39,1.45-9.59.46-3.04.3-6.05-.23-9.06-.71-4.04-2.97-6.92-6.68-8.58-2.12-.95-4.39-1.46-6.77-1.48-2.69-.02-5.38-.23-8.03-.35-2.99,16.93-5.94,33.61-8.94,50.58Zm9.44-53.35c4.65.23,9.02-.45,13.33-1.63,3.09-.84,6.02-2.01,7.92-4.77.97-1.4,1.89-2.88,2.55-4.44,1.51-3.58,2.35-7.35,2.96-11.2.7-4.45,1.32-8.88.41-13.36-.54-2.67-1.78-4.79-4.41-6.08-4.55-2.24-9.35-2.86-14.31-2.76-.32,0-.84.55-.9.91-.54,2.94-.96,5.89-1.49,8.83-.68,3.82-1.46,7.61-2.13,11.43-.73,4.15-1.37,8.31-2.07,12.47-.59,3.49-1.23,6.98-1.87,10.61Z"/><path class="cls-4" d="m627.63,4h2.23c-1.95,11.09-3.89,22.12-5.84,33.18h-2.35c0-.76.03-1.5,0-2.24-.17-4.36-.46-8.72-1.62-12.95-1.16-4.2-2.49-8.37-5.3-11.83-2.11-2.59-4.82-4.37-8.13-5.07-11.49-2.43-20.35,6.55-22.52,14.97-.71,2.75-1.09,5.57-.65,8.48.57,3.79,2.77,6.25,5.96,7.98,4.08,2.2,8.5,3.42,12.95,4.66,4.27,1.18,8.69,2.06,12.32,4.99,3.97,3.2,6.6,7.19,7.67,12.12.57,2.64,1.01,5.38.93,8.06-.12,4.62-.77,9.2-1.99,13.71-1.52,5.61-3.72,10.86-7.05,15.63-3.6,5.15-8.03,9.42-13.73,12.17-4.11,1.99-8.52,2.88-13.07,2.48-4.83-.43-9.24-2.23-13.38-4.73-2.38-1.44-4.76-2.87-7.17-4.25-1.19-.68-2.35-.41-3.03.77-.97,1.68-1.84,3.41-2.64,5.18-.4.87-1.08.78-1.65.6-.26-.08-.5-.83-.44-1.24.49-3.37,1.06-6.72,1.6-10.08.51-3.13,1.01-6.26,1.52-9.39.45-2.74.9-5.48,1.35-8.22.56-3.42,1.12-6.84,1.68-10.25h2.4c0,.96.01,1.87,0,2.77-.06,4.28.56,8.48,1.46,12.64.85,3.94,2.02,7.79,3.84,11.4,1.45,2.87,2.87,5.75,5.39,7.94,2.68,2.33,5.73,3.63,9.27,3.79,2.99.13,5.9-.14,8.66-1.43,2.88-1.36,5.36-3.18,7.44-5.64,2.75-3.25,4.44-6.96,5.5-11.03.95-3.68,1.33-7.41.61-11.13-.69-3.56-3.19-5.75-6.3-7.42-4.78-2.57-9.88-4.27-14.98-6.02-3.46-1.19-6.96-2.35-10-4.51-2.96-2.1-4.83-4.95-6.09-8.3-1.72-4.57-1.58-9.32-1.34-14.06.41-8.07,2.64-15.6,7.23-22.3,3.49-5.09,7.82-9.32,13.59-11.82,4.11-1.78,8.39-2.29,12.89-1.86,4.88.47,8.76,3.07,12.82,5.34,1.48.83,2.88,1.84,4.44,2.49,2.16.91,3.95-.13,4.61-2.42.3-1.05.61-2.09.92-3.15Z"/><path class="cls-5" d="m552.43,6.86c.15-1.01.3-1.97.46-3.01h21.58c-.21,1.04-.41,2.09-.63,3.18-3.09.05-5.64,1.25-7.19,3.92-.93,1.6-1.65,3.41-2.04,5.21-1.25,5.8-2.33,11.64-3.41,17.48-1.08,5.88-2.07,11.78-3.13,17.67-.93,5.19-1.95,10.37-2.85,15.57-1.08,6.28-2.51,12.47-4.55,18.51-2.35,6.93-5.93,13.08-11.41,18.01-3.89,3.5-8.43,5.82-13.61,6.72-2.78.48-5.62.94-8.43.92-4.6-.03-9.19-.6-13.38-2.73-5.16-2.62-9.04-6.51-11.25-11.93-1.22-3-1.85-6.14-1.94-9.38-.05-1.78-.31-3.57-.2-5.34.18-2.82.54-5.63.93-8.43.5-3.55,1.07-7.08,1.69-10.61.58-3.33,1.29-6.63,1.88-9.96.53-2.99.96-5.99,1.48-8.98.66-3.76,1.4-7.51,2.06-11.27.47-2.65.84-5.32,1.31-7.97.66-3.73,1.36-7.45,2.04-11.17.36-2,.72-3.99,1.1-6.16h-9.11c.2-1.15.38-2.14.57-3.23h35.89c-.19,1.06-.37,2.09-.55,3.15h-9.04c-.34,1.78-.69,3.54-1.02,5.31-.64,3.45-1.31,6.89-1.91,10.34-.67,3.86-1.27,7.73-1.94,11.58-.84,4.82-1.75,9.62-2.6,14.43-.67,3.8-1.3,7.61-1.96,11.41-.69,3.95-1.46,7.89-2.11,11.85-.49,2.95-.9,5.92-1.23,8.9-.26,2.35-.56,4.74-.45,7.09.23,5.11,1.69,9.83,5.52,13.47,1.94,1.84,4.3,2.85,7.01,3.26,3.04.46,6.01.16,8.91-.57,3.39-.86,6.48-2.45,9.27-4.64,4.96-3.88,7.89-9.09,10.04-14.85,1.86-5,2.84-10.22,3.83-15.43.99-5.18,1.94-10.37,2.86-15.57.69-3.93,1.27-7.88,1.96-11.81.67-3.81,1.47-7.6,2.11-11.41.71-4.25,1.42-8.5,1.92-12.78.25-2.13.12-4.32.03-6.48-.1-2.35-2.22-3.24-3.9-3.55-1.35-.25-2.73-.34-4.09-.51-.18-.02-.35-.13-.53-.21Z"/><path class="cls-5" d="m682.82,104.74h7.5c-.2,1.06-.37,2.01-.55,2.96h-35.09c.15-1.01.29-1.94.45-3h8.83c-.89-10-1.77-19.85-2.66-29.75-.49-.02-.84-.05-1.19-.05-6.36,0-12.72.02-19.07-.03-.88,0-1.24.34-1.57,1.06-1.88,4.23-3.84,8.42-5.69,12.66-1.64,3.75-3.33,7.46-4.28,11.5-.69,2.93,1.53,4.56,3.64,4.75,1.31.11,2.64.02,4.13.02-.14.96-.27,1.85-.41,2.83h-22.41c.1-.89.2-1.77.31-2.68,1.39-.15,2.81-.21,4.19-.47,3.3-.62,5.61-2.69,7.05-5.57,2.45-4.89,4.72-9.88,7-14.85,2.37-5.17,4.67-10.37,6.97-15.58,2.82-6.38,5.59-12.78,8.4-19.17,1.64-3.72,3.33-7.42,4.98-11.14,2.36-5.32,4.69-10.66,7.04-15.99,1.56-3.54,3.14-7.07,4.72-10.61,1.34-3,2.81-5.95,3.97-9.01.51-1.33,1.23-1.42,2.48-1.23,3.75,34.36,7.51,68.77,11.28,103.35Zm-41.24-33.25h19.51c-1.1-12.18-2.2-24.25-3.29-36.32-.12-.04-.24-.08-.36-.11-5.28,12.13-10.56,24.26-15.86,36.44Z"/><path class="cls-1" d="m355.35,105.08c0,.09-.01.19-.02.28-.69.48-1.38.96-2.07,1.45-3.29,2.38-6.89,3.03-10.79,1.89-2.96-.87-4.37-3.11-5.12-5.9-.2-.76-.36-1.52-.6-2.53-2.33,3.23-5,5.63-8.36,7.12-2.4,1.06-4.91,1.79-7.6,1.79-3.04,0-6.06.03-9.01-.93-5.25-1.7-8.55-5.22-9.37-10.62-.47-3.1-.19-6.31.63-9.41,1.07-4.04,2.73-7.79,5.89-10.61,2.93-2.62,6.5-4.23,10.17-5.54,4.08-1.45,8.31-2.24,12.64-2.45,3.13-.15,6.26-.35,9.39-.45.67-.02.93-.31,1.02-.86.52-3.1,1.14-6.18,1.49-9.3.36-3.16.55-6.35.64-9.53.1-3.8-1.81-5.9-6.01-6.49-4.29-.61-8.42-.04-12.38,1.72-.82.36-1.63.82-2.3,1.41-1.13,1.01-1,1.79.2,2.64,1.62,1.15,3.15,2.5,3.42,4.53.4,3.07-.16,6.02-1.99,8.62-1.16,1.65-2.5,3.14-4.51,3.74-4.26,1.26-6.76-.54-7.5-4.46-1.16-6.17,1.06-11.32,5.66-15.35,4.3-3.77,9.54-5.48,15.23-5.68,2.67-.09,5.37-.07,8.01.25,4.14.51,7.92,2.1,11.31,4.55,3.14,2.27,4.72,5.34,4.8,9.21.08,3.58-.47,7.07-1.14,10.57-.77,3.99-1.32,8.02-2,12.02-.45,2.66-.96,5.31-1.44,7.97-.56,3.07-1.13,6.13-1.66,9.21-.28,1.61-.66,3.24-.64,4.86.01,1.04-.09,2.29.95,3.15.75.63,1.44.67,2.25.21,1.81-1.04,2.39-2.92,3.19-4.65.26-.56.4-1.18.6-1.76.49-1.42.78-1.54,2.18-.91-.97,3.78-2.66,7.2-5.16,10.21Zm-13.76-33.62c-.91.12-1.67.25-2.45.32-2.67.25-5.35.45-8.02.73-5.64.6-9.46,3.55-11.07,9.02-.81,2.74-1.31,5.58-1.9,8.38-.69,3.32-.9,6.67-.2,10.02.39,1.87,1.39,3.4,3.13,4.3,1.56.8,3.19.95,4.97.68,3.63-.55,6.41-2.28,8.48-5.27,2.3-3.32,3.28-7.1,4-10.99.64-3.52,1.28-7.04,1.91-10.57.38-2.14.74-4.29,1.14-6.62Z"/><path class="cls-1" d="m157.28,72.26c-.35,2.14-.71,4.11-1,6.08-.31,2.15-.5,4.31-.81,6.46-.58,3.95-1.21,7.9-.93,11.91.29,4.17,2.55,8.6,7.47,9.39,3.13.5,5.98-.28,8.67-1.56,3.37-1.6,6.26-3.89,8.71-6.81,2.73-3.25,4.9-6.79,6.72-10.58.34-.7.77-1.4.91-2.14.31-1.65,1.55-1.51,3.02-1.47-1.46,3.21-2.8,6.48-4.41,9.61-1.87,3.62-4.43,6.77-7.45,9.52-3.56,3.25-7.7,5.47-12.39,6.44-5.2,1.08-10.36.71-15.12-1.9-3.51-1.93-6.02-4.87-7.88-8.41-1.74-3.3-2.76-6.78-3.16-10.5-.53-4.92-.04-9.72.93-14.54,1-4.96,2.54-9.73,5.11-14.08,1.62-2.75,3.55-5.33,5.49-7.87,2.29-3,5.12-5.44,8.34-7.43,3.55-2.19,7.33-3.49,11.55-3.81,4.05-.3,7.71.53,10.99,2.8,3.33,2.3,5.46,5.63,7,9.29,1.61,3.81,2.61,7.79,2.43,11.98-.1,2.3-.13,4.6-.29,6.9-.02.26-.61.67-.95.68-2.28.06-4.56.03-6.84.03-8.28,0-16.55,0-24.83,0h-1.3Zm17.86-3.2c.36-2.36.59-4.65,1.06-6.9.95-4.51,1.33-9.05,1.09-13.64-.15-2.83-1.12-4.95-4.29-5.37-1.76-.23-3.66.06-5.41.47-1.04.24-2.25.96-2.79,1.83-1.36,2.19-2.77,4.47-3.45,6.92-1.31,4.73-2.12,9.6-3.12,14.41-.15.73-.18,1.48-.28,2.28h17.19Z"/><path class="cls-1" d="m226.38,45.69c-2.36.62-3.98,2.24-5.4,4.04-3,3.8-4.45,8.31-5.48,12.93-1.18,5.33-2.14,10.71-3.14,16.08-.85,4.56-1.59,9.14-2.42,13.71-.68,3.8-1.42,7.59-2.11,11.38-.07.37,0,.77,0,1.25h8.68q-.29,2.69-2.91,2.69h-27.11c-.44,0-.87,0-1.37,0,.15-.9.29-1.72.45-2.66h6.98c3.56-20.08,7.1-40.06,10.66-60.12h-6.9c.11-.92.2-1.74.32-2.75h22.19c-.5,2.85-1.01,5.75-1.52,8.64.06.04.12.07.18.11.63-.9,1.21-1.82,1.89-2.68,3-3.78,6.32-7.16,11.37-8.04,5.05-.88,8.65,1.57,8.77,7.02.09,4.02-.56,7.76-2.85,11.17-1.77,2.64-4.1,4.43-7.23,4.86-1.71.24-3.38-.43-4.46-1.91-1.8-2.46-2.12-5.24-1.64-8.2.45-2.75,1.34-5.28,3.07-7.53Z"/><path class="cls-1" d="m68.88,107.72c-.05-.28-.09-.56-.14-.84.11-.04.23-.07.34-.11.09.32.18.64.28.95h-.48Z"/><path class="cls-1" d="m69.6,105.19c-.1.27-.19.54-.29.81-.13-.06-.25-.13-.38-.19.13-.21.27-.42.4-.63.09,0,.17,0,.26.01Z"/><path class="cls-1" d="m83.67,3.95c-.07-.03-.11-.07-.14-.14.05.05.1.09.14.14Z"/><path class="cls-3" d="m372.85,45.01c.06.06.13.12.19.18-.06-.06-.13-.12-.19-.18Z"/><path class="cls-1" d="m51.67,61.97c.06.07.12.15.18.22-.06-.07-.12-.15-.18-.22Z"/><path class="cls-1" d="m51.17,60.76c.06.07.13.15.19.22-.06-.07-.13-.15-.19-.22Z"/><path class="cls-1" d="m47.73,56.68c.09.06.18.12.26.18-.09-.06-.18-.12-.26-.18Z"/><path class="cls-1" d="m57.12,42.81c-.06.07-.13.14-.19.21.06-.07.13-.14.19-.21Z"/><path class="cls-1" d="m52.07,48.87c-.07.05-.14.1-.2.15.07-.05.14-.1.2-.15Z"/><path class="cls-1" d="m52.55,48.63c-.07.05-.14.1-.2.15.07-.05.14-.1.2-.15Z"/><path class="cls-4" d="m703.97,13.63c2.32,1.21,1.86,3.64,2.8,5.69-.96,0-1.73.04-2.5-.03-.24-.02-.54-.3-.65-.54-.2-.43-.29-.9-.41-1.37-.63-2.49-1.07-2.8-3.78-2.58v4.43h-2.61V7.9c2.42,0,4.85-.11,7.26.05,1.13.07,1.9.97,2.04,2.19.15,1.32-.13,2.46-1.45,3.11-.21.11-.42.22-.71.37Zm-4.58-.7s1.99-.14,2.85-.39c1.07-.32,1.39-1.46.75-2.29-.49-.64-2.11-.84-3.07-.69-.58.09-.53,0-.53,3.37Z"/><path class="cls-4" d="m701.07,4.16c5.11,0,9.26,4.15,9.26,9.26s-4.15,9.26-9.26,9.26-9.26-4.15-9.26-9.26,4.15-9.26,9.26-9.26m0-2.5c-6.49,0-11.76,5.27-11.76,11.76s5.27,11.76,11.76,11.76,11.76-5.27,11.76-11.76-5.27-11.76-11.76-11.76h0Z"/></g></g></svg>