<svg width="241" height="91" viewBox="0 0 241 91" fill="none" xmlns="http://www.w3.org/2000/svg">
<path d="M8.592 9.232L5.248 16H3.776L1.344 5.328H3.52L5.008 12.592L8.528 5.328H9.68L11.232 12.592L14.688 5.328H16.928L11.568 16H10.096L8.592 9.232ZM21.9886 9.968L22.1006 9.072H24.0526L23.2046 16H21.2526L21.3646 15.104C21.0126 15.568 20.6126 15.808 20.4846 15.888C20.0686 16.128 19.6686 16.224 19.1886 16.224C18.3566 16.224 17.5726 16 16.9166 15.344C16.2446 14.672 15.9886 13.824 15.9886 12.896C15.9886 11.648 16.4046 10.624 17.0606 9.936C17.6206 9.36 18.5166 8.848 19.7966 8.848C20.2926 8.848 20.7246 8.944 21.1726 9.184C21.5566 9.392 21.7966 9.648 21.9886 9.968ZM20.0686 10.576C19.5726 10.576 19.1086 10.72 18.7086 11.072C18.2606 11.488 18.0206 12.096 18.0206 12.672C18.0206 13.28 18.2446 13.76 18.5486 14.048C18.8366 14.32 19.2526 14.496 19.8286 14.496C20.2126 14.496 20.7406 14.416 21.2046 14C21.6686 13.584 21.8926 12.928 21.8926 12.336C21.8926 11.84 21.7006 11.408 21.4126 11.104C21.1886 10.864 20.7726 10.576 20.0686 10.576ZM28.8409 10.736H27.4969L26.8569 16H24.9049L25.5449 10.736H24.7769L24.9849 9.072H25.7529L26.0409 6.704H27.9929L27.7049 9.072H29.0489L28.8409 10.736ZM35.1374 9.264L34.8974 11.184C34.6094 10.912 34.0974 10.576 33.2494 10.576C32.8014 10.576 32.2574 10.672 31.8094 11.12C31.3774 11.536 31.1694 12.176 31.1694 12.704C31.1694 13.2 31.3454 13.664 31.6494 13.968C31.9534 14.288 32.4334 14.496 32.9614 14.496C33.3774 14.496 34.0334 14.368 34.5614 13.888L34.3374 15.792C33.6974 16.16 32.9774 16.224 32.5134 16.224C31.5214 16.224 30.5934 15.872 29.9854 15.248C29.4894 14.736 29.1214 13.984 29.1214 12.912C29.1214 11.696 29.5534 10.704 30.2414 10C31.0734 9.152 32.0494 8.848 33.2174 8.848C33.8254 8.848 34.4334 8.928 35.1374 9.264ZM35.6161 16L37.0561 4.336H39.0081L38.3041 9.968C38.4961 9.664 38.7681 9.392 39.1521 9.168C39.5521 8.944 39.9521 8.848 40.4961 8.848C41.4241 8.848 42.0001 9.136 42.3521 9.488C42.8001 9.952 42.8961 10.528 42.8961 11.008C42.8961 11.392 42.8321 11.712 42.7681 12.192L42.3041 16H40.3521L40.7521 12.784C40.7681 12.64 40.8481 11.936 40.8481 11.68C40.8481 11.2 40.6721 10.928 40.5281 10.8C40.3361 10.624 40.0481 10.512 39.6961 10.512C39.0721 10.512 38.7201 10.8 38.5921 10.928C38.2241 11.296 38.0641 11.952 38.0001 12.464L37.5681 16H35.6161ZM47.3526 16L50.6646 5.328H52.1686L54.1526 12.112L57.9606 5.328H59.4646L59.9286 16H57.8486L57.6886 9.424L53.9766 16H53.3366L51.3846 9.424L49.4966 16H47.3526ZM66.7305 13.744L68.4105 14.144C68.0585 14.864 67.4985 15.44 66.9385 15.76C66.2505 16.144 65.4825 16.224 64.8585 16.224C63.9305 16.224 63.0185 16.048 62.2825 15.264C61.8985 14.864 61.4505 14.16 61.4505 13.024C61.4505 11.824 61.8825 10.624 62.6505 9.872C63.5305 8.992 64.5705 8.848 65.4185 8.848C66.2505 8.848 67.1145 9.008 67.7865 9.648C68.5385 10.368 68.6825 11.312 68.6825 12.16C68.6825 12.448 68.6825 12.656 68.6505 12.864H63.4665C63.3865 13.504 63.5785 13.968 63.8665 14.256C64.2185 14.624 64.6505 14.688 65.0025 14.688C65.2425 14.688 65.6905 14.672 66.0585 14.464C66.3465 14.288 66.5865 14 66.7305 13.744ZM63.6905 11.616H66.9705C66.9545 11.216 66.7785 10.832 66.5385 10.608C66.2665 10.352 65.8505 10.224 65.4505 10.224C64.9225 10.224 64.5385 10.432 64.2665 10.672C64.0265 10.896 63.8025 11.232 63.6905 11.616ZM71.0724 4.336H73.0244L71.5844 16H69.6324L71.0724 4.336ZM74.1016 9.072H76.0536L75.2056 16H73.2536L74.1016 9.072ZM74.2616 6.288C74.2616 5.984 74.3736 5.648 74.6456 5.376C74.9656 5.04 75.3176 4.976 75.5736 4.976C75.8776 4.976 76.1336 5.088 76.3096 5.264C76.5016 5.456 76.6136 5.728 76.6136 6.016C76.6136 6.256 76.5336 6.608 76.2296 6.912C75.9416 7.2 75.6056 7.312 75.3016 7.312C74.9976 7.312 74.7576 7.2 74.5656 7.024C74.3736 6.832 74.2616 6.608 74.2616 6.288ZM76.9061 16L77.7541 9.072H79.7061L79.5941 9.968C79.7861 9.664 80.0581 9.392 80.4421 9.168C80.8421 8.944 81.2421 8.848 81.7861 8.848C82.7141 8.848 83.2901 9.136 83.6421 9.488C84.0901 9.952 84.1861 10.528 84.1861 11.008C84.1861 11.392 84.1221 11.712 84.0581 12.192L83.5941 16H81.6421L82.0421 12.784C82.0581 12.64 82.1381 11.936 82.1381 11.68C82.1381 11.2 81.9621 10.928 81.8181 10.8C81.6741 10.656 81.4021 10.512 80.9701 10.512C80.4101 10.512 80.0741 10.736 79.8821 10.928C79.5141 11.312 79.3541 11.968 79.2901 12.464L78.8581 16H76.9061ZM91.4042 9.968L92.1082 4.336H94.0602L92.6202 16H90.6682L90.7802 15.104C90.7642 15.136 90.3962 15.632 89.9162 15.904C89.5322 16.112 89.0042 16.224 88.5082 16.224C87.6602 16.224 86.9562 15.984 86.3642 15.392C85.8842 14.912 85.4042 14.112 85.4042 12.816C85.4042 11.552 85.8682 10.512 86.4922 9.888C87.0842 9.28 88.0762 8.848 89.0362 8.848C89.5322 8.848 90.1082 8.992 90.4762 9.168C90.6682 9.264 91.0682 9.488 91.4042 9.968ZM89.4522 10.576C88.8922 10.576 88.4282 10.736 88.0602 11.104C87.6442 11.504 87.4362 12.064 87.4362 12.64C87.4362 13.264 87.6602 13.76 87.9802 14.048C88.2362 14.288 88.6522 14.496 89.2442 14.496C89.8362 14.496 90.3482 14.272 90.6842 13.936C91.0362 13.584 91.3242 12.944 91.3242 12.336C91.3242 11.792 91.1322 11.376 90.8122 11.072C90.4122 10.704 89.9322 10.576 89.4522 10.576ZM100.369 9.968L100.481 9.072H102.433L101.585 16H99.6333L99.7453 15.104C99.3933 15.568 98.9933 15.808 98.8653 15.888C98.4493 16.128 98.0493 16.224 97.5693 16.224C96.7373 16.224 95.9533 16 95.2973 15.344C94.6253 14.672 94.3693 13.824 94.3693 12.896C94.3693 11.648 94.7853 10.624 95.4413 9.936C96.0013 9.36 96.8973 8.848 98.1773 8.848C98.6733 8.848 99.1053 8.944 99.5533 9.184C99.9373 9.392 100.177 9.648 100.369 9.968ZM98.4493 10.576C97.9533 10.576 97.4893 10.72 97.0893 11.072C96.6413 11.488 96.4013 12.096 96.4013 12.672C96.4013 13.28 96.6253 13.76 96.9293 14.048C97.2173 14.32 97.6333 14.496 98.2093 14.496C98.5933 14.496 99.1213 14.416 99.5853 14C100.049 13.584 100.273 12.928 100.273 12.336C100.273 11.84 100.081 11.408 99.7933 11.104C99.5693 10.864 99.1533 10.576 98.4493 10.576ZM112.316 9.552L111.308 10.752C111.164 10.608 111.02 10.496 110.812 10.4C110.604 10.304 110.428 10.256 110.156 10.256C110.076 10.256 109.692 10.272 109.5 10.48C109.436 10.56 109.356 10.688 109.356 10.896C109.356 11.04 109.388 11.152 109.5 11.248C109.612 11.344 109.756 11.408 110.06 11.504L110.652 11.696C111.036 11.824 111.468 12.064 111.724 12.32C112.124 12.736 112.204 13.264 112.204 13.632C112.204 14.432 111.884 15.008 111.484 15.408C110.764 16.128 109.852 16.224 109.212 16.224C108.508 16.224 107.98 16.08 107.58 15.888C107.228 15.712 106.812 15.376 106.524 15.072L107.692 13.888C107.852 14.112 108.076 14.32 108.332 14.464C108.572 14.592 108.86 14.688 109.132 14.688C109.388 14.688 109.708 14.624 109.884 14.48C110.044 14.352 110.156 14.128 110.156 13.872C110.156 13.744 110.124 13.584 109.98 13.44C109.836 13.312 109.596 13.216 109.292 13.104L108.812 12.912C108.524 12.8 108.188 12.64 107.9 12.352C107.58 12.032 107.436 11.696 107.436 11.168C107.436 10.48 107.724 9.904 108.124 9.52C108.524 9.136 109.164 8.848 110.092 8.848C110.54 8.848 111.052 8.912 111.452 9.072C111.756 9.184 112.092 9.392 112.316 9.552ZM113.106 16L114.546 4.336H116.498L115.794 9.968C115.986 9.664 116.258 9.392 116.642 9.168C117.042 8.944 117.442 8.848 117.986 8.848C118.914 8.848 119.49 9.136 119.842 9.488C120.29 9.952 120.386 10.528 120.386 11.008C120.386 11.392 120.322 11.712 120.258 12.192L119.794 16H117.842L118.242 12.784C118.258 12.64 118.338 11.936 118.338 11.68C118.338 11.2 118.162 10.928 118.018 10.8C117.826 10.624 117.538 10.512 117.186 10.512C116.562 10.512 116.21 10.8 116.082 10.928C115.714 11.296 115.554 11.952 115.49 12.464L115.058 16H113.106ZM127.448 9.968L127.56 9.072H129.512L128.664 16H126.712L126.824 15.104C126.472 15.568 126.072 15.808 125.944 15.888C125.528 16.128 125.128 16.224 124.648 16.224C123.816 16.224 123.032 16 122.376 15.344C121.704 14.672 121.448 13.824 121.448 12.896C121.448 11.648 121.864 10.624 122.52 9.936C123.08 9.36 123.976 8.848 125.256 8.848C125.752 8.848 126.184 8.944 126.632 9.184C127.016 9.392 127.256 9.648 127.448 9.968ZM125.528 10.576C125.032 10.576 124.568 10.72 124.168 11.072C123.72 11.488 123.48 12.096 123.48 12.672C123.48 13.28 123.704 13.76 124.008 14.048C124.296 14.32 124.712 14.496 125.288 14.496C125.672 14.496 126.2 14.416 126.664 14C127.128 13.584 127.352 12.928 127.352 12.336C127.352 11.84 127.16 11.408 126.872 11.104C126.648 10.864 126.232 10.576 125.528 10.576ZM130.364 16L131.212 9.072H133.164L133.036 10.064C133.228 9.728 133.532 9.376 133.9 9.152C134.316 8.896 134.7 8.848 135.116 8.848C135.468 8.848 135.724 8.896 136.028 9.008L135.452 10.752C135.228 10.64 134.988 10.576 134.7 10.576C134.188 10.576 133.772 10.768 133.484 11.056C133.052 11.488 132.764 12.352 132.684 13.056L132.316 16H130.364ZM141.33 13.744L143.01 14.144C142.658 14.864 142.098 15.44 141.538 15.76C140.85 16.144 140.082 16.224 139.458 16.224C138.53 16.224 137.618 16.048 136.882 15.264C136.498 14.864 136.05 14.16 136.05 13.024C136.05 11.824 136.482 10.624 137.25 9.872C138.13 8.992 139.17 8.848 140.018 8.848C140.85 8.848 141.714 9.008 142.386 9.648C143.138 10.368 143.282 11.312 143.282 12.16C143.282 12.448 143.282 12.656 143.25 12.864H138.066C137.986 13.504 138.178 13.968 138.466 14.256C138.818 14.624 139.25 14.688 139.602 14.688C139.842 14.688 140.29 14.672 140.658 14.464C140.946 14.288 141.186 14 141.33 13.744ZM138.29 11.616H141.57C141.554 11.216 141.378 10.832 141.138 10.608C140.866 10.352 140.45 10.224 140.05 10.224C139.522 10.224 139.138 10.432 138.866 10.672C138.626 10.896 138.402 11.232 138.29 11.616ZM147.806 16L149.246 4.336H151.198L150.494 9.968C150.686 9.664 150.958 9.392 151.342 9.168C151.742 8.944 152.142 8.848 152.686 8.848C153.614 8.848 154.19 9.136 154.542 9.488C154.99 9.952 155.086 10.528 155.086 11.008C155.086 11.392 155.022 11.712 154.958 12.192L154.494 16H152.542L152.942 12.784C152.958 12.64 153.038 11.936 153.038 11.68C153.038 11.2 152.862 10.928 152.718 10.8C152.526 10.624 152.238 10.512 151.886 10.512C151.262 10.512 150.91 10.8 150.782 10.928C150.414 11.296 150.254 11.952 150.19 12.464L149.758 16H147.806ZM160.516 8.848C161.876 8.848 162.724 9.312 163.252 9.84C163.7 10.304 164.148 11.056 164.148 12.144C164.148 13.024 163.876 14.128 162.916 15.056C162.004 15.92 160.964 16.224 159.732 16.224C158.74 16.224 157.812 16.016 157.06 15.264C156.548 14.768 156.148 14 156.148 12.912C156.148 11.776 156.644 10.704 157.348 10.016C157.908 9.472 158.9 8.848 160.516 8.848ZM159.924 14.496C160.452 14.496 161.028 14.304 161.444 13.888C161.844 13.488 162.1 12.88 162.1 12.336C162.1 11.904 161.924 11.376 161.588 11.056C161.268 10.752 160.788 10.576 160.324 10.576C159.78 10.576 159.236 10.784 158.852 11.136C158.372 11.584 158.164 12.24 158.164 12.784C158.164 13.2 158.34 13.696 158.644 14C158.964 14.32 159.476 14.496 159.924 14.496ZM170.624 11.952L168.288 16H167.328L164.672 9.072H166.8L168.128 13.072L170.464 9.072H171.376L172.736 13.072L175.056 9.072H177.28L172.928 16H171.968L170.624 11.952ZM6.832 32.952L4.496 37H3.536L0.88 30.072H3.008L4.336 34.072L6.672 30.072H7.584L8.944 34.072L11.264 30.072H13.488L9.136 37H8.176L6.832 32.952ZM18.7999 34.744L20.4799 35.144C20.1279 35.864 19.5679 36.44 19.0079 36.76C18.3199 37.144 17.5519 37.224 16.9279 37.224C15.9999 37.224 15.0879 37.048 14.3519 36.264C13.9679 35.864 13.5199 35.16 13.5199 34.024C13.5199 32.824 13.9519 31.624 14.7199 30.872C15.5999 29.992 16.6399 29.848 17.4879 29.848C18.3199 29.848 19.1839 30.008 19.8559 30.648C20.6079 31.368 20.7519 32.312 20.7519 33.16C20.7519 33.448 20.7519 33.656 20.7199 33.864H15.5359C15.4559 34.504 15.6479 34.968 15.9359 35.256C16.2879 35.624 16.7199 35.688 17.0719 35.688C17.3119 35.688 17.7599 35.672 18.1279 35.464C18.4159 35.288 18.6559 35 18.7999 34.744ZM15.7599 32.616H19.0399C19.0239 32.216 18.8479 31.832 18.6079 31.608C18.3359 31.352 17.9199 31.224 17.5199 31.224C16.9919 31.224 16.6079 31.432 16.3359 31.672C16.0959 31.896 15.8719 32.232 15.7599 32.616ZM30.7321 30.552L29.7241 31.752C29.5801 31.608 29.4361 31.496 29.2281 31.4C29.0201 31.304 28.8441 31.256 28.5721 31.256C28.4921 31.256 28.1081 31.272 27.9161 31.48C27.8521 31.56 27.7721 31.688 27.7721 31.896C27.7721 32.04 27.8041 32.152 27.9161 32.248C28.0281 32.344 28.1721 32.408 28.4761 32.504L29.0681 32.696C29.4521 32.824 29.8841 33.064 30.1401 33.32C30.5401 33.736 30.6201 34.264 30.6201 34.632C30.6201 35.432 30.3001 36.008 29.9001 36.408C29.1801 37.128 28.2681 37.224 27.6281 37.224C26.9241 37.224 26.3961 37.08 25.9961 36.888C25.6441 36.712 25.2281 36.376 24.9401 36.072L26.1081 34.888C26.2681 35.112 26.4921 35.32 26.7481 35.464C26.9881 35.592 27.2761 35.688 27.5481 35.688C27.8041 35.688 28.1241 35.624 28.3001 35.48C28.4601 35.352 28.5721 35.128 28.5721 34.872C28.5721 34.744 28.5401 34.584 28.3961 34.44C28.2521 34.312 28.0121 34.216 27.7081 34.104L27.2281 33.912C26.9401 33.8 26.6041 33.64 26.3161 33.352C25.9961 33.032 25.8521 32.696 25.8521 32.168C25.8521 31.48 26.1401 30.904 26.5401 30.52C26.9401 30.136 27.5801 29.848 28.5081 29.848C28.9561 29.848 29.4681 29.912 29.8681 30.072C30.1721 30.184 30.5081 30.392 30.7321 30.552ZM36.8824 34.744L38.5624 35.144C38.2104 35.864 37.6504 36.44 37.0904 36.76C36.4024 37.144 35.6344 37.224 35.0104 37.224C34.0824 37.224 33.1704 37.048 32.4344 36.264C32.0504 35.864 31.6024 35.16 31.6024 34.024C31.6024 32.824 32.0344 31.624 32.8024 30.872C33.6824 29.992 34.7224 29.848 35.5704 29.848C36.4024 29.848 37.2664 30.008 37.9384 30.648C38.6904 31.368 38.8344 32.312 38.8344 33.16C38.8344 33.448 38.8344 33.656 38.8024 33.864H33.6184C33.5384 34.504 33.7304 34.968 34.0184 35.256C34.3704 35.624 34.8024 35.688 35.1544 35.688C35.3944 35.688 35.8424 35.672 36.2104 35.464C36.4984 35.288 36.7384 35 36.8824 34.744ZM33.8424 32.616H37.1224C37.1064 32.216 36.9304 31.832 36.6904 31.608C36.4184 31.352 36.0024 31.224 35.6024 31.224C35.0744 31.224 34.6904 31.432 34.4184 31.672C34.1784 31.896 33.9544 32.232 33.8424 32.616ZM39.7843 37L40.6323 30.072H42.5843L42.4563 31.064C42.6483 30.728 42.9523 30.376 43.3203 30.152C43.7363 29.896 44.1203 29.848 44.5363 29.848C44.8883 29.848 45.1443 29.896 45.4483 30.008L44.8723 31.752C44.6483 31.64 44.4083 31.576 44.1203 31.576C43.6083 31.576 43.1923 31.768 42.9043 32.056C42.4723 32.488 42.1843 33.352 42.1043 34.056L41.7363 37H39.7843ZM45.8419 30.072H47.9539L49.2979 33.976L51.6019 30.072H53.8419L49.4579 37H48.5299L45.8419 30.072ZM58.9961 34.744L60.6761 35.144C60.3241 35.864 59.7641 36.44 59.2041 36.76C58.5161 37.144 57.7481 37.224 57.1241 37.224C56.1961 37.224 55.2841 37.048 54.5481 36.264C54.1641 35.864 53.7161 35.16 53.7161 34.024C53.7161 32.824 54.1481 31.624 54.9161 30.872C55.7961 29.992 56.8361 29.848 57.6841 29.848C58.5161 29.848 59.3801 30.008 60.0521 30.648C60.8041 31.368 60.9481 32.312 60.9481 33.16C60.9481 33.448 60.9481 33.656 60.9161 33.864H55.7321C55.6521 34.504 55.8441 34.968 56.1321 35.256C56.4841 35.624 56.9161 35.688 57.2681 35.688C57.5081 35.688 57.9561 35.672 58.3241 35.464C58.6121 35.288 58.8521 35 58.9961 34.744ZM55.9561 32.616H59.2361C59.2201 32.216 59.0441 31.832 58.8041 31.608C58.5321 31.352 58.1161 31.224 57.7161 31.224C57.1881 31.224 56.8041 31.432 56.5321 31.672C56.2921 31.896 56.0681 32.232 55.9561 32.616ZM64.8804 40.664L68.0004 35.96L65.4244 30.072H67.6324L69.2964 34.008L71.6964 30.072H73.9684L67.0884 40.664H64.8804ZM78.3698 29.848C79.7298 29.848 80.5778 30.312 81.1058 30.84C81.5538 31.304 82.0018 32.056 82.0018 33.144C82.0018 34.024 81.7298 35.128 80.7698 36.056C79.8578 36.92 78.8178 37.224 77.5858 37.224C76.5938 37.224 75.6658 37.016 74.9138 36.264C74.4018 35.768 74.0018 35 74.0018 33.912C74.0018 32.776 74.4978 31.704 75.2018 31.016C75.7618 30.472 76.7538 29.848 78.3698 29.848ZM77.7778 35.496C78.3058 35.496 78.8818 35.304 79.2978 34.888C79.6978 34.488 79.9538 33.88 79.9538 33.336C79.9538 32.904 79.7778 32.376 79.4418 32.056C79.1218 31.752 78.6418 31.576 78.1778 31.576C77.6338 31.576 77.0898 31.784 76.7058 32.136C76.2258 32.584 76.0178 33.24 76.0178 33.784C76.0178 34.2 76.1938 34.696 76.4978 35C76.8178 35.32 77.3298 35.496 77.7778 35.496ZM83.782 30.072H85.734L85.318 33.528C85.254 34.088 85.238 34.264 85.238 34.36C85.238 34.808 85.382 35.064 85.526 35.208C85.734 35.432 86.102 35.56 86.502 35.56C86.998 35.56 87.35 35.384 87.574 35.176C87.942 34.824 88.022 34.344 88.102 33.72L88.55 30.072H90.502L90.038 33.896C89.878 35.176 89.574 36.168 88.534 36.76C87.91 37.112 87.126 37.224 86.47 37.224C85.606 37.224 84.742 37.032 84.182 36.632C83.814 36.36 83.254 35.784 83.254 34.728C83.254 34.456 83.286 34.136 83.35 33.64L83.782 30.072ZM91.3198 36.136C91.3198 35.768 91.4798 35.384 91.7358 35.128C91.9918 34.872 92.3438 34.712 92.7438 34.712C93.0958 34.712 93.3678 34.856 93.5438 35.032C93.7998 35.288 93.8478 35.608 93.8478 35.832C93.8478 36.248 93.7038 36.584 93.4478 36.824C93.1598 37.112 92.8238 37.208 92.4558 37.208C92.1358 37.208 91.8638 37.128 91.6238 36.888C91.3998 36.664 91.3198 36.392 91.3198 36.136Z" fill="white"/>
<path d="M112.5 34C111.672 34 111 34.6716 111 35.5C111 36.3284 111.672 37 112.5 37V34ZM155.165 90.2463C155.854 90.7073 156.785 90.523 157.246 89.8347L164.758 78.6179C165.219 77.9295 165.035 76.9978 164.347 76.5369C163.659 76.0759 162.727 76.2602 162.266 76.9485L155.588 86.919L145.618 80.2415C144.93 79.7805 143.998 79.9648 143.537 80.6531C143.076 81.3414 143.26 82.2731 143.948 82.7341L155.165 90.2463ZM112.5 37C118.164 37 126.41 38.8844 134.352 46.2849C142.307 53.6967 150.07 66.7496 154.529 89.2911L157.471 88.7089C152.93 65.7504 144.943 52.0533 136.398 44.0901C127.84 36.1156 118.836 34 112.5 34V37Z" fill="white"/>
</svg>
