<svg width="121" height="118" viewBox="0 0 121 118" fill="none" xmlns="http://www.w3.org/2000/svg">
<g id="Layer_2" clip-path="url(#clip0_1_975)">
<path id="Vector" d="M61.8341 0C29.1859 0 2.72079 26.4143 2.72079 59C2.72079 91.5857 29.1859 118 61.8341 118C94.4824 118 120.947 91.5857 120.947 59C120.947 26.4143 94.4824 0 61.8341 0ZM61.8341 105.646C36.0209 105.646 15.0989 84.7638 15.0989 59C15.0989 33.2362 36.0267 12.3544 61.8341 12.3544C87.6415 12.3544 108.569 33.2362 108.569 59C108.569 84.7638 87.6474 105.646 61.8341 105.646Z" fill="#00192E"/>
<path id="Vector_2" d="M61.8341 105.646C87.6452 105.646 108.569 84.7616 108.569 58.9999C108.569 33.2383 87.6452 12.3544 61.8341 12.3544C36.023 12.3544 15.0989 33.2383 15.0989 58.9999C15.0989 84.7616 36.023 105.646 61.8341 105.646Z" fill="white"/>
<g id="Group">
<path id="Vector_3" d="M104.248 5.29247C98.9862 5.86683 81.0062 7.58402 65.3162 23.6248C65.3162 23.6248 54.6057 24.293 50.6832 24.8673C45.0226 20.1494 7.51821 15.9883 1.23518 27.827C-2.30563 32.5039 28.3051 35.4635 28.3051 35.4635C28.3051 35.4635 29.3561 35.8445 28.8805 36.3251C22.7384 38.1302 12.8147 40.58 4.98151 42.8422C3.51938 47.9821 2.72666 53.4032 2.72666 59.0061C2.72666 76.0198 9.94334 91.3456 21.4818 102.112L46.6139 81.863C49.6204 89.476 48.6867 86.8973 74.3121 103.63C74.3121 103.63 76.0326 112.409 80.8183 115.849C84.6879 118.44 103.425 116.828 104.159 108.781C106.455 95.032 96.5082 58.1856 91.153 55.5131C92.4154 48.3454 87.618 41.5294 79.6732 33.5529C79.6732 33.5529 113.86 17.6762 111.429 6.24777C111.27 5.4976 109.515 4.71812 104.253 5.29247H104.248Z" fill="white"/>
<path id="Vector_4" d="M111.423 6.24758C111.411 6.20656 111.4 6.16553 111.382 6.12451C111.376 6.11279 111.37 6.10106 111.364 6.08348C111.347 6.05418 111.329 6.02487 111.306 5.99557C111.294 5.98385 111.288 5.97213 111.276 5.95455C111.247 5.91938 111.212 5.88422 111.171 5.84319L111.159 5.83147C111.112 5.79044 111.059 5.75528 111 5.71426C110.983 5.70253 110.965 5.69081 110.942 5.67909C110.895 5.64979 110.848 5.62634 110.795 5.59704C110.771 5.58532 110.748 5.5736 110.724 5.56188C110.66 5.53257 110.589 5.50327 110.519 5.47983C110.501 5.47397 110.489 5.4681 110.472 5.46224C110.378 5.43294 110.278 5.39778 110.172 5.36847C110.143 5.36261 110.114 5.35089 110.078 5.34503C109.996 5.32159 109.908 5.304 109.82 5.28642C109.779 5.28056 109.738 5.26884 109.697 5.26298C109.597 5.2454 109.485 5.22781 109.374 5.21023C109.344 5.21023 109.315 5.19851 109.286 5.19851C109.139 5.18093 108.986 5.16335 108.828 5.14576C108.787 5.14576 108.745 5.1399 108.704 5.13404C108.575 5.12232 108.44 5.11646 108.305 5.1106C108.246 5.1106 108.193 5.1106 108.135 5.10474C107.988 5.10474 107.841 5.09888 107.683 5.09302C107.636 5.09302 107.589 5.09302 107.542 5.09302C107.524 5.09302 107.506 5.09302 107.489 5.09302C107.377 5.09302 107.248 5.09302 107.131 5.09888C107.031 5.09888 106.931 5.09888 106.825 5.09888C106.679 5.09888 106.514 5.1106 106.356 5.11646C106.25 5.11646 106.15 5.12232 106.044 5.12818C105.862 5.1399 105.663 5.15162 105.469 5.16921C105.375 5.17507 105.287 5.18093 105.187 5.18679C104.888 5.21023 104.582 5.23954 104.253 5.2747C98.9921 5.84905 81.012 7.56625 65.3221 23.6071C65.3221 23.6071 54.6116 24.2752 50.6891 24.8496C50.601 24.7734 50.5012 24.6972 50.3955 24.6268C50.3603 24.6034 50.3191 24.58 50.2839 24.5565C50.2076 24.5038 50.1312 24.4569 50.049 24.4041C50.0021 24.3748 49.9492 24.3455 49.9022 24.3162C49.8259 24.2693 49.7437 24.2225 49.6615 24.1814C49.6086 24.1521 49.544 24.1228 49.4912 24.0935C49.409 24.0525 49.3209 24.0056 49.2328 23.9646C49.1682 23.9353 49.1036 23.906 49.0391 23.8767C48.9451 23.8356 48.857 23.7888 48.7572 23.7477C48.6867 23.7184 48.6163 23.6891 48.5458 23.6598C48.446 23.6188 48.3462 23.5778 48.2463 23.5367C48.17 23.5074 48.0937 23.4781 48.0173 23.4488C47.9116 23.4078 47.8059 23.3668 47.6944 23.3258C47.618 23.2965 47.5358 23.2672 47.4536 23.2379C47.3362 23.1968 47.2246 23.1558 47.1013 23.1148C47.0191 23.0855 46.931 23.0562 46.8429 23.0327C46.7196 22.9917 46.5963 22.9507 46.4671 22.9096C46.379 22.8803 46.291 22.8569 46.2029 22.8276C46.0737 22.7866 45.9386 22.7455 45.8036 22.7104C45.7155 22.6869 45.6216 22.6576 45.5276 22.6342C45.3867 22.5932 45.2457 22.558 45.1048 22.517C45.0109 22.4935 44.9169 22.4642 44.8171 22.4408C44.6703 22.3998 44.5235 22.3646 44.3708 22.3236C44.2769 22.3001 44.177 22.2767 44.0772 22.2532C43.9187 22.2122 43.766 22.1771 43.6016 22.136C43.5018 22.1126 43.4078 22.0891 43.308 22.0657C43.1436 22.0305 42.9792 21.9895 42.8089 21.9543C42.709 21.9309 42.6092 21.9133 42.5094 21.8899C42.3391 21.8547 42.1688 21.8195 41.9927 21.7844C41.887 21.7609 41.7871 21.7434 41.6815 21.7199C41.5053 21.6848 41.3291 21.6496 41.1471 21.6144C41.0414 21.5968 40.9416 21.5734 40.8359 21.5558C40.648 21.5207 40.466 21.4855 40.278 21.4562C40.1724 21.4386 40.0725 21.421 39.9668 21.4034C39.7731 21.3683 39.5793 21.339 39.3855 21.3038C39.2798 21.2862 39.18 21.2686 39.0743 21.2511C38.8746 21.2218 38.675 21.1866 38.4753 21.1573C38.3696 21.1397 38.264 21.1221 38.1583 21.1104C37.9527 21.0811 37.7413 21.0518 37.53 21.0166C37.4301 21.0049 37.3244 20.9873 37.2246 20.9756C37.0073 20.9463 36.7901 20.917 36.5728 20.8877C36.473 20.876 36.3732 20.8584 36.2675 20.8467C36.0443 20.8174 35.8212 20.7939 35.5981 20.7646C35.4982 20.7529 35.4043 20.7412 35.3045 20.7295C35.0755 20.7002 34.8406 20.6767 34.6116 20.6533C34.5176 20.6415 34.4178 20.6298 34.3238 20.624C34.0831 20.6005 33.8423 20.5771 33.5957 20.5536C33.5076 20.5478 33.4196 20.536 33.3315 20.5302C33.079 20.5067 32.8206 20.4833 32.5623 20.4599C32.48 20.454 32.4037 20.4481 32.3215 20.4364C32.0396 20.413 31.7578 20.3895 31.4759 20.3719C31.4231 20.3719 31.3644 20.3661 31.3115 20.3602C30.9886 20.3368 30.6656 20.3133 30.3368 20.2958C30.3191 20.2958 30.3015 20.2958 30.2839 20.2958C29.591 20.2547 28.8981 20.2196 28.1994 20.1961C28.1465 20.1961 28.0937 20.1961 28.0467 20.1961C27.7531 20.1844 27.4595 20.1785 27.1659 20.1668C27.0543 20.1668 26.9428 20.1668 26.8371 20.161C26.6022 20.161 26.3673 20.1492 26.1324 20.1492C25.9915 20.1492 25.8506 20.1492 25.7096 20.1492C25.51 20.1492 25.3045 20.1492 25.1048 20.1492C25.0813 20.1492 25.0578 20.1492 25.0344 20.1492C24.8582 20.1492 24.682 20.1492 24.5059 20.1492C24.3767 20.1492 24.2416 20.1492 24.1125 20.1492C23.8834 20.1492 23.6544 20.1551 23.4254 20.161C23.3256 20.161 23.2199 20.161 23.1201 20.161C22.8441 20.1668 22.5622 20.1785 22.2863 20.1844C22.2334 20.1844 22.1806 20.1844 22.1219 20.1844C21.4524 20.2078 20.7889 20.243 20.1254 20.284C20.1019 20.284 20.0784 20.284 20.049 20.284C19.7496 20.3016 19.4442 20.3251 19.1506 20.3485C19.0802 20.3485 19.0097 20.3602 18.9392 20.3661C18.6867 20.3895 18.4342 20.4071 18.1817 20.4306C18.0937 20.4364 18.0115 20.4481 17.9234 20.454C17.6885 20.4774 17.4536 20.5009 17.2246 20.5302C17.1307 20.5419 17.0308 20.5536 16.9369 20.5654C16.7196 20.5888 16.4965 20.6181 16.2792 20.6474C16.1794 20.6591 16.0796 20.6767 15.9739 20.6884C15.7625 20.7177 15.5511 20.747 15.3456 20.7763C15.2399 20.7939 15.1401 20.8056 15.0402 20.8232C14.8347 20.8525 14.6351 20.8877 14.4295 20.9229C14.3238 20.9404 14.2182 20.958 14.1125 20.9756C13.9187 21.0108 13.7249 21.0459 13.5311 21.0811C13.4196 21.1045 13.3139 21.1221 13.2082 21.1456C13.0203 21.1807 12.8382 21.2218 12.6503 21.2569C12.5388 21.2804 12.4331 21.3038 12.3215 21.3272C12.1395 21.3683 11.9633 21.4093 11.7871 21.4503C11.6814 21.4738 11.5699 21.5031 11.4642 21.5265C11.288 21.5675 11.1177 21.6144 10.9475 21.6555C10.8418 21.6848 10.7302 21.7141 10.6245 21.7434C10.4542 21.7902 10.2898 21.8371 10.1254 21.884C10.0197 21.9133 9.91398 21.9485 9.80828 21.9778C9.64974 22.0247 9.48533 22.0774 9.32678 22.1302C9.22109 22.1653 9.11539 22.2005 9.01557 22.2357C8.86289 22.2884 8.71022 22.3412 8.55755 22.3939C8.45185 22.4291 8.35203 22.4701 8.25221 22.5053C8.10541 22.558 7.95861 22.6166 7.81181 22.6752C7.71198 22.7162 7.61216 22.7573 7.51234 22.7983C7.37141 22.8569 7.23048 22.9155 7.09543 22.9741C6.9956 23.0151 6.90165 23.062 6.8077 23.1031C6.67264 23.1675 6.53759 23.2261 6.4084 23.2906C6.31445 23.3375 6.2205 23.3844 6.12655 23.4254C5.99736 23.4899 5.87405 23.5543 5.74487 23.6247C5.65092 23.6715 5.56284 23.7243 5.47476 23.7712C5.35144 23.8415 5.234 23.9118 5.11656 23.9822C5.02848 24.0349 4.9404 24.0877 4.8582 24.1404C4.74076 24.2107 4.63506 24.2869 4.52349 24.3573C4.44129 24.41 4.35908 24.4686 4.27687 24.5213C4.17117 24.5975 4.06548 24.6737 3.95978 24.7558C3.88345 24.8144 3.80124 24.873 3.73077 24.9316C3.63095 25.0137 3.53113 25.0957 3.4313 25.1778C3.36084 25.2364 3.2845 25.295 3.21404 25.3594C3.12009 25.4415 3.02614 25.5294 2.93806 25.6173C2.87346 25.6818 2.803 25.7404 2.73841 25.8048C2.65033 25.8928 2.56225 25.9865 2.48004 26.0803C2.42132 26.1448 2.3626 26.2034 2.30388 26.2737C2.2158 26.3733 2.13946 26.473 2.05726 26.5785C2.01028 26.6429 1.95743 26.7015 1.90459 26.766C1.81651 26.8832 1.74017 27.0004 1.65796 27.1177C1.62273 27.1704 1.58163 27.2231 1.54639 27.2818C1.43483 27.4576 1.32913 27.6334 1.23518 27.8151C-2.30563 32.4919 28.3051 35.4516 28.3051 35.4516C28.3051 35.4516 29.3561 35.8326 28.8805 36.3131C22.7384 38.1183 12.8147 40.568 4.98151 42.8303C3.51938 47.9701 2.72666 53.3913 2.72666 58.9942C2.72666 76.0079 9.94334 91.3337 21.4818 102.1L46.6139 81.851C49.6204 89.4641 48.6867 86.8854 74.3121 103.618C74.3121 103.618 76.0385 112.397 80.8183 115.837C81.4524 116.265 82.4918 116.576 83.7836 116.763C83.8247 116.763 83.86 116.769 83.9011 116.769C84.1183 116.769 84.3473 116.693 84.5822 116.693C84.6116 116.693 84.6468 116.693 84.6762 116.693C84.9933 116.722 85.3221 116.916 85.6627 116.933C86.1031 116.957 86.5611 116.969 87.0308 116.969C93.948 116.969 103.637 114.501 104.154 108.764C104.647 105.827 104.576 101.83 104.112 97.341C103.954 95.7937 103.748 94.1879 103.502 92.5469V92.5352C103.337 91.4451 103.155 90.3432 102.956 89.2297C102.956 89.218 102.956 89.2121 102.956 89.2004C102.756 88.0869 102.545 86.9616 102.316 85.8305C101.975 84.1426 101.605 82.4547 101.212 80.7785C101.206 80.7492 101.2 80.7258 101.194 80.6965C100.936 79.6064 100.671 78.528 100.395 77.4613C100.384 77.4203 100.372 77.3793 100.366 77.3383C100.09 76.2775 99.8083 75.2343 99.5206 74.2086C99.5088 74.1735 99.4971 74.1325 99.4912 74.0973C99.3503 73.5933 99.2035 73.0951 99.0625 72.6028C99.0508 72.5618 99.0391 72.5208 99.0273 72.4797C98.8864 71.9991 98.7455 71.5244 98.5987 71.0556C98.5928 71.038 98.5869 71.0145 98.581 70.997C98.4342 70.5222 98.2874 70.0592 98.1406 69.5962C98.1172 69.5318 98.0995 69.4673 98.0761 69.4028C97.7825 68.5003 97.4889 67.6212 97.1953 66.7714C97.1718 66.6952 97.1424 66.619 97.1189 66.5487C96.9721 66.1326 96.8253 65.7282 96.6785 65.3296C96.6668 65.2945 96.655 65.2652 96.6433 65.23C96.5082 64.8608 96.3673 64.4974 96.2323 64.1399C96.2088 64.0754 96.1853 64.011 96.1559 63.9465C96.0091 63.5773 95.8682 63.2198 95.7214 62.8681C95.6979 62.8037 95.6685 62.745 95.6451 62.6864C95.51 62.37 95.3808 62.0535 95.2516 61.7546C95.234 61.7136 95.2164 61.6667 95.1929 61.6257C95.052 61.3033 94.911 60.9927 94.7701 60.6879C94.7408 60.6235 94.7114 60.559 94.6762 60.4945C94.5352 60.1956 94.3943 59.8967 94.2534 59.6213C94.2534 59.6213 94.2534 59.6213 94.2534 59.6154C94.1125 59.3341 93.9715 59.0762 93.8365 58.8184C93.8071 58.7598 93.7719 58.707 93.7425 58.6484C93.6075 58.4022 93.4724 58.1678 93.3374 57.9451C93.3197 57.9158 93.3021 57.8865 93.2786 57.8572C93.1553 57.6579 93.0379 57.4762 92.9146 57.3004C92.8852 57.2594 92.8617 57.2184 92.8324 57.1832C92.7032 56.9957 92.574 56.8199 92.4448 56.6616C92.4213 56.6264 92.392 56.5971 92.3685 56.5678C92.251 56.4272 92.1395 56.2982 92.0279 56.181C92.0103 56.1634 91.9927 56.14 91.9751 56.1224C91.8517 55.9993 91.7284 55.888 91.611 55.7942C91.5816 55.7708 91.5581 55.7532 91.5288 55.7298C91.4055 55.6418 91.288 55.5598 91.1706 55.5012C92.4331 48.3335 87.6357 41.5175 79.6909 33.541C79.6909 33.541 113.878 17.6643 111.447 6.23586L111.423 6.24758ZM96.1735 109.361C93.8834 106.577 92.9263 104.438 93.5899 103.524C93.9891 102.979 94.453 102.692 94.9463 102.692C95.0226 102.692 95.0931 102.698 95.1694 102.709C95.6627 102.797 96.0267 103.137 96.0855 103.336C96.1911 103.741 96.2088 106.243 96.1735 109.355V109.361ZM102.991 108.588V108.629L102.979 108.67C102.738 111.336 99.8905 113.007 97.5476 113.944C97.4536 113.98 97.3538 114.015 97.2598 114.05C97.3303 111.014 97.4712 103.893 97.207 103.014C97.0015 102.323 96.2264 101.713 95.3691 101.561C94.776 101.455 93.631 101.485 92.6445 102.832C91.4818 104.415 92.6621 107.21 96.1442 111.137C96.1265 112.227 96.1031 113.352 96.0737 114.46C93.3608 115.316 90.096 115.814 87.025 115.814C86.5787 115.814 86.1383 115.802 85.7273 115.785C85.6862 115.785 85.5746 115.744 85.4982 115.714C85.4865 115.714 85.4748 115.708 85.463 115.703L81.5699 103.008C81.4759 102.698 81.1471 102.522 80.8359 102.621C80.5247 102.715 80.3485 103.043 80.4483 103.354L84.1947 115.568C84.1418 115.574 84.089 115.585 84.042 115.591C84.0009 115.597 83.9539 115.609 83.9187 115.609C82.4389 115.386 81.7637 115.064 81.4877 114.882C77.2305 111.805 75.5335 103.747 75.463 103.401L75.3162 102.686L75.2986 102.328L75.463 102.047L75.7918 101.807L75.968 101.356V101.156L76.062 100.916L76.2851 100.687L76.3614 100.535L76.6081 100.242L76.9193 99.9607L77.0837 99.7497L77.1541 99.5036L77.3244 99.2281L77.5828 99.105L77.7648 98.9468L78.0408 98.7065L78.1406 98.56L78.5341 98.5717L78.8864 98.5014L79.2387 98.4604L79.6732 98.3197L79.9433 97.9974L80.1489 97.6457C80.2076 97.5578 80.3074 97.5051 80.4131 97.4933L80.6539 97.5461L81.0179 97.5226L81.2176 97.4758L81.6873 97.464L82.0044 97.4054L82.6092 97.3703L83.1025 97.2882L83.4078 97.0655L83.6897 96.7959L83.9598 96.6963L84.1418 96.5556L84.2886 96.4032L84.3649 96.2216L84.7055 96.0692L84.958 95.8816L85.2869 95.5417L85.5159 95.2194L85.8564 94.7505C85.968 94.5981 86.1559 94.5219 86.3438 94.5571L87.3303 94.7388L87.7942 94.7974L88.399 94.774L89.086 94.7564L89.7085 94.6626L90.4894 94.5044L91.1882 94.5806L91.8106 94.5688L92.1219 94.5337L92.4624 94.6919L92.7325 94.815L93.0555 94.8326L93.7249 94.9615L94.3473 94.9205L95.1459 94.9088L95.6568 94.7447L96.1794 94.4926L96.6374 94.6626L97.0719 94.7447L97.7648 95.108L98.3814 95.3131L98.857 95.2956L99.2211 95.2135L99.5734 94.7681H100.771L101.488 95.067L101.817 95.1549L102.286 95.0963L102.656 94.9029C103.39 100.582 103.537 105.37 103.003 108.558L102.991 108.588Z" fill="#00192E"/>
</g>
<g id="Group_2">
<g id="Group_3">
<path id="Vector_5" d="M15.7684 48.1987L18.2698 57.6111H18.3051L20.8065 48.1987H23.3961V60.0726H21.8576V49.6932H21.8224L19.0567 60.0726H17.5182L14.7525 49.6932H14.7173V60.0726H13.1788V48.1987H15.7684Z" fill="white" stroke="white" stroke-width="0.25" stroke-miterlimit="10"/>
<path id="Vector_6" d="M26.5611 48.1987V56.6323C26.5611 57.4997 26.7314 58.1268 27.0661 58.5195C27.4066 58.9122 27.941 59.1114 28.675 59.1114C29.409 59.1114 29.9903 58.9122 30.3191 58.5019C30.648 58.0975 30.8065 57.4704 30.8065 56.6323V48.1987H32.345V56.6323C32.345 57.74 32.0338 58.6308 31.4113 59.3048C30.7889 59.9788 29.8729 60.3129 28.675 60.3129C26.2381 60.3129 25.0226 59.0821 25.0226 56.6206V48.2046H26.5611V48.1987Z" fill="white" stroke="white" stroke-width="0.25" stroke-miterlimit="10"/>
<path id="Vector_7" d="M35.4806 48.1987V58.7774H40.554V60.0726H33.9422V48.1987H35.4806Z" fill="white" stroke="white" stroke-width="0.25" stroke-miterlimit="10"/>
<path id="Vector_8" d="M47.8588 48.1987V49.494H42.9439V53.2214H47.5769V54.5166H42.9439V58.7774H48.0702V60.0726H41.4055V48.1987H47.8588Z" fill="white" stroke="white" stroke-width="0.25" stroke-miterlimit="10"/>
<path id="Vector_9" d="M52.9557 54.7041V55.9993H49.362V54.7041H52.9557Z" fill="white" stroke="white" stroke-width="0.25" stroke-miterlimit="10"/>
<path id="Vector_10" d="M55.7096 48.1987V53.0573H59.9962V48.1987H61.5346V60.0726H59.9962V54.3525H55.7096V60.0726H54.1712V48.1987H55.7096Z" fill="white" stroke="white" stroke-width="0.25" stroke-miterlimit="10"/>
<path id="Vector_11" d="M64.8053 48.1987V60.0726H63.2669V48.1987H64.8053Z" fill="white" stroke="white" stroke-width="0.25" stroke-miterlimit="10"/>
<path id="Vector_12" d="M70.1195 48.1987C71.5523 48.1987 72.6268 48.6148 73.3374 49.4471C74.0479 50.2793 74.4061 51.8382 74.4061 54.1181C74.4061 58.0858 73.0203 60.0726 70.2428 60.0726H66.6903V48.1987H70.1195ZM69.82 58.877C70.8476 58.877 71.5992 58.5019 72.0749 57.7517C72.5505 57.0016 72.7913 55.8001 72.7913 54.1357C72.7913 52.2602 72.5446 51.006 72.0573 50.3613C71.5699 49.7167 70.8183 49.3943 69.82 49.3943H68.2287V58.877H69.82Z" fill="white" stroke="white" stroke-width="0.25" stroke-miterlimit="10"/>
<path id="Vector_13" d="M82.4154 48.1987V49.494H77.5006V53.2214H82.1336V54.5166H77.5006V58.7774H82.6268V60.0726H75.9621V48.1987H82.4154Z" fill="white" stroke="white" stroke-width="0.25" stroke-miterlimit="10"/>
</g>
<g id="Group_4">
<path id="Vector_14" d="M16.5552 63.3193C17.894 63.3193 18.8629 63.6182 19.4677 64.216C20.0725 64.8138 20.372 65.6812 20.372 66.8182C20.372 67.9552 20.0373 68.7815 19.3679 69.4086C18.6985 70.0357 17.8294 70.3464 16.749 70.3464H14.7231V75.4921H13.1436V63.3252H16.5493L16.5552 63.3193ZM16.6433 69.1156C17.254 69.1156 17.7531 68.9105 18.1406 68.4944C18.5282 68.0783 18.722 67.498 18.722 66.7479C18.722 65.9977 18.5282 65.4468 18.1406 65.0834C17.7531 64.7259 17.2305 64.5442 16.5728 64.5442H14.729V69.1097H16.6433V69.1156Z" fill="white" stroke="white" stroke-width="0.25" stroke-miterlimit="10"/>
<path id="Vector_15" d="M25.6744 63.3193C26.6433 63.3193 27.4184 63.5889 28.0056 64.1223C28.5928 64.6556 28.8864 65.4058 28.8864 66.3728C28.8864 67.1581 28.722 67.8262 28.3931 68.383C28.0643 68.9398 27.5711 69.2914 26.9134 69.4379V69.4731C27.4536 69.5317 27.8764 69.7486 28.1935 70.1236C28.5106 70.4987 28.6867 70.9793 28.722 71.5712L28.8805 74.232C28.9157 74.8474 29.1271 75.2635 29.5088 75.4921H27.6063C27.3773 75.2752 27.2305 74.6364 27.16 73.5639L27.0719 71.8584C27.0132 70.6628 26.4201 70.0709 25.2986 70.0709H23.0438V75.4921H21.4642V63.3252H25.6744V63.3193ZM24.958 68.8401C26.473 68.8401 27.2364 68.0607 27.2364 66.5076C27.2364 65.8629 27.025 65.3706 26.608 65.0424C26.1911 64.7142 25.645 64.5501 24.9756 64.5501H23.0379V68.846H24.9521L24.958 68.8401Z" fill="white" stroke="white" stroke-width="0.25" stroke-miterlimit="10"/>
<path id="Vector_16" d="M34.4002 63.0791C35.8095 63.0791 36.8488 63.589 37.5182 64.6029C38.1876 65.6168 38.5223 67.2168 38.5223 69.4028C38.5223 71.5889 38.1817 73.224 37.4947 74.2262C36.8077 75.2284 35.7801 75.7266 34.406 75.7266C33.032 75.7266 32.0044 75.2284 31.3174 74.2262C30.6304 73.224 30.2898 71.6182 30.2898 69.4028C30.2898 67.1875 30.6245 65.6344 31.2939 64.6146C31.9633 63.5948 33.0026 63.0791 34.4119 63.0791H34.4002ZM31.9281 69.4204C31.9281 71.3662 32.1277 72.6966 32.527 73.4174C32.9263 74.1383 33.5487 74.5017 34.4002 74.5017C35.2516 74.5017 35.8858 74.1383 36.2792 73.4174C36.6726 72.6966 36.8723 71.3603 36.8723 69.4028C36.8723 67.4453 36.6785 66.1677 36.291 65.4234C35.9034 64.6791 35.2692 64.3099 34.3826 64.3099C33.4959 64.3099 32.9146 64.6732 32.5211 65.3941C32.1277 66.115 31.9281 67.4571 31.9281 69.4263V69.4204Z" fill="white" stroke="white" stroke-width="0.25" stroke-miterlimit="10"/>
<path id="Vector_17" d="M43.7895 63.3193C45.2575 63.3193 46.3556 63.7472 47.0896 64.597C47.8177 65.4468 48.1817 67.0468 48.1817 69.3852C48.1817 73.4525 46.7607 75.4862 43.9187 75.4862H40.2839V63.3193H43.7954H43.7895ZM43.4841 74.2613C44.5352 74.2613 45.3045 73.8804 45.7977 73.1126C46.2851 72.3449 46.5317 71.1082 46.5317 69.4028C46.5317 67.4805 46.2792 66.1911 45.7801 65.5347C45.2751 64.8783 44.5117 64.5442 43.4841 64.5442H41.8517V74.2613H43.4841Z" fill="white" stroke="white" stroke-width="0.25" stroke-miterlimit="10"/>
<path id="Vector_18" d="M51.2117 63.3193V71.9581C51.2117 72.843 51.382 73.4877 51.7284 73.8921C52.0749 74.2965 52.6268 74.4958 53.3785 74.4958C54.1301 74.4958 54.729 74.2906 55.0637 73.8745C55.3984 73.4584 55.5628 72.8196 55.5628 71.9581V63.3193H57.1424V71.9581C57.1424 73.095 56.8253 74.0035 56.1853 74.695C55.5452 75.3866 54.6116 75.7265 53.3843 75.7265C50.8887 75.7265 49.638 74.4665 49.638 71.9405V63.3135H51.2176L51.2117 63.3193Z" fill="white" stroke="white" stroke-width="0.25" stroke-miterlimit="10"/>
<path id="Vector_19" d="M62.7149 63.0791C63.9422 63.0791 64.8699 63.3897 65.4924 64.0051C66.1148 64.6263 66.4495 65.5758 66.4965 66.8593H64.8464C64.776 65.1538 64.0655 64.304 62.7149 64.304C61.8811 64.304 61.2587 64.6615 60.8535 65.3707C60.4483 66.0798 60.2428 67.4278 60.2428 69.4204C60.2428 71.4131 60.4425 72.6966 60.8418 73.4174C61.241 74.1383 61.8635 74.5017 62.7149 74.5017C63.4548 74.5017 64.0068 74.2497 64.3649 73.7515C64.7231 73.2533 64.9228 72.4387 64.958 71.3134H66.608C66.4201 74.2555 65.1224 75.7266 62.7208 75.7266C61.7167 75.7266 60.9181 75.4863 60.3309 75.0116C59.7378 74.5368 59.3033 73.8746 59.0214 73.0365C58.7396 72.1984 58.5987 70.9911 58.5987 69.4204C58.5987 67.2402 58.9334 65.6344 59.6028 64.6146C60.2722 63.5948 61.3115 63.0791 62.7208 63.0791H62.7149Z" fill="white" stroke="white" stroke-width="0.25" stroke-miterlimit="10"/>
<path id="Vector_20" d="M74.8817 63.3193V64.6497H71.658V75.4921H70.0784V64.6497H66.8723V63.3193H74.8817Z" fill="white" stroke="white" stroke-width="0.25" stroke-miterlimit="10"/>
<path id="Vector_21" d="M79.18 63.0791C80.372 63.0791 81.2587 63.3487 81.84 63.8996C82.4213 64.4447 82.7267 65.3003 82.7619 66.4725H81.1823V66.4021C81.1823 65.0073 80.5188 64.304 79.1917 64.304C78.4871 64.304 77.9586 64.4798 77.6063 64.8315C77.254 65.1831 77.0778 65.6637 77.0778 66.2791C77.0778 66.7128 77.1659 67.0703 77.3479 67.3516C77.53 67.6329 77.8001 67.8849 78.1641 68.0959C78.5282 68.3069 79.1624 68.5413 80.0725 68.805C81.1823 69.1332 81.9692 69.5494 82.4272 70.0417C82.8852 70.534 83.1142 71.2255 83.1142 72.1105C83.1142 73.2358 82.7678 74.1207 82.0749 74.7595C81.382 75.4042 80.4014 75.7207 79.1389 75.7207C77.7883 75.7207 76.8077 75.4159 76.1911 74.8006C75.5746 74.1852 75.2692 73.1654 75.2692 71.7354V71.6651H76.8488V71.835C76.8488 72.8021 77.0367 73.4878 77.4125 73.8863C77.7883 74.2907 78.3931 74.49 79.2328 74.49C79.8905 74.49 80.4248 74.2907 80.8476 73.8863C81.2645 73.4819 81.4759 72.9662 81.4759 72.3449C81.4759 71.9112 81.3878 71.5537 81.2058 71.2724C81.0238 70.9911 80.7595 70.7391 80.4014 70.5281C80.0432 70.3171 79.3561 70.0534 78.3403 69.7369C77.3597 69.4439 76.6315 69.0395 76.1559 68.5237C75.6803 68.008 75.4395 67.3164 75.4395 66.4432C75.4395 65.3765 75.7742 64.5443 76.4436 63.9524C77.113 63.3604 78.0232 63.0674 79.1859 63.0674L79.18 63.0791Z" fill="white" stroke="white" stroke-width="0.25" stroke-miterlimit="10"/>
</g>
</g>
<path id="Vector_22" d="M44.7408 86.2935C45.1401 86.2935 45.5159 86.3931 45.8623 86.5924C46.2088 86.7916 46.4847 87.0671 46.6903 87.4129C46.8899 87.7586 46.9956 88.1337 46.9956 88.5381C46.9956 88.9425 46.8958 89.3176 46.6903 89.6634C46.4906 90.0092 46.2146 90.2846 45.8623 90.4839C45.51 90.6831 45.1401 90.7828 44.7408 90.7828C44.3415 90.7828 43.9657 90.6831 43.6192 90.4839C43.2728 90.2846 42.9968 90.015 42.7913 89.6634C42.5857 89.3117 42.4859 88.9367 42.4859 88.5323C42.4859 88.1279 42.5857 87.7528 42.7913 87.407C42.9909 87.0612 43.2669 86.7858 43.6192 86.5865C43.9715 86.3872 44.3415 86.2876 44.7408 86.2876V86.2935ZM42.8911 88.5381C42.8911 89.048 43.0672 89.4876 43.4254 89.8626C43.7836 90.2377 44.224 90.4253 44.7408 90.4253C45.2575 90.4253 45.6979 90.2377 46.0561 89.8685C46.4143 89.4993 46.5904 89.0539 46.5904 88.5381C46.5904 88.2099 46.5082 87.8934 46.3497 87.6063C46.1853 87.3132 45.9621 87.0847 45.6744 86.9147C45.3867 86.7447 45.0755 86.6568 44.7349 86.6568C44.224 86.6568 43.7895 86.8444 43.4313 87.2136C43.0731 87.5828 42.8911 88.0282 42.8911 88.544V88.5381ZM44.9228 87.2195C45.5041 87.2195 45.7977 87.4773 45.7977 87.9872C45.7977 88.1923 45.739 88.3623 45.6157 88.4854C45.4924 88.6143 45.3162 88.6905 45.0872 88.7139L45.8388 89.8451H45.4395L44.7114 88.7432H44.2827V89.8451H43.8834V87.2136H44.9287L44.9228 87.2195ZM44.776 88.3799C44.9932 88.3799 45.1459 88.3506 45.2457 88.2978C45.3456 88.2392 45.3925 88.1337 45.3925 87.9696C45.3925 87.8348 45.3514 87.7352 45.2634 87.6707C45.1753 87.6121 45.0402 87.577 44.8465 87.577H44.2769V88.374H44.776V88.3799Z" fill="black"/>
</g>
<defs>
<clipPath id="clip0_1_975">
<rect width="120" height="118" fill="white" transform="translate(0.947449)"/>
</clipPath>
</defs>
</svg>
