<svg width="16" height="16" viewBox="0 0 16 16" fill="none" xmlns="http://www.w3.org/2000/svg">
<path id="Vector" d="M15 16C13.1926 16 11.3963 15.5556 9.61111 14.6667C7.82593 13.7778 6.22222 12.6222 4.8 11.2C3.37778 9.77778 2.22222 8.17407 1.33333 6.38889C0.444444 4.6037 0 2.80741 0 1C0 0.718519 0.0962963 0.481482 0.288889 0.288889C0.481482 0.0962963 0.718519 0 1 0H4.11111C4.31852 0 4.5 0.0703703 4.65556 0.211111C4.81111 0.351852 4.91111 0.540741 4.95556 0.777778L5.55556 3.57778C5.58519 3.78519 5.58148 3.97407 5.54444 4.14444C5.50741 4.31481 5.42963 4.45926 5.31111 4.57778L3.08889 6.82222C3.91852 8.2 4.84815 9.4 5.87778 10.4222C6.90741 11.4444 8.07407 12.3111 9.37778 13.0222L11.4889 10.8444C11.637 10.6815 11.8074 10.5667 12 10.5C12.1926 10.4333 12.3852 10.4222 12.5778 10.4667L15.2222 11.0444C15.4444 11.0889 15.6296 11.2 15.7778 11.3778C15.9259 11.5556 16 11.763 16 12V15C16 15.2815 15.9037 15.5185 15.7111 15.7111C15.5185 15.9037 15.2815 16 15 16Z" fill="#00192E"/>
</svg>
