<svg width="145" height="124" viewBox="0 0 145 124" fill="none" xmlns="http://www.w3.org/2000/svg">
<g id="Layer_1" clip-path="url(#clip0_1_930)">
<g id="Clip path group">
<mask id="mask0_1_930" style="mask-type:luminance" maskUnits="userSpaceOnUse" x="0" y="0" width="145" height="124">
<g id="clippath">
<path id="Vector" d="M144.947 0H0.805298V123.998H144.947V0Z" fill="white"/>
</g>
</mask>
<g mask="url(#mask0_1_930)">
<g id="Group">
<path id="Vector_2" d="M108.559 29.4053C107.835 29.4053 107.265 29.9969 107.265 30.7031V30.7095C107.265 31.4135 107.829 31.9989 108.553 31.9989C109.277 31.9989 109.846 31.4072 109.846 30.701V30.6946C109.846 29.9885 109.285 29.4053 108.561 29.4053M109.711 30.7031C109.711 31.3436 109.213 31.8716 108.553 31.8716C107.892 31.8716 107.4 31.3521 107.4 30.7116V30.7052C107.4 30.0648 107.9 29.5368 108.559 29.5368C109.217 29.5368 109.709 30.0563 109.709 30.6989V30.7052L109.711 30.7031Z" fill="#00192E"/>
<path id="Vector_3" d="M108.844 30.8325C109.03 30.7795 109.158 30.6437 109.158 30.4232V30.4168C109.158 30.2981 109.118 30.2026 109.046 30.1327C108.954 30.0393 108.814 29.9863 108.637 29.9863H108.035V31.3436H108.291V30.877H108.574L108.901 31.3436H109.209L108.846 30.8325H108.844ZM108.626 30.6501H108.291V30.2196H108.626C108.793 30.2196 108.894 30.2959 108.894 30.4317V30.438C108.894 30.5674 108.793 30.6501 108.626 30.6501Z" fill="#00192E"/>
<path id="Vector_4" d="M136.188 54.9912C135.302 54.9912 134.601 55.7165 134.601 56.5796V56.5902C134.601 57.4533 135.291 58.1701 136.177 58.1701C137.064 58.1701 137.765 57.4448 137.765 56.5817V56.5711C137.765 55.7059 137.075 54.9912 136.188 54.9912ZM137.598 56.5796C137.598 57.3642 136.988 58.011 136.177 58.011C135.367 58.011 134.768 57.3748 134.768 56.5902V56.5796C134.768 55.7928 135.377 55.1481 136.188 55.1481C136.999 55.1481 137.598 55.7865 137.598 56.5711V56.5817V56.5796Z" fill="#00192E"/>
<path id="Vector_5" d="M136.538 56.7387C136.766 56.6729 136.923 56.5054 136.923 56.2382V56.2276C136.923 56.0834 136.874 55.9646 136.785 55.8819C136.671 55.7674 136.5 55.7017 136.283 55.7017H135.544V57.3643H135.859V56.7896H136.205L136.606 57.3643H136.982L136.536 56.7365L136.538 56.7387ZM136.272 56.5139H135.861V55.988H136.272C136.477 55.988 136.6 56.0791 136.6 56.2467V56.2552C136.6 56.4142 136.477 56.5139 136.272 56.5139Z" fill="#00192E"/>
<path id="Vector_6" d="M12.5239 54.9318H18.8392L23.9808 63.3211L29.1288 54.9318H35.442V76.5966H29.4982V64.1546L23.9808 72.6373H23.8605L18.3769 64.2182V76.5966H12.5239V54.9318Z" fill="#00192E"/>
<path id="Vector_7" d="M51.9561 68.0545L49.5541 61.896L47.1205 68.0545H51.954H51.9561ZM46.7216 54.7791H52.4796L61.6611 76.5987H55.253L53.6827 72.7306H45.3644L43.8257 76.5987H37.5379L46.7216 54.7791Z" fill="#00192E"/>
<path id="Vector_8" d="M62.4315 73.3796L65.758 69.3863C67.8835 71.0892 70.2559 71.9863 72.7508 71.9863C74.3549 71.9863 75.214 71.4307 75.214 70.4997V70.4382C75.214 69.539 74.509 69.047 71.5815 68.3663C66.9928 67.3123 63.4489 66.0124 63.4489 61.5547V61.4932C63.4489 57.4703 66.6213 54.5586 71.7989 54.5586C75.4652 54.5586 78.3294 55.5511 80.6723 57.4363L77.6835 61.6777C75.7121 60.2865 73.5528 59.5443 71.6427 59.5443C70.1968 59.5443 69.4855 60.1635 69.4855 60.9355V60.997C69.4855 61.9873 70.2264 62.4199 73.2151 63.1028C78.1732 64.1843 81.2548 65.7939 81.2548 69.8486V69.9102C81.2548 74.336 77.7743 76.9656 72.5355 76.9656C68.7151 76.9656 65.0805 75.759 62.4315 73.3753" fill="#00192E"/>
<path id="Vector_9" d="M89.2628 60.1953H82.7935V54.9297H101.712V60.1953H95.2403V76.5987H89.2628V60.1953Z" fill="#00192E"/>
<path id="Vector_10" d="M110.923 54.9318H104.914V76.5966H110.923V54.9318Z" fill="#00192E"/>
<path id="Vector_11" d="M113.665 65.8278V65.7663C113.665 59.4552 118.498 54.4991 125.031 54.4991C129.438 54.4991 132.273 56.3569 134.183 59.0183L129.685 62.5132C128.452 60.9693 127.032 59.9747 124.97 59.9747C121.953 59.9747 119.826 62.5471 119.826 65.7005V65.7642C119.826 69.0152 121.953 71.5515 124.97 71.5515C127.22 71.5515 128.543 70.4996 129.839 68.9218L134.333 72.1389C132.302 74.9573 129.56 77.0313 124.784 77.0313C118.625 77.0313 113.665 72.2958 113.665 65.8257" fill="#00192E"/>
<path id="Vector_12" d="M34.6462 97.2181C33.8674 97.2181 33.2764 97.0505 32.7719 96.5373L33.4199 95.8842C33.745 96.2086 34.184 96.3189 34.661 96.3189C35.252 96.3189 35.5686 96.0941 35.5686 95.6806C35.5686 95.4982 35.518 95.3476 35.4103 95.2458C35.309 95.1525 35.1929 95.1016 34.9565 95.0635L34.336 94.9765C33.8969 94.9108 33.5719 94.7729 33.3418 94.5481C33.097 94.3021 32.9746 93.9671 32.9746 93.5323C32.9746 92.612 33.6521 91.9673 34.7623 91.9673C35.4694 91.9673 35.9823 92.1412 36.4213 92.5696L35.786 93.1994C35.4631 92.8877 35.0726 92.8431 34.7328 92.8431C34.1988 92.8431 33.9391 93.14 33.9391 93.4963C33.9391 93.6278 33.9814 93.7635 34.089 93.8653C34.1903 93.9586 34.3571 94.0392 34.5639 94.0689L35.1718 94.1558C35.6383 94.2216 35.9359 94.3509 36.1512 94.5545C36.4256 94.8153 36.548 95.1928 36.548 95.6488C36.548 96.6497 35.7185 97.2138 34.6441 97.2138" fill="#00192E"/>
<path id="Vector_13" d="M38.6418 92.016H37.6392V97.1756H38.6418V92.016Z" fill="#00192E"/>
<path id="Vector_14" d="M43.1925 96.6836C42.8548 97.0229 42.3714 97.1756 41.8374 97.1756H39.9842V92.016H41.8374C42.3714 92.016 42.8548 92.1666 43.1925 92.508C43.7708 93.0891 43.7117 93.7974 43.7117 94.5735C43.7117 95.3497 43.7687 96.1025 43.1925 96.6836ZM42.4938 93.2333C42.3207 93.0233 42.0907 92.9152 41.7424 92.9152H40.9847V96.2764H41.7424C42.0886 96.2764 42.3207 96.1661 42.4938 95.9583C42.6817 95.725 42.7112 95.3561 42.7112 94.5735C42.7112 93.791 42.6817 93.4644 42.4938 93.2333Z" fill="#00192E"/>
<path id="Vector_15" d="M45.8836 92.016H44.881V97.1756H45.8836V92.016Z" fill="#00192E"/>
<path id="Vector_16" d="M50.2612 97.1756L48.2265 94.0073V97.1756H47.2239V92.016H48.1188L50.1536 95.1758V92.016H51.154V97.1756H50.2612Z" fill="#00192E"/>
<path id="Vector_17" d="M55.6625 96.6306C55.2657 97.0356 54.7908 97.2159 54.2125 97.2159C53.6658 97.2159 53.2035 97.0292 52.8278 96.6518C52.6041 96.427 52.4669 96.1661 52.4099 95.8777C52.3529 95.5872 52.3234 95.1588 52.3234 94.5947C52.3234 94.0285 52.3529 93.6022 52.4099 93.3117C52.4669 93.0148 52.6041 92.7603 52.8278 92.5355C53.2035 92.1581 53.6637 91.9714 54.2125 91.9714C55.3818 91.9714 56.0087 92.7243 56.1459 93.6234H55.1348C55.0124 93.123 54.7106 92.8685 54.2125 92.8685C53.9465 92.8685 53.7291 92.9639 53.5708 93.1442C53.383 93.3838 53.326 93.5725 53.326 94.5947C53.326 95.6169 53.3682 95.812 53.5708 96.0495C53.7228 96.2319 53.9381 96.3167 54.2125 96.3167C54.508 96.3167 54.7465 96.2234 54.928 96.0283C55.0779 95.8544 55.1581 95.6232 55.1581 95.3391V95.144H54.2125V94.3042H56.1522V95.0591C56.1522 95.812 56.015 96.2552 55.6625 96.6306Z" fill="#00192E"/>
<path id="Vector_18" d="M62.2817 97.1756L61.906 96.726C61.6696 96.9147 61.315 97.218 60.5783 97.218C59.447 97.218 58.8835 96.6242 58.8835 95.6529C58.8835 94.9934 59.3584 94.565 59.8058 94.2702C59.5969 94.0306 59.295 93.668 59.295 93.176C59.295 92.4719 59.8058 91.9714 60.6649 91.9714C61.4712 91.9714 61.9777 92.4868 61.9777 93.1887C61.9777 93.5853 61.7688 93.8546 61.4522 94.0879C61.4522 94.0879 61.2137 94.2702 61.0849 94.3551L61.9503 95.3836C62.1171 95.1588 62.1952 94.8471 62.2099 94.476H63.0964C63.0605 95.1418 62.9086 95.672 62.5476 96.0792L63.47 97.1734H62.2796L62.2817 97.1756ZM60.3124 94.8492C60.0021 95.0676 59.7932 95.2691 59.7932 95.6402C59.7932 96.0686 60.1393 96.3655 60.572 96.3655C60.8738 96.3655 61.0997 96.2722 61.3361 96.0622L60.3124 94.8513V94.8492ZM60.667 92.7773C60.3842 92.7773 60.2406 92.9597 60.2406 93.1972C60.2406 93.3859 60.3989 93.5662 60.5783 93.7761C60.6522 93.7337 60.7958 93.6319 60.7958 93.6319C60.9625 93.5153 61.0912 93.3774 61.0912 93.1972C61.0912 92.9575 60.9329 92.7773 60.6649 92.7773" fill="#00192E"/>
<path id="Vector_19" d="M69.133 97.1756L68.8312 96.2637H67.0054L66.6952 97.1756H65.6504L67.5183 92.016H68.3056L70.182 97.1756H69.1351H69.133ZM67.9363 93.5365L67.2862 95.4133H68.5631L67.9363 93.5365Z" fill="#00192E"/>
<path id="Vector_20" d="M72.603 97.218C72.0564 97.218 71.592 97.0292 71.2184 96.6539C70.9947 96.4291 70.8575 96.1682 70.8005 95.8777C70.7414 95.5893 70.714 95.1609 70.714 94.5947C70.714 94.0285 70.7435 93.6022 70.8005 93.3117C70.8575 93.0148 70.9947 92.7624 71.2184 92.5377C71.592 92.1602 72.0543 91.9714 72.603 91.9714C73.5909 91.9714 74.319 92.5525 74.4921 93.6022H73.4748C73.365 93.159 73.0927 92.8706 72.6094 92.8706C72.335 92.8706 72.1197 92.9576 71.9677 93.1399C71.7588 93.3647 71.7144 93.5959 71.7144 94.5947C71.7144 95.5935 71.7566 95.8268 71.9677 96.0516C72.1197 96.234 72.335 96.3188 72.6094 96.3188C73.0927 96.3188 73.3671 96.0304 73.4748 95.5872H74.4921C74.319 96.6369 73.5824 97.218 72.603 97.218Z" fill="#00192E"/>
<path id="Vector_21" d="M76.987 97.218C76.4382 97.218 75.9759 97.0292 75.6023 96.6539C75.3786 96.4291 75.2414 96.1682 75.1844 95.8777C75.1253 95.5893 75.0979 95.1609 75.0979 94.5947C75.0979 94.0285 75.1274 93.6022 75.1844 93.3117C75.2414 93.0148 75.3786 92.7624 75.6023 92.5377C75.9759 92.1602 76.4382 91.9714 76.987 91.9714C77.9748 91.9714 78.703 92.5525 78.876 93.6022H77.8587C77.7489 93.159 77.4766 92.8706 76.9933 92.8706C76.7189 92.8706 76.5036 92.9576 76.3516 93.1399C76.1427 93.3647 76.0984 93.5959 76.0984 94.5947C76.0984 95.5935 76.1406 95.8268 76.3516 96.0516C76.5036 96.234 76.7189 96.3188 76.9933 96.3188C77.4766 96.3188 77.751 96.0304 77.8587 95.5872H78.876C78.703 96.6369 77.9663 97.218 76.987 97.218Z" fill="#00192E"/>
<path id="Vector_22" d="M79.885 97.1756V92.016H83.2684V92.9152H80.8875V94.1239H82.9138V95.0231H80.8875V96.2764H83.2684V97.1756H79.885Z" fill="#00192E"/>
<path id="Vector_23" d="M85.8076 97.2181C85.0288 97.2181 84.4378 97.0505 83.9312 96.5373L84.5813 95.8842C84.9063 96.2086 85.3454 96.3189 85.8224 96.3189C86.4134 96.3189 86.73 96.0941 86.73 95.6806C86.73 95.4982 86.6793 95.3476 86.5717 95.2458C86.4704 95.1525 86.3543 95.1016 86.1179 95.0635L85.4952 94.9765C85.0562 94.9108 84.7311 94.7729 84.5011 94.5481C84.2562 94.3021 84.1338 93.9671 84.1338 93.5323C84.1338 92.612 84.8135 91.9673 85.9237 91.9673C86.6308 91.9673 87.1416 92.1412 87.5827 92.5696L86.9474 93.1994C86.6244 92.8877 86.234 92.8431 85.8941 92.8431C85.3601 92.8431 85.1005 93.14 85.1005 93.4963C85.1005 93.6278 85.1427 93.7635 85.2504 93.8653C85.3517 93.9586 85.5163 94.0392 85.7253 94.0689L86.3332 94.1558C86.7996 94.2216 87.0972 94.3509 87.3125 94.5545C87.5869 94.8153 87.7072 95.1928 87.7072 95.6488C87.7072 96.6497 86.8798 97.2138 85.8034 97.2138" fill="#00192E"/>
<path id="Vector_24" d="M90.1704 97.2181C89.3916 97.2181 88.8006 97.0505 88.2961 96.5373L88.9441 95.8842C89.2691 96.2086 89.7082 96.3189 90.1852 96.3189C90.7762 96.3189 91.0928 96.0941 91.0928 95.6806C91.0928 95.4982 91.0421 95.3476 90.9345 95.2458C90.8332 95.1525 90.7171 95.1016 90.4807 95.0635L89.8601 94.9765C89.4211 94.9108 89.0961 94.7729 88.8639 94.5481C88.6191 94.3021 88.4966 93.9671 88.4966 93.5323C88.4966 92.612 89.1763 91.9673 90.2865 91.9673C90.9936 91.9673 91.5044 92.1412 91.9455 92.5696L91.3102 93.1994C90.9873 92.8877 90.5968 92.8431 90.257 92.8431C89.7229 92.8431 89.4633 93.14 89.4633 93.4963C89.4633 93.6278 89.5055 93.7635 89.6132 93.8653C89.7145 93.9586 89.8812 94.0392 90.0881 94.0689L90.6939 94.1558C91.1624 94.2216 91.4579 94.3509 91.6753 94.5545C91.9497 94.8153 92.0722 95.1928 92.0722 95.6488C92.0722 96.6497 91.2427 97.2138 90.1683 97.2138" fill="#00192E"/>
<path id="Vector_25" d="M96.2704 96.654C95.9115 97.0166 95.4704 97.2181 94.8857 97.2181C94.3011 97.2181 93.8536 97.0166 93.4948 96.654C92.9756 96.1323 92.9882 95.4876 92.9882 94.5969C92.9882 93.7062 92.9734 93.0594 93.4948 92.5377C93.8536 92.1751 94.3011 91.9736 94.8857 91.9736C95.4704 91.9736 95.9094 92.1751 96.2704 92.5377C96.7896 93.0594 96.7833 93.7062 96.7833 94.5969C96.7833 95.4876 96.7896 96.1323 96.2704 96.654ZM95.5274 93.1464C95.3839 92.9788 95.1601 92.8707 94.8857 92.8707C94.6114 92.8707 94.3813 92.981 94.2356 93.1464C94.0415 93.3648 93.9908 93.6023 93.9908 94.5969C93.9908 95.5915 94.0415 95.829 94.2356 96.0453C94.3813 96.2129 94.6092 96.321 94.8857 96.321C95.1622 96.321 95.3839 96.2129 95.5274 96.0453C95.7216 95.8269 95.7807 95.5894 95.7807 94.5969C95.7807 93.6044 95.7237 93.3648 95.5274 93.1464Z" fill="#00192E"/>
<path id="Vector_26" d="M100.68 97.1756L99.677 95.1185H98.9552V97.1756H97.9526V92.016H99.9641C101.011 92.016 101.632 92.7328 101.632 93.5959C101.632 94.3212 101.193 94.7686 100.694 94.951L101.841 97.1756H100.68ZM99.9008 92.9152H98.9552V94.2766H99.9008C100.34 94.2766 100.629 93.9946 100.629 93.5959C100.629 93.1972 100.342 92.9152 99.9008 92.9152Z" fill="#00192E"/>
<path id="Vector_27" d="M103.816 92.0139H102.814V97.1735H103.816V92.0139Z" fill="#00192E"/>
<path id="Vector_28" d="M105.156 97.1756V92.016H108.54V92.9152H106.159V94.1239H108.185V95.0231H106.159V96.2764H108.54V97.1756H105.156Z" fill="#00192E"/>
<path id="Vector_29" d="M111.077 97.2181C110.298 97.2181 109.707 97.0505 109.203 96.5373L109.851 95.8842C110.176 96.2086 110.615 96.3189 111.092 96.3189C111.683 96.3189 111.999 96.0941 111.999 95.6806C111.999 95.4982 111.949 95.3476 111.841 95.2458C111.74 95.1525 111.624 95.1016 111.387 95.0635L110.767 94.9765C110.328 94.9108 110.003 94.7729 109.77 94.5481C109.526 94.3021 109.403 93.9671 109.403 93.5323C109.403 92.612 110.083 91.9673 111.193 91.9673C111.9 91.9673 112.411 92.1412 112.852 92.5696L112.217 93.1994C111.894 92.8877 111.503 92.8431 111.164 92.8431C110.629 92.8431 110.37 93.14 110.37 93.4963C110.37 93.6278 110.412 93.7635 110.52 93.8653C110.621 93.9586 110.788 94.0392 110.995 94.0689L111.603 94.1558C112.069 94.2216 112.367 94.3509 112.582 94.5545C112.856 94.8153 112.979 95.1928 112.979 95.6488C112.979 96.6497 112.149 97.2138 111.075 97.2138" fill="#00192E"/>
<path id="Vector_30" d="M48.2983 32.6499C47.912 31.6341 47.454 30.7052 46.9538 29.7954C47.6608 28.7287 49.2375 27.2273 49.2375 27.2273C50.1261 28.8857 51.019 30.6289 51.6627 32.5184C50.5018 32.5862 49.4359 32.6308 48.2983 32.6499Z" fill="#00192E"/>
<path id="Vector_31" d="M42.6395 36.9061C43.3677 35.394 43.6568 34.8384 44.4082 33.5724C46.4324 33.6042 50.1304 33.5045 51.7007 33.3561C50.8163 34.6433 50.143 35.551 49.2228 36.6389C46.8018 36.8594 43.9587 36.9358 42.6374 36.904" fill="#00192E"/>
<path id="Vector_32" d="M45.4319 26.4618C42.1202 29.8103 39.4249 34.321 37.7194 39.0671C38.2788 40.2059 38.9141 41.3256 39.6212 42.4177C41.3182 36.5965 44.5433 30.7222 48.5684 26.6696C47.549 26.5445 46.5021 26.4745 45.4319 26.4639" fill="#00192E"/>
<path id="Vector_33" d="M41.1577 26.7417C39.0724 28.9747 37.293 31.6404 35.9042 34.5394C36.2651 35.6909 36.7021 36.8424 37.2086 37.9833C38.8761 33.6445 41.3224 29.5749 44.3681 26.4702C43.2959 26.4999 42.2553 26.5869 41.1556 26.7395" fill="#00192E"/>
<path id="Vector_34" d="M76.8055 31.7443C76.8055 35.6506 79.5958 37.0418 82.2089 37.0418C83.3697 37.0418 84.6383 36.7661 85.7865 36.2656V31.1145H81.3899V32.915L83.3613 32.8725V34.8957L83.2938 34.9105C82.956 34.9868 82.612 35.0314 82.3249 35.0314C81.2949 35.0314 79.5641 34.603 79.5641 31.7443C79.5641 28.8857 81.2949 28.4573 82.3249 28.4573C83.2452 28.4573 84.1613 28.7266 85.0013 29.1762L85.7527 27.327C84.4947 26.6823 83.4352 26.4469 82.2089 26.4469C79.5958 26.4469 76.8055 27.8381 76.8055 31.7443Z" fill="#00192E"/>
<path id="Vector_35" d="M102.94 31.1272C103.483 31.0975 103.865 31.3393 103.865 32.02V36.8636H106.317V31.7443C106.317 30.2153 105.382 29.2653 104.15 29.2653C103.339 29.2653 102.505 29.6597 101.64 30.3192L101.558 30.3807L101.509 30.2917C101.146 29.6215 100.39 29.2674 99.6348 29.2674C98.8792 29.2674 98.2122 29.6088 97.4481 30.2026L97.3067 30.3129V29.2674H94.8541V36.8658H97.3067V31.7486L97.3405 31.7231C97.655 31.3838 98.0602 31.1548 98.4254 31.1315C98.9763 31.0975 99.3646 31.3435 99.3646 32.0243V36.8679H101.817V32.2194C101.817 32.09 101.811 31.9225 101.784 31.7867C102.087 31.4623 102.588 31.1505 102.938 31.1336" fill="#00192E"/>
<path id="Vector_36" d="M92.8552 30.1665C92.298 29.5685 91.5002 29.2653 90.4828 29.2653C88.6106 29.2653 86.7152 30.6522 86.7152 33.2988C86.7152 35.6421 88.1948 37.0396 90.6728 37.0396C91.6036 37.0396 92.8447 36.7428 93.5644 36.291L93.003 34.866C92.0743 35.4873 90.848 35.6676 90.0522 35.2965C89.4802 35.0314 89.1636 34.4991 89.1108 33.8183L89.1045 33.7229H93.7903C93.8768 32.1409 93.556 30.9109 92.8573 30.1644M91.7091 32.5014L89.1298 32.476L89.1425 32.3784C89.267 31.4093 89.7842 30.7837 90.4554 30.7837C91.3165 30.7837 91.7091 31.6277 91.7091 32.4123V32.5014Z" fill="#00192E"/>
<path id="Vector_37" d="M62.4505 30.2175C62.4505 28.0332 60.8907 26.6229 58.4782 26.6229H54.0964V36.8637H56.739V33.8269H58.4339C60.8359 33.8269 62.4484 32.3763 62.4484 30.2175M56.739 31.8758V28.5739H57.9801C59.0502 28.5739 59.6876 29.1889 59.6876 30.2175C59.6876 31.246 59.0101 31.8758 57.9189 31.8758H56.7369H56.739Z" fill="#00192E"/>
<path id="Vector_38" d="M65.7749 26.6229H63.3223V36.8658H65.7749V26.6229Z" fill="#00192E"/>
<path id="Vector_39" d="M72.3223 29.4519L70.7583 33.8311L69.1942 29.4519H66.6086C66.7184 29.7424 69.2238 36.3674 69.5235 37.2454C69.323 37.8392 68.6075 38.679 67.5732 39.2091L68.2887 41.1411C70.22 40.068 71.0052 39.3024 71.8537 37.2242C72.7022 35.1523 74.7728 29.4519 74.7728 29.4519H72.3244H72.3223Z" fill="#00192E"/>
<path id="Vector_40" d="M0.805298 84.7188V85.4822H8.88085V106.74L72.8732 123.998L136.866 106.74V85.4822H144.943V84.7188H0.805298ZM129.949 85.4822V101.232L72.8753 116.618L15.7997 101.232V85.4822H129.949ZM136.532 106.483L72.8753 123.65L9.21857 106.483V85.4822H15.2446V101.663L72.8774 117.201L130.51 101.663V85.4822H136.534V106.483H136.532Z" fill="#00192E"/>
<path id="Vector_41" d="M136.87 46.0483V17.258L72.8774 0L8.88297 17.258V46.0483H0.805298V46.8117H144.945V46.0483H136.87ZM9.21857 17.5168L72.8774 0.349911L136.534 17.5168V46.0483H130.51V22.3349L72.8774 6.79676L15.2425 22.3349V46.0483H9.21857V17.5168ZM129.951 46.0483H15.8019V22.7654L72.8774 7.37994L129.951 22.7654V46.0483Z" fill="#00192E"/>
</g>
</g>
</g>
</g>
<defs>
<clipPath id="clip0_1_930">
<rect width="144.142" height="124" fill="white" transform="translate(0.805298)"/>
</clipPath>
</defs>
</svg>
