<svg width="128" height="23" viewBox="0 0 128 23" fill="none" xmlns="http://www.w3.org/2000/svg">
<g id="stars">
<path id="Star 1" d="M10.8693 0.95407C10.9551 0.669392 11.3582 0.669392 11.4439 0.95407L13.4849 7.7328C13.523 7.85955 13.6398 7.9463 13.7721 7.9463H20.4228C20.7079 7.9463 20.8322 8.30651 20.6079 8.48239L15.1891 12.731C15.0918 12.8072 15.0513 12.9353 15.0869 13.0536L17.1473 19.8966C17.2317 20.1771 16.9054 20.3999 16.6749 20.2192L11.3417 16.0377C11.233 15.9525 11.0802 15.9525 10.9715 16.0377L5.63828 20.2192C5.40778 20.3999 5.08147 20.1771 5.16592 19.8966L7.22631 13.0536C7.26193 12.9353 7.22137 12.8072 7.12415 12.731L1.70532 8.48239C1.48099 8.30651 1.60536 7.9463 1.89042 7.9463H8.54108C8.67345 7.9463 8.79018 7.85955 8.82834 7.7328L10.8693 0.95407Z" fill="#00192E"/>
<path id="Star 2" d="M35.9455 0.95407C36.0312 0.669392 36.4343 0.669392 36.52 0.95407L38.5611 7.7328C38.5992 7.85955 38.7159 7.9463 38.8483 7.9463H45.499C45.784 7.9463 45.9084 8.30651 45.6841 8.48239L40.2652 12.731C40.168 12.8072 40.1275 12.9353 40.1631 13.0536L42.2235 19.8966C42.3079 20.1771 41.9816 20.3999 41.7511 20.2192L36.4179 16.0377C36.3092 15.9525 36.1564 15.9525 36.0477 16.0377L30.7145 20.2192C30.484 20.3999 30.1576 20.1771 30.2421 19.8966L32.3025 13.0536C32.3381 12.9353 32.2975 12.8072 32.2003 12.731L26.7815 8.48239C26.5572 8.30651 26.6815 7.9463 26.9666 7.9463H33.6172C33.7496 7.9463 33.8663 7.85955 33.9045 7.7328L35.9455 0.95407Z" fill="#00192E"/>
<path id="Star 3" d="M61.0217 0.95407C61.1074 0.669392 61.5105 0.669392 61.5962 0.95407L63.6372 7.7328C63.6754 7.85955 63.7921 7.9463 63.9245 7.9463H70.5751C70.8602 7.9463 70.9846 8.30651 70.7602 8.48239L65.3414 12.731C65.2442 12.8072 65.2036 12.9353 65.2393 13.0536L67.2996 19.8966C67.3841 20.1771 67.0578 20.3999 66.8273 20.2192L61.4941 16.0377C61.3854 15.9525 61.2325 15.9525 61.1239 16.0377L55.7906 20.2192C55.5601 20.3999 55.2338 20.1771 55.3183 19.8966L57.3786 13.0536C57.4143 12.9353 57.3737 12.8072 57.2765 12.731L51.8577 8.48239C51.6333 8.30651 51.7577 7.9463 52.0428 7.9463H58.6934C58.8258 7.9463 58.9425 7.85955 58.9807 7.7328L61.0217 0.95407Z" fill="#00192E"/>
<path id="Star 4" d="M86.0979 0.95407C86.1836 0.669392 86.5867 0.669392 86.6724 0.95407L88.7134 7.7328C88.7516 7.85955 88.8683 7.9463 89.0007 7.9463H95.6513C95.9364 7.9463 96.0607 8.30651 95.8364 8.48239L90.4176 12.731C90.3204 12.8072 90.2798 12.9353 90.3154 13.0536L92.3758 19.8966C92.4603 20.1771 92.134 20.3999 91.9035 20.2192L86.5702 16.0377C86.4615 15.9525 86.3087 15.9525 86.2 16.0377L80.8668 20.2192C80.6363 20.3999 80.31 20.1771 80.3944 19.8966L82.4548 13.0536C82.4904 12.9353 82.4499 12.8072 82.3527 12.731L76.9338 8.48239C76.7095 8.30651 76.8339 7.9463 77.1189 7.9463H83.7696C83.902 7.9463 84.0187 7.85955 84.0569 7.7328L86.0979 0.95407Z" fill="#00192E"/>
<path id="Star 5" d="M111.174 0.95407C111.26 0.669392 111.663 0.669392 111.748 0.95407L113.79 7.7328C113.828 7.85955 113.944 7.9463 114.077 7.9463H120.727C121.012 7.9463 121.137 8.30651 120.913 8.48239L115.494 12.731C115.396 12.8072 115.356 12.9353 115.392 13.0536L117.452 19.8966C117.536 20.1771 117.21 20.3999 116.98 20.2192L111.646 16.0377C111.538 15.9525 111.385 15.9525 111.276 16.0377L105.943 20.2192C105.712 20.3999 105.386 20.1771 105.471 19.8966L107.531 13.0536C107.567 12.9353 107.526 12.8072 107.429 12.731L102.01 8.48239C101.786 8.30651 101.91 7.9463 102.195 7.9463H108.846C108.978 7.9463 109.095 7.85955 109.133 7.7328L111.174 0.95407Z" fill="#00192E"/>
</g>
</svg>
