<svg width="110" height="20" viewBox="0 0 110 20" fill="none" xmlns="http://www.w3.org/2000/svg">
<g id="stars">
<path id="Star 1" d="M8.94278 0.958154C9.02828 0.67306 9.43199 0.673059 9.51749 0.958154L11.2383 6.69601C11.2764 6.82292 11.3932 6.90983 11.5257 6.90983H17.1424C17.4271 6.90983 17.5517 7.26943 17.3279 7.44556L12.7436 11.054C12.6468 11.1302 12.6064 11.2579 12.6418 11.3759L14.383 17.1815C14.4671 17.4622 14.1403 17.6847 13.9101 17.5034L9.41569 13.9657C9.30683 13.88 9.15344 13.88 9.04458 13.9657L4.55022 17.5034C4.31997 17.6847 3.99313 17.4622 4.07731 17.1815L5.81843 11.3759C5.85383 11.2579 5.81345 11.1302 5.71663 11.054L1.13236 7.44556C0.908593 7.26943 1.03314 6.90983 1.31791 6.90983H6.93461C7.0671 6.90983 7.18391 6.82292 7.22197 6.69601L8.94278 0.958154Z" fill="#FBBC04"/>
<path id="Star 2" d="M29.403 0.958154C29.4885 0.67306 29.8923 0.673059 29.9778 0.958154L31.6986 6.69601C31.7366 6.82292 31.8534 6.90983 31.9859 6.90983H37.6026C37.8874 6.90983 38.0119 7.26943 37.7882 7.44556L33.2039 11.054C33.1071 11.1302 33.0667 11.2579 33.1021 11.3759L34.8432 17.1815C34.9274 17.4622 34.6006 17.6847 34.3703 17.5034L29.876 13.9657C29.7671 13.88 29.6137 13.88 29.5048 13.9657L25.0105 17.5034C24.7802 17.6847 24.4534 17.4622 24.5376 17.1815L26.2787 11.3759C26.3141 11.2579 26.2737 11.1302 26.1769 11.054L21.5926 7.44556C21.3689 7.26943 21.4934 6.90983 21.7782 6.90983H27.3949C27.5274 6.90983 27.6442 6.82292 27.6822 6.69601L29.403 0.958154Z" fill="#FBBC04"/>
<path id="Star 3" d="M49.8633 0.958154C49.9488 0.67306 50.3525 0.673059 50.438 0.958154L52.1588 6.69601C52.1969 6.82292 52.3137 6.90983 52.4462 6.90983H58.0629C58.3477 6.90983 58.4722 7.26943 58.2484 7.44556L53.6642 11.054C53.5674 11.1302 53.527 11.2579 53.5624 11.3759L55.3035 17.1815C55.3877 17.4622 55.0608 17.6847 54.8306 17.5034L50.3362 13.9657C50.2274 13.88 50.074 13.88 49.9651 13.9657L45.4708 17.5034C45.2405 17.6847 44.9137 17.4622 44.9978 17.1815L46.739 11.3759C46.7744 11.2579 46.734 11.1302 46.6372 11.054L42.0529 7.44556C41.8291 7.26943 41.9537 6.90983 42.2384 6.90983H47.8551C47.9876 6.90983 48.1044 6.82292 48.1425 6.69601L49.8633 0.958154Z" fill="#FBBC04"/>
<path id="Star 4" d="M70.3236 0.958154C70.4091 0.67306 70.8128 0.673059 70.8983 0.958154L72.6191 6.69601C72.6572 6.82292 72.774 6.90983 72.9065 6.90983H78.5232C78.8079 6.90983 78.9325 7.26943 78.7087 7.44556L74.1244 11.054C74.0276 11.1302 73.9872 11.2579 74.0226 11.3759L75.7638 17.1815C75.8479 17.4622 75.5211 17.6847 75.2908 17.5034L70.7965 13.9657C70.6876 13.88 70.5342 13.88 70.4254 13.9657L65.931 17.5034C65.7008 17.6847 65.3739 17.4622 65.4581 17.1815L67.1992 11.3759C67.2346 11.2579 67.1943 11.1302 67.0974 11.054L62.5132 7.44556C62.2894 7.26943 62.4139 6.90983 62.6987 6.90983H68.3154C68.4479 6.90983 68.5647 6.82292 68.6028 6.69601L70.3236 0.958154Z" fill="#FBBC04"/>
<path id="Star 5" d="M90.7838 0.958154C90.8693 0.67306 91.2731 0.673059 91.3586 0.958154L93.0794 6.69601C93.1174 6.82292 93.2342 6.90983 93.3667 6.90983H98.9834C99.2682 6.90983 99.3927 7.26943 99.169 7.44556L94.5847 11.054C94.4879 11.1302 94.4475 11.2579 94.4829 11.3759L96.224 17.1815C96.3082 17.4622 95.9814 17.6847 95.7511 17.5034L91.2568 13.9657C91.1479 13.88 90.9945 13.88 90.8856 13.9657L86.3913 17.5034C86.161 17.6847 85.8342 17.4622 85.9184 17.1815L87.6595 11.3759C87.6949 11.2579 87.6545 11.1302 87.5577 11.054L82.9734 7.44556C82.7497 7.26943 82.8742 6.90983 83.159 6.90983H88.7757C88.9082 6.90983 89.025 6.82292 89.063 6.69601L90.7838 0.958154Z" fill="#FBBC04"/>
</g>
</svg>
