<svg width="104" height="78" viewBox="0 0 104 78" fill="none" xmlns="http://www.w3.org/2000/svg">
<path d="M100.52 6.20587C97.8346 6.89626 96.8474 9.1256 96.8134 11.0198L93.1848 11.9539C92.4755 12.1364 91.8954 12.8852 91.8954 13.6177V15.9751C88.5467 16.7897 86.2529 18.4263 85.0231 20.855C83.8482 19.1826 81.9461 18.9869 81.1839 18.9836C80.7872 18.9836 80.3703 19.0238 79.9316 19.0958L57.0356 1.21333C56.035 0.431084 54.7547 0 53.4302 0C52.1073 0 50.8273 0.430464 49.8261 1.21209L12.8214 30.114C11.9772 28.7905 10.5868 28.0511 8.76061 28.0437C8.05821 28.0437 7.2692 28.1553 6.41442 28.3747C2.44987 29.394 0.176605 32.3057 0.176605 36.3619V42.0578C0.176605 44.2342 0.795447 45.5781 1.7872 47.0304L6.05098 53.365C6.42269 53.9336 6.52998 54.2984 6.52998 54.9911V56.626C6.47898 56.5661 6.42566 56.508 6.36993 56.4515C5.565 55.6374 4.32312 55.3136 3.13876 55.6203C1.34915 56.0804 0 57.7966 0 59.6119V65.0123C0 68.707 1.89923 70.9207 5.08778 70.9336H5.10853C5.82822 70.9336 6.63613 70.8199 7.5099 70.5952C11.0858 69.6756 13.3544 67.1427 13.7634 63.7191C14.5051 64.1401 15.3792 64.3644 16.3279 64.3679L16.3997 64.369C17.0334 64.369 17.7032 64.2789 18.3884 64.1022C20.7291 63.5009 22.4299 62.2022 23.3575 60.3879C24.5755 61.5124 26.1248 61.6583 26.7821 61.6608L26.8556 61.6617C27.5212 61.6617 28.2492 61.5611 29.0192 61.3625C29.2817 61.295 29.536 61.2185 29.7832 61.1345L49.8257 76.7873C50.8263 77.5696 52.1066 78 53.4302 78C54.7551 78 56.0356 77.5689 57.0337 76.7873L78.8484 59.7509H92.7372V48.904L100.334 42.9711C100.634 42.7371 101.769 41.6937 102.044 41.4111C103.313 40.1088 104 38.3493 104 36.2577V5.34412L100.52 6.20587Z" fill="white"/>
<path d="M89.7456 48.4319L96.1097 43.4618C95.8686 43.4859 95.6269 43.5113 95.3953 43.5113H95.3801C94.4304 43.5078 93.5877 43.2905 92.8739 42.9074L85.7999 48.4319H89.7456Z" fill="black"/>
<path d="M89.7456 48.4319L96.1097 43.4618C95.8686 43.4859 95.6269 43.5113 95.3953 43.5113H95.3801C94.4304 43.5078 93.5877 43.2905 92.8739 42.9074L85.7999 48.4319H89.7456Z" fill="url(#paint0_linear_321_230)"/>
<path d="M76.1591 58.0976C75.9022 57.8453 75.6777 57.5581 75.4923 57.2442C75.384 57.0611 75.2936 56.877 75.2182 56.6957L54.4187 72.9396C53.9042 73.3416 52.9557 73.3416 52.44 72.9396L33.4978 58.1455C32.9824 58.7754 32.3547 59.3168 31.6286 59.767L50.9464 74.8538C51.6287 75.3871 52.5106 75.6806 53.4301 75.6806C54.35 75.6806 55.2319 75.3871 55.9132 74.8538L76.751 58.5801C76.5381 58.4365 76.3399 58.2753 76.1591 58.0976Z" fill="black"/>
<path d="M76.1591 58.0976C75.9022 57.8453 75.6777 57.5581 75.4923 57.2442C75.384 57.0611 75.2936 56.877 75.2182 56.6957L54.4187 72.9396C53.9042 73.3416 52.9557 73.3416 52.44 72.9396L33.4978 58.1455C32.9824 58.7754 32.3547 59.3168 31.6286 59.767L50.9464 74.8538C51.6287 75.3871 52.5106 75.6806 53.4301 75.6806C54.35 75.6806 55.2319 75.3871 55.9132 74.8538L76.751 58.5801C76.5381 58.4365 76.3399 58.2753 76.1591 58.0976Z" fill="url(#paint1_linear_321_230)"/>
<path d="M13.749 33.2841V34.2849L52.4403 4.06522C52.6983 3.8642 53.0497 3.75319 53.4304 3.75319C53.8109 3.75319 54.1623 3.86379 54.4196 4.06522L75.5193 20.5449C76.1765 20.0061 76.9308 19.5569 77.762 19.2148L55.9141 2.15101C55.2322 1.61777 54.3503 1.32427 53.4304 1.32427C52.5109 1.32427 51.629 1.61756 50.9467 2.15039L13.5404 31.3662C13.6766 31.9485 13.749 32.5882 13.749 33.2841Z" fill="black"/>
<path d="M13.749 33.2841V34.2849L52.4403 4.06522C52.6983 3.8642 53.0497 3.75319 53.4304 3.75319C53.8109 3.75319 54.1623 3.86379 54.4196 4.06522L75.5193 20.5449C76.1765 20.0061 76.9308 19.5569 77.762 19.2148L55.9141 2.15101C55.2322 1.61777 54.3503 1.32427 53.4304 1.32427C52.5109 1.32427 51.629 1.61756 50.9467 2.15039L13.5404 31.3662C13.6766 31.9485 13.749 32.5882 13.749 33.2841Z" fill="url(#paint2_linear_321_230)"/>
<path d="M6.2587 42.7692C5.86335 42.1882 5.66237 41.3518 5.66237 40.2835V35.0724C5.66237 33.7431 6.06665 33.0968 7.05656 32.842C7.2338 32.7967 7.39327 32.7734 7.53016 32.7734C7.91071 32.7753 8.26344 32.9506 8.26344 34.2086V37.6712C8.26103 38.057 8.2558 38.96 8.78868 39.5029C9.17752 39.8989 9.75727 40.0104 10.4798 39.8236L11.928 39.4512V33.2844C11.928 30.694 10.8699 29.3765 8.76076 29.3678C8.21125 29.3678 7.57463 29.4597 6.86806 29.6412C3.68192 30.4607 1.99782 32.6128 1.99782 35.8645V41.5604C1.99782 43.2841 2.45484 44.2804 3.29783 45.5153L7.57527 51.8705C8.14072 52.7358 8.35118 53.4466 8.35118 54.4933V62.6584C8.35118 63.6129 8.09392 64.8169 6.86806 65.1322C6.69909 65.1759 6.54258 65.1982 6.40209 65.1982C6.17571 65.1969 5.48568 65.1939 5.48568 63.59V58.2953L5.48449 58.1132H5.47564C5.44066 57.7672 5.30435 57.4666 5.07611 57.2357C4.72105 56.8767 4.15552 56.742 3.59232 56.887C2.61553 57.1385 1.82121 58.1375 1.82121 59.114V64.5146C1.82121 67.2261 2.92017 68.6056 5.08793 68.6145H5.10876C5.67485 68.6145 6.32979 68.5199 7.05656 68.3331C10.2084 67.5227 12.0157 65.2462 12.0157 62.0871V53.3481C12.0157 51.9041 11.615 50.5441 10.8894 49.5209L6.2587 42.7692Z" fill="#231F20"/>
<path d="M19.5071 36.1714C19.0903 36.1714 18.6268 36.2367 18.1294 36.365C14.9569 37.1802 13.2806 39.3226 13.2806 42.5607V58.8928C13.2806 59.9329 13.5829 60.74 14.1804 61.2916C14.7127 61.7834 15.4726 62.0456 16.3783 62.0492L16.3998 62.0493C16.8793 62.0493 17.3963 61.9789 17.9356 61.8397C20.7779 61.1096 22.3434 59.1531 22.3434 56.3312V52.2008C22.3434 51.3846 21.7655 50.7923 20.9694 50.7923C20.8242 50.7923 20.6748 50.812 20.5249 50.8505C19.5711 51.0954 18.7957 52.0686 18.7957 53.0195V57.0772C18.7957 58.0973 18.4437 58.6633 17.6884 58.8582C17.545 58.8948 17.4199 58.9136 17.312 58.9136C17.1194 58.9128 16.8278 58.9111 16.8278 57.7942V41.4174C16.8278 40.2923 17.219 39.6447 18.0239 39.4373C18.1472 39.406 18.2534 39.3899 18.3423 39.3899C18.4893 39.3906 18.7957 39.392 18.7957 40.7009V42.2994C18.794 42.6726 18.7898 43.5463 19.3043 44.0707C19.5628 44.3339 19.9055 44.4673 20.3228 44.4673C20.5142 44.4673 20.7223 44.4385 20.9416 44.3817L22.3434 44.0212V39.69C22.3434 36.6389 20.577 36.1759 19.5071 36.1714Z" fill="#231F20"/>
<path d="M29.8683 53.6067C29.8683 55.0485 29.39 55.8433 28.3633 56.1077C28.199 56.1496 28.0508 56.171 27.9182 56.171C27.6623 56.1698 27.0615 56.1669 27.0615 54.5389V39.2223C27.0615 37.7801 27.5398 36.9851 28.5665 36.7213C28.7308 36.6795 28.8504 36.6616 29.0075 36.6581C29.25 36.6527 29.8683 36.6622 29.8683 38.2895V53.6067ZM30.0752 33.4866C29.5619 33.4866 28.9857 33.5678 28.3633 33.7282C25.1907 34.5434 23.5144 36.6859 23.5144 39.9238V55.2409C23.5144 58.6193 25.3206 59.336 26.8357 59.3422L26.8558 59.3424C27.3697 59.3424 27.9454 59.2608 28.5665 59.1008C31.7391 58.2854 33.4153 56.1432 33.4153 52.905V37.5876C33.4153 34.2102 31.6098 33.4934 30.0752 33.4866Z" fill="#231F20"/>
<path d="M38.547 31.393V27.1124L37.3413 27.4109C35.228 27.9544 34.9997 29.7967 34.9997 30.5639V55.6222C34.9997 56.438 35.5778 57.0306 36.3739 57.0308C36.5191 57.0308 36.6685 57.0111 36.8184 56.9723C37.7716 56.7274 38.547 55.7542 38.547 54.7994V34.4389L40.1674 34.0204C40.3513 32.7033 40.8172 31.5612 41.5452 30.6196L38.547 31.393Z" fill="#231F20"/>
<path d="M47.5173 28.9567C47.1004 28.9567 46.637 29.022 46.1396 29.1503C42.9672 29.9653 41.2907 32.108 41.2907 35.3461V51.6781C41.2907 52.7183 41.5932 53.5254 42.1906 54.0768C42.7228 54.5688 43.4829 54.8308 44.3886 54.8345L44.41 54.8347C44.8895 54.8347 45.4065 54.7643 45.9459 54.6251C48.7882 53.8947 50.3537 51.9385 50.3537 49.1166V44.9862C50.3537 44.17 49.7758 43.5774 48.9797 43.5774C48.8343 43.5774 48.6851 43.5974 48.535 43.6359C47.5814 43.8808 46.806 44.854 46.806 45.8049V49.8626C46.806 50.8827 46.4538 51.4487 45.6986 51.6435C45.5551 51.6802 45.4301 51.6989 45.3223 51.6989C45.1296 51.6981 44.838 51.6965 44.838 50.5795V34.2028C44.838 33.0776 45.2292 32.4301 46.0342 32.2227C46.1575 32.1914 46.2635 32.1753 46.3525 32.1753C46.4995 32.1759 46.806 32.1774 46.806 33.4861V35.0845C46.8042 35.4579 46.8001 36.3319 47.3145 36.856C47.5729 37.1192 47.9157 37.2527 48.333 37.2527C48.5243 37.2527 48.7324 37.2239 48.9517 37.167L50.3537 36.8064V32.4754C50.3537 29.4243 48.5873 28.9611 47.5173 28.9567Z" fill="#231F20"/>
<path d="M58.7019 26.0592C58.3972 26.0592 58.0736 26.1025 57.7411 26.1886C56.456 26.5187 55.569 27.3793 55.0719 28.0029V21.9412C55.0741 21.5684 55.0795 20.6956 54.5631 20.1695C54.1862 19.7858 53.6249 19.6779 52.9254 19.8585L51.5246 20.2192V51.3692C51.5239 51.7704 51.6633 52.1319 51.9159 52.3871C52.1655 52.6392 52.5146 52.778 52.8986 52.778C53.0439 52.778 53.1932 52.7584 53.3439 52.7197C54.2965 52.4746 55.0719 51.501 55.0719 50.5503V32.0787C55.0719 31.2926 55.5662 30.0582 56.6645 29.7756C56.8045 29.74 56.9332 29.7223 57.0468 29.7223C57.4038 29.7223 57.878 29.87 57.878 31.1463V49.7351C57.878 50.5511 58.4561 51.1435 59.252 51.1439C59.3972 51.1439 59.5472 51.1239 59.6973 51.0854C60.6503 50.8405 61.4257 49.8673 61.4257 48.9162V29.3849C61.4257 27.3333 60.3819 26.0592 58.7019 26.0592Z" fill="#231F20"/>
<path d="M69.7887 23.2312C69.3493 23.2312 68.8673 23.2959 68.3582 23.4227L67.4542 23.6549C65.3026 24.2085 63.0031 25.8335 63.0031 28.7337V45.0661C63.0031 48.4439 64.8087 49.1605 66.3435 49.1673C66.8567 49.1673 67.433 49.0861 68.0554 48.9257C68.6588 48.7706 69.0578 48.6466 69.3565 48.5177V57.2612L70.5621 56.9512C72.6759 56.4077 72.9042 54.5651 72.9042 53.7981V32.6948L71.6986 33.0047C69.5853 33.5481 69.3569 35.3906 69.3569 36.1578L69.3565 43.8728C69.3565 45.401 68.9131 45.6498 68.4216 45.7854L67.5425 46.0121C67.4235 46.0424 67.3138 46.0583 67.2123 46.0583C67.0315 46.0572 66.5502 46.0552 66.5502 44.8054V28.4289C66.5502 27.3249 66.8277 26.8621 67.6059 26.6617C67.6142 26.6599 67.8112 26.6096 68.0185 26.5558L68.4951 26.4335C68.6001 26.409 68.6961 26.3966 68.7856 26.3966C68.9563 26.3973 69.3565 26.3985 69.3565 27.4965V30.1295C69.3569 30.9453 69.935 31.5375 70.7312 31.5375C70.8763 31.5375 71.0258 31.5179 71.1757 31.4794C72.1289 31.2345 72.9042 30.2613 72.9042 29.3104V26.8388C72.9042 24.5461 71.769 23.2312 69.7887 23.2312Z" fill="#231F20"/>
<path d="M80.6384 41.1363C80.6384 42.2287 80.3693 42.689 79.6129 42.895L78.7369 43.1207C78.6142 43.1522 78.5032 43.1683 78.4032 43.1683C78.2323 43.1675 77.8323 43.1656 77.8323 42.0689V35.7565C77.8323 33.9634 79.8375 33.0603 80.6384 32.7713V41.1363ZM81.1838 20.3079C80.6693 20.3079 80.0996 20.3902 79.4428 20.5598C76.5614 21.3008 74.5495 23.5808 74.5495 26.1047V30.5288L75.7551 30.2188C77.8685 29.6753 78.0966 27.8329 78.0966 27.0661V25.977C78.0966 24.6051 78.3152 23.8957 79.5577 23.5761C79.7321 23.5314 79.8851 23.5085 80.0166 23.5085C80.2491 23.5098 80.6384 23.5112 80.6384 24.8036V29.7008C76.422 30.8612 74.2846 33.0745 74.2846 36.2813V42.7259C74.2846 45.0129 75.4054 46.3294 77.3604 46.3377L77.3783 46.3379C77.8395 46.3379 78.3503 46.2664 78.8969 46.1257L79.7926 45.895C81.9165 45.3309 84.1863 43.7046 84.1863 40.8314V24.0576C84.1863 20.9686 82.5644 20.3136 81.1838 20.3079Z" fill="#231F20"/>
<path d="M92.399 17.2302C89.5583 17.9062 85.7822 19.4779 85.7822 25.2988V42.54C85.7822 43.3558 86.3597 43.9475 87.1552 43.9475C87.3004 43.9475 87.4499 43.928 87.5997 43.8894C88.5529 43.6448 89.3277 42.6726 89.3277 41.7174V24.8162C89.3277 22.9902 89.8525 21.9661 91.1155 21.3077C91.2701 19.6297 91.8608 18.2162 92.8513 17.1157L92.399 17.2302Z" fill="#231F20"/>
<path d="M98.6337 36.4992C98.6337 37.501 98.2963 38.0632 97.5761 38.2665L96.6888 38.497C96.5446 38.5337 96.4195 38.5528 96.3122 38.5528C96.1203 38.5518 95.8292 38.551 95.8292 37.4342V21.0674C95.8292 19.942 96.2191 19.2938 97.0219 19.0866L97.3929 18.9909C97.6193 18.9324 97.8732 18.8681 97.8991 18.8609C98.3603 18.734 98.6337 18.8234 98.6337 20.1319V36.4992ZM100.974 7.4724C98.8612 8.01532 98.6337 9.85704 98.6337 10.6234V15.7406C98.3063 15.7181 97.9067 15.812 97.1291 16.0131C93.959 16.8316 92.2838 18.9752 92.2838 22.2128V38.5353C92.2838 40.5035 93.4408 41.6824 95.3798 41.6892H95.3952C95.8766 41.6892 96.3958 41.6184 96.9383 41.4781L97.8357 41.246C100.636 40.5008 102.179 38.5522 102.179 35.7595V7.17375L100.974 7.4724Z" fill="#231F20"/>
<path d="M82.7996 54.4375C82.5445 53.9086 82.1849 53.6769 81.9819 53.604C82.4068 53.4151 82.6296 53.1587 82.7996 52.6477V54.4375ZM87.8881 50.2534L86.8583 54.447L85.8244 50.2534H82.7938V51.8024C82.4305 50.447 81.1464 50.1071 79.9568 50.0882C78.5077 50.0692 76.9877 50.6972 76.9319 52.6147H78.9373C78.9373 52.036 79.381 51.7048 79.8813 51.7126C80.495 51.7079 80.7783 51.9701 80.7923 52.3785C80.7711 52.7327 80.5619 52.9795 79.886 52.9795H79.2116V54.3714H79.8241C80.1712 54.3714 80.6556 54.5603 80.6745 55.056C80.698 55.6465 80.2873 55.9062 79.7823 55.911C78.8807 55.8778 78.7343 55.1843 78.7343 54.5887H76.6525C76.662 54.9901 76.5627 57.6062 79.8247 57.5872C81.3873 57.6015 82.4776 56.9451 82.7986 56.0385V57.4268H84.852V52.9027L85.9613 57.4268H87.7551L88.8691 52.9074V57.4314H90.9166V50.2534H87.8881Z" fill="#ED192E"/>
<path d="M43.2696 59.6451L43.6153 59.5562C44.2006 59.4061 44.2074 59.0474 44.2074 58.5302C44.2074 58.042 44.2074 57.6418 43.6435 57.7868L43.2696 57.8826V59.6451ZM42.5503 57.3681L43.6295 57.0913C44.0242 56.9898 44.3136 57.0099 44.5603 57.2163C44.8071 57.4221 44.8843 57.7302 44.8843 58.3493C44.8843 58.8006 44.8491 59.1157 44.6801 59.443C44.4825 59.829 44.1654 60.1144 43.6367 60.2502L43.2696 60.3443V62.3687L42.5503 62.5535V57.3681Z" fill="#231F20"/>
<path d="M45.9995 58.7979L46.4088 58.6931C46.9093 58.5646 46.9871 58.2534 46.9871 57.7362C46.9871 57.212 46.9023 56.9498 46.3736 57.0858L45.9995 57.1815V58.7979ZM45.2804 56.6671L46.4368 56.3703C47.29 56.1511 47.706 56.5614 47.706 57.5667C47.706 58.1638 47.5442 58.6419 47.0857 59.0223L47.8613 61.1896L47.0995 61.3853L46.4298 59.3431L45.9995 59.4533V61.6677L45.2804 61.8524V56.6671Z" fill="#231F20"/>
<path d="M48.8222 59.72C48.8222 60.0772 49.0478 60.1861 49.3089 60.1192C49.5697 60.052 49.7956 59.8271 49.7956 59.47V56.7315C49.7956 56.3746 49.5697 56.2652 49.3089 56.3321C49.0478 56.3991 48.8222 56.6244 48.8222 56.9815V59.72ZM48.1032 57.1659C48.1032 56.3208 48.7236 55.7394 49.3089 55.589C49.894 55.4391 50.5145 55.7019 50.5145 56.5468V59.2854C50.5145 60.1299 49.894 60.7121 49.3089 60.8622C48.7236 61.0126 48.1032 60.749 48.1032 59.9045V57.1659Z" fill="#231F20"/>
<path d="M51.5382 55.7599L50.7061 55.9733V55.2743L53.0893 54.6621V55.3614L52.2574 55.5752V60.0613L51.5382 60.246V55.7599Z" fill="#231F20"/>
<path d="M53.4084 54.5805L55.5518 54.0301V54.7294L54.1273 55.095V56.6172L55.3684 56.2988V56.9979L54.1273 57.3165V58.8381L55.5518 58.4725V59.2154L53.4084 59.7658V54.5805Z" fill="#231F20"/>
<path d="M58.304 57.351C58.304 57.9919 57.8031 58.6817 57.1612 58.8465C56.6117 58.9875 55.9768 58.8735 55.9768 57.9264V55.0716C55.9768 54.3944 56.4493 53.7561 57.1476 53.5769C57.8103 53.4068 58.304 53.7969 58.304 54.5182V54.8092L57.5845 54.9939V54.7466C57.5845 54.4549 57.4154 54.2512 57.1404 54.3217C56.7807 54.4139 56.6959 54.6906 56.6959 55.0399V57.6906C56.6959 57.9897 56.8091 58.1938 57.1332 58.1106C57.3306 58.0599 57.5845 57.8778 57.5845 57.4704V57.2155L58.304 57.0307V57.351Z" fill="#231F20"/>
<path d="M59.2214 53.7873L58.3892 54.0009V53.3016L60.7727 52.6897V53.3888L59.9411 53.6026V58.0888L59.2214 58.2735V53.7873Z" fill="#231F20"/>
<path d="M61.6839 56.4182C61.6839 56.7752 61.9091 56.8843 62.1706 56.8172C62.4312 56.7502 62.6571 56.5251 62.6571 56.1682V53.4297C62.6571 53.0726 62.4312 52.9632 62.1706 53.0304C61.9091 53.0973 61.6839 53.3226 61.6839 53.6795V56.4182ZM60.9648 53.8641C60.9648 53.019 61.5849 52.4376 62.1706 52.2872C62.7555 52.1371 63.3762 52.3999 63.3762 53.245V55.9834C63.3762 56.8279 62.7555 57.4104 62.1706 57.5603C61.5849 57.7106 60.9648 57.447 60.9648 56.6026V53.8641Z" fill="#231F20"/>
<path d="M64.7316 53.9894L65.1405 53.8843C65.6414 53.7556 65.7192 53.4446 65.7192 52.9274C65.7192 52.4033 65.6344 52.1409 65.1055 52.2766L64.7316 52.3728V53.9894ZM64.0125 51.8583L65.1691 51.5611C66.022 51.3424 66.4381 51.7524 66.4381 52.7575C66.4381 53.3548 66.2763 53.8331 65.8176 54.2131L66.5934 56.3808L65.8318 56.5763L65.1619 54.534L64.7316 54.6446V56.8589L64.0125 57.0436V51.8583Z" fill="#231F20"/>
<path d="M93.1123 13.006L94.6404 12.6102V12.938L94.04 13.0933V14.9334L93.7092 15.0193V13.179L93.1123 13.3339V13.006Z" fill="#100F0D"/>
<path d="M94.8546 12.5543L95.3198 12.434L95.8409 13.9961L95.8457 13.9946L96.3536 12.1659L96.8143 12.0466V14.2148L96.4989 14.2964V12.6233L96.4936 12.625L95.9706 14.4333L95.698 14.5042L95.1747 12.9665L95.1687 12.9683V14.6411L94.8546 14.7223V12.5543Z" fill="#100F0D"/>
<defs>
<linearGradient id="paint0_linear_321_230" x1="-797.554" y1="38.9986" x2="137.528" y2="38.9986" gradientUnits="userSpaceOnUse">
<stop stop-color="#656263"/>
<stop offset="0.0190911" stop-color="#656263"/>
<stop offset="0.0778871" stop-color="#D3D2D2"/>
<stop offset="0.0891327" stop-color="#D3D2D2"/>
<stop offset="0.198664" stop-color="#E9E9E9"/>
<stop offset="0.206118" stop-color="#E9E9E9"/>
<stop offset="0.278715" stop-color="white"/>
<stop offset="0.295979" stop-color="white"/>
<stop offset="0.34915" stop-color="#918F90"/>
<stop offset="0.373552" stop-color="#918F90"/>
<stop offset="0.385138" stop-color="#D3D2D2"/>
<stop offset="0.468402" stop-color="#D3D2D2"/>
<stop offset="0.724837" stop-color="#918F90"/>
<stop offset="0.750943" stop-color="#4F4C4D"/>
<stop offset="0.780899" stop-color="#4F4C4D"/>
<stop offset="0.827988" stop-color="white"/>
<stop offset="0.882022" stop-color="white"/>
<stop offset="0.93696" stop-color="#BDBCBC"/>
<stop offset="1" stop-color="#BDBCBC"/>
</linearGradient>
<linearGradient id="paint1_linear_321_230" x1="-57.3733" y1="39" x2="156.279" y2="39" gradientUnits="userSpaceOnUse">
<stop stop-color="#656263"/>
<stop offset="0.0190911" stop-color="#656263"/>
<stop offset="0.0778871" stop-color="#D3D2D2"/>
<stop offset="0.0891327" stop-color="#D3D2D2"/>
<stop offset="0.198664" stop-color="#E9E9E9"/>
<stop offset="0.206118" stop-color="#E9E9E9"/>
<stop offset="0.278715" stop-color="white"/>
<stop offset="0.295979" stop-color="white"/>
<stop offset="0.34915" stop-color="#918F90"/>
<stop offset="0.373552" stop-color="#918F90"/>
<stop offset="0.385138" stop-color="#D3D2D2"/>
<stop offset="0.468402" stop-color="#D3D2D2"/>
<stop offset="0.724837" stop-color="#918F90"/>
<stop offset="0.750943" stop-color="#4F4C4D"/>
<stop offset="0.780899" stop-color="#4F4C4D"/>
<stop offset="0.827988" stop-color="white"/>
<stop offset="0.882022" stop-color="white"/>
<stop offset="0.93696" stop-color="#BDBCBC"/>
<stop offset="1" stop-color="#BDBCBC"/>
</linearGradient>
<linearGradient id="paint2_linear_321_230" x1="-11.0185" y1="39" x2="139.094" y2="39" gradientUnits="userSpaceOnUse">
<stop stop-color="#656263"/>
<stop offset="0.0190911" stop-color="#656263"/>
<stop offset="0.0778871" stop-color="#D3D2D2"/>
<stop offset="0.0891327" stop-color="#D3D2D2"/>
<stop offset="0.198664" stop-color="#E9E9E9"/>
<stop offset="0.206118" stop-color="#E9E9E9"/>
<stop offset="0.278715" stop-color="white"/>
<stop offset="0.295979" stop-color="white"/>
<stop offset="0.34915" stop-color="#918F90"/>
<stop offset="0.373552" stop-color="#918F90"/>
<stop offset="0.385138" stop-color="#D3D2D2"/>
<stop offset="0.468402" stop-color="#D3D2D2"/>
<stop offset="0.724837" stop-color="#918F90"/>
<stop offset="0.750943" stop-color="#4F4C4D"/>
<stop offset="0.780899" stop-color="#4F4C4D"/>
<stop offset="0.827988" stop-color="white"/>
<stop offset="0.882022" stop-color="white"/>
<stop offset="0.93696" stop-color="#BDBCBC"/>
<stop offset="1" stop-color="#BDBCBC"/>
</linearGradient>
</defs>
</svg>
