<svg width="138" height="30" viewBox="0 0 138 30" fill="none" xmlns="http://www.w3.org/2000/svg">
<path d="M22.1639 0.187502H0V29.2339H22.1639V0.187502Z" fill="#000099"/>
<path d="M16.4886 16.3286H15.9036V8.56607H15.8716C15.2298 8.05601 14.421 7.80744 13.6058 7.86965C12.9811 7.85324 12.3648 8.01679 11.8293 8.34107L11.7708 8.37857V16.3286H10.3825V8.35179L10.324 8.31965C9.78848 7.99536 9.17215 7.83181 8.54749 7.84822C7.72767 7.79067 6.9165 8.04705 6.27632 8.56607L6.2444 8.59822V16.3339H5.6806V17.7321H16.4886V16.3286ZM13.9515 8.08393C14.5767 8.08623 15.1846 8.29095 15.6855 8.66786V12.1125H13.9515V8.08393ZM13.9515 12.3375H15.6855V16.3286H13.9515V12.3375ZM11.9942 8.48036C12.48 8.20195 13.0309 8.05952 13.5898 8.06786H13.7122V12.1071H11.9942V8.48036ZM11.9942 12.3375H13.7281V16.3286H11.9942V12.3375ZM8.42516 8.05179H8.54749C9.10649 8.04266 9.65763 8.18514 10.1432 8.46429V12.0964H8.41984V8.07322L8.42516 8.05179ZM8.42516 12.3375H10.1644V16.3286H8.42516V12.3375ZM6.4678 8.66786C6.96918 8.29197 7.57674 8.08736 8.20177 8.08393V12.1125H6.4678V8.66786ZM6.4678 12.3375H8.20177V16.3286H6.4678V12.3375ZM16.2759 17.5018H5.90931V16.5536H16.2759V17.5018Z" fill="white"/>
<path d="M2.65946 2.87143L2.98923 3.94286H3.60622V4.5375H4.01046L4.25513 4.73572H4.59022V22.0875L4.44661 22.7625V24.8464L4.1913 25.4625V26.4643H17.9673V25.4625L17.7067 24.8464V22.7839L17.5524 22.0875V4.73036H17.8716L18.1322 4.56429H18.5364V3.94286H19.18L19.5151 2.87143H2.65946ZM17.7492 25.5107V26.2446H4.40938V25.5107L4.64341 24.9482H17.5152L17.7492 25.5107ZM5.6806 6.76072H7.04756V6.225H10.4144V6.76072H11.7814V6.225H15.127V6.76072H16.4886V6.21429H17.345V21.9054H4.82957V6.21964H5.6806V6.76072ZM4.82957 6V4.73572H5.6806V6H4.82957ZM5.89336 6.53572V4.73572H6.81353V6.5625L5.89336 6.53572ZM7.03692 6V4.73572H10.4038V6H7.03692ZM10.6219 6.53572V4.73572H11.542V6.5625L10.6219 6.53572ZM11.7708 6V4.73572H15.1164V6H11.7708ZM15.3344 6.53572V4.73572H16.2546V6.5625L15.3344 6.53572ZM16.4833 6V4.73572H17.3397V6H16.4833ZM17.345 22.1411L17.478 22.7946V24.7286H4.67001V22.8L4.81894 22.1411H17.345ZM19.0364 3.74464H18.329V4.32857H18.079L17.8237 4.49464H4.34023L4.08493 4.32322H3.82962V3.7125H3.12752L2.93604 3.09643H19.2279L19.0364 3.74464Z" fill="white"/>
<path d="M126.59 14.1321C125.67 14.1299 124.778 14.449 124.065 15.0351C123.352 15.6212 122.863 16.438 122.681 17.3464H130.558C130.357 16.4369 129.854 15.6233 129.133 15.0392C128.412 14.4552 127.515 14.1353 126.59 14.1321ZM126.643 29.9946C119.564 29.9946 115.729 25.1732 115.729 19.2214C115.729 13.2696 119.984 8.50714 126.367 8.50714C127.78 8.47333 129.186 8.72616 130.501 9.2506C131.816 9.77503 133.012 10.5604 134.02 11.5599C135.027 12.5594 135.824 13.7528 136.365 15.069C136.905 16.3851 137.177 17.7973 137.164 19.2214C137.167 19.85 137.101 20.477 136.967 21.0911H122.463C122.616 22.0706 123.121 22.9593 123.882 23.5884C124.643 24.2175 125.606 24.5432 126.59 24.5036C128.516 24.5036 129.372 23.4321 130.143 22.3071H136.749C135.632 25.8 132.824 29.9946 126.643 29.9946ZM107.644 29.9946C105.16 29.9946 102.974 29.2339 101.618 27.7071L100.793 29.2286H97.868V21.1018H101.628C102.836 26.6196 108.751 26.6946 108.751 24.2839C108.751 22.8375 107.352 22.6768 104.15 21.6536C100.948 20.6304 97.8255 19.2804 97.8255 14.9946C97.8255 10.8804 101.49 8.26072 105.575 8.26072C108.394 8.26072 110.58 9.51429 111.293 10.4036L111.937 9.225H114.724V16.725H110.958C109.703 11.3679 104.288 12.1179 104.416 14.1964C104.501 15.6804 105.942 16.05 108.399 16.6339C111.942 17.4804 115.314 18.8411 115.314 23.4857C115.319 27.7125 111.974 29.9946 107.644 29.9946ZM40.7003 29.2339V24.1714H42.8279V17.4375H34.1847V24.1714H36.3654V29.2339H24.3979V24.1714H26.5946V5.25H24.3979V0.187502H36.3654V5.25H34.1847V12.375H42.8438V5.25H40.7163V0.187502H52.6572V5.25H50.5297V24.1714H52.6572V29.2339H40.7003Z" fill="#000099"/>
<path d="M62.9919 14.9571C62.1503 14.9571 61.3276 15.2085 60.6279 15.6794C59.9281 16.1503 59.3827 16.8197 59.0607 17.6028C58.7386 18.3859 58.6543 19.2476 58.8185 20.079C58.9827 20.9103 59.388 21.6739 59.9831 22.2733C60.5782 22.8727 61.3363 23.2809 62.1618 23.4462C62.9872 23.6116 63.8427 23.5267 64.6203 23.2023C65.3978 22.878 66.0623 22.3287 66.5299 21.6239C66.9975 20.9191 67.247 20.0905 67.247 19.2429C67.252 18.6787 67.1453 18.1191 66.9332 17.5969C66.7212 17.0747 66.4079 16.6002 66.0118 16.2013C65.6157 15.8023 65.1446 15.4868 64.6261 15.2732C64.1076 15.0596 63.5521 14.9521 62.9919 14.9571ZM62.9919 29.9946C60.8784 30.0031 58.8099 29.3798 57.0483 28.2037C55.2867 27.0276 53.9111 25.3515 53.0958 23.3876C52.2804 21.4237 52.0619 19.2602 52.4679 17.1712C52.8739 15.0821 53.8861 13.1614 55.3765 11.652C56.8669 10.1427 58.7684 9.11264 60.8402 8.69228C62.9121 8.27191 65.0613 8.48013 67.0156 9.29057C68.9699 10.101 70.6416 11.4772 71.819 13.245C72.9964 15.0128 73.6265 17.0927 73.6297 19.2214C73.6326 22.0693 72.5146 24.8023 70.5207 26.8216C68.5267 28.8409 65.8195 29.9819 62.9919 29.9946ZM87.4961 29.2339V26.9464C86.944 27.7897 86.1883 28.4779 85.2998 28.9464C84.4113 29.4149 83.4192 29.6484 82.4166 29.625C78.1614 29.625 75.1882 26.9464 75.1882 21.5143V14.2768H73.0021V9.25179H82.4432V20.3518C82.4432 21.8357 82.7038 23.5125 84.9962 23.5125C87.2887 23.5125 87.5174 21.8357 87.5174 20.3518V14.2768H85.3898V9.25179H94.799V24.1714H96.9266V29.2339H87.4961ZM60.3537 3.02679V1.41964H59.4708V6.04286H60.0027V7.28572H57.0773V6.05893H57.6092V1.43572H56.7262V3.04286H55.3167V0.187502H61.7739V3.02679H60.3537ZM68.4863 7.30179V6.05893H69.0182V3.64822H68.4863V2.40536H70.7947V6.05893H71.3266V7.30714H68.481L68.4863 7.30179ZM68.9065 0.187502H70.8692V1.62857H68.9065V0.187502ZM86.06 7.30179V6.05893H86.5919V1.43572H86.06V0.187502H88.3631V6.08036H88.895V7.32322L86.06 7.30179Z" fill="#000099"/>
<path d="M65.7152 7.30179V4.58036C65.7152 4.23215 65.6407 3.80357 65.1035 3.80357C64.5663 3.80357 64.4493 4.22679 64.4493 4.58036V6.05893H64.9812V7.30179H62.1356V6.05893H62.6674V1.43572H62.1675V0.187502H64.4333V2.98929C64.5689 2.7774 64.7569 2.60472 64.9789 2.48824C65.2009 2.37176 65.4491 2.31551 65.6992 2.325C66.763 2.325 67.4704 2.98929 67.4704 4.3125V6.05893H68.0023V7.30715H65.6992L65.7152 7.30179ZM74.2095 7.49465C73.9405 7.51234 73.6708 7.47389 73.4173 7.3817C73.1638 7.28952 72.9319 7.14559 72.7362 6.95893L72.5287 7.32857H71.8053V5.31429H72.7255C73.0181 6.66429 74.4648 6.68036 74.4648 6.09643C74.4648 5.74286 74.1244 5.7 73.3425 5.45357C72.5606 5.20714 71.8 4.86429 71.8 3.84643C71.8134 3.61164 71.8734 3.38194 71.9765 3.17094C72.0796 2.95995 72.2237 2.77194 72.4003 2.61807C72.5769 2.4642 72.7823 2.3476 73.0045 2.27517C73.2266 2.20275 73.461 2.17597 73.6936 2.19643C73.9506 2.18562 74.2071 2.22754 74.4476 2.31963C74.6881 2.41172 74.9075 2.55206 75.0924 2.73214L75.252 2.44286H75.9328V4.24822H74.9967C74.6935 2.93572 73.3691 3.11786 73.401 3.62679C73.401 3.99107 73.7787 4.08214 74.3744 4.22143C75.2414 4.43036 76.0658 4.75715 76.0658 5.89822C76.0871 6.95893 75.268 7.49465 74.2095 7.49465ZM92.4534 4.67679C92.4534 4.32857 92.3789 3.80357 91.7991 3.80357C91.2194 3.80357 91.1449 4.54286 91.1449 4.875C91.1449 5.20715 91.2619 5.94643 91.7991 5.94643C92.3363 5.94643 92.4534 5.46429 92.4534 5.11072V4.67679ZM92.4534 7.30179V6.83572C92.31 7.04072 92.1195 7.20773 91.8981 7.32248C91.6768 7.43722 91.4311 7.49629 91.1821 7.49465C89.762 7.49465 89.2248 6.21429 89.2248 4.89107C89.2248 3.56786 89.7567 2.325 91.1821 2.325C91.4331 2.31456 91.6825 2.37036 91.9055 2.48688C92.1284 2.6034 92.3173 2.77659 92.4534 2.98929V1.43572H91.7247V0.187502H94.2246V6.08036H94.7564V7.32857H92.448L92.4534 7.30179ZM82.156 1.85893C81.6786 1.87843 81.2284 2.08798 80.9042 2.44155C80.5801 2.79511 80.4086 3.26379 80.4273 3.74464C80.4173 3.98185 80.4543 4.21867 80.5362 4.44133C80.618 4.66398 80.743 4.868 80.9039 5.04152C81.0648 5.21503 81.2583 5.35456 81.4733 5.45197C81.6882 5.54939 81.9203 5.60275 82.156 5.60893C82.63 5.59077 83.0777 5.38462 83.4015 5.03541C83.7253 4.6862 83.899 4.22224 83.8846 3.74464C83.8977 3.26529 83.7243 2.79976 83.4013 2.44744C83.0783 2.09511 82.6314 1.88391 82.156 1.85893ZM82.156 7.5C81.1719 7.48887 80.2313 7.0902 79.5354 6.38934C78.8396 5.68848 78.4438 4.74111 78.4327 3.75C78.4327 3.00832 78.6511 2.2833 79.0602 1.66661C79.4693 1.04993 80.0508 0.569282 80.7311 0.285453C81.4115 0.00162482 82.1601 -0.0726377 82.8823 0.0720569C83.6046 0.216751 84.268 0.573904 84.7887 1.09835C85.3094 1.6228 85.664 2.29098 85.8076 3.01841C85.9513 3.74584 85.8776 4.49984 85.5958 5.18506C85.314 5.87029 84.8368 6.45596 84.2245 6.86801C83.6122 7.28007 82.8923 7.5 82.156 7.5Z" fill="#000099"/>
</svg>
