<?xml version="1.0" encoding="UTF-8"?><svg id="Layer_2" xmlns="http://www.w3.org/2000/svg" xmlns:xlink="http://www.w3.org/1999/xlink" viewBox="0 0 130.45 111.49"><defs><style>.cls-1{fill-rule:evenodd;}.cls-1,.cls-2{fill:#fff;}.cls-3{fill:url(#New_Gradient_Swatch_4);}.cls-4{fill:#373a36;}.cls-5{fill:#b2b2b2;stroke:#fff;stroke-miterlimit:10;stroke-width:2px;}.cls-6{fill:#836140;}</style><linearGradient id="New_Gradient_Swatch_4" x1="64.85" y1="6.97" x2="63.15" y2="96.33" gradientUnits="userSpaceOnUse"><stop offset=".01" stop-color="#8e9c9c"/><stop offset=".52" stop-color="#c0c6c7"/><stop offset=".65" stop-color="#a7b1b2"/><stop offset=".79" stop-color="#94a1a1"/><stop offset=".88" stop-color="#8e9c9c"/></linearGradient></defs><g id="Layer_1-2"><polygon class="cls-3" points="22.15 0 106.52 .18 106.49 69.6 65 88.27 22.09 69.46 22.15 0"/><polygon class="cls-1" points="79.74 26.83 79.74 39.46 61.52 39.46 60.08 39.46 53.53 39.46 53.53 73.11 61.52 73.11 61.52 47.45 87.72 47.45 87.72 46.37 87.72 39.46 87.72 26.83 79.74 26.83"/><rect class="cls-2" x="66.11" y="52.03" width="7.98" height="21.08"/><polygon class="cls-1" points="75.17 34.85 75.17 26.87 46.25 26.87 46.25 26.88 40.99 26.88 40.99 46.72 48.97 46.72 48.97 34.85 75.17 34.85"/><path class="cls-2" d="M41.3,9.51v2.6h-1.85v-7.71h2.9c1.78,0,2.92.78,2.92,2.5s-1.13,2.6-2.92,2.6h-1.05ZM42.01,7.97c.97,0,1.4-.29,1.4-1.06,0-.62-.42-.96-1.4-.96h-.71v2.02h.71Z"/><path class="cls-2" d="M47.73,10.57h3.02v1.54h-4.87v-7.71h1.85v6.17Z"/><path class="cls-2" d="M50.8,12.11l2.68-7.71h1.79l2.68,7.71h-1.98l-.41-1.32h-2.38l-.4,1.32h-1.98ZM53.66,9.25h1.42l-.7-2.28-.71,2.28Z"/><path class="cls-2" d="M63.2,4.4v1.54h-2.01v6.17h-1.85v-6.17h-2.01v-1.54h5.88Z"/><path class="cls-2" d="M65.78,12.11h-1.85v-7.71h1.85v7.71Z"/><path class="cls-2" d="M73.14,4.4v7.71h-1.5l-2.84-4.27v4.27h-1.74v-7.71h1.47l2.86,4.32v-4.32h1.74Z"/><path class="cls-2" d="M80.38,4.4v4.59c0,2.28-1.33,3.23-3.04,3.23s-3.04-.95-3.04-3.22v-4.6h1.85v4.6c0,1.13.33,1.68,1.18,1.68s1.18-.55,1.18-1.68v-4.6h1.85Z"/><path class="cls-2" d="M85.36,8.31l2.08-3.91h1.73v7.71h-1.74v-4.36l-1.59,3.08h-.99l-1.55-3.05v4.32h-1.74v-7.71h1.72l2.09,3.91Z"/><line class="cls-5" x1="22.09" y1="17.07" x2="106.51" y2="17.07"/><path class="cls-6" d="M3.92,100.33h-1.77v2.03H0v-3.96h11.04v3.96h-2.12s0-2.02,0-2.02h-1.77s0,8.99,0,8.99h1.19v1.89H2.54v-1.89h1.38v-9Z"/><path class="cls-4" d="M60.63,100.33h-1.77v2.03h-2.15v-3.96h11.04v3.96h-2.12s0-2.02,0-2.02h-1.77s0,8.99,0,8.99h1.19v1.89h-5.81v-1.89h1.38v-9Z"/><path class="cls-6" d="M9.86,104.91h-.94v-1.86h4.09v6.27h.83v1.89h-4.8v-1.89h.81v-4.41Z"/><path class="cls-6" d="M14.54,109.33h.89v-4.38h-.95v-1.89h3.82v1.62c.49-1.19,1.38-1.81,2.83-1.81,1.31,0,2.2.46,2.69,1.41.56-.95,1.48-1.43,2.74-1.43,1.98,0,2.9.95,2.9,2.93v3.54h.89v1.89h-4.94v-1.89h.79v-2.86c0-1.01-.26-1.43-1.11-1.43-.78,0-1.11.51-1.11,1.55v2.74h.73v1.89h-4.63v-1.89h.75v-2.86c0-.97-.29-1.43-1.06-1.43-.84,0-1.18.51-1.18,1.55v2.74h.78v1.89h-4.82v-1.89Z"/><path class="cls-6" d="M31.08,101.58h-.95v-1.84h4.11v4.49c.65-.95,1.5-1.36,2.76-1.36,2.15,0,3.48,1.43,3.48,4.11,0,2.96-1.19,4.46-3.56,4.46-1.28,0-2.23-.51-2.93-1.55v1.33h-3.78v-1.89h.89v-7.74ZM35.64,109.24c1.02,0,1.55-.72,1.55-2.13s-.53-2.13-1.55-2.13-1.57.73-1.57,2.13.55,2.13,1.57,2.13Z"/><path class="cls-6" d="M49.11,108.75c-.26,1.72-1.58,2.67-3.78,2.67-2.84,0-4.51-1.69-4.51-4.31s1.69-4.26,4.31-4.26,4.19,1.57,4.19,4.31c0,.22-.02.46-.03.72h-5.38v.05c0,.94.46,1.43,1.28,1.43.44,0,.8-.2,1.02-.61h2.91ZM46.33,106.28c-.03-.95-.48-1.48-1.21-1.48s-1.14.49-1.23,1.48h2.44Z"/><path class="cls-6" d="M50.59,104.91h-.95v-1.86h4.11v1.69c.48-1.26,1.23-1.89,2.27-1.89.22,0,.44.03.68.09v2.76c-.39-.09-.73-.14-1.06-.14-1.23,0-1.89.65-1.89,1.82v1.94h.89v1.89h-4.92v-1.89h.89v-4.41Z"/><path class="cls-4" d="M73.55,108.81c-.25,1.71-1.57,2.66-3.76,2.66-2.83,0-4.49-1.68-4.49-4.28s1.68-4.23,4.28-4.23,4.16,1.56,4.16,4.28c0,.22-.02.46-.03.71h-5.35v.05c0,.93.46,1.42,1.27,1.42.44,0,.8-.2,1.02-.61h2.89ZM70.79,106.36c-.03-.95-.47-1.47-1.2-1.47s-1.13.49-1.22,1.47h2.42Z"/><path class="cls-4" d="M78.77,105.05c-.93,0-1.42.74-1.42,2.2s.41,2.2,1.39,2.2c.76,0,1.17-.39,1.27-1.2h2.61c-.07,2.15-1.44,3.23-4.08,3.23-2.86,0-4.44-1.57-4.44-4.44,0-2.44,1.51-4.08,3.72-4.08,1.13,0,1.98.44,2.42,1.2v-1.02h2.3v3.22h-2.51c-.08-.91-.47-1.32-1.27-1.32Z"/><path class="cls-4" d="M83.03,109.39h.95v-7.88h-.95v-1.83h4.08v5.06c.32-1.22,1.19-1.78,2.69-1.78,1.9,0,2.79.93,2.79,2.88v3.56h.93v1.88h-4.9v-1.88h.84v-2.88c0-.98-.29-1.44-1.1-1.44s-1.25.51-1.25,1.54v2.78h.82v1.88h-4.9v-1.88Z"/><path class="cls-4" d="M92.81,101.22c.34,0,.61-.27.61-.63s-.27-.63-.61-.63-.62.27-.62.63.27.63.62.63M92.04,100.58c0-.44.35-.76.77-.76s.77.32.77.76-.35.76-.77.76-.77-.32-.77-.76"/><path class="cls-4" d="M92.98,101l-.17-.34h-.12v.34h-.17v-.85h.33c.17,0,.28.12.28.26,0,.12-.07.19-.15.22l.19.37h-.19ZM92.85,100.3h-.16v.22h.16c.07,0,.12-.05.12-.11s-.05-.11-.12-.11Z"/><path class="cls-4" d="M102.88,106.99v4.16h-2.96v-12.32h4.64c2.84,0,4.66,1.25,4.66,4s-1.8,4.16-4.66,4.16h-1.68ZM104.02,104.53c1.55,0,2.23-.46,2.23-1.7,0-1-.68-1.54-2.23-1.54h-1.14v3.23h1.14Z"/><path class="cls-4" d="M116.75,111.15l-2.05-4.66h-1.54v4.66h-2.96v-12.32h4.64c2.84,0,4.66,1.3,4.66,3.87,0,1.61-.71,2.7-1.96,3.27l2.46,5.18h-3.25ZM114.49,104.03c1.2,0,2.05-.16,2.05-1.32s-.86-1.41-2.05-1.41h-1.32v2.73h1.32Z"/><path class="cls-4" d="M125.59,111.33c-2.8,0-4.86-1.7-4.86-5.37v-1.93c0-3.71,2.05-5.37,4.86-5.37s4.86,1.66,4.86,5.37v1.93c0,3.68-2.05,5.37-4.86,5.37ZM123.7,105.96c0,2.02.66,2.91,1.89,2.91s1.89-.89,1.89-2.91v-1.93c0-2.02-.66-2.91-1.89-2.91s-1.89.89-1.89,2.91v1.93Z"/></g></svg>